<?xml version="1.0" encoding="UTF-8"?>
<svg id="Layer_2" data-name="Layer 2" xmlns="http://www.w3.org/2000/svg" xmlns:xlink="http://www.w3.org/1999/xlink" viewBox="0 0 1181.92 334.97">
  <defs>
    <style>
      .cls-1 {
        fill: #db4468;
      }

      .cls-2 {
        letter-spacing: -.01em;
      }

      .cls-3 {
        stroke: #f3f1f9;
        stroke-width: 25px;
      }

      .cls-3, .cls-4 {
        fill: #f3f1f9;
      }

      .cls-3, .cls-4, .cls-5 {
        font-family: FredokaOne-Regular, 'Fredoka One';
      }

      .cls-3, .cls-5 {
        font-size: 110px;
        stroke-miterlimit: 10;
      }

      .cls-6 {
        fill: #ff517b;
      }

      .cls-7 {
        clip-path: url(#clippath);
      }

      .cls-8 {
        fill: none;
      }

      .cls-4 {
        font-size: 100px;
      }

      .cls-5 {
        stroke: #f3f1f8;
        stroke-width: .25px;
      }
    </style>
    <clipPath id="clippath">
      <path class="cls-8" d="m663.51,205.99l-636.15-.98q.35,0,.35-1.01l5.78-165.71q.22-.29.51-.28l636.04.98c3.09,0,5.56,3.58,5.44,6.68l-6.55,155.14c-.12,2.9-2.51,5.19-5.42,5.19Z"/>
    </clipPath>
  </defs>
  <g id="Banner_Art" data-name="Banner Art">
    <g>
      <polygon points="22.45 50.2 16.1 217.2 652.09 218.17 658.44 51.17 22.45 50.2"/>
      <path d="m670.8,39.32c-2.52-2.63-6.05-4.14-9.69-4.15l-641.04-.98h-.02c-7.27,0-13.19,5.68-13.5,12.98L.01,219.21c-.15,3.63,1.2,7.22,3.72,9.85,2.51,2.63,6.04,4.14,9.68,4.14l641.15.98h.02c7.21,0,13.1-5.64,13.4-12.88l6.55-172.11c.15-3.64-1.21-7.23-3.73-9.86ZM16.1,217.2l6.35-167,635.99.98-6.35,167-635.99-.98Z"/>
    </g>
    <g>
      <polygon class="cls-6" points="33.39 38.01 27.04 205.01 669.03 205.99 675.38 38.99 33.39 38.01"/>
      <path d="m687.74,27.14c-2.52-2.63-6.05-4.14-9.69-4.15l-647.03-.98h-.02c-7.27,0-13.19,5.68-13.5,12.98l-6.54,172.04c-.15,3.63,1.2,7.22,3.72,9.85,2.51,2.63,6.04,4.14,9.68,4.14l647.15.98h.02c7.21,0,13.1-5.64,13.4-12.88l6.55-172.11c.15-3.64-1.21-7.23-3.72-9.86Zm-18.71,178.85l-641.99-.98,6.35-167,641.99.98-6.35,167Z"/>
    </g>
    <g id="Pattern_BG_clip_" data-name="Pattern BG (clip)">
      <g class="cls-7">
        <path class="cls-1" d="m834.71,201.35c-25.69,33.64-51.32,67.33-77.08,100.91-121.27,158.09-242.58,316.15-363.88,474.23-6.19,8.07-7.71,8.35-15.44,2.42C252.12,682.11,125.94,585.29-.24,488.47c-63.73-48.9-127.44-97.82-191.14-146.75-7.03-5.4-7.17-6.66-1.64-13.86C-84.62,186.56,23.79,45.28,132.2-96c37.4-48.74,74.8-97.47,112.22-146.19,5.67-7.38,7-7.46,14.43-1.76C428.66-113.64,598.48,16.67,768.3,146.98c19.9,15.27,39.82,30.53,59.7,45.83,2.34,1.8,4.47,3.85,6.7,5.78v2.76ZM28.31,57.57c-7.23,9.42-13.91,17.9-20.27,26.62-1.18,1.62-1.62,4.26-1.43,6.34,2.44,26.26,14.87,46.21,37.32,60.34,10.88,6.85,21.32,14.56,31.13,22.87,11.27,9.54,17.78,21.87,14.83,37.23-5.45,28.41-22.94,47.51-48.21,59.95-11.52,5.67-23.28,4.67-34.18-2.18-15.18-9.55-30.49-18.95-45.17-29.23-15.79-11.06-30.93-23.06-46.81-35-16.02,20.87-31.88,41.43-47.55,62.14-1.03,1.36-1.11,3.96-.72,5.79,6.25,29.11,30.79,51.67,60.36,54.63,16.16,1.62,32.47,1.6,48.68,2.8,33.19,2.44,57.38,23.95,62.92,56.56,1.68,9.9,1.99,20.21,1.5,30.27-.7,14.25,5.14,24.83,15.51,33.7,4.37,3.74,8.6,7.66,12.79,11.6,10.54,9.92,14.14,21.95,9.83,35.79-2.24,7.21-4.77,14.55-8.61,20.97-3.46,5.79-2.12,8.34,2.75,12.04,40.7,30.92,81.19,62.11,121.75,93.2,12.35,9.46,13.07,9.35,23.11-2.82,9.47-11.48,9.25-19.01-.88-29.6-1.91-2-3.83-3.99-5.78-5.94-24.48-24.58-25.02-41.51-2.51-68.26,7.4-8.79,14.64-17.77,21.33-27.1,8.63-12.04,10.06-25.14,2.62-38.3-5.77-10.19-12.09-20.09-18.5-29.9-14.46-22.13-29.83-43.7-43.5-66.3-13.27-21.94-15.94-46.4-10.83-71.33,3.22-15.7,7.59-31.19,12.13-46.58,6.86-23.22,1.32-42.34-18.1-56.81-15.49-11.54-30.96-23.25-47.38-33.36-26.9-16.56-50.84-35.65-65.27-64.61-4.08-8.18-8.24-16.32-12.89-25.53ZM494.36-48.29c-.63-.8-1.05-1.63-1.72-2.14-31.57-24.28-63.13-48.58-94.83-72.68-1.67-1.27-4.79-1.72-6.88-1.18-18.35,4.71-34.99,12.84-48.19,26.73-15.18,15.97-26.8,43.54-10,70.9,3.25,5.29,6.27,10.73,9.35,16.12,10.78,18.83,14.46,38.65,7.67,59.66-3.03,9.37-6.54,18.6-10.33,27.69-8.66,20.78-18.79,41.03-26.16,62.25-9.21,26.54-2.62,46.15,18.51,61.57,24.05,17.55,51.46,25.71,80.9,28.27,22.98,2,38.92-7.13,48.81-27.95,5.91-12.45,12.18-24.82,19.46-36.49,5.79-9.28,12.37-18.51,20.32-25.92,19-17.71,41.09-17.07,63.57-7.38,12.85,5.54,25.26,12.07,37.98,17.9,14.56,6.67,28.46,5.82,41.44-4.22,16.04-12.41,26.94-28.75,36.3-46.38,2.39-4.5-1.24-5.65-3.61-7.47-52.4-40.25-105.13-80.08-156.98-121.02-10.95-8.65-20.8-8.6-32.36-4.89-2.83.91-5.55,2.21-8.25,3.5-17.5,8.36-30.93,29.58-29.71,47.14,1.52,21.82,14.59,35.57,32.53,45.64,17.57,9.86,33.14,5.34,48.64-5.92,7.37-5.35,16.46-9.38,25.37-11.35,26.03-5.79,48.24,3.9,68.27,19.8,3.51,2.79,9.52,5.8,4.98,11.38-4.28,5.27-8.21.3-11.56-2.53-25.94-21.86-60.99-27.13-86.82-4.91-14.37,12.36-32.38,13.58-49.93,5.05-6.35-3.09-12.55-6.86-18.07-11.24-44-34.94-22.34-88.54,13.68-103.54,5.65-2.35,11.52-4.18,17.63-6.37Zm70.5,583.59c-4.92-2.84-8.67-5.55-12.84-7.28-6.77-2.82-13.83-4.91-20.71-7.47-18.59-6.91-26.15-17.49-27.19-37.25-.64-12.17-1.15-24.38-2.65-36.46-4.47-36.18-34.45-56.53-69.6-47.67-2,.51-4.06.87-5.99,1.58-22.02,8.1-41.8,3.63-60.37-9.95-6.83-4.99-14.33-9.24-21.96-12.92-12.67-6.11-23.39-3.75-32.12,6.67-6.22,7.43-7.04,16.75-5.58,25.59,2.97,18.09,5.64,36.47,11.14,53.87,11.95,37.86,25.54,75.2,38.59,112.7,5.8,16.67,10.85,33.73,7.4,51.3-2.81,14.3-7.38,28.47-12.98,41.95-10.45,25.15-7.94,48.05,8.85,69.3,8.16,10.33,16.85,20.23,25.79,30.92,60.59-78.96,119.99-156.36,180.24-234.88Zm178.36-232.42c-9.26-13.77-20.45-25.22-34.01-34.2-19.51-12.93-39.76-17.75-61.19-4.19-1.73,1.1-3.63,1.95-5.49,2.83-17.64,8.26-35.73,11.38-54.75,5.01-10.46-3.5-20.95-6.96-31.56-9.97-10.57-3-21.18-6.14-31.99-7.9-17.02-2.77-28.89,4.57-34.37,19.53-4.77,13.03.21,24.01,8.64,32.84,11.55,12.11,24.07,23.43,37.04,34.02,24.78,20.25,50.4,39.65,69.8,65.44,9.82,13.06,17.77,27.52,26.67,41.51,36.64-47.74,73.86-96.24,111.22-144.93ZM252.33-234.91c-.83,1.31-1.26,2.13-1.82,2.86-32.62,42.55-65.29,85.07-97.72,127.76-1.27,1.68-1.33,5.7-.2,7.55,7,11.49,11.35,23.74,10.6,37.22-.74,13.25,3.58,23.31,14.24,31.7,19.64,15.43,24.77,34.72,15.55,54.75-6.37,13.83-17.12,23.06-31.9,28.22,1.14,1.52,1.77,2.76,2.75,3.6,22.29,19.08,46.71,24.67,71.31,1.31,15.74-14.95,25.92-32.48,21.5-55.23-1.75-8.97-4.16-17.96-7.53-26.45-9.76-24.6-5.5-46.85,10.12-67.43,9.6-12.65,19.15-25.36,29.38-37.48,17.83-21.14,18.71-44.52,10.34-69.36-.76-2.26-2.18-4.7-4.01-6.15-13.74-10.81-27.66-21.39-42.59-32.87ZM64.76,10.02c9.72,7.73,18.65,15.27,28.04,22.19,17.78,13.1,37.25,19.81,59.55,14.11,17.15-4.39,29.4-14.1,33.15-32.11,3.3-15.86-5.97-26.14-17.1-35.07-12.14-9.73-17.17-22.27-16.35-37.55.62-11.73-2.5-22.36-9.68-32.66C116.48-57.37,91.16-24.38,64.76,10.02Zm755.73,192.17c-.52-.78-.78-1.5-1.3-1.9-19.09-14.76-38.19-29.51-57.37-44.15-1.05-.8-3.31-1.38-4.21-.81-9.61,6.09-19.91,11.48-28.31,18.98-7.28,6.51-4.91,15.65,3.8,20.48,5.19,2.88,10.79,5.01,16.21,7.46,6.78,3.07,11.18,8.08,11.78,15.64.25,3.14-.57,6.37-.83,9.56-.55,6.69,3.4,12.44,10.45,15.3,8.11,3.29,16.95,2.14,20.83-2.89,9.69-12.53,19.31-25.12,28.94-37.67Zm-516.4,421.17c-1.18-9.78-1.36-19.11-3.61-27.91-2.52-9.87-6.26-19.58-10.73-28.75-3.12-6.4-7.73-6.86-13.16-3.49-10.69,6.62-18.18,26.29-14.35,38.34,4.69,14.75,13.03,27.25,24.36,37.72,1.97,1.82,4.55,3.03,6.91,4.39,3.95,2.27,6.72,1.18,7.63-3.3,1.18-5.81,2.05-11.69,2.96-17Zm-76.32-338.51c-.1,9.9,2.08,19.32,8.56,26.88,2.53,2.95,7.15,5.64,10.9,5.75,15.07.47,28.22-5.49,39.45-15.17,6.77-5.83,6.42-9.78-.38-15.9-11.63-10.47-25.06-17.61-40.5-20.6-11.58-2.24-16.72,1.7-18,13.53-.2,1.81-.03,3.67-.03,5.5Z"/>
      </g>
    </g>
    <g id="Banner_outline" data-name="Banner outline">
      <path d="m687.74,27.14c-2.52-2.63-6.05-4.14-9.69-4.15l-647.03-.98h-.02c-7.27,0-13.19,5.68-13.5,12.98l-6.54,172.04c-.15,3.63,1.2,7.22,3.72,9.85,2.51,2.63,6.04,4.14,9.68,4.14l647.15.98h.02c7.22,0,13.1-5.64,13.4-12.88l6.55-172.11c.15-3.64-1.21-7.23-3.72-9.86Zm-18.71,178.85l-641.99-.98,6.35-167,641.99.98-6.35,167Z"/>
    </g>
    <path id="_2023_BG_bannr_dro-shadow" data-name="2023 BG bannr dro-shadow" class="cls-6" d="m1061.78,144h-413.51c-.48,0-.87-.41-.84-.89l6.63-123.08c.18-3.38,2.98-6.03,6.36-6.03h409.49c.23,0,.46,0,.68.03,5.32.45,8.35,6.36,5.98,11.15l-26.7,53.83,18.96,54.68c1.62,4.67-1.44,9.86-6.36,10.29-.23.02-.47.03-.7.03Z"/>
    <path id="_2023_banner" data-name="2023 banner" d="m1075.61,130h-413.51c-.48,0-.87-.41-.84-.89l6.63-123.08c.18-3.38,2.98-6.03,6.36-6.03h409.49c.23,0,.46,0,.68.03,5.32.45,8.35,6.36,5.98,11.15l-26.7,53.83,18.96,54.68c1.62,4.67-1.44,9.86-6.36,10.29-.23.02-.47.03-.7.03Z"/>
  </g>
  <g id="_2023_Text" data-name="2023 Text">
    <text class="cls-4" transform="translate(748.02 101)"><tspan x="0" y="0">2023</tspan></text>
  </g>
  <g id="_notGDC_text" data-name="#notGDC text">
    <text id="_notGDC_-_white_outline" data-name="#notGDC - white outline" class="cls-3" transform="translate(96.66 163.14)"><tspan x="0" y="0">#n</tspan><tspan class="cls-2" x="149.05" y="0">o</tspan><tspan x="213.4" y="0">tGDC</tspan></text>
    <text id="_notGDC_-_black" data-name="#notGDC - black" class="cls-5" transform="translate(96.71 162.96)"><tspan x="0" y="0">#n</tspan><tspan class="cls-2" x="149.05" y="0">o</tspan><tspan x="213.4" y="0">tGDC</tspan></text>
  </g>
  <g id="March_20_-_24" data-name="March 20 - 24">
    <g>
      <path d="m830.19,182.53c-1.61-.92-3.61-1.38-6-1.38-.88,0-1.81.11-2.78.33-.97.22-1.92.57-2.83,1.04-.92.48-1.75,1.04-2.5,1.71-.55.49-1.03,1.08-1.48,1.72-.45-.91-.96-1.68-1.55-2.27-.9-.92-1.93-1.57-3.08-1.95-1.16-.39-2.41-.58-3.77-.58-.81,0-1.65.09-2.53.27-.88.18-1.74.49-2.58.91s-1.61.96-2.31,1.62c-.25.24-.47.51-.7.79l-.24-2.99h-9.57v29.31h10.23v-17.49c0-.59.11-1.12.33-1.59.22-.48.51-.9.88-1.27s.82-.65,1.35-.85c.53-.2,1.11-.3,1.73-.3.81,0,1.49.17,2.04.52.55.35.97.83,1.26,1.46.29.62.44,1.39.44,2.31v17.21h10.23v-17.44c0-.62.11-1.16.33-1.62.22-.46.51-.88.88-1.26.37-.39.82-.68,1.35-.88.53-.2,1.11-.3,1.73-.3.81,0,1.49.17,2.04.5.55.33.97.82,1.26,1.46.29.64.44,1.44.44,2.39v17.16h10.23v-17.98c0-2.57-.4-4.74-1.21-6.52-.81-1.78-2.02-3.13-3.63-4.04Z"/>
      <path d="m861.38,184.99c-.5-.61-1.04-1.18-1.65-1.69-.84-.7-1.83-1.23-2.97-1.6-1.14-.37-2.38-.55-3.74-.55-2.53,0-4.77.65-6.71,1.95-1.94,1.3-3.46,3.09-4.56,5.36-1.1,2.27-1.65,4.91-1.65,7.92s.56,5.55,1.68,7.84c1.12,2.29,2.64,4.09,4.56,5.39,1.92,1.3,4.1,1.95,6.52,1.95,1.36,0,2.59-.19,3.71-.58,1.12-.38,2.14-.92,3.05-1.6.57-.42,1.07-.91,1.54-1.43v3.11h10.29v-29.31h-10.06v3.23Zm-.63,15.03c-.46,1.03-1.11,1.81-1.95,2.34-.84.53-1.85.8-3.03.8s-2.17-.27-3-.8c-.83-.53-1.46-1.31-1.9-2.34-.44-1.03-.66-2.24-.66-3.63s.22-2.66.66-3.69c.44-1.03,1.07-1.81,1.9-2.34.82-.53,1.82-.8,3-.8s2.18.27,3.03.8c.84.53,1.49,1.31,1.95,2.34.46,1.03.69,2.25.69,3.69s-.23,2.6-.69,3.63Z"/>
      <path d="m897.51,181.16c-1.58,0-3.08.38-4.51,1.13-1.43.75-2.65,1.78-3.66,3.08-.14.18-.26.37-.4.56l-.24-4.16h-9.57v29.31h10.29v-14.02c0-.81.11-1.51.33-2.12s.53-1.13.94-1.57c.4-.44.9-.78,1.48-1.02.59-.24,1.25-.36,1.98-.36.84,0,1.63.1,2.37.3.73.2,1.3.43,1.7.69l2.81-11.33c-.51-.15-1.06-.27-1.65-.36-.59-.09-1.21-.14-1.87-.14Z"/>
      <path d="m915.06,190.73c.92-.55,1.98-.82,3.19-.82.92,0,1.75.12,2.5.36.75.24,1.44.57,2.06.99.62.42,1.14.89,1.54,1.4l5.55-6.6c-1.32-1.58-3.09-2.79-5.31-3.63-2.22-.84-4.65-1.27-7.29-1.27-2.9,0-5.49.66-7.78,1.98-2.29,1.32-4.1,3.13-5.42,5.42-1.32,2.29-1.98,4.9-1.98,7.84s.66,5.55,1.98,7.84c1.32,2.29,3.12,4.1,5.42,5.42,2.29,1.32,4.89,1.98,7.78,1.98,2.6,0,5.01-.42,7.23-1.26,2.22-.84,4-2.04,5.36-3.58l-5.55-6.65c-.44.55-.96,1.03-1.57,1.43-.6.4-1.28.72-2.03.94-.75.22-1.59.33-2.5.33-1.21,0-2.28-.29-3.22-.88-.93-.59-1.64-1.36-2.12-2.31-.48-.95-.71-2.05-.71-3.3s.25-2.36.74-3.33c.5-.97,1.2-1.73,2.12-2.28Z"/>
      <path d="m958.53,182.5c-1.52-.9-3.38-1.35-5.58-1.35-1.61,0-3.15.31-4.62.94-1.47.62-2.73,1.48-3.79,2.56-.02.02-.04.04-.05.06v-14.34h-10.01v40.7h10.29v-17.49c0-.59.1-1.12.3-1.59.2-.48.5-.91.91-1.29.4-.39.87-.67,1.4-.85.53-.18,1.11-.27,1.73-.27.81-.04,1.5.11,2.09.44.59.33,1.03.82,1.32,1.46.29.64.44,1.44.44,2.39v17.21h10.23v-18.04c0-2.57-.39-4.74-1.18-6.52-.79-1.78-1.94-3.12-3.47-4.01Z"/>
      <path d="m1005.81,197.49c1.14-1.25,2.13-2.43,2.97-3.55.84-1.12,1.56-2.18,2.14-3.19.59-1.01,1.06-1.95,1.43-2.83.37-.88.63-1.73.8-2.56.17-.83.25-1.6.25-2.34,0-2.27-.57-4.26-1.7-5.97-1.14-1.71-2.66-3.03-4.57-3.99-1.91-.95-4.01-1.45-6.33-1.49-2.16-.04-4.23.42-6.19,1.38-1.96.95-3.69,2.26-5.2,3.93-1.5,1.67-2.66,3.57-3.46,5.69l7.97,4.18c.62-1.21,1.24-2.19,1.84-2.94.6-.75,1.24-1.3,1.9-1.65.66-.35,1.36-.52,2.09-.52.84,0,1.53.14,2.06.41.53.28.93.62,1.18,1.05.26.42.38.89.38,1.4,0,.66-.22,1.44-.66,2.34-.44.9-1.02,1.81-1.73,2.75s-1.45,1.85-2.2,2.75c-.75.9-1.46,1.7-2.12,2.39l-11,11.83,1.87,4.51h27.78v-9.4h-13.36l3.84-4.18Z"/>
      <path d="m1044.09,174.36c-2.6-1.56-5.76-2.34-9.46-2.34s-6.85.78-9.43,2.34c-2.58,1.56-4.55,3.81-5.88,6.77-1.34,2.95-2.01,6.52-2.01,10.7s.67,7.75,2.01,10.7c1.34,2.95,3.3,5.21,5.88,6.77,2.58,1.56,5.73,2.34,9.43,2.34s6.86-.78,9.46-2.34c2.6-1.56,4.57-3.81,5.91-6.77,1.34-2.95,2.01-6.52,2.01-10.7s-.67-7.75-2.01-10.7c-1.34-2.95-3.31-5.21-5.91-6.77Zm-4.26,25.41c-1.23,1.85-2.96,2.78-5.2,2.78s-3.97-.93-5.2-2.78c-1.23-1.85-1.84-4.5-1.84-7.95s.61-6.36,1.84-8.31c1.23-1.94,2.96-2.92,5.2-2.92s3.97.97,5.2,2.92c1.23,1.94,1.84,4.71,1.84,8.31s-.62,6.1-1.84,7.95Z"/>
      <rect x="1075.44" y="190.67" width="20.41" height="9.18"/>
      <path d="m1137.86,197.49c1.14-1.25,2.13-2.43,2.97-3.55.84-1.12,1.56-2.18,2.14-3.19.59-1.01,1.06-1.95,1.43-2.83.37-.88.63-1.73.8-2.56.17-.83.25-1.6.25-2.34,0-2.27-.57-4.26-1.7-5.97-1.14-1.71-2.66-3.03-4.57-3.99-1.91-.95-4.01-1.45-6.33-1.49-2.16-.04-4.23.42-6.19,1.38-1.96.95-3.69,2.26-5.2,3.93-1.5,1.67-2.66,3.57-3.46,5.69l7.97,4.18c.62-1.21,1.24-2.19,1.84-2.94.6-.75,1.24-1.3,1.9-1.65.66-.35,1.36-.52,2.09-.52.84,0,1.53.14,2.06.41.53.28.93.62,1.18,1.05.26.42.38.89.38,1.4,0,.66-.22,1.44-.66,2.34-.44.9-1.02,1.81-1.73,2.75s-1.45,1.85-2.2,2.75c-.75.9-1.46,1.7-2.12,2.39l-11,11.83,1.87,4.51h27.78v-9.4h-13.36l3.84-4.18Z"/>
      <path d="m1181.92,195.57h-6.05v-23.43h-8.91l-20.02,23.92,4.4,8.25h14.02v6.77h10.5v-6.77h6.05v-8.74Zm-22.71,0l6.15-7.5v7.5h-6.15Z"/>
    </g>
    <g>
      <path class="cls-6" d="m709.85,214.81c0-12.31,0-24.61,0-36.92.03-.06.07-.13.09-.19.69-3.64,3.47-5.95,7.16-5.96.69,0,1.38,0,2.12,0,0-1.39.05-2.72-.01-4.05-.06-1.45.45-2.48,1.85-2.98h3.41c1.38.54,1.89,1.57,1.8,3.02-.07,1.15-.01,2.31-.01,3.46,0,.17,0,.35,0,.52h19.06c0-.23,0-.43,0-.63,0-1.34,0-2.67,0-4.01,0-.83.35-1.49,1.03-1.95.23-.16.5-.27.76-.41,1.14,0,2.27,0,3.41,0,1.4.51,1.92,1.54,1.85,2.98-.06,1.33-.01,2.66-.01,4.05.83,0,1.61,0,2.39,0,3.13.03,5.89,2.14,6.72,5.15.09.33.17.66.25,1v36.92c-.04.1-.08.2-.1.3-.58,2.86-2.28,4.71-5.05,5.6-.33.1-.66.17-1,.26h-39.55c-.08-.03-.16-.08-.25-.1-2.17-.38-3.85-1.5-4.92-3.41-.45-.81-.67-1.76-.99-2.64Zm4.74-26.54c-.01.15-.04.28-.04.4,0,8.4,0,16.8,0,25.21,0,1.14.65,2.02,1.68,2.29.33.09.69.09,1.03.09,6.68,0,13.36-.01,20.04-.02,5.67,0,11.35.01,17.02.02,1.78,0,2.68-.89,2.68-2.65,0-8.26,0-16.51,0-24.77,0-.19-.02-.38-.03-.58h-42.4Z"/>
      <path class="cls-6" d="m732.47,205.73c.16-.22.26-.41.4-.55,3.63-3.64,7.27-7.27,10.9-10.91.64-.64,1.36-.98,2.27-.8,1.67.32,2.45,2.25,1.47,3.64-.15.21-.33.39-.51.57-4.31,4.31-8.62,8.62-12.93,12.93-1.43,1.43-2.9,1.31-4.1-.33-2.04-2.79-4.09-5.58-6.13-8.36-.6-.81-.69-1.7-.21-2.58.46-.84,1.21-1.26,2.17-1.22.8.04,1.4.45,1.87,1.09,1.42,1.95,2.85,3.9,4.28,5.84.13.18.26.35.52.68Z"/>
    </g>
    <g>
      <path d="m46.88,326.17c-1.73,0-3.31-.48-4.74-1.44-1.43-.96-2.57-2.27-3.42-3.92-.85-1.65-1.28-3.52-1.28-5.6s.43-3.98,1.3-5.62c.87-1.64,2.04-2.93,3.52-3.86,1.48-.93,3.14-1.4,4.98-1.4,1.09,0,2.09.16,3,.48.91.32,1.7.77,2.38,1.34.68.57,1.24,1.23,1.68,1.98.44.75.71,1.55.82,2.4l-.92-.32v-5.44h4.16v21h-4.16v-5l.96-.28c-.16.72-.49,1.42-.98,2.1-.49.68-1.12,1.29-1.88,1.82-.76.53-1.6.96-2.52,1.28s-1.89.48-2.9.48Zm1.08-3.8c1.25,0,2.36-.31,3.32-.92s1.71-1.46,2.26-2.54c.55-1.08.82-2.31.82-3.7s-.27-2.57-.82-3.64c-.55-1.07-1.3-1.91-2.26-2.52s-2.07-.92-3.32-.92-2.31.31-3.26.92c-.95.61-1.69,1.45-2.24,2.52-.55,1.07-.82,2.28-.82,3.64s.27,2.62.82,3.7c.55,1.08,1.29,1.93,2.24,2.54.95.61,2.03.92,3.26.92Z"/>
      <path d="m84.72,334.97c-1.49,0-2.98-.23-4.46-.7-1.48-.47-2.67-1.07-3.58-1.82l1.52-3.2c.53.4,1.16.75,1.88,1.06.72.31,1.48.55,2.28.72.8.17,1.59.26,2.36.26,1.47,0,2.69-.24,3.68-.72.99-.48,1.73-1.19,2.24-2.12.51-.93.76-2.09.76-3.48v-4.04l.44.28c-.13.83-.57,1.62-1.3,2.38-.73.76-1.65,1.38-2.74,1.86-1.09.48-2.21.72-3.36.72-2,0-3.78-.47-5.34-1.42s-2.79-2.24-3.7-3.88c-.91-1.64-1.36-3.51-1.36-5.62s.45-3.98,1.34-5.62c.89-1.64,2.12-2.93,3.68-3.88s3.31-1.42,5.26-1.42c.8,0,1.57.1,2.32.3.75.2,1.44.48,2.08.84.64.36,1.21.75,1.72,1.18.51.43.92.88,1.24,1.36.32.48.52.93.6,1.36l-.88.32v-4.92h4.12v19.72c0,1.68-.25,3.17-.74,4.46-.49,1.29-1.21,2.39-2.14,3.28-.93.89-2.07,1.57-3.4,2.04-1.33.47-2.84.7-4.52.7Zm.16-12.6c1.31,0,2.47-.31,3.48-.92,1.01-.61,1.8-1.45,2.36-2.52.56-1.07.84-2.29.84-3.68s-.29-2.62-.86-3.7c-.57-1.08-1.36-1.93-2.36-2.54s-2.15-.92-3.46-.92-2.42.31-3.42.94-1.79,1.48-2.36,2.56c-.57,1.08-.86,2.3-.86,3.66s.29,2.58.86,3.66c.57,1.08,1.36,1.93,2.36,2.54s2.14.92,3.42.92Z"/>
      <path d="m109.36,326.17c-1.73,0-3.31-.48-4.74-1.44-1.43-.96-2.57-2.27-3.42-3.92-.85-1.65-1.28-3.52-1.28-5.6s.43-3.98,1.3-5.62c.87-1.64,2.04-2.93,3.52-3.86,1.48-.93,3.14-1.4,4.98-1.4,1.09,0,2.09.16,3,.48.91.32,1.7.77,2.38,1.34.68.57,1.24,1.23,1.68,1.98.44.75.71,1.55.82,2.4l-.92-.32v-5.44h4.16v21h-4.16v-5l.96-.28c-.16.72-.49,1.42-.98,2.1-.49.68-1.12,1.29-1.88,1.82-.76.53-1.6.96-2.52,1.28s-1.89.48-2.9.48Zm1.08-3.8c1.25,0,2.36-.31,3.32-.92s1.71-1.46,2.26-2.54c.55-1.08.82-2.31.82-3.7s-.27-2.57-.82-3.64c-.55-1.07-1.3-1.91-2.26-2.52s-2.07-.92-3.32-.92-2.31.31-3.26.92c-.95.61-1.69,1.45-2.24,2.52-.55,1.07-.82,2.28-.82,3.64s.27,2.62.82,3.7c.55,1.08,1.29,1.93,2.24,2.54.95.61,2.03.92,3.26.92Z"/>
      <path d="m126.52,325.77v-21h4.16v4.48l-.76.48c.21-.69.55-1.36,1.02-2,.47-.64,1.04-1.21,1.72-1.7.68-.49,1.41-.89,2.2-1.18.79-.29,1.59-.44,2.42-.44,1.2,0,2.25.2,3.16.6.91.4,1.65,1,2.24,1.8.59.8,1.01,1.8,1.28,3l-.64-.16.28-.68c.29-.61.7-1.19,1.22-1.74.52-.55,1.11-1.03,1.78-1.46.67-.43,1.37-.76,2.12-1,.75-.24,1.48-.36,2.2-.36,1.57,0,2.87.32,3.9.96,1.03.64,1.8,1.61,2.32,2.92s.78,2.93.78,4.88v12.6h-4.16v-12.36c0-1.2-.15-2.18-.46-2.94-.31-.76-.77-1.33-1.38-1.7-.61-.37-1.4-.56-2.36-.56-.75,0-1.45.13-2.1.38-.65.25-1.22.61-1.7,1.06-.48.46-.85.98-1.12,1.58-.27.6-.4,1.26-.4,1.98v12.56h-4.16v-12.44c0-1.09-.16-2.02-.48-2.78-.32-.76-.79-1.34-1.4-1.74-.61-.4-1.36-.6-2.24-.6-.75,0-1.44.13-2.08.38-.64.25-1.2.6-1.68,1.04s-.85.96-1.12,1.56c-.27.6-.4,1.25-.4,1.94v12.64h-4.16Z"/>
      <path d="m173.24,326.17c-2.16,0-4.07-.46-5.74-1.38-1.67-.92-2.97-2.18-3.92-3.78-.95-1.6-1.42-3.44-1.42-5.52,0-1.65.27-3.16.8-4.52.53-1.36,1.27-2.54,2.22-3.54.95-1,2.08-1.77,3.4-2.32s2.75-.82,4.3-.82c1.36,0,2.63.26,3.8.78,1.17.52,2.19,1.23,3.06,2.14.87.91,1.53,1.98,2,3.22.47,1.24.69,2.59.66,4.06l-.04,1.76h-17.16l-.92-3.28h14.52l-.6.68v-.96c-.08-.88-.37-1.67-.88-2.36-.51-.69-1.15-1.24-1.92-1.64-.77-.4-1.61-.6-2.52-.6-1.44,0-2.65.27-3.64.82-.99.55-1.73,1.35-2.24,2.4-.51,1.05-.76,2.35-.76,3.9,0,1.47.31,2.74.92,3.82.61,1.08,1.48,1.91,2.6,2.5,1.12.59,2.41.88,3.88.88,1.04,0,2.01-.17,2.9-.52.89-.35,1.86-.97,2.9-1.88l2.08,2.92c-.64.64-1.42,1.2-2.34,1.68-.92.48-1.89.86-2.92,1.14-1.03.28-2.03.42-3.02.42Z"/>
      <path d="m206.84,326.17c-1.92,0-3.63-.47-5.14-1.42-1.51-.95-2.7-2.24-3.58-3.88s-1.32-3.51-1.32-5.62.43-3.98,1.3-5.62c.87-1.64,2.05-2.93,3.54-3.88,1.49-.95,3.19-1.42,5.08-1.42,1.04,0,2.05.17,3.02.5.97.33,1.85.79,2.62,1.36.77.57,1.38,1.2,1.82,1.88.44.68.66,1.37.66,2.06l-1.2.08v-14.04h4.12v29.6h-4.12v-5h.8c0,.64-.21,1.27-.64,1.9-.43.63-.99,1.21-1.7,1.74-.71.53-1.52.96-2.44,1.28s-1.86.48-2.82.48Zm.56-3.56c1.25,0,2.36-.32,3.32-.96.96-.64,1.71-1.51,2.26-2.62.55-1.11.82-2.37.82-3.78s-.27-2.67-.82-3.78c-.55-1.11-1.3-1.98-2.26-2.62-.96-.64-2.07-.96-3.32-.96s-2.36.32-3.32.96c-.96.64-1.71,1.51-2.26,2.62-.55,1.11-.82,2.37-.82,3.78s.27,2.67.82,3.78c.55,1.11,1.3,1.98,2.26,2.62.96.64,2.07.96,3.32.96Z"/>
      <path d="m233.24,326.17c-2.16,0-4.07-.46-5.74-1.38-1.67-.92-2.97-2.18-3.92-3.78-.95-1.6-1.42-3.44-1.42-5.52,0-1.65.27-3.16.8-4.52.53-1.36,1.27-2.54,2.22-3.54.95-1,2.08-1.77,3.4-2.32s2.75-.82,4.3-.82c1.36,0,2.63.26,3.8.78,1.17.52,2.19,1.23,3.06,2.14.87.91,1.53,1.98,2,3.22.47,1.24.69,2.59.66,4.06l-.04,1.76h-17.16l-.92-3.28h14.52l-.6.68v-.96c-.08-.88-.37-1.67-.88-2.36-.51-.69-1.15-1.24-1.92-1.64-.77-.4-1.61-.6-2.52-.6-1.44,0-2.65.27-3.64.82-.99.55-1.73,1.35-2.24,2.4-.51,1.05-.76,2.35-.76,3.9,0,1.47.31,2.74.92,3.82.61,1.08,1.48,1.91,2.6,2.5,1.12.59,2.41.88,3.88.88,1.04,0,2.01-.17,2.9-.52.89-.35,1.86-.97,2.9-1.88l2.08,2.92c-.64.64-1.42,1.2-2.34,1.68-.92.48-1.89.86-2.92,1.14-1.03.28-2.03.42-3.02.42Z"/>
      <path d="m253.36,325.77l-8.88-21h4.44l6.4,15.72-.76.36,6.84-16.08h4.24l-9.32,21h-2.96Z"/>
      <path d="m278.6,326.17c-2.16,0-4.07-.46-5.74-1.38-1.67-.92-2.97-2.18-3.92-3.78-.95-1.6-1.42-3.44-1.42-5.52,0-1.65.27-3.16.8-4.52.53-1.36,1.27-2.54,2.22-3.54.95-1,2.08-1.77,3.4-2.32s2.75-.82,4.3-.82c1.36,0,2.63.26,3.8.78,1.17.52,2.19,1.23,3.06,2.14.87.91,1.53,1.98,2,3.22.47,1.24.69,2.59.66,4.06l-.04,1.76h-17.16l-.92-3.28h14.52l-.6.68v-.96c-.08-.88-.37-1.67-.88-2.36-.51-.69-1.15-1.24-1.92-1.64-.77-.4-1.61-.6-2.52-.6-1.44,0-2.65.27-3.64.82-.99.55-1.73,1.35-2.24,2.4-.51,1.05-.76,2.35-.76,3.9,0,1.47.31,2.74.92,3.82.61,1.08,1.48,1.91,2.6,2.5,1.12.59,2.41.88,3.88.88,1.04,0,2.01-.17,2.9-.52.89-.35,1.86-.97,2.9-1.88l2.08,2.92c-.64.64-1.42,1.2-2.34,1.68-.92.48-1.89.86-2.92,1.14-1.03.28-2.03.42-3.02.42Z"/>
      <path d="m292.32,325.77v-29.6h4.12v29.6h-4.12Z"/>
      <path d="m311.32,326.17c-2.05,0-3.89-.47-5.5-1.42-1.61-.95-2.89-2.24-3.82-3.88-.93-1.64-1.4-3.51-1.4-5.62s.47-3.98,1.4-5.62c.93-1.64,2.21-2.93,3.82-3.88,1.61-.95,3.45-1.42,5.5-1.42s3.85.47,5.46,1.42c1.61.95,2.89,2.24,3.82,3.88.93,1.64,1.4,3.51,1.4,5.62s-.47,3.98-1.4,5.62c-.93,1.64-2.21,2.93-3.82,3.88-1.61.95-3.43,1.42-5.46,1.42Zm0-3.76c1.25,0,2.37-.31,3.36-.94.99-.63,1.76-1.48,2.32-2.56s.83-2.3.8-3.66c.03-1.39-.24-2.62-.8-3.7s-1.33-1.93-2.32-2.54c-.99-.61-2.11-.92-3.36-.92s-2.38.31-3.38.94-1.78,1.48-2.34,2.56c-.56,1.08-.83,2.3-.8,3.66-.03,1.36.24,2.58.8,3.66s1.34,1.93,2.34,2.56c1,.63,2.13.94,3.38.94Z"/>
      <path d="m326.47,334.57v-29.8h4.16v4.8l-.64-.36c.16-.8.61-1.57,1.36-2.3s1.66-1.33,2.74-1.8,2.19-.7,3.34-.7c1.89,0,3.57.47,5.04,1.4,1.47.93,2.63,2.21,3.48,3.84.85,1.63,1.28,3.49,1.28,5.6s-.42,3.94-1.26,5.58c-.84,1.64-1.99,2.93-3.46,3.88-1.47.95-3.12,1.42-4.96,1.42-1.23,0-2.41-.25-3.56-.74-1.15-.49-2.12-1.13-2.92-1.9s-1.29-1.57-1.48-2.4l1.04-.56v14.04h-4.16Zm10.4-12.24c1.23,0,2.32-.31,3.28-.92.96-.61,1.72-1.45,2.28-2.52.56-1.07.84-2.28.84-3.64s-.27-2.57-.82-3.62c-.55-1.05-1.3-1.89-2.26-2.5s-2.07-.92-3.32-.92-2.36.3-3.32.9-1.72,1.43-2.28,2.5-.84,2.28-.84,3.64.28,2.57.84,3.64c.56,1.07,1.32,1.91,2.28,2.52.96.61,2.07.92,3.32.92Z"/>
      <path d="m351.63,325.77v-21h4.16v4.48l-.76.48c.21-.69.55-1.36,1.02-2,.47-.64,1.04-1.21,1.72-1.7.68-.49,1.41-.89,2.2-1.18.79-.29,1.59-.44,2.42-.44,1.2,0,2.25.2,3.16.6.91.4,1.65,1,2.24,1.8.59.8,1.01,1.8,1.28,3l-.64-.16.28-.68c.29-.61.7-1.19,1.22-1.74.52-.55,1.11-1.03,1.78-1.46.67-.43,1.37-.76,2.12-1,.75-.24,1.48-.36,2.2-.36,1.57,0,2.87.32,3.9.96,1.03.64,1.8,1.61,2.32,2.92s.78,2.93.78,4.88v12.6h-4.16v-12.36c0-1.2-.15-2.18-.46-2.94-.31-.76-.77-1.33-1.38-1.7-.61-.37-1.4-.56-2.36-.56-.75,0-1.45.13-2.1.38-.65.25-1.22.61-1.7,1.06-.48.46-.85.98-1.12,1.58-.27.6-.4,1.26-.4,1.98v12.56h-4.16v-12.44c0-1.09-.16-2.02-.48-2.78-.32-.76-.79-1.34-1.4-1.74-.61-.4-1.36-.6-2.24-.6-.75,0-1.44.13-2.08.38-.64.25-1.2.6-1.68,1.04s-.85.96-1.12,1.56c-.27.6-.4,1.25-.4,1.94v12.64h-4.16Z"/>
      <path d="m398.35,326.17c-2.16,0-4.07-.46-5.74-1.38-1.67-.92-2.97-2.18-3.92-3.78-.95-1.6-1.42-3.44-1.42-5.52,0-1.65.27-3.16.8-4.52.53-1.36,1.27-2.54,2.22-3.54.95-1,2.08-1.77,3.4-2.32s2.75-.82,4.3-.82c1.36,0,2.63.26,3.8.78,1.17.52,2.19,1.23,3.06,2.14.87.91,1.53,1.98,2,3.22.47,1.24.69,2.59.66,4.06l-.04,1.76h-17.16l-.92-3.28h14.52l-.6.68v-.96c-.08-.88-.37-1.67-.88-2.36-.51-.69-1.15-1.24-1.92-1.64-.77-.4-1.61-.6-2.52-.6-1.44,0-2.65.27-3.64.82-.99.55-1.73,1.35-2.24,2.4-.51,1.05-.76,2.35-.76,3.9,0,1.47.31,2.74.92,3.82.61,1.08,1.48,1.91,2.6,2.5,1.12.59,2.41.88,3.88.88,1.04,0,2.01-.17,2.9-.52.89-.35,1.86-.97,2.9-1.88l2.08,2.92c-.64.64-1.42,1.2-2.34,1.68-.92.48-1.89.86-2.92,1.14-1.03.28-2.03.42-3.02.42Z"/>
      <path d="m411.99,325.77v-21h4.12v4.32l-.72.48c.27-.93.79-1.79,1.56-2.58s1.69-1.43,2.76-1.92c1.07-.49,2.16-.74,3.28-.74,1.6,0,2.93.31,4,.94,1.07.63,1.87,1.58,2.4,2.86.53,1.28.8,2.89.8,4.84v12.8h-4.12v-12.52c0-1.2-.16-2.19-.48-2.98s-.81-1.36-1.48-1.72c-.67-.36-1.49-.51-2.48-.46-.8,0-1.53.13-2.2.38-.67.25-1.25.61-1.74,1.06-.49.45-.88.98-1.16,1.58-.28.6-.42,1.25-.42,1.94v12.72h-4.12Z"/>
      <path d="m434.03,308.77v-4h13.36v4h-13.36Zm4.36,17v-26.36h4.12v26.36h-4.12Z"/>
      <path d="m462.35,325.77v-21h4.12v4.32l-.72.48c.27-.93.79-1.79,1.56-2.58s1.69-1.43,2.76-1.92c1.07-.49,2.16-.74,3.28-.74,1.6,0,2.93.31,4,.94,1.07.63,1.87,1.58,2.4,2.86.53,1.28.8,2.89.8,4.84v12.8h-4.12v-12.52c0-1.2-.16-2.19-.48-2.98s-.81-1.36-1.48-1.72c-.67-.36-1.49-.51-2.48-.46-.8,0-1.53.13-2.2.38-.67.25-1.25.61-1.74,1.06-.49.45-.88.98-1.16,1.58-.28.6-.42,1.25-.42,1.94v12.72h-4.12Z"/>
      <path d="m495.59,326.17c-2.05,0-3.89-.47-5.5-1.42-1.61-.95-2.89-2.24-3.82-3.88-.93-1.64-1.4-3.51-1.4-5.62s.47-3.98,1.4-5.62c.93-1.64,2.21-2.93,3.82-3.88,1.61-.95,3.45-1.42,5.5-1.42s3.85.47,5.46,1.42c1.61.95,2.89,2.24,3.82,3.88.93,1.64,1.4,3.51,1.4,5.62s-.47,3.98-1.4,5.62c-.93,1.64-2.21,2.93-3.82,3.88-1.61.95-3.43,1.42-5.46,1.42Zm0-3.76c1.25,0,2.37-.31,3.36-.94.99-.63,1.76-1.48,2.32-2.56s.83-2.3.8-3.66c.03-1.39-.24-2.62-.8-3.7s-1.33-1.93-2.32-2.54c-.99-.61-2.11-.92-3.36-.92s-2.38.31-3.38.94-1.78,1.48-2.34,2.56c-.56,1.08-.83,2.3-.8,3.66-.03,1.36.24,2.58.8,3.66s1.34,1.93,2.34,2.56c1,.63,2.13.94,3.38.94Z"/>
      <path d="m510.75,325.77v-21h4.12v4.32l-.72.48c.27-.93.79-1.79,1.56-2.58s1.69-1.43,2.76-1.92c1.07-.49,2.16-.74,3.28-.74,1.6,0,2.93.31,4,.94,1.07.63,1.87,1.58,2.4,2.86.53,1.28.8,2.89.8,4.84v12.8h-4.12v-12.52c0-1.2-.16-2.19-.48-2.98s-.81-1.36-1.48-1.72c-.67-.36-1.49-.51-2.48-.46-.8,0-1.53.13-2.2.38-.67.25-1.25.61-1.74,1.06-.49.45-.88.98-1.16,1.58-.28.6-.42,1.25-.42,1.94v12.72h-4.12Z"/>
      <path d="m533.79,316.37v-4.08h11.52v4.08h-11.52Z"/>
      <path d="m559.23,326.17c-1.95,0-3.69-.48-5.22-1.44-1.53-.96-2.75-2.27-3.64-3.92-.89-1.65-1.34-3.51-1.34-5.56s.45-3.91,1.34-5.56,2.11-2.96,3.64-3.92c1.53-.96,3.27-1.44,5.22-1.44s3.57.38,5.1,1.14,2.7,1.79,3.5,3.1l-2.28,2.8c-.43-.61-.97-1.17-1.64-1.68-.67-.51-1.37-.91-2.12-1.2s-1.47-.44-2.16-.44c-1.28,0-2.42.31-3.42.94s-1.79,1.49-2.38,2.58c-.59,1.09-.88,2.32-.88,3.68s.31,2.58.92,3.66c.61,1.08,1.43,1.94,2.44,2.58,1.01.64,2.13.96,3.36.96.72,0,1.42-.12,2.1-.36.68-.24,1.34-.6,1.98-1.08.64-.48,1.24-1.07,1.8-1.76l2.28,2.8c-.85,1.2-2.07,2.19-3.66,2.96-1.59.77-3.23,1.16-4.94,1.16Z"/>
      <path d="m581.15,326.17c-2.05,0-3.89-.47-5.5-1.42-1.61-.95-2.89-2.24-3.82-3.88s-1.4-3.51-1.4-5.62.47-3.98,1.4-5.62c.93-1.64,2.21-2.93,3.82-3.88,1.61-.95,3.45-1.42,5.5-1.42s3.85.47,5.46,1.42,2.89,2.24,3.82,3.88c.93,1.64,1.4,3.51,1.4,5.62s-.47,3.98-1.4,5.62-2.21,2.93-3.82,3.88-3.43,1.42-5.46,1.42Zm0-3.76c1.25,0,2.37-.31,3.36-.94.99-.63,1.76-1.48,2.32-2.56s.83-2.3.8-3.66c.03-1.39-.24-2.62-.8-3.7s-1.33-1.93-2.32-2.54-2.11-.92-3.36-.92-2.38.31-3.38.94-1.78,1.48-2.34,2.56c-.56,1.08-.83,2.3-.8,3.66-.03,1.36.24,2.58.8,3.66.56,1.08,1.34,1.93,2.34,2.56,1,.63,2.13.94,3.38.94Z"/>
      <path d="m596.31,325.77v-21h4.12v4.32l-.72.48c.27-.93.79-1.79,1.56-2.58s1.69-1.43,2.76-1.92c1.07-.49,2.16-.74,3.28-.74,1.6,0,2.93.31,4,.94,1.07.63,1.87,1.58,2.4,2.86.53,1.28.8,2.89.8,4.84v12.8h-4.12v-12.52c0-1.2-.16-2.19-.48-2.98-.32-.79-.81-1.36-1.48-1.72-.67-.36-1.49-.51-2.48-.46-.8,0-1.53.13-2.2.38-.67.25-1.25.61-1.74,1.06-.49.45-.88.98-1.16,1.58-.28.6-.42,1.25-.42,1.94v12.72h-4.12Z"/>
      <path d="m619.03,308.93v-3.8h12.48v3.8h-12.48Zm3.36,16.84v-23.36c0-1.2.27-2.27.8-3.2.53-.93,1.27-1.67,2.2-2.2s2.01-.8,3.24-.8c.85,0,1.65.16,2.4.48.75.32,1.35.75,1.8,1.28l-1.4,3.16c-.35-.32-.73-.58-1.14-.78-.41-.2-.81-.3-1.18-.3-.56,0-1.03.09-1.42.26-.39.17-.67.44-.86.8-.19.36-.28.79-.28,1.3v23.36h-4.16Z"/>
      <path d="m644.83,326.17c-2.16,0-4.07-.46-5.74-1.38s-2.97-2.18-3.92-3.78c-.95-1.6-1.42-3.44-1.42-5.52,0-1.65.27-3.16.8-4.52.53-1.36,1.27-2.54,2.22-3.54.95-1,2.08-1.77,3.4-2.32s2.75-.82,4.3-.82c1.36,0,2.63.26,3.8.78,1.17.52,2.19,1.23,3.06,2.14.87.91,1.53,1.98,2,3.22.47,1.24.69,2.59.66,4.06l-.04,1.76h-17.16l-.92-3.28h14.52l-.6.68v-.96c-.08-.88-.37-1.67-.88-2.36-.51-.69-1.15-1.24-1.92-1.64-.77-.4-1.61-.6-2.52-.6-1.44,0-2.65.27-3.64.82-.99.55-1.73,1.35-2.24,2.4-.51,1.05-.76,2.35-.76,3.9,0,1.47.31,2.74.92,3.82.61,1.08,1.48,1.91,2.6,2.5,1.12.59,2.41.88,3.88.88,1.04,0,2.01-.17,2.9-.52.89-.35,1.86-.97,2.9-1.88l2.08,2.92c-.64.64-1.42,1.2-2.34,1.68-.92.48-1.89.86-2.92,1.14-1.03.28-2.04.42-3.02.42Z"/>
      <path d="m658.47,325.77v-21h4.16v6.6l-.4-1.6c.29-1.01.79-1.93,1.5-2.76.71-.83,1.52-1.48,2.44-1.96s1.87-.72,2.86-.72c.45,0,.89.04,1.3.12.41.08.74.17.98.28l-1.08,4.48c-.32-.13-.67-.25-1.06-.34-.39-.09-.77-.14-1.14-.14-.72,0-1.41.14-2.06.42-.65.28-1.23.67-1.72,1.16-.49.49-.89,1.07-1.18,1.72s-.44,1.37-.44,2.14v11.6h-4.16Z"/>
      <path d="m683.51,326.17c-2.16,0-4.07-.46-5.74-1.38-1.67-.92-2.97-2.18-3.92-3.78-.95-1.6-1.42-3.44-1.42-5.52,0-1.65.27-3.16.8-4.52.53-1.36,1.27-2.54,2.22-3.54.95-1,2.08-1.77,3.4-2.32,1.32-.55,2.75-.82,4.3-.82,1.36,0,2.63.26,3.8.78,1.17.52,2.19,1.23,3.06,2.14.87.91,1.53,1.98,2,3.22.47,1.24.69,2.59.66,4.06l-.04,1.76h-17.16l-.92-3.28h14.52l-.6.68v-.96c-.08-.88-.37-1.67-.88-2.36-.51-.69-1.15-1.24-1.92-1.64-.77-.4-1.61-.6-2.52-.6-1.44,0-2.65.27-3.64.82-.99.55-1.73,1.35-2.24,2.4-.51,1.05-.76,2.35-.76,3.9,0,1.47.31,2.74.92,3.82.61,1.08,1.48,1.91,2.6,2.5,1.12.59,2.41.88,3.88.88,1.04,0,2.01-.17,2.9-.52.89-.35,1.86-.97,2.9-1.88l2.08,2.92c-.64.64-1.42,1.2-2.34,1.68-.92.48-1.89.86-2.92,1.14-1.03.28-2.03.42-3.02.42Z"/>
      <path d="m697.15,325.77v-21h4.12v4.32l-.72.48c.27-.93.79-1.79,1.56-2.58s1.69-1.43,2.76-1.92c1.07-.49,2.16-.74,3.28-.74,1.6,0,2.93.31,4,.94,1.07.63,1.87,1.58,2.4,2.86.53,1.28.8,2.89.8,4.84v12.8h-4.12v-12.52c0-1.2-.16-2.19-.48-2.98-.32-.79-.81-1.36-1.48-1.72-.67-.36-1.49-.51-2.48-.46-.8,0-1.53.13-2.2.38-.67.25-1.25.61-1.74,1.06-.49.45-.88.98-1.16,1.58-.28.6-.42,1.25-.42,1.94v12.72h-4.12Z"/>
      <path d="m729.87,326.17c-1.95,0-3.69-.48-5.22-1.44-1.53-.96-2.75-2.27-3.64-3.92-.89-1.65-1.34-3.51-1.34-5.56s.45-3.91,1.34-5.56,2.11-2.96,3.64-3.92c1.53-.96,3.27-1.44,5.22-1.44s3.57.38,5.1,1.14,2.7,1.79,3.5,3.1l-2.28,2.8c-.43-.61-.97-1.17-1.64-1.68-.67-.51-1.37-.91-2.12-1.2s-1.47-.44-2.16-.44c-1.28,0-2.42.31-3.42.94s-1.79,1.49-2.38,2.58c-.59,1.09-.88,2.32-.88,3.68s.31,2.58.92,3.66c.61,1.08,1.43,1.94,2.44,2.58,1.01.64,2.13.96,3.36.96.72,0,1.42-.12,2.1-.36.68-.24,1.34-.6,1.98-1.08.64-.48,1.24-1.07,1.8-1.76l2.28,2.8c-.85,1.2-2.07,2.19-3.66,2.96-1.59.77-3.23,1.16-4.94,1.16Z"/>
      <path d="m752.15,326.17c-2.16,0-4.07-.46-5.74-1.38-1.67-.92-2.97-2.18-3.92-3.78-.95-1.6-1.42-3.44-1.42-5.52,0-1.65.27-3.16.8-4.52.53-1.36,1.27-2.54,2.22-3.54.95-1,2.08-1.77,3.4-2.32s2.75-.82,4.3-.82c1.36,0,2.63.26,3.8.78,1.17.52,2.19,1.23,3.06,2.14.87.91,1.53,1.98,2,3.22.47,1.24.69,2.59.66,4.06l-.04,1.76h-17.16l-.92-3.28h14.52l-.6.68v-.96c-.08-.88-.37-1.67-.88-2.36-.51-.69-1.15-1.24-1.92-1.64-.77-.4-1.61-.6-2.52-.6-1.44,0-2.65.27-3.64.82-.99.55-1.73,1.35-2.24,2.4-.51,1.05-.76,2.35-.76,3.9,0,1.47.31,2.74.92,3.82s1.48,1.91,2.6,2.5c1.12.59,2.41.88,3.88.88,1.04,0,2.01-.17,2.9-.52.89-.35,1.86-.97,2.9-1.88l2.08,2.92c-.64.64-1.42,1.2-2.34,1.68-.92.48-1.89.86-2.92,1.14s-2.03.42-3.02.42Z"/>
      <path d="m766.43,332.93l-1.52-1.84c.93-.53,1.69-1.15,2.28-1.84.59-.69.88-1.29.88-1.8,0-.27-.07-.53-.2-.78s-.41-.61-.84-1.06c-.53-.51-.88-.93-1.04-1.28s-.24-.72-.24-1.12c0-.64.23-1.15.68-1.54.45-.39,1.04-.58,1.76-.58.67,0,1.27.19,1.82.58.55.39.97.92,1.28,1.6.31.68.46,1.46.46,2.34,0,.8-.13,1.57-.4,2.32-.27.75-.64,1.44-1.12,2.08-.48.64-1.04,1.21-1.68,1.72-.64.51-1.35.91-2.12,1.2Z"/>
      <path d="m786.59,308.93v-3.8h12.48v3.8h-12.48Zm3.36,16.84v-23.36c0-1.2.27-2.27.8-3.2s1.27-1.67,2.2-2.2c.93-.53,2.01-.8,3.24-.8.85,0,1.65.16,2.4.48s1.35.75,1.8,1.28l-1.4,3.16c-.35-.32-.73-.58-1.14-.78-.41-.2-.81-.3-1.18-.3-.56,0-1.03.09-1.42.26-.39.17-.67.44-.86.8-.19.36-.28.79-.28,1.3v23.36h-4.16Z"/>
      <path d="m812.03,326.17c-2.05,0-3.89-.47-5.5-1.42s-2.89-2.24-3.82-3.88c-.93-1.64-1.4-3.51-1.4-5.62s.47-3.98,1.4-5.62c.93-1.64,2.21-2.93,3.82-3.88s3.45-1.42,5.5-1.42,3.85.47,5.46,1.42c1.61.95,2.89,2.24,3.82,3.88.93,1.64,1.4,3.51,1.4,5.62s-.47,3.98-1.4,5.62-2.21,2.93-3.82,3.88c-1.61.95-3.43,1.42-5.46,1.42Zm0-3.76c1.25,0,2.37-.31,3.36-.94.99-.63,1.76-1.48,2.32-2.56s.83-2.3.8-3.66c.03-1.39-.24-2.62-.8-3.7s-1.33-1.93-2.32-2.54-2.11-.92-3.36-.92-2.38.31-3.38.94-1.78,1.48-2.34,2.56c-.56,1.08-.83,2.3-.8,3.66-.03,1.36.24,2.58.8,3.66.56,1.08,1.34,1.93,2.34,2.56,1,.63,2.13.94,3.38.94Z"/>
      <path d="m827.19,325.77v-21h4.16v6.6l-.4-1.6c.29-1.01.79-1.93,1.5-2.76.71-.83,1.52-1.48,2.44-1.96s1.87-.72,2.86-.72c.45,0,.89.04,1.3.12.41.08.74.17.98.28l-1.08,4.48c-.32-.13-.67-.25-1.06-.34-.39-.09-.77-.14-1.14-.14-.72,0-1.41.14-2.06.42-.65.28-1.23.67-1.72,1.16-.49.49-.89,1.07-1.18,1.72-.29.65-.44,1.37-.44,2.14v11.6h-4.16Z"/>
      <path d="m864.51,326.17c-2.29,0-4.3-.47-6.02-1.4-1.72-.93-3.05-2.21-4-3.84-.95-1.63-1.42-3.49-1.42-5.6,0-1.65.27-3.16.8-4.52.53-1.36,1.28-2.54,2.24-3.54.96-1,2.1-1.77,3.42-2.32,1.32-.55,2.75-.82,4.3-.82,1.44,0,2.77.27,4,.8,1.23.53,2.29,1.27,3.18,2.22.89.95,1.58,2.07,2.06,3.36.48,1.29.69,2.69.64,4.18l-.04,1.76h-17l-.92-3.48h13.24l-.64.72v-.88c-.05-.72-.29-1.37-.7-1.94-.41-.57-.94-1.03-1.58-1.36-.64-.33-1.36-.5-2.16-.5-1.17,0-2.17.23-2.98.68s-1.43,1.12-1.86,2c-.43.88-.64,1.95-.64,3.2s.27,2.39.82,3.32c.55.93,1.32,1.66,2.32,2.18,1,.52,2.18.78,3.54.78.93,0,1.79-.15,2.56-.44.77-.29,1.6-.8,2.48-1.52l2.72,3.8c-.77.69-1.63,1.27-2.56,1.74-.93.47-1.89.82-2.88,1.06s-1.96.36-2.92.36Z"/>
      <path d="m884.15,325.77l-8.88-21.16h6.24l5.64,15.8-1.32.24,5.92-16.04h6.08l-9.32,21.16h-4.36Z"/>
      <path d="m910.75,326.17c-2.29,0-4.3-.47-6.02-1.4-1.72-.93-3.05-2.21-4-3.84-.95-1.63-1.42-3.49-1.42-5.6,0-1.65.27-3.16.8-4.52.53-1.36,1.28-2.54,2.24-3.54.96-1,2.1-1.77,3.42-2.32,1.32-.55,2.75-.82,4.3-.82,1.44,0,2.77.27,4,.8,1.23.53,2.29,1.27,3.18,2.22.89.95,1.58,2.07,2.06,3.36.48,1.29.69,2.69.64,4.18l-.04,1.76h-17l-.92-3.48h13.24l-.64.72v-.88c-.05-.72-.29-1.37-.7-1.94-.41-.57-.94-1.03-1.58-1.36-.64-.33-1.36-.5-2.16-.5-1.17,0-2.17.23-2.98.68s-1.43,1.12-1.86,2c-.43.88-.64,1.95-.64,3.2s.27,2.39.82,3.32c.55.93,1.32,1.66,2.32,2.18,1,.52,2.18.78,3.54.78.93,0,1.79-.15,2.56-.44.77-.29,1.6-.8,2.48-1.52l2.72,3.8c-.77.69-1.63,1.27-2.56,1.74-.93.47-1.89.82-2.88,1.06s-1.96.36-2.92.36Z"/>
      <path d="m924.15,325.77v-21.16h5.48l.2,6.8-.96-1.4c.32-1.09.84-2.09,1.56-2.98s1.57-1.59,2.54-2.1c.97-.51,1.99-.76,3.06-.76.45,0,.89.04,1.32.12.43.08.79.17,1.08.28l-1.52,6.24c-.29-.16-.67-.3-1.14-.42-.47-.12-.94-.18-1.42-.18-.64,0-1.23.11-1.78.34s-1.02.55-1.42.96c-.4.41-.71.9-.94,1.46-.23.56-.34,1.17-.34,1.84v10.96h-5.72Z"/>
      <path d="m944.63,334.97l4.64-10.88.08,3.28-10.32-22.76h6.44l5.16,12.2c.21.45.42.98.62,1.58.2.6.37,1.17.5,1.7l-.96.44c.19-.45.38-.97.58-1.56.2-.59.41-1.21.62-1.88l4.44-12.48h6.48l-8.88,21.16-3.64,9.2h-5.76Z"/>
      <path d="m975.39,326.17c-2.16,0-4.09-.47-5.78-1.42-1.69-.95-3.03-2.25-4-3.9-.97-1.65-1.46-3.55-1.46-5.68s.49-4.03,1.46-5.68c.97-1.65,2.31-2.95,4-3.9,1.69-.95,3.62-1.42,5.78-1.42s4.05.47,5.74,1.42c1.69.95,3.02,2.25,3.98,3.9s1.44,3.55,1.44,5.68-.48,4.03-1.44,5.68c-.96,1.65-2.29,2.95-3.98,3.9s-3.61,1.42-5.74,1.42Zm0-4.96c1.04,0,1.97-.26,2.8-.78.83-.52,1.47-1.24,1.94-2.16s.69-1.95.66-3.1c.03-1.17-.19-2.22-.66-3.14s-1.11-1.64-1.94-2.16c-.83-.52-1.76-.78-2.8-.78s-2.01.27-2.84.8c-.83.53-1.48,1.25-1.96,2.16-.48.91-.71,1.95-.68,3.12-.03,1.15.2,2.18.68,3.1.48.92,1.13,1.64,1.96,2.16.83.52,1.77.78,2.84.78Z"/>
      <path d="m990.87,325.77v-21.16h5.44l.16,4.32-1.12.48c.29-.96.82-1.83,1.58-2.62.76-.79,1.67-1.42,2.74-1.9,1.07-.48,2.19-.72,3.36-.72,1.6,0,2.94.32,4.02.96,1.08.64,1.89,1.61,2.44,2.9.55,1.29.82,2.89.82,4.78v12.96h-5.68v-12.52c0-.96-.13-1.76-.4-2.4-.27-.64-.67-1.11-1.22-1.4-.55-.29-1.22-.43-2.02-.4-.64,0-1.23.1-1.78.3-.55.2-1.01.49-1.4.86-.39.37-.69.8-.92,1.28-.23.48-.34,1-.34,1.56v12.72h-5.68Z"/>
      <path d="m1025.79,326.17c-2.29,0-4.3-.47-6.02-1.4-1.72-.93-3.05-2.21-4-3.84-.95-1.63-1.42-3.49-1.42-5.6,0-1.65.27-3.16.8-4.52.53-1.36,1.28-2.54,2.24-3.54.96-1,2.1-1.77,3.42-2.32,1.32-.55,2.75-.82,4.3-.82,1.44,0,2.77.27,4,.8,1.23.53,2.29,1.27,3.18,2.22.89.95,1.58,2.07,2.06,3.36.48,1.29.69,2.69.64,4.18l-.04,1.76h-17l-.92-3.48h13.24l-.64.72v-.88c-.05-.72-.29-1.37-.7-1.94-.41-.57-.94-1.03-1.58-1.36-.64-.33-1.36-.5-2.16-.5-1.17,0-2.17.23-2.98.68s-1.43,1.12-1.86,2c-.43.88-.64,1.95-.64,3.2s.27,2.39.82,3.32c.55.93,1.32,1.66,2.32,2.18,1,.52,2.18.78,3.54.78.93,0,1.79-.15,2.56-.44.77-.29,1.6-.8,2.48-1.52l2.72,3.8c-.77.69-1.63,1.27-2.56,1.74-.93.47-1.89.82-2.88,1.06s-1.96.36-2.92.36Z"/>
      <path d="m1041.99,326.21c-1.04,0-1.84-.29-2.4-.88-.56-.59-.84-1.43-.84-2.52,0-.99.3-1.79.9-2.42.6-.63,1.38-.94,2.34-.94,1.01,0,1.81.29,2.38.88s.86,1.41.86,2.48-.3,1.83-.9,2.46c-.6.63-1.38.94-2.34.94Zm-1.68-10.48c-.21-1.62-.42-3.32-.62-5.08-.2-1.76-.35-3.5-.46-5.22-.11-1.72-.16-3.37-.16-4.94v-3.04h5.96v3.04c0,1.63-.06,3.32-.18,5.08-.12,1.76-.27,3.51-.46,5.24-.19,1.73-.39,3.37-.6,4.92h-3.48Z"/>
    </g>
  </g>
</svg>