<?xml version="1.0" encoding="UTF-8"?>
<svg id="Layer_2" data-name="Layer 2" xmlns="http://www.w3.org/2000/svg" viewBox="0 0 519.96 346.07">
  <defs>
    <style>
      .cls-1 {
        fill: #db4468;
      }

      .cls-2 {
        fill: #f3f1f9;
      }

      .cls-3 {
        fill: #ff517b;
      }

      .cls-4 {
        fill: #f3f1f8;
      }
    </style>
  </defs>
  <g id="_notGDC_-_Twitter_Profile" data-name="#notGDC - Twitter Profile">
    <g id="Black_banner" data-name="Black banner">
      <g>
        <path class="cls-3" d="m476.61,182.99h2.45l2.88-75.83-3.02,71.64c-.07,1.75-.98,3.26-2.31,4.2Z"/>
        <path class="cls-3" d="m292.3,16.56c-.57,3.48-1.41,6.99-2.55,10.54-.97,2.99-2,5.96-3.06,8.92,1.77,1.15,3.6,2.25,5.49,3.31,17.57,9.86,33.14,5.34,48.64-5.92,7.37-5.35,16.46-9.38,25.37-11.35,26.03-5.79,48.24,3.9,68.27,19.8,3.51,2.79,9.52,5.8,4.98,11.38-4.29,5.27-8.21.3-11.56-2.53-25.94-21.86-60.99-27.13-86.82-4.91-14.37,12.36-32.38,13.58-49.93,5.05-2.82-1.37-5.6-2.88-8.3-4.51-1.11,2.83-2.24,5.65-3.4,8.45-3.44,8.26-7.12,16.44-10.76,24.63.72.99,1.41,1.99,2.05,3.02,2.11-3.11,4.6-6.02,7.5-8.72,10.17-9.45,22.06-14.24,35.33-14.24,12.06,0,22.93,3.95,32.38,11.72,1.01-1.86,2.25-3.47,3.74-4.79l.42-.36c1.68-1.37,3.56-2.44,5.58-3.21v-2.74c0-2.77.1-4.81.32-6.44.36-2.65,1.33-5.3,2.87-7.89,3.62-6.48,10.88-9.77,21.6-9.77,15.97,0,21.33,8.47,23.11,13.52l.14.43c.86,2.77,1.26,6.21,1.26,10.85v.69c1.21.05,2.24.13,3.16.25,2.56.33,5.13,1.19,7.85,2.63,6.88,3.53,10.37,10.88,10.37,21.85s-3.54,18.24-10.52,21.86l-.47.23c-2.59,1.21-5,1.95-7.37,2.26-.88.11-1.87.2-3.02.25v1.25c2.71.37,5.43,1.33,8.08,2.84,5.22,2.95,8.31,8.12,9.23,15.39,11.13,2.57,21.82.36,31.95-7.48,11.72-9.07,20.7-20.25,28.34-32.49l.91-24c-21.51-16.51-43.06-32.96-64.58-49.44l18.57.03c15.51,11.9,31.02,23.81,46.53,35.71l.62-16.38.73-19.27-193.08-.42Z"/>
        <path class="cls-3" d="m271.17,178.17c-2.59-6.46-3.75-13.89-3.18-21.49-3.61,1.88-8.17,2.87-13.64,2.96,3.67,6.81,9.3,12.94,16.81,18.53Z"/>
        <path class="cls-3" d="m153.85,159.06c-.14-.1-.28-.21-.42-.31-1.99.32-4.13.49-6.43.49-10.24,0-16.41-4.59-19.06-10.44-.23.42-.49.85-.75,1.28l-.38.58c-3.96,5.69-10.89,8.58-20.6,8.58-14.23,0-20.6-8.87-20.6-17.67,0-.93,0-1.09.72-5.69-7.78-1.38-11.38-5.74-13.05-9.5l-.28-.68c-.83-2.21-1.22-4.65-1.22-7.68,0-2.18.22-4.51.67-7.14.46-2.72,1.36-5.24,2.67-7.53-13.69-11.68-25.43-25.27-33.9-42.27-2.81-5.63-5.66-11.25-8.68-17.21l.96-27.6c.16-.2.2-.26.32-.28h-.42s-6.35,167-6.35,167h.15s19.7.04,19.7.04c.08,0,.17,0,.25-.02l-19.78-.03q.35,0,.35-1.01l2.23-63.91c4.13,3.91,8.79,7.5,13.99,10.78,10.88,6.85,21.32,14.56,31.13,22.87,9.77,8.28,15.95,18.64,15.5,31.27h81.78c-3.1-9-9.2-17-18.5-23.93Z"/>
        <path class="cls-3" d="m152.35,24.3c6.84-1.75,12.88-4.37,17.93-8l-68.5-.15c15.32,9.02,31.96,12.91,50.56,8.15Z"/>
        <path class="cls-3" d="m162.2,32.71c.73-.04,1.48-.05,2.27-.05,6.29,0,10.9,1.22,14.52,3.84,4.52,3.28,7.05,8.25,7.19,14.04,15.84,5.85,32.35,3.28,48.96-12.48,6.96-6.61,12.82-13.73,16.83-21.57l-66.06-.14c-6.03,7.39-13.97,12.79-23.7,16.38Z"/>
        <path class="cls-1" d="m235.13,38.05c-16.6,15.77-33.12,18.34-48.96,12.48,0,.16.01.33.01.49,0,1.1-.08,1.92-.85,6.82l-.35,2.11c1.91.54,4.2,1.61,6.44,3.61,3.59-1.6,8.02-2.4,13.28-2.4,2.7,0,9.27,0,14.88,3.19,4.26-2.12,8.88-3.19,13.76-3.19,12.87,0,24.17,5.18,32.7,14.99.93,1.07,1.79,2.16,2.61,3.28,3.64-8.19,7.32-16.37,10.76-24.63,1.17-2.8,2.29-5.62,3.4-8.45,2.71,1.63,5.49,3.14,8.3,4.51,17.55,8.53,35.56,7.31,49.93-5.05,25.83-22.22,60.89-16.95,86.82,4.91,3.35,2.83,7.27,7.8,11.56,2.53,4.54-5.59-1.47-8.6-4.98-11.38-20.03-15.9-42.25-25.59-68.27-19.8-8.9,1.98-18,6-25.37,11.35-15.5,11.26-31.07,15.78-48.64,5.92-1.89-1.06-3.72-2.16-5.49-3.31,1.06-2.96,2.09-5.93,3.06-8.92,1.15-3.55,1.99-7.06,2.55-10.54h0l-40.34-.09h0c-4,7.85-9.87,14.97-16.83,21.57Z"/>
        <path class="cls-1" d="m33.49,16.28l-.96,27.6c3.02,5.95,5.87,11.57,8.68,17.21,8.46,16.99,20.21,30.59,33.9,42.27.66-1.17,1.42-2.28,2.29-3.32,1.18-1.42,2.43-2.62,3.75-3.6-1.11-1.32-1.89-2.71-2.43-4.04l-.3-.8c-.71-2.14-1.06-4.53-1.06-7.31,0-2.13.22-4.44.67-7.07.7-4.1,2.37-7.75,4.96-10.86,3.07-3.69,6.65-5.94,10.63-6.66,1.49-.27,3.21-.42,5.33-.47l.65-3.94c.01-.08.1-.63.26-2.07.22-1.97.46-3.37.78-4.55.16-.6.4-1.42.72-2.48,1.35-4.49,3.9-7.09,5.81-8.47.62-.45,1.44-1.02,2.45-1.69l.17-.11c3.44-2.21,7.86-3.25,13.89-3.25s10.9,1.22,14.52,3.84c2.33,1.69,4.14,3.83,5.36,6.31,1.35-2.5,3.05-4.11,4.42-5.11.61-.45,1.43-1.01,2.44-1.68l.17-.11c2.99-1.93,6.73-2.96,11.62-3.19,9.73-3.59,17.68-8.99,23.7-16.38h0l-15.62-.03h0c-5.05,3.63-11.09,6.25-17.93,8-18.6,4.76-35.24.87-50.56-8.15,0,0,0,0,0,0l-67.97-.15h0c-.12.01-.17.07-.32.28Z"/>
        <path class="cls-1" d="m437.49,16.92l-18.57-.03c21.53,16.48,43.08,32.93,64.58,49.44l.52-13.7c-15.51-11.9-31.02-23.81-46.53-35.71Z"/>
        <path class="cls-1" d="m75.06,151.73c-9.81-8.31-20.26-16.02-31.13-22.87-5.21-3.28-9.87-6.87-13.99-10.78l-2.23,63.91q0,1-.35,1.01l19.78.03c.2-.02.39-.04.59-.04h42.83c.45-12.62-5.73-22.99-15.5-31.27Z"/>
        <path class="cls-1" d="m313.41,109.08c-.17,0-.5,0-1.14.45-.03.18-.05.45-.05.82,0,.25.01.45.03.6.58.39.94.51,1.03.52,0,0,.43-.09,1.29-.69.02-.15.03-.37.03-.65s-.01-.52-.03-.69c-.6-.36-.95-.36-1.16-.36Z"/>
        <path class="cls-1" d="m454.25,122.82c-10.13,7.84-20.83,10.05-31.95,7.48.19,1.52.3,3.13.3,4.83,0,13.66-5.89,19.47-10.83,21.94l-.29.14c-2.59,1.21-5,1.95-7.38,2.26-1.65.22-3.65.32-6.3.32-12.75,0-22.94-3.24-30.28-9.64-4.4-3.83-7.59-8.87-9.54-15.04-.55.96-1.13,1.91-1.75,2.84-5.22,7.83-11.76,13.73-19.45,17.54-7.44,3.69-15.3,5.56-23.37,5.56s-16.13-2.01-23.69-5.97c-4.66-2.44-8.89-5.61-12.64-9.45-.37,1.09-.82,2.2-1.39,3.33l-.09.18c-1.7,3.28-4.25,5.79-7.6,7.54-.57,7.59.59,15.02,3.18,21.49-7.51-5.59-13.14-11.72-16.81-18.53-.25,0-.49.02-.75.02-16.42,0-21.67-8.49-23.34-13.79-.52-1.54-.89-3.24-1.13-5.16-.03.26-.05.5-.09.74-.34,2.58-1.24,5.21-2.68,7.81-3.56,6.9-10.89,10.4-21.8,10.4s-18.24-3.54-21.86-10.52l-.22-.46c-1.21-2.59-1.95-5-2.26-7.38-.21-1.64-.31-3.69-.31-6.43v-.7c-2.22,1.01-4.69,1.68-7.51,1.98,0,.03,0,.06-.01.09l-.09.59-.28,1.54c-.46,2.51-.82,4.18-1.16,5.42-.57,2.03-1.5,4.08-2.87,6.3l-.38.58c-3.02,4.34-7.78,7.04-14.17,8.08.14.1.28.21.42.31,9.3,6.93,15.4,14.93,18.5,23.93h304.27c1.33-.94,2.24-2.45,2.31-4.2l3.02-71.64.64-16.83c-7.64,12.24-16.62,23.42-28.34,32.49Z"/>
        <polygon class="cls-2" points="144.84 104.94 147.32 89.79 126.86 89.79 124.24 104.94 144.84 104.94"/>
        <path class="cls-2" d="m304.76,120.15c2.95,2.26,5.98,3.4,9.02,3.4s6.12-1.17,9.16-3.47c3.03-2.3,4.57-5.75,4.57-10.26s-1.44-7.91-4.29-10.12c-2.86-2.21-5.99-3.33-9.3-3.33s-6.44,1.17-9.3,3.47c-2.85,2.3-4.29,5.73-4.29,10.19s1.49,7.87,4.43,10.12Z"/>
        <path class="cls-2" d="m233.35,61.16c-4.88,0-9.5,1.07-13.76,3.19-5.62-3.19-12.18-3.19-14.88-3.19-5.26,0-9.69.81-13.28,2.4-2.24-2-4.53-3.07-6.44-3.61l.35-2.11c.76-4.9.85-5.71.85-6.82,0-.17,0-.33-.01-.49-.14-5.79-2.67-10.76-7.19-14.04-3.62-2.62-8.23-3.84-14.52-3.84-.78,0-1.54.02-2.27.05-4.89.24-8.63,1.26-11.62,3.19l-.17.11c-1.01.67-1.82,1.24-2.44,1.68-1.37.99-3.07,2.61-4.42,5.11-1.22-2.47-3.02-4.62-5.36-6.31-3.62-2.62-8.23-3.84-14.52-3.84s-10.45,1.03-13.89,3.25l-.17.11c-1.01.67-1.82,1.24-2.45,1.69-1.9,1.39-4.46,3.98-5.81,8.47-.32,1.06-.55,1.88-.72,2.48-.32,1.18-.56,2.59-.78,4.55-.16,1.44-.25,1.99-.26,2.07l-.65,3.94c-2.13.05-3.84.2-5.33.47-3.98.73-7.56,2.97-10.63,6.66-2.59,3.11-4.26,6.76-4.96,10.86-.45,2.63-.67,4.94-.67,7.07,0,2.78.35,5.17,1.06,7.31l.3.8c.54,1.32,1.32,2.72,2.43,4.04-1.32.99-2.58,2.19-3.75,3.6-.87,1.05-1.63,2.16-2.29,3.32-1.3,2.3-2.2,4.82-2.67,7.53-.45,2.63-.67,4.96-.67,7.14,0,3.03.39,5.47,1.22,7.68l.28.68c1.67,3.76,5.28,8.12,13.05,9.5-.72,4.59-.72,4.75-.72,5.69,0,8.8,6.37,17.67,20.6,17.67,9.71,0,16.64-2.89,20.6-8.58l.38-.58c.27-.43.52-.86.75-1.28,2.66,5.85,8.83,10.44,19.06,10.44,2.3,0,4.44-.17,6.43-.49,6.4-1.04,11.15-3.74,14.17-8.08l.38-.58c1.37-2.23,2.31-4.27,2.87-6.3.34-1.24.7-2.91,1.16-5.42l.28-1.54.09-.59s0-.06.01-.09c2.82-.29,5.3-.96,7.51-1.98v.7c0,2.75.1,4.79.31,6.43.31,2.38,1.05,4.79,2.26,7.38l.22.46c3.62,6.98,10.97,10.52,21.86,10.52s18.24-3.5,21.8-10.4c1.44-2.6,2.34-5.23,2.68-7.81.03-.24.06-.48.09-.74.24,1.92.61,3.62,1.13,5.16,1.68,5.3,6.93,13.79,23.34,13.79.25,0,.5-.01.75-.02,5.47-.08,10.03-1.07,13.64-2.96,3.35-1.75,5.9-4.26,7.6-7.54l.09-.18c.56-1.13,1.01-2.23,1.39-3.33,3.75,3.84,7.98,7,12.64,9.45,7.56,3.96,15.53,5.97,23.69,5.97s15.93-1.87,23.37-5.56c7.69-3.81,14.23-9.71,19.45-17.54.62-.93,1.2-1.88,1.75-2.84,1.95,6.18,5.14,11.21,9.54,15.04,7.35,6.4,17.54,9.64,30.28,9.64,2.65,0,4.65-.1,6.3-.32,2.38-.31,4.79-1.05,7.38-2.26l.29-.14c4.94-2.47,10.83-8.28,10.83-21.94,0-1.7-.1-3.31-.3-4.83-.92-7.26-4.01-12.44-9.23-15.39-2.65-1.51-5.37-2.47-8.08-2.84v-1.25c1.15-.05,2.14-.13,3.02-.25,2.37-.31,4.78-1.05,7.37-2.26l.47-.23c6.98-3.62,10.52-10.97,10.52-21.86s-3.49-18.32-10.37-21.85c-2.72-1.43-5.29-2.29-7.85-2.63-.92-.12-1.95-.2-3.16-.25v-.69c0-4.63-.4-8.08-1.26-10.85l-.14-.43c-1.78-5.05-7.14-13.52-23.11-13.52-10.72,0-17.99,3.29-21.6,9.77-1.54,2.59-2.51,5.24-2.87,7.89-.22,1.62-.32,3.67-.32,6.44v2.74c-2.02.77-3.9,1.84-5.58,3.21l-.42.36c-1.49,1.32-2.73,2.93-3.74,4.79-9.45-7.77-20.32-11.72-32.38-11.72-13.27,0-25.16,4.79-35.33,14.24-2.91,2.7-5.4,5.61-7.5,8.72-.64-1.03-1.33-2.03-2.05-3.02-.82-1.12-1.69-2.22-2.61-3.28-8.53-9.81-19.83-14.99-32.7-14.99Zm-48.72,20.89c-.33,1.93-1.07,3.62-2.2,5.03-1.13,1.42-2.24,2.23-3.29,2.42-1.04.19-2.56.28-4.64.28h-6.89l-2.48,15.15h6.99c1.77,0,3.07.07,3.87.21.82.14,1.62.65,2.38,1.51.76.86,1.15,2.14,1.15,3.79s-.14,3.26-.42,4.85c-.28,1.59-.73,3.06-1.34,4.37-.62,1.33-1.46,2.29-2.5,2.86-1.51.75-3.64,1.14-6.36,1.14h-6.89c-.92,5.69-1.48,9.28-1.66,10.67l-.28,1.55c-.37,2.03-.68,3.49-.91,4.35-.24.85-.74,1.9-1.48,3.11-1.51,2.18-5.04,3.28-10.47,3.28s-8.25-1.79-8.25-5.31c0-.13.61-4.04,1.12-7.3l1.66-10.36h-20.61c-.92,5.68-1.48,9.27-1.66,10.67l-.28,1.55c-.37,2.03-.68,3.49-.91,4.35-.24.85-.74,1.9-1.48,3.11-1.51,2.18-5.04,3.28-10.47,3.28s-8.25-1.79-8.25-5.31c0-.13.61-4.04,1.12-7.3l1.66-10.36h-9.09c-3.96,0-6.35-.87-7.11-2.59-.29-.77-.43-1.89-.43-3.34s.17-3.16.49-5.06c.33-1.93,1.09-3.62,2.27-5.03,1.18-1.42,2.31-2.23,3.36-2.42,1.03-.19,2.59-.28,4.64-.28h8.99l2.48-15.15h-9.09c-4.11,0-6.44-.8-7.12-2.46-.29-.86-.43-2-.43-3.41s.17-3.09.49-4.99c.33-1.93,1.09-3.62,2.27-5.03,1.18-1.41,2.31-2.23,3.36-2.42,1.04-.19,2.6-.28,4.64-.28h8.99l2.36-14.32c.09-.58.21-1.52.35-2.72.14-1.26.28-2.16.42-2.68.15-.53.36-1.26.63-2.17.29-.96.7-1.64,1.24-2.03.52-.38,1.2-.85,2.03-1.4,1.32-.85,3.75-1.28,7.21-1.28s5.91.5,7.28,1.49c1.38,1,2.08,2.52,2.08,4.51,0,.29-.22,1.85-.7,4.92l-2.64,15.68h20.61l2.36-14.32c.09-.58.21-1.52.35-2.72.14-1.28.28-2.16.42-2.68.15-.53.36-1.26.63-2.17.29-.96.7-1.64,1.24-2.03.5-.37,1.19-.84,2.03-1.4,1.32-.85,3.75-1.28,7.21-1.28s5.91.5,7.28,1.49c1.38,1,2.08,2.52,2.08,4.51,0,.29-.22,1.85-.7,4.92l-2.64,15.68h6.99c1.77,0,3.07.07,3.87.21.82.15,1.62.65,2.38,1.51.76.86,1.15,2.14,1.15,3.79s-.17,3.43-.49,5.34Zm171.88-2.99c.47-1.74,1.14-3.01,2-3.77,1.51-1.23,3.42-1.85,5.68-1.85l4.5.54v-14.28c0-2.15.07-3.75.21-4.78.14-1.04.59-2.19,1.35-3.41,1.23-2.36,4.89-3.56,10.89-3.56,6.38,0,10.23,1.77,11.46,5.26.47,1.51.71,3.92.71,7.18v13.58c4.1-.37,7.11-.55,9.19-.55s3.7.07,4.78.21c1.08.14,2.34.59,3.75,1.34,2.46,1.23,3.71,4.89,3.71,10.89s-1.29,9.57-3.85,10.89c-1.41.66-2.67,1.06-3.75,1.2-1.08.14-2.71.21-4.85.21h0l-8.97-.55v19.19c0,2.48.39,4.29,1.17,5.39.76,1.08,2.24,1.63,4.38,1.63s3.89.07,5.05.21c1.17.14,2.44.59,3.76,1.35,2.18,1.23,3.28,4.42,3.28,9.49,0,5.9-1.34,9.57-3.99,10.89-1.41.66-2.67,1.06-3.75,1.2-1.08.14-2.66.21-4.71.21-9.69,0-17.16-2.22-22.2-6.61-5.04-4.39-7.6-11.91-7.6-22.35v-20.57c-1.74.26-3.62.4-5.62.4s-3.84-.82-5.21-2.42c-1.37-1.6-2.06-4.36-2.06-8.2s.24-6.64.7-8.36Zm-69.4,3.37c7.83-7.27,16.9-10.95,26.96-10.95s19.09,3.66,26.83,10.88c7.74,7.23,11.66,16.56,11.66,27.74,0,7.73-2.03,14.7-6.04,20.72-4.01,6.01-8.95,10.5-14.68,13.34-5.73,2.84-11.75,4.28-17.91,4.28s-12.2-1.54-17.98-4.56c-5.78-3.03-10.72-7.56-14.68-13.48-3.96-5.92-5.97-12.7-5.97-20.16,0-11.18,3.97-20.54,11.8-27.81Zm-20.65,27.67v24.64c0,2.14-.07,3.77-.21,4.85-.14,1.08-.55,2.3-1.2,3.61-1.33,2.56-5.04,3.85-11.03,3.85-6.66,0-10.56-1.77-11.6-5.27-.56-1.59-.85-4-.85-7.18v-24.64c0-3.77-1.09-6.76-3.25-8.87-2.16-2.11-5.1-3.19-8.73-3.19s-6.62,1.12-8.87,3.32c-2.25,2.2-3.39,5.14-3.39,8.73v24.78c0,2.15-.07,3.78-.21,4.85-.14,1.08-.59,2.3-1.35,3.62-1.23,2.55-4.89,3.84-10.89,3.84s-9.57-1.29-10.89-3.85c-.66-1.41-1.06-2.67-1.2-3.75-.14-1.08-.21-2.71-.21-4.85v-49.56c0-2.05.07-3.63.21-4.71.14-1.09.6-2.3,1.35-3.62,1.32-2.36,4.99-3.56,10.89-3.56s9.28,1.1,10.61,3.28c.88,1.5,1.36,3.32,1.41,5.39.45-.63,1.22-1.46,2.32-2.48,1.3-1.21,2.58-2.2,3.8-2.95,3.17-2.15,6.73-3.24,10.57-3.24,9.33,0,17.2,3.62,23.4,10.75,6.2,7.13,9.34,15.94,9.34,26.19Z"/>
        <path d="m181.54,71.66c-.79-.14-2.07-.21-3.83-.21h-7.29l2.68-15.96c.46-2.97.7-4.61.7-4.88,0-1.91-.67-3.36-1.98-4.31-1.33-.96-3.73-1.45-7.14-1.45s-5.79.42-7.07,1.24c-.84.56-1.52,1.03-2.02,1.4-.49.36-.87.99-1.14,1.9-.27.91-.49,1.64-.63,2.17-.14.5-.28,1.39-.42,2.64-.13,1.21-.25,2.16-.35,2.74l-2.4,14.52h-21.11l2.68-15.96c.46-2.97.7-4.61.7-4.88,0-1.91-.67-3.36-1.98-4.31-1.33-.96-3.73-1.45-7.14-1.45s-5.79.42-7.07,1.24c-.83.55-1.51,1.02-2.02,1.4-.49.35-.87.99-1.14,1.9-.27.91-.49,1.64-.63,2.17-.14.51-.28,1.4-.42,2.64-.13,1.21-.25,2.16-.35,2.74l-2.4,14.52h-9.21c-2.03,0-3.58.09-4.6.28-1,.18-2.08.97-3.22,2.34-1.15,1.38-1.89,3.03-2.21,4.91-.32,1.89-.49,3.56-.49,4.95s.14,2.5.41,3.32c.62,1.52,2.94,2.29,6.88,2.29h9.39l-.02.15-2.54,15.51h-9.21c-2.04,0-3.58.09-4.6.28-.99.18-2.08.97-3.22,2.34-1.15,1.37-1.89,3.03-2.21,4.91-.32,1.89-.49,3.58-.49,5.02s.14,2.52.41,3.25c.72,1.62,3.04,2.44,6.88,2.44h9.39l-.02.14-1.68,10.5c-1.03,6.53-1.12,7.21-1.12,7.26,0,3.35,2.69,5.05,8,5.05s8.8-1.07,10.26-3.17c.73-1.19,1.22-2.22,1.45-3.04.23-.85.54-2.3.91-4.33l.28-1.54c.19-1.4.75-5.03,1.68-10.78l.02-.1h21.11l-.02.14-1.68,10.5c-1.03,6.53-1.12,7.21-1.12,7.26,0,3.35,2.69,5.05,8,5.05s8.8-1.07,10.26-3.17c.73-1.19,1.22-2.21,1.45-3.04.23-.85.54-2.3.91-4.33l.28-1.54c.18-1.39.75-5.02,1.68-10.78l.02-.1h7.11c2.68,0,4.78-.37,6.24-1.11.99-.54,1.8-1.47,2.39-2.74.6-1.29,1.04-2.74,1.32-4.31.28-1.58.42-3.19.42-4.81s-.37-2.81-1.09-3.63c-.73-.81-1.48-1.3-2.24-1.43-.79-.14-2.07-.21-3.83-.21h-7.29l.02-.15,2.54-15.51h7.11c2.04,0,3.59-.09,4.6-.28.99-.18,2.05-.97,3.14-2.33,1.1-1.37,1.82-3.03,2.14-4.91.32-1.9.49-3.68.49-5.3s-.37-2.81-1.09-3.63c-.72-.81-1.48-1.3-2.24-1.43Zm-33.95,18.03l-2.54,15.51h-21.11l2.7-15.65h20.97l-.02.15Z"/>
        <path class="cls-4" d="m181.58,71.41c-.8-.14-2.1-.21-3.87-.21h-6.99l2.64-15.68c.48-3.07.7-4.63.7-4.92,0-1.99-.7-3.51-2.08-4.51-1.37-.99-3.82-1.49-7.28-1.49s-5.89.43-7.21,1.28c-.84.56-1.53,1.04-2.03,1.4-.53.39-.95,1.07-1.24,2.03-.27.92-.49,1.65-.63,2.17-.14.52-.28,1.4-.42,2.68-.13,1.21-.25,2.15-.35,2.72l-2.36,14.32h-20.61l2.64-15.68c.48-3.07.7-4.63.7-4.92,0-1.99-.7-3.51-2.08-4.51-1.37-.99-3.82-1.49-7.28-1.49s-5.89.43-7.21,1.28c-.83.56-1.52,1.03-2.03,1.4-.53.39-.95,1.07-1.24,2.03-.27.92-.49,1.65-.63,2.17-.14.52-.28,1.42-.42,2.68-.13,1.21-.25,2.15-.35,2.72l-2.36,14.32h-8.99c-2.04,0-3.61.09-4.64.28-1.05.19-2.19,1.01-3.36,2.42-1.18,1.41-1.94,3.1-2.27,5.03-.33,1.9-.49,3.58-.49,4.99s.14,2.55.43,3.41c.68,1.65,3,2.46,7.12,2.46h9.09l-2.48,15.15h-8.99c-2.05,0-3.61.1-4.64.28-1.05.19-2.18,1.01-3.36,2.42-1.18,1.41-1.94,3.1-2.27,5.03-.33,1.9-.49,3.61-.49,5.06s.14,2.58.43,3.34c.76,1.72,3.16,2.59,7.11,2.59h9.09l-1.66,10.36c-.51,3.26-1.12,7.17-1.12,7.3,0,3.52,2.77,5.31,8.25,5.31s8.95-1.1,10.47-3.28c.75-1.22,1.25-2.26,1.48-3.11.24-.86.54-2.32.91-4.35l.28-1.55c.19-1.4.75-4.99,1.66-10.67h20.61l-1.66,10.36c-.51,3.26-1.12,7.17-1.12,7.3,0,3.52,2.77,5.31,8.25,5.31s8.95-1.1,10.47-3.28c.75-1.21,1.25-2.26,1.48-3.11.24-.86.54-2.32.91-4.35l.28-1.55c.18-1.39.74-4.98,1.66-10.67h6.89c2.71,0,4.85-.38,6.36-1.14,1.04-.57,1.89-1.53,2.5-2.86.61-1.31,1.06-2.78,1.34-4.37.28-1.59.42-3.22.42-4.85s-.39-2.93-1.15-3.79c-.76-.86-1.57-1.37-2.38-1.51-.8-.14-2.1-.21-3.87-.21h-6.99l2.48-15.15h6.89c2.09,0,3.6-.09,4.64-.28,1.05-.19,2.16-1.01,3.29-2.42,1.13-1.41,1.87-3.1,2.2-5.03.33-1.91.49-3.71.49-5.34s-.39-2.93-1.15-3.79c-.76-.86-1.56-1.37-2.38-1.51Zm2.79,10.6c-.32,1.89-1.04,3.54-2.14,4.91-1.09,1.37-2.15,2.15-3.14,2.33-1.01.18-2.56.28-4.6.28h-7.11l-2.54,15.51-.02.15h7.29c1.75,0,3.04.07,3.83.21.76.13,1.51.62,2.24,1.43.72.81,1.09,2.03,1.09,3.63s-.14,3.23-.42,4.81c-.28,1.56-.72,3.01-1.32,4.31-.59,1.28-1.4,2.2-2.39,2.74-1.47.73-3.57,1.11-6.24,1.11h-7.11l-.02.1c-.93,5.76-1.5,9.38-1.68,10.78l-.28,1.54c-.37,2.02-.67,3.48-.91,4.33-.23.83-.72,1.85-1.45,3.04-1.46,2.1-4.91,3.17-10.26,3.17s-8-1.7-8-5.05c0-.05.09-.73,1.12-7.26l1.68-10.5.02-.14h-21.11l-.02.1c-.93,5.75-1.49,9.37-1.68,10.78l-.28,1.54c-.37,2.02-.67,3.48-.91,4.33-.23.83-.72,1.85-1.45,3.04-1.46,2.1-4.91,3.17-10.26,3.17s-8-1.7-8-5.05c0-.05.09-.73,1.12-7.26l1.68-10.5.02-.14h-9.39c-3.85,0-6.17-.82-6.88-2.44-.27-.73-.41-1.82-.41-3.25s.16-3.13.49-5.02c.32-1.88,1.07-3.54,2.21-4.91,1.14-1.37,2.22-2.16,3.22-2.34,1.01-.18,2.56-.28,4.6-.28h9.21l2.54-15.51.02-.15h-9.39c-3.94,0-6.26-.77-6.88-2.29-.27-.82-.41-1.94-.41-3.32s.16-3.06.49-4.95c.32-1.88,1.06-3.53,2.21-4.91,1.14-1.37,2.22-2.15,3.22-2.34,1.02-.18,2.57-.28,4.6-.28h9.21l2.4-14.52c.1-.58.22-1.53.35-2.74.14-1.24.28-2.13.42-2.64.14-.52.36-1.25.63-2.17.27-.9.66-1.54,1.14-1.9.51-.37,1.2-.84,2.02-1.4,1.28-.82,3.66-1.24,7.07-1.24s5.81.49,7.14,1.45c1.31.95,1.98,2.4,1.98,4.31,0,.27-.24,1.91-.7,4.88l-2.68,15.96h21.11l2.4-14.52c.1-.58.22-1.53.35-2.74.14-1.25.28-2.14.42-2.64.14-.52.36-1.25.63-2.17.27-.9.66-1.54,1.14-1.9.5-.37,1.18-.84,2.02-1.4,1.28-.82,3.66-1.24,7.07-1.24s5.81.49,7.14,1.45c1.31.95,1.98,2.4,1.98,4.31,0,.27-.24,1.91-.7,4.88l-2.68,15.96h7.29c1.75,0,3.04.07,3.83.21.76.14,1.51.62,2.24,1.43.72.81,1.09,2.03,1.09,3.63s-.16,3.4-.49,5.3Z"/>
        <path class="cls-4" d="m123.94,105.19h21.11l2.54-15.51.02-.15h-20.97l-2.7,15.65Zm23.38-15.4l-2.48,15.15h-20.6l2.62-15.15h20.47Z"/>
        <path d="m233.71,73.41c-3.78,0-7.29,1.08-10.43,3.2-1.21.75-2.47,1.73-3.77,2.93-1.29,1.2-2.13,2.13-2.5,2.77l-.23.41v-.47c0-2.2-.47-4.11-1.38-5.68-1.28-2.1-4.77-3.16-10.39-3.16s-9.39,1.16-10.67,3.44c-.74,1.29-1.18,2.47-1.32,3.53-.14,1.07-.21,2.64-.21,4.67v49.56c0,2.13.07,3.75.21,4.81.14,1.06.54,2.29,1.18,3.67,1.27,2.46,4.86,3.71,10.67,3.71s9.48-1.25,10.67-3.71c.74-1.3,1.18-2.48,1.32-3.53.14-1.06.21-2.68.21-4.81v-24.78c0-3.66,1.17-6.66,3.47-8.91,2.3-2.25,5.34-3.4,9.05-3.4s6.7,1.1,8.91,3.26c2.21,2.16,3.33,5.21,3.33,9.05v24.64c0,3.14.28,5.53.83,7.1,1,3.38,4.83,5.1,11.36,5.1,5.89,0,9.53-1.25,10.81-3.71.64-1.29,1.04-2.48,1.18-3.53.14-1.06.21-2.68.21-4.81v-24.64c0-10.19-3.12-18.94-9.28-26.03-6.15-7.08-13.96-10.67-23.21-10.67Z"/>
        <path class="cls-4" d="m233.71,73.16c-3.83,0-7.39,1.09-10.57,3.24-1.22.75-2.5,1.74-3.8,2.95-1.09,1.01-1.87,1.84-2.32,2.48-.06-2.07-.53-3.88-1.41-5.39-1.33-2.18-4.89-3.28-10.61-3.28s-9.56,1.2-10.89,3.56c-.75,1.31-1.2,2.53-1.35,3.62-.14,1.08-.21,2.66-.21,4.71v49.56c0,2.14.07,3.77.21,4.85.14,1.08.55,2.34,1.2,3.75,1.32,2.55,4.99,3.85,10.89,3.85s9.66-1.3,10.89-3.84c.75-1.32,1.21-2.53,1.35-3.62.14-1.07.21-2.7.21-4.85v-24.78c0-3.59,1.14-6.53,3.39-8.73,2.25-2.21,5.24-3.32,8.87-3.32s6.57,1.07,8.73,3.19c2.16,2.11,3.25,5.1,3.25,8.87v24.64c0,3.17.29,5.59.85,7.18,1.04,3.5,4.94,5.27,11.6,5.27,5.99,0,9.71-1.29,11.03-3.85.66-1.31,1.06-2.53,1.2-3.61.14-1.07.21-2.7.21-4.85v-24.64c0-10.25-3.14-19.06-9.34-26.19-6.2-7.14-14.08-10.75-23.4-10.75Zm32.5,36.95v24.64c0,2.13-.07,3.75-.21,4.81-.14,1.05-.53,2.24-1.18,3.53-1.28,2.46-4.92,3.71-10.81,3.71-6.54,0-10.36-1.71-11.36-5.1-.55-1.57-.83-3.95-.83-7.1v-24.64c0-3.84-1.12-6.89-3.33-9.05-2.21-2.16-5.21-3.26-8.91-3.26s-6.75,1.14-9.05,3.4c-2.3,2.25-3.47,5.25-3.47,8.91v24.78c0,2.14-.07,3.76-.21,4.81-.14,1.05-.58,2.24-1.32,3.53-1.19,2.46-4.78,3.71-10.67,3.71s-9.39-1.25-10.67-3.71c-.64-1.38-1.04-2.61-1.18-3.67-.14-1.06-.21-2.68-.21-4.81v-49.56c0-2.04.07-3.61.21-4.67.14-1.05.58-2.24,1.32-3.53,1.28-2.28,4.87-3.44,10.67-3.44s9.12,1.06,10.39,3.16c.92,1.56,1.38,3.47,1.38,5.68v.47l.23-.41c.36-.64,1.2-1.57,2.5-2.77,1.29-1.2,2.56-2.18,3.77-2.93,3.14-2.12,6.65-3.2,10.43-3.2,9.25,0,17.06,3.59,23.21,10.67,6.16,7.08,9.28,15.84,9.28,26.03Z"/>
        <path d="m281.48,130.26c3.94,5.88,8.84,10.39,14.58,13.4,5.74,3.01,11.75,4.54,17.86,4.54s12.1-1.43,17.79-4.26c5.69-2.82,10.6-7.28,14.58-13.26,3.98-5.97,6-12.9,6-20.58,0-11.11-3.9-20.38-11.58-27.56-7.69-7.18-16.66-10.82-26.66-10.82s-19.02,3.66-26.79,10.89c-7.78,7.22-11.72,16.52-11.72,27.63,0,7.41,2,14.15,5.93,20.02Zm22.99-30.62c2.9-2.34,6.08-3.53,9.46-3.53s6.55,1.14,9.46,3.39c2.91,2.26,4.39,5.73,4.39,10.32s-1.57,8.11-4.67,10.46c-3.09,2.34-6.22,3.53-9.31,3.53s-6.18-1.16-9.18-3.46c-3-2.3-4.53-5.77-4.53-10.32s1.48-8.04,4.39-10.39Z"/>
        <path class="cls-4" d="m281.28,130.4c3.96,5.92,8.9,10.45,14.68,13.48,5.77,3.03,11.82,4.56,17.98,4.56s12.18-1.44,17.91-4.28c5.73-2.84,10.67-7.33,14.68-13.34,4.01-6.02,6.04-12.99,6.04-20.72,0-11.18-3.92-20.52-11.66-27.74-7.74-7.22-16.76-10.88-26.83-10.88s-19.14,3.69-26.96,10.95c-7.83,7.27-11.8,16.63-11.8,27.81,0,7.46,2.01,14.24,5.97,20.16Zm6-47.79c7.78-7.22,16.79-10.89,26.79-10.89s18.96,3.64,26.66,10.82c7.68,7.18,11.58,16.45,11.58,27.56,0,7.68-2.02,14.61-6,20.58-3.99,5.98-8.89,10.44-14.58,13.26-5.69,2.82-11.68,4.26-17.79,4.26s-12.12-1.53-17.86-4.54c-5.74-3.01-10.65-7.52-14.58-13.4-3.93-5.87-5.93-12.61-5.93-20.02,0-11.11,3.94-20.41,11.72-27.63Z"/>
        <path class="cls-4" d="m304.61,120.35c2.99,2.29,6.08,3.46,9.18,3.46s6.23-1.19,9.31-3.53c3.1-2.35,4.67-5.87,4.67-10.46s-1.48-8.06-4.39-10.32c-2.9-2.25-6.08-3.39-9.46-3.39s-6.56,1.19-9.46,3.53c-2.91,2.35-4.39,5.84-4.39,10.39s1.52,8.02,4.53,10.32Zm.01-20.51c2.86-2.3,5.99-3.47,9.3-3.47s6.45,1.12,9.3,3.33c2.85,2.21,4.29,5.61,4.29,10.12s-1.54,7.96-4.57,10.26c-3.04,2.31-6.13,3.47-9.16,3.47s-6.08-1.15-9.02-3.4c-2.94-2.25-4.43-5.65-4.43-10.12s1.44-7.9,4.29-10.19Z"/>
        <path d="m363.07,97.8c2.03,0,3.96-.14,5.72-.42l.14-.02v20.87c0,10.37,2.53,17.83,7.52,22.17,4.99,4.35,12.41,6.55,22.04,6.55,2.04,0,3.61-.07,4.67-.21,1.06-.14,2.29-.53,3.67-1.18,2.55-1.28,3.85-4.87,3.85-10.67,0-4.97-1.06-8.09-3.16-9.27-1.29-.74-2.52-1.18-3.66-1.31-1.15-.14-2.84-.21-5.03-.21s-3.77-.58-4.58-1.73c-.8-1.14-1.21-3-1.21-5.53v-19.45h.13s9.1.57,9.1.57c2.13,0,3.74-.07,4.81-.21,1.06-.14,2.29-.53,3.67-1.18,2.46-1.27,3.71-4.86,3.71-10.67s-1.2-9.48-3.57-10.67c-1.39-.74-2.62-1.18-3.67-1.32-1.07-.14-2.66-.21-4.74-.21s-5.14.18-9.3.56h-.14s0-13.84,0-13.84c0-3.23-.23-5.62-.69-7.1-1.19-3.38-4.96-5.09-11.22-5.09-5.9,0-9.49,1.15-10.67,3.43-.74,1.2-1.18,2.31-1.32,3.32-.14,1.01-.21,2.61-.21,4.74v14.56l-4.76-.58c-2.18,0-4.04.6-5.51,1.79-.82.73-1.46,1.95-1.92,3.65-.46,1.71-.7,4.5-.7,8.3s.67,6.48,2,8.04c1.32,1.55,3.01,2.34,5.02,2.34Z"/>
        <path class="cls-4" d="m363.07,98.05c1.99,0,3.88-.13,5.62-.4v20.57c0,10.44,2.56,17.96,7.6,22.35,5.04,4.39,12.51,6.61,22.2,6.61,2.05,0,3.63-.07,4.71-.21,1.08-.14,2.34-.55,3.75-1.2,2.65-1.32,3.99-4.99,3.99-10.89,0-5.06-1.1-8.26-3.28-9.49-1.32-.75-2.58-1.21-3.76-1.35-1.16-.14-2.86-.21-5.05-.21s-3.61-.55-4.38-1.63c-.77-1.09-1.17-2.91-1.17-5.39v-19.19l8.97.55h0c2.14,0,3.77-.07,4.85-.21,1.08-.14,2.34-.55,3.75-1.2,2.55-1.32,3.85-4.99,3.85-10.89s-1.25-9.66-3.71-10.89c-1.41-.75-2.67-1.2-3.75-1.34-1.08-.14-2.68-.21-4.78-.21s-5.08.18-9.19.55v-13.58c0-3.26-.24-5.67-.71-7.18-1.23-3.49-5.08-5.26-11.46-5.26-6,0-9.66,1.2-10.89,3.56-.75,1.22-1.21,2.37-1.35,3.41-.14,1.02-.21,2.63-.21,4.78v14.28l-4.5-.54c-2.26,0-4.17.62-5.68,1.85-.86.76-1.53,2.03-2,3.77-.47,1.73-.7,4.54-.7,8.36s.69,6.6,2.06,8.2c1.37,1.61,3.12,2.42,5.21,2.42Zm-6.32-18.92c.46-1.69,1.1-2.92,1.92-3.65,1.46-1.19,3.32-1.79,5.51-1.79l4.76.58v-14.56c0-2.13.07-3.73.21-4.74.14-1.01.58-2.12,1.32-3.32,1.18-2.28,4.77-3.43,10.67-3.43,6.26,0,10.03,1.71,11.22,5.09.46,1.48.69,3.87.69,7.1v13.86h.14c4.16-.39,7.2-.57,9.3-.57s3.68.07,4.74.21c1.05.14,2.29.58,3.67,1.32,2.37,1.19,3.57,4.77,3.57,10.67s-1.25,9.39-3.71,10.67c-1.38.65-2.62,1.04-3.67,1.18-1.06.14-2.68.21-4.81.21l-9.1-.56h-.13s0,19.44,0,19.44c0,2.54.41,4.4,1.21,5.53.81,1.15,2.36,1.73,4.58,1.73s3.87.07,5.03.21c1.14.14,2.37.58,3.66,1.31,2.09,1.18,3.16,4.3,3.16,9.27,0,5.8-1.3,9.39-3.85,10.67-1.38.65-2.62,1.04-3.67,1.18-1.06.14-2.64.21-4.67.21-9.63,0-17.05-2.2-22.04-6.55-4.99-4.34-7.52-11.8-7.52-22.17v-20.87l-.14.02c-1.76.28-3.69.42-5.72.42s-3.7-.79-5.02-2.34c-1.33-1.56-2-4.26-2-8.04s.23-6.59.7-8.3Z"/>
        <path class="cls-3" d="m33.02,329.21l7.01-130.18-9.47-.02c-3.12.67-5.51,3.36-5.69,6.66l-.3,5.53-7.21,133.86c-.03.55.41,1.01.95,1.01h468.3c.27,0,.53-.01.8-.03,5.58-.49,9.04-6.37,7.2-11.66l-1.44-4.16H33.97c-.55,0-.98-.46-.95-1.01Z"/>
        <path d="m264.86,230.36h-13.44v52.92h13.58c6.72,0,12.79-2.5,18.2-7.49,5.41-4.99,8.12-11.27,8.12-18.83s-2.64-13.88-7.91-18.97c-5.27-5.09-11.46-7.63-18.55-7.63Z"/>
        <path d="m512.26,183.03c-.25-.02-.51-.03-.77-.03h-16.41l5.57-146.46.82-21.55c.15-3.64-1.21-7.23-3.72-9.86-2.52-2.63-6.05-4.14-9.69-4.15L31.01,0h-.02c-7.08,0-12.87,5.4-13.45,12.42-6.08,1.13-10.72,6.31-10.99,12.74L.01,197.2c-.15,3.63,1.2,7.22,3.72,9.85,2.51,2.63,6.04,4.14,9.68,4.14l11.17.02.3-5.53c.18-3.31,2.57-5.99,5.69-6.66l9.47.02-7.01,130.18c-.03.55.41,1.01.95,1.01h468.3c.27,0,.53-.01.8-.03,5.58-.49,9.04-6.37,7.2-11.66l-21.47-61.92,30.23-60.96c2.69-5.42-.75-12.12-6.77-12.62Zm-28.24-130.4l-.52,13.7-.91,24-.64,16.83-2.88,75.83H47.73c-.2,0-.4.02-.59.04-.08,0-.17,0-.25.02l-19.7-.04h-.15s6.35-167,6.35-167h.42s67.97.15,67.97.15c0,0,0,0,0,0l68.5.15h0l15.62.03h0l66.06.14h0l40.34.09h0l193.08.42-.73,19.27-.62,16.38Zm-268.58,236.25c0,2.99-1.31,5.83-3.92,8.54-7.84,8.12-19.6,12.18-35.28,12.18-13.91,0-25.99-5.25-36.26-15.75-10.27-10.5-15.4-23.17-15.4-38.01s5.23-27.23,15.68-37.17c10.45-9.94,22.77-14.91,36.96-14.91,11.01,0,21.42,3.64,31.22,10.92,2.52,1.87,3.78,3.94,3.78,6.23s-1.07,4.92-3.22,7.91c-3.64,4.95-6.95,7.42-9.94,7.42-1.77,0-4.62-1.28-8.54-3.85-3.92-2.57-8.59-3.85-14-3.85-7.09,0-13.39,2.5-18.9,7.49-5.51,4.99-8.26,11.53-8.26,19.6s2.8,14.93,8.4,20.58c5.6,5.65,11.95,8.47,19.04,8.47,5.13,0,9.75-.84,13.86-2.52v-15.26h-11.06c-2.89,0-4.95-.37-6.16-1.12-1.21-.75-2.01-1.84-2.38-3.29-.38-1.45-.56-3.41-.56-5.88s.21-4.46.63-5.95c.42-1.49,1.19-2.52,2.31-3.08,1.68-.84,3.92-1.26,6.72-1.26h24.64c5.04.19,8.12,1.49,9.24,3.92.93,1.77,1.4,4.39,1.4,7.84v30.8Zm85.61,3.92c-10.03,10.17-22.19,15.26-36.47,15.26h-25.62c-5.69,0-9.24-1.17-10.64-3.5-1.12-1.96-1.68-4.95-1.68-8.96v-77.84c0-2.24.07-3.87.21-4.9.14-1.03.58-2.24,1.33-3.64,1.31-2.52,4.95-3.78,10.92-3.78l25.9.14c13.53,0,25.43,4.88,35.7,14.63,10.27,9.75,15.4,21.75,15.4,35.98s-5.02,26.44-15.05,36.61Zm49.63-23.1c1.87,3.73,4.25,6.67,7.14,8.82,5.69,4.11,11.62,6.16,17.78,6.16,2.89,0,5.62-.37,8.19-1.12,2.57-.75,4.41-1.49,5.53-2.24l2.52-1.82c3.17-1.87,5.41-2.8,6.72-2.8,2.89,0,6.02,2.61,9.38,7.84,2.05,3.27,3.08,5.88,3.08,7.84s-.63,3.59-1.89,4.9c-1.26,1.31-2.73,2.47-4.41,3.5-1.68,1.03-3.29,2.01-4.83,2.94-1.54.93-4.69,2.15-9.45,3.64s-9.36,2.24-13.79,2.24-8.91-.58-13.44-1.75c-4.53-1.17-9.19-3.13-14-5.88-4.81-2.75-9.12-6.11-12.95-10.08-3.83-3.97-6.98-9.05-9.45-15.26-2.47-6.21-3.71-12.95-3.71-20.23s1.21-13.88,3.64-19.81c2.43-5.93,5.53-10.83,9.31-14.7,3.78-3.87,8.1-7.12,12.95-9.73,9.15-5.04,18.34-7.56,27.58-7.56,4.39,0,8.84.68,13.37,2.03,4.53,1.35,7.96,2.73,10.29,4.13l3.36,1.96c1.68,1.03,2.99,1.87,3.92,2.52,2.43,1.96,3.64,4.18,3.64,6.65s-.98,5.06-2.94,7.77c-3.64,5.04-6.91,7.56-9.8,7.56-1.68,0-4.06-1.03-7.14-3.08-3.92-3.17-9.15-4.76-15.68-4.76-6.07,0-12.04,2.1-17.92,6.3-2.8,2.05-5.13,4.95-7,8.68-1.87,3.73-2.8,7.96-2.8,12.67s.93,8.94,2.8,12.67Z"/>
        <path class="cls-2" d="m204.8,246.32h-24.64c-2.8,0-5.04.42-6.72,1.26-1.12.56-1.89,1.59-2.31,3.08-.42,1.49-.63,3.48-.63,5.95s.19,4.43.56,5.88c.37,1.45,1.17,2.54,2.38,3.29,1.21.75,3.27,1.12,6.16,1.12h11.06v15.26c-4.11,1.68-8.73,2.52-13.86,2.52-7.09,0-13.44-2.82-19.04-8.47-5.6-5.65-8.4-12.51-8.4-20.58s2.75-14.61,8.26-19.6c5.51-4.99,11.81-7.49,18.9-7.49,5.41,0,10.08,1.28,14,3.85,3.92,2.57,6.77,3.85,8.54,3.85,2.99,0,6.3-2.47,9.94-7.42,2.15-2.99,3.22-5.62,3.22-7.91s-1.26-4.36-3.78-6.23c-9.8-7.28-20.21-10.92-31.22-10.92-14.19,0-26.51,4.97-36.96,14.91-10.45,9.94-15.68,22.33-15.68,37.17s5.13,27.51,15.4,38.01c10.27,10.5,22.35,15.75,36.26,15.75,15.68,0,27.44-4.06,35.28-12.18,2.61-2.71,3.92-5.55,3.92-8.54v-30.8c0-3.45-.47-6.07-1.4-7.84-1.12-2.43-4.2-3.73-9.24-3.92Z"/>
        <path class="cls-2" d="m300.7,220.21c-10.27-9.75-22.17-14.63-35.7-14.63l-25.9-.14c-5.97,0-9.61,1.26-10.92,3.78-.75,1.4-1.19,2.61-1.33,3.64-.14,1.03-.21,2.66-.21,4.9v77.84c0,4.01.56,7,1.68,8.96,1.4,2.33,4.95,3.5,10.64,3.5h25.62c14.28,0,26.44-5.09,36.47-15.26,10.03-10.17,15.05-22.38,15.05-36.61s-5.13-26.23-15.4-35.98Zm-17.5,55.58c-5.41,4.99-11.48,7.49-18.2,7.49h-13.58v-52.92h13.44c7.09,0,13.28,2.54,18.55,7.63,5.27,5.09,7.91,11.41,7.91,18.97s-2.71,13.84-8.12,18.83Z"/>
        <path class="cls-2" d="m357.68,235.68c5.88-4.2,11.85-6.3,17.92-6.3,6.53,0,11.76,1.59,15.68,4.76,3.08,2.05,5.46,3.08,7.14,3.08,2.89,0,6.16-2.52,9.8-7.56,1.96-2.71,2.94-5.3,2.94-7.77s-1.21-4.69-3.64-6.65c-.93-.65-2.24-1.49-3.92-2.52l-3.36-1.96c-2.33-1.4-5.76-2.78-10.29-4.13-4.53-1.35-8.98-2.03-13.37-2.03-9.24,0-18.43,2.52-27.58,7.56-4.85,2.61-9.17,5.86-12.95,9.73-3.78,3.87-6.88,8.77-9.31,14.7-2.43,5.93-3.64,12.53-3.64,19.81s1.24,14.02,3.71,20.23c2.47,6.21,5.62,11.29,9.45,15.26,3.83,3.97,8.14,7.33,12.95,10.08,4.81,2.75,9.47,4.71,14,5.88,4.53,1.17,9.01,1.75,13.44,1.75s9.03-.75,13.79-2.24,7.91-2.71,9.45-3.64c1.54-.93,3.15-1.91,4.83-2.94,1.68-1.03,3.15-2.19,4.41-3.5,1.26-1.31,1.89-2.94,1.89-4.9s-1.03-4.57-3.08-7.84c-3.36-5.23-6.49-7.84-9.38-7.84-1.31,0-3.55.93-6.72,2.8l-2.52,1.82c-1.12.75-2.96,1.49-5.53,2.24-2.57.75-5.3,1.12-8.19,1.12-6.16,0-12.09-2.05-17.78-6.16-2.89-2.15-5.27-5.09-7.14-8.82-1.87-3.73-2.8-7.96-2.8-12.67s.93-8.94,2.8-12.67c1.87-3.73,4.2-6.63,7-8.68Z"/>
      </g>
    </g>
  </g>
</svg>