<?xml version="1.0" encoding="UTF-8"?>
<svg id="Layer_2" data-name="Layer 2" xmlns="http://www.w3.org/2000/svg" viewBox="0 0 1091.22 234.18">
  <defs>
    <style>
      .cls-1 {
        fill: #db4468;
      }

      .cls-2 {
        fill: #f3f1f9;
      }

      .cls-3 {
        fill: #ff517b;
      }

      .cls-4 {
        fill: none;
      }

      .cls-5 {
        fill: #f3f1f8;
      }
    </style>
  </defs>
  <g id="_notGDC_-_Banner" data-name="#notGDC - Banner">
    <g id="Banner_Art" data-name="Banner Art">
      <g>
        <path class="cls-3" d="m153.85,181.07c-15.49-11.54-30.96-23.25-47.38-33.36-26.9-16.56-50.84-35.65-65.27-64.61-2.81-5.63-5.66-11.25-8.68-17.21l.96-27.6c.16-.21.2-.26.32-.28h-.42s-6.35,167-6.35,167l166.14.25-20.75-.03c-3.07-9.1-9.2-17.18-18.58-24.16Zm-63.28,24.04l-63.21-.1q.35,0,.35-1.01l2.23-63.91c4.13,3.91,8.79,7.5,13.99,10.78,10.88,6.85,21.32,14.56,31.13,22.87,9.8,8.3,15.99,18.7,15.5,31.37Z"/>
        <path class="cls-3" d="m152.35,46.31c6.9-1.76,12.98-4.41,18.06-8.09l-68.7-.1c15.35,9.06,32.01,12.96,50.64,8.2Z"/>
        <path class="cls-1" d="m624.45,63.87c-20.03-15.9-42.25-25.59-68.27-19.8-8.9,1.98-18,6-25.37,11.35-15.5,11.26-31.07,15.78-48.64,5.92-10.63-5.96-19.54-13.22-25.37-22.68l-12.8-.02c3.95,8.11,10.16,15.93,19.04,22.98,5.53,4.39,11.72,8.16,18.07,11.24,17.55,8.53,35.56,7.31,49.93-5.05,25.83-22.22,60.88-16.95,86.82,4.91,3.35,2.83,7.27,7.8,11.56,2.53,4.54-5.59-1.47-8.6-4.98-11.38Z"/>
        <path class="cls-1" d="m75.06,173.74c-9.81-8.31-20.26-16.02-31.13-22.87-5.21-3.28-9.87-6.87-13.99-10.78l-2.23,63.91q0,1-.35,1.01l63.21.1c.49-12.67-5.7-23.07-15.5-31.37Z"/>
        <path class="cls-1" d="m608.92,38.9c14.12,10.81,28.26,21.62,42.38,32.43l.73-13.57c-8.18-6.28-16.36-12.55-24.54-18.83l-18.57-.03Z"/>
        <path class="cls-1" d="m152.35,46.31c-18.63,4.77-35.29.86-50.64-8.2l-67.9-.1c-.12.01-.17.07-.32.28l-.96,27.6c3.02,5.95,5.87,11.57,8.68,17.21,14.42,28.96,38.36,48.06,65.27,64.61,16.42,10.11,31.89,21.82,47.38,33.36,9.38,6.99,15.51,15.07,18.58,24.16l20.75.03h0s145.74.22,145.74.22c-2.41-1.54-4.81-3.14-7.16-4.86-21.13-15.42-27.73-35.03-18.51-61.57,7.37-21.22,17.5-41.47,26.16-62.25,3.79-9.09,7.3-18.33,10.33-27.69,1.16-3.57,2-7.11,2.57-10.61l-100.28-.15c-4.01,7.9-9.9,15.06-16.9,21.71-24.61,23.36-49.02,17.78-71.31-1.31-.97-.83-1.6-2.07-2.75-3.6,10.3-3.6,18.64-9.18,24.91-16.91l-15.58-.02c-5.08,3.68-11.16,6.33-18.06,8.09Z"/>
        <path class="cls-1" d="m668.92,200.81l2.4-56.81h-23.05c-.48,0-.87-.41-.84-.89l.05-.9c-1.06.89-2.13,1.77-3.23,2.62-12.98,10.04-26.88,10.89-41.44,4.22-12.72-5.83-25.14-12.36-37.98-17.9-22.48-9.69-44.57-10.33-63.57,7.38-7.95,7.41-14.53,16.64-20.32,25.92-7.28,11.67-13.55,24.04-19.46,36.49-.78,1.65-1.61,3.22-2.47,4.72l204.63.31c2.85-.06,5.17-2.32,5.29-5.17Z"/>
        <path d="m669.03,205.99h-5.39s-204.63-.32-204.63-.32l-120.08-.18-145.74-.22h0s-166.14-.25-166.14-.25l6.35-167h.42s67.9.1,67.9.1l68.7.1,15.58.02,467.06.71.86-16-622.89-.95h-.02c-7.08,0-12.87,5.4-13.45,12.42-6.08,1.13-10.72,6.31-10.99,12.74L.01,219.21c-.15,3.63,1.2,7.22,3.72,9.85,2.51,2.63,6.04,4.14,9.68,4.14l641.15.98h.02c6.98,0,12.7-5.29,13.34-12.19h3.58s.02,0,.02,0c1.2,0,2.36-.17,3.46-.46.14-.04.29-.06.43-.11,3.2-.96,5.88-3.08,7.58-5.89,1.14-1.88,1.84-4.06,1.94-6.42l2.48-65.11h-16.01l-2.36,61.99Z"/>
        <path class="cls-3" d="m661.26,129.11l6.2-115.11h-7.03c-3.39,0-6.18,2.65-6.36,6.03l-.16,2.92-.86,16-467.06-.71c-6.27,7.73-14.61,13.31-24.91,16.91,1.14,1.52,1.77,2.76,2.75,3.6,22.29,19.08,46.71,24.67,71.31,1.31,7-6.65,12.9-13.81,16.9-21.71l100.28.15c-.57,3.5-1.41,7.04-2.57,10.61-3.03,9.37-6.54,18.6-10.33,27.69-8.66,20.78-18.79,41.03-26.16,62.25-9.21,26.54-2.62,46.15,18.51,61.57,2.35,1.72,4.74,3.32,7.16,4.86l120.08.18c.86-1.5,1.69-3.07,2.47-4.72,5.91-12.45,12.18-24.82,19.46-36.49,5.79-9.28,12.37-18.51,20.32-25.92,19-17.71,41.09-17.07,63.57-7.38,12.85,5.54,25.26,12.07,37.98,17.9,14.56,6.67,28.46,5.82,41.44-4.22,1.1-.85,2.18-1.73,3.23-2.62l-.05.9c-.03.48.36.89.84.89h23.05l-2.4,56.81c-.12,2.86-2.44,5.11-5.29,5.17h5.39s2.36-61.98,2.36-61.98h390.4c.24,0,.47-.01.7-.03,4.93-.43,7.98-5.62,6.36-10.29l-1.28-3.68h-405.48c-.48,0-.87-.41-.84-.89Zm-31.82-53.86c-4.28,5.27-8.21.3-11.56-2.53-25.94-21.86-60.99-27.13-86.82-4.91-14.37,12.36-32.38,13.58-49.93,5.05-6.35-3.09-12.55-6.86-18.07-11.24-8.89-7.06-15.09-14.87-19.04-22.98l12.8.02c5.82,9.46,14.74,16.72,25.37,22.68,17.57,9.86,33.14,5.34,48.64-5.92,7.37-5.35,16.46-9.38,25.37-11.35,26.03-5.79,48.24,3.9,68.27,19.8,3.51,2.79,9.52,5.8,4.98,11.38Zm21.86-3.93c-14.13-10.81-28.26-21.61-42.38-32.43l18.57.03c8.18,6.28,16.36,12.55,24.54,18.83l-.73,13.57Z"/>
        <path d="m1084.42.03c-.22-.02-.45-.03-.68-.03h-409.49c-3.39,0-6.18,2.65-6.36,6.03l-.43,7.97-6.2,115.11c-.03.48.36.89.84.89h413.51c.24,0,.47-.01.7-.03,4.93-.43,7.98-5.62,6.36-10.29l-18.96-54.68,26.7-53.83c2.37-4.78-.66-10.7-5.98-11.15Z"/>
      </g>
    </g>
    <g id="_2023_Text" data-name="2023 Text">
      <g>
        <path class="cls-4" d="m839.32,44.3c-6.8,0-10.2,6.72-10.2,20.15s3.37,20.15,10.1,20.15,10.3-6.53,10.3-19.6v-.6c0-13.4-3.4-20.1-10.2-20.1Z"/>
        <path class="cls-2" d="m804.47,84.35c-1.17-.63-3.12-.95-5.85-.95h-18.3v-.5l2.5-1c3.87-1.53,8.27-4.5,13.2-8.9,2.33-2.07,4.33-4.8,6-8.2,1.67-3.4,2.5-7,2.5-10.8,0-7.13-2.5-13.48-7.5-19.05-5-5.57-11.52-8.35-19.55-8.35s-14.53,2.75-19.5,8.25c-4.97,5.5-7.45,11.72-7.45,18.65,0,2.33.17,4.03.5,5.1.87,2.54,3.63,3.8,8.3,3.8,4.2,0,6.8-.8,7.8-2.4.53-.93.85-1.77.95-2.5.1-.73.15-1.83.15-3.3v-.6l.4-2.3c.2-1.53,1.08-3.08,2.65-4.65,1.57-1.57,3.42-2.35,5.55-2.35s3.8.3,5,.9c1.2.6,2.08,1.25,2.65,1.95.57.7,1.08,1.6,1.55,2.7.47,1.1.7,1.95.7,2.55,0,3-1.25,5.83-3.75,8.5-2.5,2.67-5.52,5.05-9.05,7.15-3.54,2.1-7.07,4.23-10.6,6.4-3.53,2.17-6.55,4.77-9.05,7.8-2.5,3.03-3.75,6.35-3.75,9.95,0,2.4.87,4.5,2.6,6.3,1.73,1.8,3.8,2.7,6.2,2.7h39.1c2.67,0,4.73-.4,6.2-1.2,1-.47,1.72-1.33,2.15-2.6.43-1.27.65-2.95.65-5.05s-.2-3.8-.6-5.1c-.4-1.3-1.18-2.27-2.35-2.9Z"/>
        <path class="cls-2" d="m859.47,36c-1.97-2.67-4.67-4.9-8.1-6.7-3.43-1.8-7.45-2.7-12.05-2.7s-8.65.92-12.15,2.75c-3.5,1.83-6.22,4.1-8.15,6.8-1.93,2.7-3.68,6.42-5.25,11.15-1.57,4.73-2.35,10.43-2.35,17.1,0,7.27.97,13.77,2.9,19.5,1.27,3.6,2.88,6.7,4.85,9.3,1.97,2.6,4.7,4.78,8.2,6.55s7.52,2.65,12.05,2.65,8.52-.87,11.95-2.6c3.43-1.73,6.12-3.93,8.05-6.6,5.2-7.07,7.8-16.63,7.8-28.7,0-6.73-1-13.1-3-19.1-1.2-3.6-2.78-6.73-4.75-9.4Zm-9.95,29c0,13.07-3.43,19.6-10.3,19.6s-10.1-6.71-10.1-20.15,3.4-20.15,10.2-20.15,10.2,6.7,10.2,20.1v.6Z"/>
        <path class="cls-2" d="m926.16,84.35c-1.17-.63-3.12-.95-5.85-.95h-18.3v-.5l2.5-1c3.87-1.53,8.27-4.5,13.2-8.9,2.33-2.07,4.33-4.8,6-8.2,1.67-3.4,2.5-7,2.5-10.8,0-7.13-2.5-13.48-7.5-19.05-5-5.57-11.52-8.35-19.55-8.35s-14.53,2.75-19.5,8.25c-4.97,5.5-7.45,11.72-7.45,18.65,0,2.33.17,4.03.5,5.1.87,2.54,3.63,3.8,8.3,3.8,4.2,0,6.8-.8,7.8-2.4.53-.93.85-1.77.95-2.5.1-.73.15-1.83.15-3.3v-.6l.4-2.3c.2-1.53,1.08-3.08,2.65-4.65,1.57-1.57,3.42-2.35,5.55-2.35s3.8.3,5,.9c1.2.6,2.08,1.25,2.65,1.95.57.7,1.08,1.6,1.55,2.7.47,1.1.7,1.95.7,2.55,0,3-1.25,5.83-3.75,8.5-2.5,2.67-5.52,5.05-9.05,7.15-3.54,2.1-7.07,4.23-10.6,6.4-3.53,2.17-6.55,4.77-9.05,7.8-2.5,3.03-3.75,6.35-3.75,9.95,0,2.4.87,4.5,2.6,6.3,1.73,1.8,3.8,2.7,6.2,2.7h39.1c2.67,0,4.73-.4,6.2-1.2,1-.47,1.72-1.33,2.15-2.6.43-1.27.65-2.95.65-5.05s-.2-3.8-.6-5.1c-.4-1.3-1.18-2.27-2.35-2.9Z"/>
        <path class="cls-2" d="m985.61,68.1c-.8-1.07-1.85-2.15-3.15-3.25-1.3-1.1-2.28-1.82-2.95-2.15v-.7c5.2-2.6,7.8-6.82,7.8-12.65s-2.37-11.08-7.1-15.75c-4.73-4.67-11.2-7-19.4-7-3.47,0-6.62.47-9.45,1.4-2.83.93-5.03,1.97-6.6,3.1-1.57,1.13-2.95,2.45-4.15,3.95s-1.93,2.55-2.2,3.15c-1.53,3.47-2.3,5.73-2.3,6.8,0,2.53,1.67,4.77,5,6.7,2,1.2,3.83,1.8,5.5,1.8,2.87,0,5.07-1.67,6.6-5l.6-1.2c.33-.8,1.2-1.6,2.6-2.4,1.4-.8,3.28-1.2,5.65-1.2s4.22.63,5.55,1.9c1.33,1.27,2,2.6,2,4,0,2.6-2.53,3.9-7.6,3.9-2.33,0-4.07.17-5.2.5-2.47.87-3.7,3.63-3.7,8.3,0,4.27.9,6.83,2.7,7.7.93.53,1.8.87,2.6,1,.8.13,2.32.2,4.55.2s4.17.68,5.8,2.05c1.63,1.37,2.45,2.95,2.45,4.75s-.83,3.42-2.5,4.85c-1.67,1.43-4.27,2.15-7.8,2.15-1.53,0-2.93-.2-4.2-.6-3-1.07-4.83-2.67-5.5-4.8-.87-2.6-1.87-4.33-3-5.2-.87-.67-2.63-1-5.3-1-6.53,0-9.8,1.93-9.8,5.8,0,1.4.37,3.2,1.1,5.4l.2,1c.2.67.57,1.54,1.1,2.6,1.53,2.93,3.3,5.3,5.3,7.1,5.33,4.67,12,7,20,7s14.77-2.32,20.1-6.95c5.33-4.63,8-10.52,8-17.65,0-3.6-1.1-6.8-3.3-9.6Z"/>
      </g>
    </g>
    <g id="_notGDC_text" data-name="#notGDC text">
      <g>
        <path class="cls-4" d="m277.98,132.34c-.52.51-.82,1.11-.94,1.5.15.45.55,1.2,1.26,1.8.26.1.79.05,1-.04.59-.52.94-1.18,1.07-1.58-.13-.42-.47-1.09-1.07-1.65-.28-.08-1-.1-1.32-.03Z"/>
        <path class="cls-4" d="m474.35,114.69v16.16c1.13-.29,2.46-.94,3.99-2.36h0c1.67-1.54,2.36-3.17,2.36-5.61s-.69-4.27-2.4-5.91c-1.27-1.22-2.52-1.96-3.95-2.28Z"/>
        <polygon class="cls-2" points="129.75 129.83 145.88 129.83 147.82 117.98 131.79 117.98 129.75 129.83"/>
        <path class="cls-2" d="m271.57,141.8c2.31,1.77,4.69,2.67,7.07,2.67s4.8-.92,7.18-2.72c2.38-1.8,3.58-4.5,3.58-8.04s-1.13-6.2-3.36-7.93c-2.24-1.73-4.69-2.61-7.29-2.61s-5.05.92-7.29,2.72c-2.23,1.8-3.36,4.49-3.36,7.99s1.17,6.17,3.47,7.93Z"/>
        <path class="cls-2" d="m486.79,137.4c4.21-3.88,6.34-8.83,6.34-14.7s-2.08-10.86-6.18-14.82c-4.1-3.95-8.98-5.96-14.49-5.96h-10.44v41.33h10.54c5.22,0,10.01-1.97,14.21-5.85Z"/>
        <path class="cls-2" d="m595.35,137.79c-5.08-7.9-11.09-11.9-17.88-11.9-3.47,0-6.94,1.17-11.62,3.93l-.5.3-1.77,1.27c-.23.09-.62.22-1.21.39-.87.25-1.86.38-2.94.38-1.37,0-3.54-.25-6.57-2.42-.65-.5-1.27-1.32-1.83-2.45-.59-1.18-.88-2.61-.88-4.36s.29-3.18.88-4.36c.53-1.07,1.12-1.88,1.67-2.3,2.44-1.72,4.64-2.56,6.73-2.56s3.71.35,4.46.96l.45.36.48.32c4.62,3.08,8.61,4.52,12.54,4.52,9.8,0,15.85-8.37,17.82-11.11,3.11-4.29,4.69-8.81,4.69-13.44,0-5.73-2.67-11.04-7.5-14.95l-.7-.53c-.95-.66-2.17-1.45-3.71-2.39l-2.81-1.64c-2.74-1.63-6.3-3.09-10.86-4.46-4.71-1.4-9.44-2.12-14.08-2.12-9.34,0-18.64,2.51-27.65,7.46-4.89,2.64-9.31,5.97-13.14,9.89-1.51,1.55-2.91,3.24-4.22,5.06-1.77-2.34-3.76-4.59-6-6.72-10.43-9.91-22.77-14.93-36.59-14.93l-20.35-.11h-.07c-10.75,0-16.1,4.17-18.78,8.2-9.27-6.32-19.3-9.52-29.84-9.52-14.41,0-27.08,5.1-37.65,15.16-3.35,3.19-6.19,6.64-8.51,10.33-1.26-.44-2.5-.74-3.76-.91-.07,0-.13-.02-.2-.02-.1-3-.45-5.39-1.09-7.42l-.14-.43c-1.31-3.74-5.96-12.42-20.7-12.42-9.47,0-15.97,3.04-19.32,9.03-1.38,2.34-2.25,4.75-2.58,7.17-.19,1.4-.28,3.12-.28,5.42v.42c-1.21.6-2.35,1.34-3.41,2.2l-.43.36c-.65.58-1.25,1.22-1.81,1.9-7.37-5.33-15.71-8.04-24.86-8.04-11.14,0-21.11,4.01-29.62,11.92-1.46,1.35-2.79,2.79-4.01,4.28-.56-.74-1.14-1.46-1.76-2.17-7.23-8.32-16.83-12.71-27.75-12.71-3.81,0-7.42.74-10.8,2.22-3.19-1.47-7.12-2.22-11.75-2.22-3.81,0-7.14.51-9.99,1.5-.87-.63-1.73-1.13-2.56-1.51.54-3.45.63-4.24.63-5.31,0-5.52-2.46-10.47-6.77-13.59-4.37-3.16-9.51-3.53-12.99-3.53-5.28,0-9.22.95-12.37,2.98l-.17.11c-.83.56-1.5,1.02-2.02,1.4-.56.41-1.18.93-1.81,1.57-.81-.93-1.73-1.78-2.75-2.53-4.37-3.16-9.51-3.53-12.99-3.53-5.28,0-9.22.95-12.37,2.98l-.17.11c-.83.56-1.5,1.02-2.02,1.4-1.83,1.33-4.27,3.81-5.55,8.06-.26.86-.45,1.52-.58,2-.3,1.09-.5,2.28-.69,4-.08.7-.14,1.2-.18,1.49l-.16.99c-.88.07-1.67.17-2.41.3-3.76.69-7.1,2.76-9.93,6.16-2.34,2.81-3.85,6.11-4.48,9.8-.38,2.22-.56,4.19-.56,6.02,0,2.47.32,4.63.97,6.59l.3.8c.22.53.49,1.11.84,1.72-.5.49-.99,1.02-1.46,1.59-2.35,2.81-3.85,6.11-4.48,9.8-.38,2.22-.56,4.2-.56,6.07,0,2.68.37,4.96,1.13,6.98l.28.67c1.16,2.62,3.83,6.56,9.71,8.4-.23,1.55-.23,1.81-.23,2.48,0,7.98,5.91,16.57,18.88,16.57,7.57,0,13.28-2.07,17.02-6.16,3.06,3.61,8.03,6.16,15.1,6.16,8.57,0,14.76-2.66,18.4-7.89l.38-.59c1.21-1.97,2.05-3.8,2.56-5.64.29-1.04.58-2.39.94-4.37.35-.07.7-.15,1.04-.23.04.85.11,1.6.2,2.28.28,2.14.93,4.3,2,6.59l.23.46c2.3,4.43,7.56,9.72,19.57,9.72s16.85-4.81,19.29-9.19c2.48,4.18,7.85,9.19,19.32,9.19s16.97-4.9,19.4-9.21c2.41,2.06,5,3.85,7.8,5.31,6.33,3.32,13.02,5,19.88,5s13.35-1.57,19.58-4.66c5.81-2.88,10.82-7.17,14.95-12.75,1.61,3.18,3.72,5.91,6.32,8.18,6.28,5.47,14.89,8.24,25.59,8.24,2.2,0,3.89-.09,5.3-.27,2.15-.28,4.3-.94,6.59-2.01l.3-.14c3.39-1.7,7.26-5.05,9.02-11.64,10.27,10.05,22.51,15.15,36.42,15.15,12.65,0,23.09-2.9,31.15-8.62,3.66,4.92,9.74,7.41,18.13,7.41h20.13c14.64,0,27.27-5.29,37.56-15.71,1.97-2,3.75-4.08,5.34-6.24,1.36,1.97,2.83,3.78,4.42,5.43,3.82,3.96,8.18,7.35,12.96,10.09,4.73,2.71,9.47,4.69,14.1,5.88,4.56,1.17,9.16,1.77,13.68,1.77s9.64-.78,14.57-2.33c4.94-1.55,7.99-2.78,10.16-4.09,1.23-.74,2.51-1.52,3.84-2.34,2.23-1.36,4.23-2.96,5.95-4.74,3.22-3.33,4.99-7.78,4.99-12.53,0-4.03-1.38-8.1-4.33-12.81l-.07-.11Zm-220.87-45.27c8.2-7.8,18-11.75,29.13-11.75,8.64,0,16.92,2.9,24.6,8.6,2,1.49,3.02,3.17,3.02,5s-.86,3.93-2.55,6.29c-2.87,3.9-5.53,5.88-7.91,5.88-1.41,0-3.69-1.02-6.78-3.05-3.05-1.99-6.72-3-10.93-3-5.51,0-10.48,1.97-14.77,5.85-4.28,3.88-6.45,9.03-6.45,15.31s2.21,11.69,6.56,16.08c4.35,4.39,9.36,6.62,14.87,6.62,3.96,0,7.59-.65,10.77-1.94v-11.78h-8.56c-2.29,0-3.94-.3-4.91-.9-.98-.6-1.63-1.5-1.93-2.66-.29-1.14-.44-2.7-.44-4.65s.17-3.53.5-4.71c.34-1.2.97-2.04,1.88-2.5,1.33-.67,3.13-1,5.34-1h19.36c4,.15,6.48,1.21,7.37,3.15.74,1.4,1.11,3.49,1.11,6.21v24.2c0,2.37-1.05,4.66-3.12,6.8-6.16,6.38-15.51,9.61-27.81,9.61-10.91,0-20.53-4.18-28.58-12.41-8.05-8.23-12.14-18.31-12.14-29.95s4.16-21.5,12.36-29.3Zm-204.67,51.19c-1.19.59-2.87.9-5.01.9h-5.39c-.72,4.47-1.16,7.28-1.3,8.36l-.22,1.22c-.29,1.6-.53,2.75-.72,3.42-.19.67-.58,1.5-1.17,2.45-1.2,1.72-3.97,2.59-8.25,2.59s-6.5-1.41-6.5-4.19c0-.11.48-3.18.88-5.74l1.3-8.11h-16.14c-.73,4.54-1.16,7.28-1.3,8.36l-.22,1.22c-.29,1.6-.53,2.75-.72,3.42-.19.67-.58,1.49-1.17,2.45-1.2,1.72-3.97,2.59-8.25,2.59s-6.5-1.41-6.5-4.19c0-.11.48-3.18.88-5.74l1.3-8.11h-7.11c-3.12,0-5.01-.69-5.61-2.05-.23-.6-.34-1.49-.34-2.64s.13-2.48.39-3.98c.26-1.52.86-2.85,1.79-3.96.93-1.12,1.83-1.76,2.66-1.91.81-.15,2.04-.22,3.65-.22h7.04l1.94-11.85h-7.11c-3.24,0-5.08-.64-5.62-1.95-.23-.68-.34-1.58-.34-2.69s.13-2.43.39-3.93c.26-1.52.86-2.85,1.79-3.96.93-1.12,1.82-1.76,2.66-1.91.81-.15,2.04-.22,3.65-.22h7.04l1.85-11.23c.08-.46.17-1.2.27-2.14.11-1.01.22-1.7.33-2.11.11-.4.28-.98.5-1.71.23-.76.56-1.3.98-1.61.41-.3.95-.67,1.6-1.1,1.04-.67,2.95-1.01,5.68-1.01s4.66.4,5.74,1.18c1.09.79,1.65,1.99,1.65,3.57,0,.14-.06.7-.55,3.87l-2.07,12.29h16.14l1.85-11.23c.07-.45.17-1.17.27-2.14.11-.99.22-1.7.33-2.11.11-.4.28-.97.5-1.71.23-.76.56-1.3.98-1.61.41-.3.95-.67,1.6-1.1,1.04-.67,2.95-1.01,5.68-1.01s4.66.4,5.74,1.18c1.09.79,1.65,1.99,1.65,3.57,0,.23-.18,1.49-.55,3.87l-2.07,12.29h5.46c1.39,0,2.42.06,3.05.17.65.11,1.28.52,1.89,1.2.61.68.91,1.69.91,3s-.13,2.7-.39,4.2c-.26,1.52-.84,2.85-1.73,3.96-.9,1.12-1.77,1.76-2.6,1.92-.82.15-2.01.22-3.65.22h-5.39l-1.94,11.85h5.46c1.39,0,2.42.06,3.05.17.65.11,1.28.52,1.89,1.19.6.68.91,1.69.91,3s-.11,2.57-.33,3.82c-.22,1.25-.57,2.41-1.05,3.44-.49,1.05-1.15,1.81-1.98,2.26Zm70.56,16.23c-1.05,2.02-3.97,3.04-8.69,3.04-5.24,0-8.32-1.4-9.14-4.16-.44-1.25-.67-3.15-.67-5.65v-19.36c0-2.96-.86-5.29-2.55-6.95-1.69-1.66-3.99-2.49-6.84-2.49s-5.19.88-6.95,2.6c-1.76,1.73-2.66,4.03-2.66,6.84v19.47c0,1.69-.06,2.97-.17,3.81-.11.85-.47,1.81-1.06,2.85-.97,2.01-3.85,3.03-8.58,3.03s-7.54-1.02-8.58-3.04c-.52-1.11-.84-2.1-.95-2.96-.11-.84-.17-2.13-.17-3.81v-38.94c0-1.61.06-2.85.17-3.7.11-.86.47-1.82,1.06-2.85,1.05-1.87,3.93-2.81,8.58-2.81s7.31.87,8.36,2.59c.69,1.17,1.06,2.57,1.11,4.17.36-.49.95-1.12,1.78-1.88,1.03-.95,2.03-1.73,2.99-2.32,2.5-1.69,5.3-2.55,8.32-2.55,7.34,0,13.53,2.85,18.41,8.46,4.87,5.61,7.35,12.54,7.35,20.6v19.36c0,1.69-.06,2.97-.17,3.81-.11.85-.43,1.81-.95,2.84Zm52.47.77c-4.5,2.24-9.24,3.37-14.08,3.37s-9.6-1.21-14.14-3.59c-4.54-2.38-8.43-5.95-11.54-10.6-3.12-4.65-4.7-9.99-4.7-15.85,0-8.8,3.12-16.15,9.28-21.87,6.15-5.72,13.29-8.61,21.2-8.61s15.01,2.88,21.1,8.56c6.08,5.68,9.17,13.02,9.17,21.82,0,6.08-1.6,11.56-4.75,16.29-3.15,4.73-7.04,8.26-11.54,10.49Zm59.01,1.27c-1.11.52-2.1.84-2.95.95-.85.11-2.09.17-3.7.17-7.62,0-13.5-1.75-17.46-5.2-3.97-3.46-5.98-9.37-5.98-17.58v-16.13c-1.36.21-2.83.31-4.39.31-1.65,0-3.03-.64-4.11-1.91-1.08-1.26-1.62-3.44-1.62-6.46s.19-5.22.55-6.58c.37-1.37.9-2.37,1.58-2.98,1.19-.97,2.7-1.46,4.48-1.46l3.5.42v-11.19c0-1.68.06-2.95.17-3.76.11-.82.47-1.73,1.06-2.69.97-1.86,3.85-2.81,8.58-2.81,5.02,0,8.06,1.4,9.03,4.15.37,1.19.56,3.09.56,5.65v10.64c3.16-.28,5.58-.43,7.19-.43s2.91.06,3.76.17c.85.11,1.85.47,2.96,1.06,1.94.97,2.93,3.86,2.93,8.58s-1.02,7.54-3.04,8.58c-1.11.52-2.1.84-2.96.95-.85.11-2.13.17-3.81.17h0l-7.02-.43v15.05c0,1.94.31,3.36.91,4.22.59.84,1.74,1.27,3.42,1.27s3.06.06,3.98.17c.93.11,1.92.47,2.96,1.06,1.72.97,2.59,3.49,2.59,7.48,0,4.65-1.06,7.54-3.15,8.58Zm120.39,1h-20.13c-4.5,0-7.35-.95-8.47-2.81-.89-1.55-1.34-3.94-1.34-7.1v-61.16c0-1.75.06-3.06.17-3.87.11-.82.47-1.8,1.06-2.9,1.04-2.01,3.97-3.04,8.69-3.04h0l20.35.11c10.61,0,20.08,3.88,28.14,11.53,8.06,7.65,12.14,17.19,12.14,28.36s-3.99,20.87-11.86,28.85c-7.87,7.98-17.54,12.03-28.74,12.03Zm113.66-8.51c-.99,1.03-2.17,1.96-3.49,2.77-1.32.81-2.58,1.58-3.79,2.31-1.22.74-3.72,1.7-7.45,2.87-3.74,1.17-7.4,1.77-10.87,1.77s-7.04-.46-10.59-1.38c-3.55-.91-7.26-2.47-11.03-4.63-3.77-2.16-7.2-4.83-10.2-7.94-3-3.11-5.51-7.16-7.45-12.03-1.94-4.87-2.92-10.23-2.92-15.94s.97-10.96,2.87-15.61c1.9-4.65,4.37-8.55,7.34-11.59,2.97-3.04,6.4-5.62,10.21-7.67,7.17-3.95,14.48-5.96,21.73-5.96,3.44,0,6.98.54,10.54,1.6,3.55,1.06,6.28,2.16,8.11,3.26l2.64,1.54c1.31.8,2.35,1.47,3.09,1.99,1.94,1.56,2.91,3.35,2.91,5.33s-.79,4.04-2.33,6.18c-2.87,3.98-5.5,5.99-7.8,5.99-1.34,0-3.25-.82-5.68-2.44-3.05-2.47-7.17-3.72-12.25-3.72-4.72,0-9.43,1.66-14.01,4.93-2.17,1.59-4.01,3.87-5.46,6.77-1.45,2.9-2.19,6.23-2.19,9.9s.74,7,2.19,9.9c1.45,2.9,3.33,5.22,5.57,6.89,4.43,3.19,9.1,4.82,13.9,4.82,2.25,0,4.41-.29,6.4-.88,2-.58,3.45-1.17,4.31-1.74l1.98-1.43c2.55-1.5,4.29-2.22,5.35-2.22,2.31,0,4.82,2.09,7.48,6.22,1.62,2.58,2.44,4.67,2.44,6.23s-.51,2.89-1.52,3.94Z"/>
        <path d="m171.56,141.35c.47-1.01.82-2.15,1.04-3.38.22-1.23.33-2.5.33-3.77s-.29-2.2-.85-2.83c-.57-.64-1.15-1.01-1.74-1.11-.61-.11-1.62-.16-3-.16h-5.76l.02-.15,2-12.21h5.61c1.6,0,2.82-.07,3.61-.22.77-.14,1.6-.75,2.45-1.83.86-1.08,1.43-2.37,1.68-3.85.25-1.49.38-2.89.38-4.16s-.29-2.2-.85-2.83c-.57-.64-1.15-1.01-1.74-1.12-.61-.11-1.62-.16-3-.16h-5.76l.02-.15,2.09-12.43c.36-2.33.55-3.62.55-3.83,0-1.49-.52-2.62-1.54-3.36-1.04-.75-2.92-1.13-5.59-1.13s-4.54.33-5.54.97c-.65.43-1.19.8-1.59,1.1-.38.28-.68.77-.89,1.48-.22.73-.38,1.3-.49,1.7-.11.4-.22,1.09-.33,2.07-.11.97-.2,1.69-.28,2.15l-1.89,11.44h-16.64l.02-.15,2.09-12.43c.36-2.33.55-3.62.55-3.83,0-1.49-.52-2.62-1.54-3.36-1.04-.75-2.92-1.13-5.59-1.13s-4.54.33-5.54.97c-.65.43-1.19.8-1.59,1.1-.38.28-.68.77-.89,1.48-.22.73-.38,1.3-.49,1.7-.11.4-.22,1.09-.33,2.07-.1.94-.2,1.69-.28,2.15l-1.89,11.44h-7.26c-1.6,0-2.81.07-3.61.22-.77.14-1.62.76-2.51,1.83-.9,1.08-1.48,2.37-1.73,3.85-.25,1.48-.38,2.79-.38,3.88s.11,1.96.32,2.6c.49,1.18,2.3,1.78,5.38,1.78h7.41l-.02.15-2,12.21h-7.26c-1.6,0-2.81.07-3.61.22-.77.14-1.62.76-2.51,1.83-.9,1.08-1.48,2.37-1.73,3.85-.25,1.48-.38,2.81-.38,3.94s.11,1.97.32,2.54c.56,1.26,2.37,1.9,5.38,1.9h7.41l-1.34,8.39c-.64,4.06-.87,5.61-.88,5.7,0,2.65,2.05,3.94,6.25,3.94s6.89-.83,8.04-2.48c.57-.93.96-1.74,1.14-2.38.18-.66.42-1.81.71-3.4l.22-1.21c.14-1.09.58-3.86,1.32-8.47l.02-.1h16.64l-1.34,8.39c-.64,4.06-.87,5.61-.88,5.7,0,2.65,2.05,3.94,6.25,3.94s6.89-.83,8.04-2.48c.57-.93.96-1.73,1.14-2.38.18-.66.42-1.8.71-3.4l.22-1.21c.15-1.1.58-3.87,1.32-8.47l.02-.1h5.61c2.1,0,3.75-.29,4.89-.87.77-.42,1.4-1.14,1.87-2.14Zm-23.47-23.47l-2,12.21h-16.64l2.13-12.35h16.53l-.02.15Z"/>
        <path class="cls-5" d="m171.79,141.45c.48-1.03.83-2.19,1.05-3.44.22-1.25.33-2.53.33-3.82s-.31-2.32-.91-3c-.6-.68-1.24-1.08-1.89-1.19-.63-.11-1.65-.17-3.05-.17h-5.46l1.94-11.85h5.39c1.64,0,2.83-.07,3.65-.22.83-.15,1.71-.8,2.6-1.92.89-1.11,1.47-2.44,1.73-3.96.26-1.5.39-2.92.39-4.2s-.31-2.32-.91-3c-.6-.68-1.24-1.08-1.89-1.2-.63-.11-1.65-.17-3.05-.17h-5.46l2.07-12.29c.37-2.38.55-3.64.55-3.87,0-1.57-.55-2.77-1.65-3.57-1.08-.78-3.01-1.18-5.74-1.18s-4.64.34-5.68,1.01c-.65.44-1.19.81-1.6,1.1-.42.31-.75.85-.98,1.61-.22.73-.39,1.3-.5,1.71-.11.41-.22,1.12-.33,2.11-.11.97-.2,1.69-.27,2.14l-1.85,11.23h-16.14l2.07-12.29c.49-3.17.55-3.73.55-3.87,0-1.57-.55-2.77-1.65-3.57-1.08-.78-3.01-1.18-5.74-1.18s-4.64.34-5.68,1.01c-.65.44-1.19.81-1.6,1.1-.42.31-.75.85-.98,1.61-.22.73-.39,1.31-.5,1.71-.11.41-.22,1.1-.33,2.11-.1.94-.2,1.68-.27,2.14l-1.85,11.23h-7.04c-1.61,0-2.84.07-3.65.22-.83.15-1.73.8-2.66,1.91-.93,1.11-1.53,2.45-1.79,3.96-.26,1.5-.39,2.82-.39,3.93s.11,2.01.34,2.69c.54,1.31,2.38,1.95,5.62,1.95h7.11l-1.94,11.85h-7.04c-1.61,0-2.84.07-3.65.22-.83.15-1.73.8-2.66,1.91-.93,1.11-1.53,2.44-1.79,3.96-.26,1.5-.39,2.84-.39,3.98s.11,2.03.34,2.64c.6,1.36,2.49,2.05,5.61,2.05h7.11l-1.3,8.11c-.4,2.56-.88,5.63-.88,5.74,0,2.78,2.19,4.19,6.5,4.19s7.05-.87,8.25-2.59c.59-.96.98-1.78,1.17-2.45.18-.67.43-1.82.72-3.42l.22-1.22c.14-1.08.57-3.82,1.3-8.36h16.14l-1.3,8.11c-.4,2.56-.88,5.63-.88,5.74,0,2.78,2.19,4.19,6.5,4.19s7.05-.87,8.25-2.59c.59-.96.98-1.78,1.17-2.45.18-.67.43-1.82.72-3.42l.22-1.22c.14-1.08.58-3.89,1.3-8.36h5.39c2.14,0,3.82-.3,5.01-.9.83-.45,1.49-1.21,1.98-2.26Zm-6.99,2.9h-5.61l-.02.1c-.74,4.6-1.17,7.37-1.32,8.47l-.22,1.21c-.29,1.6-.53,2.74-.71,3.4-.18.65-.56,1.45-1.14,2.38-1.14,1.64-3.85,2.48-8.04,2.48s-6.25-1.29-6.25-3.94c0-.09.24-1.64.88-5.7l1.34-8.39h-16.64l-.02.1c-.74,4.61-1.18,7.38-1.32,8.47l-.22,1.21c-.29,1.59-.53,2.74-.71,3.4-.18.65-.56,1.45-1.14,2.38-1.14,1.64-3.85,2.48-8.04,2.48s-6.25-1.29-6.25-3.94c0-.09.24-1.64.88-5.7l1.34-8.39h-7.41c-3.01,0-4.82-.64-5.38-1.9-.21-.57-.32-1.42-.32-2.54s.13-2.45.38-3.94c.25-1.48.83-2.77,1.73-3.85.89-1.07,1.74-1.69,2.51-1.83.8-.15,2.01-.22,3.61-.22h7.26l2-12.21.02-.15h-7.41c-3.08,0-4.9-.6-5.38-1.78-.21-.64-.32-1.52-.32-2.6s.13-2.4.38-3.88c.25-1.47.83-2.77,1.73-3.85.89-1.07,1.74-1.69,2.51-1.83.8-.14,2.01-.22,3.61-.22h7.26l1.89-11.44c.08-.46.17-1.21.28-2.15.11-.98.22-1.68.33-2.07.11-.4.28-.97.49-1.7.21-.7.51-1.2.89-1.48.4-.29.94-.66,1.59-1.1,1-.64,2.87-.97,5.54-.97s4.55.38,5.59,1.13c1.02.74,1.54,1.87,1.54,3.36,0,.21-.18,1.5-.55,3.83l-2.09,12.43-.02.15h16.64l1.89-11.44c.08-.46.17-1.18.28-2.15.11-.98.22-1.67.33-2.07.11-.4.27-.97.49-1.7.21-.7.51-1.2.89-1.48.4-.29.94-.66,1.59-1.1,1-.64,2.87-.97,5.54-.97s4.55.38,5.59,1.13c1.02.74,1.54,1.87,1.54,3.36,0,.21-.18,1.5-.55,3.83l-2.09,12.43-.02.15h5.76c1.38,0,2.39.05,3,.16.59.1,1.18.48,1.74,1.12.56.63.85,1.59.85,2.83s-.13,2.67-.38,4.16c-.25,1.48-.82,2.77-1.68,3.85-.86,1.07-1.68,1.69-2.45,1.83-.79.14-2.01.22-3.61.22h-5.61l-2,12.21-.02.15h5.76c1.38,0,2.39.05,3,.16.59.1,1.18.48,1.74,1.11.56.63.85,1.59.85,2.83s-.11,2.54-.33,3.77c-.22,1.23-.56,2.36-1.04,3.38-.46,1-1.09,1.72-1.87,2.14-1.15.58-2.79.87-4.89.87Z"/>
        <path class="cls-5" d="m129.45,130.08h16.64l2-12.21.02-.15h-16.53l-2.13,12.35Zm18.37-12.1l-1.94,11.85h-16.13l2.05-11.85h16.03Z"/>
        <path d="m231.68,162.72c4.62,0,7.47-.98,8.47-2.9.5-1.01.81-1.94.92-2.76.11-.83.16-2.1.16-3.78v-19.36c0-8-2.45-14.87-7.28-20.43-4.83-5.56-10.96-8.37-18.22-8.37-2.97,0-5.72.84-8.18,2.51-.95.58-1.94,1.36-2.95,2.3-1.01.94-1.67,1.67-1.96,2.17l-.23.41v-.47c0-1.73-.36-3.22-1.08-4.45-1-1.64-3.74-2.47-8.14-2.47s-7.36.9-8.36,2.69c-.58,1.01-.92,1.94-1.03,2.76-.11.84-.16,2.07-.16,3.67v38.94c0,1.67.06,2.94.16,3.78.11.83.42,1.79.92,2.88,1,1.92,3.81,2.9,8.36,2.9s7.43-.98,8.36-2.9c.58-1.02.93-1.94,1.03-2.77.11-.83.16-2.1.16-3.78v-19.47c0-2.88.92-5.24,2.73-7.02,1.81-1.78,4.21-2.68,7.13-2.68s5.28.86,7.02,2.57c1.74,1.71,2.62,4.1,2.62,7.13v19.36c0,2.47.22,4.34.65,5.57.79,2.65,3.78,3.99,8.9,3.99Z"/>
        <path class="cls-5" d="m241.48,153.28v-19.36c0-8.06-2.47-14.99-7.35-20.6-4.88-5.61-11.07-8.46-18.41-8.46-3.02,0-5.82.86-8.32,2.55-.96.59-1.96,1.37-2.99,2.32-.82.76-1.42,1.4-1.78,1.88-.05-1.6-.43-3-1.11-4.17-1.05-1.72-3.86-2.59-8.36-2.59s-7.53.95-8.58,2.81c-.59,1.03-.95,1.99-1.06,2.85-.11.85-.17,2.09-.17,3.7v38.94c0,1.68.06,2.97.17,3.81.11.85.43,1.85.95,2.96,1.04,2.02,3.93,3.04,8.58,3.04s7.61-1.02,8.58-3.03c.59-1.04.95-2,1.06-2.85.11-.84.17-2.12.17-3.81v-19.47c0-2.81.89-5.11,2.66-6.84,1.76-1.73,4.1-2.6,6.95-2.6s5.15.84,6.84,2.49c1.69,1.66,2.55,4,2.55,6.95v19.36c0,2.5.22,4.4.67,5.65.82,2.76,3.9,4.16,9.14,4.16,4.72,0,7.64-1.02,8.69-3.04.52-1.04.84-1.99.95-2.84.11-.84.17-2.12.17-3.81Zm-19.36-.11v-19.36c0-3.02-.88-5.42-2.62-7.13-1.74-1.7-4.1-2.57-7.02-2.57s-5.31.9-7.13,2.68c-1.81,1.78-2.73,4.14-2.73,7.02v19.47c0,1.68-.06,2.95-.16,3.78-.11.82-.45,1.75-1.03,2.77-.93,1.92-3.74,2.9-8.36,2.9s-7.36-.98-8.36-2.9c-.51-1.08-.82-2.05-.92-2.88-.11-.83-.16-2.11-.16-3.78v-38.94c0-1.6.06-2.83.16-3.67.11-.82.45-1.75,1.03-2.76,1-1.78,3.81-2.69,8.36-2.69s7.14.83,8.14,2.47c.72,1.22,1.08,2.72,1.08,4.45v.47l.23-.41c.29-.5.94-1.23,1.96-2.17,1.01-.94,2.01-1.71,2.95-2.3,2.46-1.66,5.21-2.51,8.18-2.51,7.26,0,13.39,2.82,18.22,8.37,4.83,5.56,7.28,12.44,7.28,20.43v19.36c0,1.68-.06,2.95-.16,3.78-.11.82-.42,1.75-.92,2.76-1,1.93-3.85,2.9-8.47,2.9-5.12,0-8.12-1.34-8.9-3.99-.43-1.23-.65-3.1-.65-5.57Z"/>
        <path d="m304.17,150.08c3.12-4.69,4.71-10.12,4.71-16.16,0-8.72-3.06-16-9.09-21.63-6.04-5.63-13.08-8.49-20.92-8.49s-14.93,2.88-21.03,8.55c-6.1,5.67-9.2,12.97-9.2,21.69,0,5.82,1.57,11.1,4.65,15.72,3.09,4.62,6.94,8.16,11.45,10.52,4.51,2.36,9.22,3.56,14.02,3.56s9.5-1.12,13.97-3.34c4.47-2.21,8.32-5.72,11.45-10.41Zm-18.19-8.14c-2.43,1.84-4.9,2.78-7.34,2.78s-4.87-.92-7.23-2.72c-2.37-1.81-3.57-4.55-3.57-8.13s1.16-6.33,3.46-8.18c2.29-1.84,4.79-2.78,7.45-2.78s5.16.9,7.45,2.67c2.29,1.78,3.46,4.51,3.46,8.13s-1.24,6.39-3.68,8.24Z"/>
        <path class="cls-5" d="m309.13,133.92c0-8.79-3.08-16.13-9.17-21.82-6.08-5.68-13.18-8.56-21.1-8.56s-15.05,2.9-21.2,8.61c-6.16,5.72-9.28,13.08-9.28,21.87,0,5.87,1.58,11.2,4.7,15.85,3.11,4.65,7,8.22,11.54,10.6,4.54,2.38,9.3,3.59,14.14,3.59s9.58-1.13,14.08-3.37c4.51-2.23,8.39-5.76,11.54-10.49,3.15-4.73,4.75-10.21,4.75-16.29Zm-30.38,29.91c-4.8,0-9.52-1.2-14.02-3.56-4.51-2.36-8.36-5.9-11.45-10.52-3.09-4.61-4.65-9.9-4.65-15.72,0-8.72,3.1-16.02,9.2-21.69,6.11-5.67,13.18-8.55,21.03-8.55s14.89,2.86,20.92,8.49c6.03,5.63,9.09,12.91,9.09,21.63,0,6.03-1.58,11.47-4.71,16.16-3.13,4.69-6.98,8.19-11.45,10.41-4.47,2.22-9.17,3.34-13.97,3.34Z"/>
        <path class="cls-5" d="m286.2,125.57c-2.29-1.77-4.79-2.67-7.45-2.67s-5.16.93-7.45,2.78c-2.29,1.85-3.46,4.6-3.46,8.18s1.2,6.32,3.57,8.13c2.36,1.81,4.79,2.72,7.23,2.72s4.91-.93,7.34-2.78c2.44-1.85,3.68-4.62,3.68-8.24s-1.16-6.35-3.46-8.13Zm-14.74.31c2.24-1.81,4.69-2.72,7.29-2.72s5.05.88,7.29,2.61c2.23,1.73,3.36,4.4,3.36,7.93s-1.2,6.24-3.58,8.04c-2.39,1.81-4.8,2.72-7.18,2.72s-4.76-.9-7.07-2.67c-2.3-1.76-3.47-4.43-3.47-7.93s1.13-6.19,3.36-7.99Z"/>
        <path d="m352.28,146.13c-1.01-.58-1.98-.92-2.87-1.03-.91-.11-2.23-.16-3.95-.16s-2.98-.46-3.62-1.37c-.64-.9-.96-2.36-.96-4.36v-15.31h.13s7.15.45,7.15.45c1.67,0,2.94-.06,3.77-.16.83-.11,1.8-.42,2.88-.92,1.92-1,2.9-3.81,2.9-8.36s-.94-7.43-2.79-8.36c-1.09-.58-2.05-.93-2.88-1.03-.84-.11-2.09-.16-3.72-.16s-4.08.15-7.3.44h-.14s0-10.9,0-10.9c0-2.54-.18-4.41-.54-5.57-.93-2.64-3.89-3.98-8.79-3.98-4.62,0-7.43.9-8.36,2.68-.58.94-.92,1.81-1.03,2.6-.11.8-.16,2.05-.16,3.72v11.47l-3.77-.46c-1.71,0-3.16.47-4.31,1.4-.64.57-1.14,1.53-1.5,2.85-.36,1.34-.55,3.53-.55,6.51s.53,5.08,1.57,6.3c1.03,1.21,2.35,1.83,3.92,1.83s3.11-.11,4.49-.33l.14-.02v16.43c0,8.14,1.98,13.99,5.9,17.4,3.92,3.41,9.74,5.14,17.3,5.14,1.6,0,2.83-.06,3.67-.16.83-.11,1.8-.42,2.88-.92,1.99-1,3.01-3.81,3.01-8.36,0-3.89-.83-6.34-2.47-7.26Z"/>
        <path class="cls-5" d="m352.41,145.91c-1.04-.59-2.04-.95-2.96-1.06-.92-.11-2.25-.17-3.98-.17s-2.82-.43-3.42-1.27c-.61-.85-.91-2.27-.91-4.22v-15.05l7.02.43h0c1.68,0,2.96-.06,3.81-.17.85-.11,1.85-.43,2.96-.95,2.02-1.04,3.04-3.93,3.04-8.58s-.99-7.61-2.93-8.58c-1.11-.59-2.1-.95-2.96-1.06-.85-.11-2.11-.17-3.76-.17s-4.03.14-7.19.43v-10.64c0-2.56-.19-4.46-.56-5.65-.97-2.76-4.01-4.15-9.03-4.15-4.72,0-7.61.95-8.58,2.81-.59.96-.95,1.87-1.06,2.69-.11.81-.17,2.07-.17,3.76v11.19l-3.5-.42c-1.78,0-3.29.49-4.48,1.46-.68.6-1.21,1.6-1.58,2.98-.37,1.36-.55,3.57-.55,6.58s.55,5.2,1.62,6.46c1.08,1.27,2.46,1.91,4.11,1.91,1.55,0,3.03-.1,4.39-.31v16.13c0,8.21,2.01,14.13,5.98,17.58,3.96,3.45,9.84,5.2,17.46,5.2,1.61,0,2.85-.06,3.7-.17.85-.11,1.85-.43,2.95-.95,2.09-1.04,3.15-3.93,3.15-8.58,0-3.99-.87-6.51-2.59-7.48Zm-.67,15.83c-1.08.51-2.05.82-2.88.92-.84.11-2.07.16-3.67.16-7.56,0-13.38-1.73-17.3-5.14-3.91-3.41-5.9-9.26-5.9-17.4v-16.43l-.14.02c-1.38.22-2.89.33-4.49.33s-2.89-.61-3.92-1.83c-1.04-1.22-1.57-3.34-1.57-6.3s.18-5.18.55-6.51c.36-1.32.86-2.29,1.5-2.85,1.15-.93,2.6-1.4,4.31-1.4l3.77.46v-11.47c0-1.67.06-2.92.16-3.72.11-.79.45-1.66,1.03-2.6.93-1.78,3.74-2.68,8.36-2.68,4.9,0,7.86,1.34,8.79,3.98.36,1.16.54,3.03.54,5.57v10.92h.14c3.22-.3,5.68-.45,7.3-.45s2.89.06,3.72.16c.82.11,1.79.45,2.88,1.03,1.85.93,2.79,3.74,2.79,8.36s-.98,7.36-2.9,8.36c-1.08.51-2.05.82-2.88.92-.83.11-2.1.16-3.77.16l-7.15-.44h-.13s0,15.31,0,15.31c0,2,.32,3.47.96,4.36.64.91,1.86,1.37,3.62,1.37s3.04.06,3.95.16c.89.11,1.86.45,2.87,1.03,1.64.93,2.47,3.37,2.47,7.26,0,4.55-1.01,7.36-3.01,8.36Z"/>
        <path d="m428.06,89.58c-7.64-5.68-15.87-8.56-24.46-8.56-11.06,0-20.8,3.93-28.95,11.68-8.15,7.75-12.28,17.54-12.28,29.11s4.06,21.59,12.06,29.78c8,8.19,17.56,12.34,28.4,12.34,12.23,0,21.52-3.21,27.63-9.53,2.02-2.09,3.04-4.32,3.04-6.62v-24.2c0-2.68-.37-4.73-1.09-6.1-.86-1.86-3.26-2.87-7.15-3.01h-19.35c-2.17,0-3.93.33-5.22.98-.84.42-1.43,1.21-1.75,2.34-.33,1.16-.49,2.72-.49,4.64s.15,3.47.44,4.59c.28,1.1.89,1.94,1.81,2.51.93.57,2.53.86,4.77.86h8.81v12.2l-.08.03c-3.23,1.32-6.91,1.99-10.94,1.99-5.58,0-10.65-2.25-15.05-6.69-4.4-4.44-6.64-9.91-6.64-16.26s2.2-11.56,6.53-15.49c4.33-3.93,9.36-5.92,14.93-5.92,4.26,0,7.98,1.02,11.07,3.05,3.04,1.99,5.28,3,6.64,3,2.29,0,4.89-1.94,7.71-5.78,1.66-2.31,2.51-4.38,2.51-6.14s-.98-3.36-2.92-4.79Z"/>
        <path class="cls-5" d="m362.12,121.82c0,11.64,4.08,21.72,12.14,29.95,8.05,8.24,17.67,12.41,28.58,12.41,12.3,0,21.65-3.23,27.81-9.61,2.07-2.14,3.12-4.43,3.12-6.8v-24.2c0-2.72-.38-4.81-1.11-6.21-.9-1.94-3.38-3-7.37-3.15h-19.36c-2.21,0-4,.34-5.34,1-.91.45-1.54,1.29-1.88,2.5-.33,1.18-.5,2.76-.5,4.71s.15,3.51.44,4.65c.3,1.16.95,2.06,1.93,2.66.97.6,2.62.9,4.91.9h8.56v11.78c-3.18,1.29-6.8,1.94-10.77,1.94-5.51,0-10.52-2.23-14.87-6.62-4.36-4.39-6.56-9.8-6.56-16.08s2.17-11.43,6.45-15.31c4.28-3.88,9.25-5.85,14.77-5.85,4.21,0,7.89,1.01,10.93,3,3.08,2.02,5.37,3.05,6.78,3.05,2.38,0,5.04-1.98,7.91-5.88,1.69-2.36,2.55-4.47,2.55-6.29s-1.02-3.51-3.02-5c-7.69-5.71-15.96-8.6-24.6-8.6-11.13,0-20.93,3.95-29.13,11.75-8.2,7.8-12.36,17.65-12.36,29.3Zm68.86-27.44c0,1.76-.84,3.83-2.51,6.14-2.82,3.83-5.42,5.78-7.71,5.78-1.36,0-3.6-1.01-6.64-3-3.09-2.02-6.81-3.05-11.07-3.05-5.58,0-10.6,1.99-14.93,5.92-4.33,3.93-6.53,9.14-6.53,15.49s2.23,11.82,6.64,16.26c4.4,4.44,9.47,6.69,15.05,6.69,4.03,0,7.71-.67,10.94-1.99l.08-.03v-12.2h-8.81c-2.24,0-3.85-.29-4.77-.86-.92-.57-1.53-1.41-1.81-2.51-.29-1.12-.44-2.66-.44-4.59s.17-3.48.49-4.64c.32-1.13.91-1.92,1.75-2.34,1.3-.65,3.05-.98,5.22-.98h19.35c3.89.15,6.3,1.16,7.15,3.01.72,1.37,1.09,3.43,1.09,6.1v24.2c0,2.3-1.02,4.53-3.04,6.62-6.11,6.33-15.4,9.53-27.63,9.53-10.84,0-20.4-4.15-28.4-12.34-8.01-8.19-12.06-18.2-12.06-29.78s4.13-21.37,12.28-29.11c8.15-7.75,17.89-11.68,28.95-11.68,8.59,0,16.81,2.88,24.46,8.56,1.94,1.44,2.92,3.05,2.92,4.79Z"/>
        <path d="m452.11,162.72h20.13c11.13,0,20.74-4.02,28.57-11.95,7.82-7.93,11.79-17.58,11.79-28.68s-4.06-20.58-12.06-28.18c-8.01-7.6-17.42-11.46-27.96-11.46l-20.35-.11c-4.62,0-7.47.98-8.47,2.9-.58,1.08-.92,2.03-1.03,2.82-.11.8-.16,2.09-.16,3.83v61.16c0,3.12.44,5.46,1.3,6.98,1.07,1.78,3.85,2.69,8.25,2.69Zm34.84-25.14c-4.26,3.93-9.1,5.92-14.38,5.92h-10.79v-41.83h10.69c5.58,0,10.51,2.03,14.66,6.03,4.15,4.01,6.25,9.05,6.25,15s-2.16,10.96-6.42,14.89Z"/>
        <path class="cls-5" d="m512.85,122.09c0-11.17-4.08-20.71-12.14-28.36-8.05-7.65-17.52-11.53-28.14-11.53l-20.35-.11h0c-4.72,0-7.65,1.02-8.69,3.04-.59,1.11-.95,2.08-1.06,2.9-.11.81-.17,2.11-.17,3.87v61.16c0,3.16.45,5.55,1.34,7.1,1.12,1.86,3.97,2.81,8.47,2.81h20.13c11.2,0,20.87-4.05,28.74-12.03,7.87-7.98,11.86-17.69,11.86-28.85Zm-70.29,30.97v-61.16c0-1.74.06-3.03.16-3.83.11-.79.45-1.74,1.03-2.82,1-1.93,3.85-2.9,8.47-2.9l20.35.11c10.55,0,19.96,3.86,27.96,11.46,8,7.6,12.06,17.08,12.06,28.18s-3.97,20.75-11.79,28.68c-7.82,7.93-17.43,11.95-28.57,11.95h-20.13c-4.41,0-7.18-.9-8.25-2.69-.87-1.51-1.3-3.86-1.3-6.98Z"/>
        <path class="cls-5" d="m472.46,101.67h-10.69v41.83h10.79c5.29,0,10.13-1.99,14.38-5.92,4.26-3.93,6.42-8.94,6.42-14.89s-2.1-10.99-6.25-15c-4.15-4-9.08-6.03-14.66-6.03Zm-10.44.25h10.44c5.51,0,10.39,2.01,14.49,5.96,4.1,3.96,6.18,8.94,6.18,14.82s-2.13,10.82-6.34,14.7c-4.21,3.88-8.99,5.85-14.21,5.85h-10.54v-41.33Z"/>
        <path d="m582.29,157.02c1.31-.8,2.46-1.72,3.44-2.73.96-1,1.45-2.26,1.45-3.76s-.81-3.56-2.4-6.09c-2.6-4.05-5.05-6.1-7.26-6.1-1,0-2.75.73-5.22,2.18l-1.97,1.43c-.88.59-2.36,1.19-4.38,1.78-2.02.59-4.19.88-6.47.88-4.85,0-9.57-1.64-14.04-4.86-2.28-1.69-4.18-4.04-5.65-6.98-1.47-2.93-2.21-6.3-2.21-10.01s.74-7.08,2.21-10.01c1.47-2.94,3.33-5.25,5.54-6.86,4.62-3.3,9.38-4.97,14.15-4.97,5.14,0,9.31,1.27,12.4,3.77,2.38,1.58,4.24,2.39,5.53,2.39,2.22,0,4.78-1.98,7.6-5.89,1.52-2.09,2.29-4.12,2.29-6.03s-.95-3.62-2.81-5.13c-.73-.51-1.76-1.17-3.07-1.97l-2.64-1.54c-1.82-1.09-4.53-2.18-8.06-3.23-3.53-1.05-7.06-1.59-10.47-1.59-7.21,0-14.48,1.99-21.61,5.92-3.78,2.04-7.2,4.6-10.15,7.62-2.95,3.02-5.4,6.89-7.29,11.51-1.89,4.62-2.85,9.84-2.85,15.52s.98,11.01,2.91,15.85c1.93,4.84,4.42,8.86,7.4,11.95,2.99,3.1,6.4,5.75,10.15,7.9,3.75,2.15,7.44,3.7,10.97,4.61,3.53.91,7.07,1.37,10.53,1.37s7.08-.59,10.8-1.75c3.71-1.16,6.2-2.12,7.4-2.85,1.21-.73,2.48-1.5,3.79-2.31Z"/>
        <path class="cls-5" d="m577.51,138.08c-1.06,0-2.81.73-5.35,2.22l-1.98,1.43c-.86.58-2.31,1.16-4.31,1.74-1.99.58-4.15.88-6.4.88-4.79,0-9.47-1.62-13.9-4.82-2.25-1.67-4.12-3.98-5.57-6.89-1.45-2.9-2.19-6.23-2.19-9.9s.74-7,2.19-9.9c1.45-2.9,3.29-5.18,5.46-6.77,4.58-3.27,9.29-4.93,14.01-4.93,5.08,0,9.2,1.25,12.25,3.72,2.43,1.62,4.34,2.44,5.68,2.44,2.31,0,4.93-2.02,7.8-5.99,1.55-2.14,2.33-4.22,2.33-6.18s-.98-3.76-2.91-5.33c-.74-.51-1.78-1.18-3.09-1.99l-2.64-1.54c-1.83-1.1-4.56-2.19-8.11-3.26-3.56-1.06-7.1-1.6-10.54-1.6-7.25,0-14.56,2-21.73,5.96-3.81,2.05-7.24,4.63-10.21,7.67-2.97,3.04-5.44,6.94-7.34,11.59-1.9,4.65-2.87,9.9-2.87,15.61s.98,11.07,2.92,15.94c1.94,4.87,4.45,8.92,7.45,12.03,3,3.11,6.43,5.78,10.2,7.94,3.77,2.16,7.48,3.72,11.03,4.63,3.55.92,7.12,1.38,10.59,1.38s7.13-.59,10.87-1.77c3.73-1.17,6.24-2.13,7.45-2.87,1.21-.73,2.48-1.5,3.79-2.31,1.32-.81,2.5-1.74,3.49-2.77,1.01-1.05,1.52-2.37,1.52-3.94s-.82-3.65-2.44-6.23c-2.65-4.13-5.17-6.22-7.48-6.22Zm-17.21,25.85c-3.45,0-7-.46-10.53-1.37-3.53-.91-7.22-2.46-10.97-4.61-3.75-2.15-7.16-4.8-10.15-7.9-2.98-3.09-5.47-7.11-7.4-11.95-1.93-4.84-2.91-10.17-2.91-15.85s.96-10.9,2.85-15.52c1.89-4.62,4.34-8.49,7.29-11.51,2.95-3.02,6.36-5.59,10.15-7.62,7.13-3.93,14.4-5.92,21.61-5.92,3.41,0,6.94.53,10.47,1.59,3.53,1.06,6.24,2.14,8.06,3.23l2.64,1.54c1.31.8,2.34,1.46,3.07,1.97,1.87,1.51,2.81,3.23,2.81,5.13s-.77,3.94-2.29,6.03c-2.82,3.91-5.38,5.89-7.6,5.89-1.29,0-3.15-.81-5.53-2.39-3.09-2.5-7.26-3.77-12.4-3.77-4.77,0-9.53,1.67-14.15,4.97-2.21,1.62-4.07,3.93-5.54,6.86-1.47,2.94-2.21,6.3-2.21,10.01s.74,7.08,2.21,10.01c1.47,2.94,3.37,5.29,5.65,6.98,4.47,3.23,9.2,4.86,14.04,4.86,2.28,0,4.45-.3,6.47-.88,2.02-.59,3.5-1.19,4.38-1.78l1.97-1.43c2.46-1.45,4.22-2.18,5.22-2.18,2.22,0,4.66,2.05,7.26,6.1,1.59,2.54,2.4,4.59,2.4,6.09s-.49,2.77-1.45,3.76c-.98,1.01-2.13,1.93-3.44,2.73-1.32.81-2.58,1.58-3.79,2.31-1.2.73-3.69,1.69-7.4,2.85-3.71,1.16-7.35,1.75-10.8,1.75Z"/>
      </g>
    </g>
  </g>
</svg>