<?xml version="1.0" encoding="UTF-8" standalone="no"?>
<!DOCTYPE svg PUBLIC "-//W3C//DTD SVG 1.1//EN" "http://www.w3.org/Graphics/SVG/1.1/DTD/svg11.dtd">
<svg width="100%" height="100%" viewBox="0 0 3840 2160" version="1.1" xmlns="http://www.w3.org/2000/svg" xmlns:xlink="http://www.w3.org/1999/xlink" xml:space="preserve" xmlns:serif="http://www.serif.com/" style="fill-rule:evenodd;clip-rule:evenodd;stroke-miterlimit:10;">
    <g id="_-notGDC---Banner" serif:id="#notGDC - Banner" transform="matrix(2,0,0,2,0,0)">
        <g transform="matrix(1,0,0,1,0,-177)">
            <rect x="0" y="291" width="1237" height="675" style="fill:rgb(243,241,249);"/>
        </g>
        <g transform="matrix(-0.0380082,0.999277,0.999277,0.0380082,469.454,110.788)">
            <path d="M242.857,-401.771L409.979,-401.771L386.78,233.794L219.658,233.795L242.857,-401.771Z" style="fill-rule:nonzero;"/>
        </g>
        <g transform="matrix(1,0,0,1,52.3911,339.174)">
            <path d="M0,166.026L6.352,-0.975L642.34,-0L635.988,167.001L0,166.026ZM654.701,-11.851C652.183,-14.479 648.651,-15.99 645.011,-15.996L3.974,-16.979L3.954,-16.979C-3.314,-16.979 -9.241,-11.296 -9.545,-4.003L-16.088,168.032C-16.239,171.665 -14.884,175.255 -12.369,177.881C-9.854,180.507 -6.326,182.016 -2.69,182.022L638.458,183.005L638.479,183.005C645.694,183.005 651.579,177.363 651.88,170.123L658.427,-1.99C658.578,-5.627 657.219,-9.222 654.701,-11.851" style="fill-rule:nonzero;"/>
        </g>
        <g transform="matrix(-0.0380082,0.999277,0.999277,0.0380082,483.507,95.6036)">
            <path d="M245.97,-404.769L413.092,-404.769L389.666,236.793L222.545,236.793L245.97,-404.769Z" style="fill:rgb(255,81,123);fill-rule:nonzero;"/>
        </g>
        <g transform="matrix(1,0,0,1,705.318,326.013)">
            <path d="M0,167.975L-641.988,167L-635.636,-0.001L6.352,0.975L0,167.975ZM18.714,-10.875C16.196,-13.504 12.663,-15.016 9.021,-15.022L-638.013,-16.004L-638.036,-16.004C-645.303,-16.004 -651.229,-10.321 -651.533,-3.029L-658.076,169.006C-658.228,172.639 -656.872,176.229 -654.357,178.855C-651.842,181.481 -648.314,182.99 -644.678,182.996L2.469,183.979L2.492,183.979C9.707,183.978 15.591,178.337 15.893,171.097L22.438,-1.013C22.59,-4.65 21.232,-8.245 18.714,-10.875" style="fill-rule:nonzero;"/>
        </g>
        <g transform="matrix(1,0,0,1,264.068,538.345)">
            <clipPath id="_clip1">
                <path d="M-194.288,-212.057L-200.068,-46.345C-200.068,-45.345 -200.068,-45.345 -200.416,-45.336L435.732,-44.353C438.638,-44.348 441.027,-46.638 441.149,-49.54L447.696,-204.678C447.825,-207.77 445.355,-211.349 442.26,-211.353L-193.775,-212.337C-193.817,-212.338 -193.853,-212.339 -193.885,-212.339C-194.072,-212.339 -194.099,-212.304 -194.288,-212.057Z" clip-rule="nonzero"/>
            </clipPath>
            <g clip-path="url(#_clip1)">
                <path d="M0,34.501C-0.099,44.399 2.078,53.824 8.557,61.385C11.087,64.337 15.704,67.024 19.454,67.139C34.522,67.604 47.676,61.646 58.908,51.974C65.677,46.145 65.324,42.192 58.531,36.073C46.906,25.6 33.47,18.464 18.029,15.472C6.452,13.228 1.306,17.171 0.027,29C-0.169,30.814 0,32.666 0,34.501M76.318,373.012C75.139,363.228 74.956,353.9 72.705,345.102C70.18,335.233 66.449,325.519 61.977,316.356C58.854,309.956 54.251,309.498 48.818,312.865C38.13,319.49 30.638,339.158 34.464,351.201C39.15,365.954 47.498,378.449 58.822,388.924C60.794,390.748 63.367,391.95 65.736,393.313C69.688,395.587 72.453,394.498 73.361,390.016C74.538,384.204 75.407,378.33 76.318,373.012M592.718,-48.16C592.195,-48.945 591.933,-49.664 591.421,-50.06C572.329,-64.819 553.234,-79.573 534.052,-94.214C533.002,-95.016 530.744,-95.596 529.843,-95.025C520.229,-88.938 509.93,-83.544 501.534,-76.04C494.251,-69.53 496.623,-60.393 505.333,-55.557C510.519,-52.677 516.123,-50.549 521.546,-48.097C528.33,-45.029 532.721,-40.021 533.322,-32.458C533.571,-29.314 532.754,-26.091 532.493,-22.899C531.947,-16.209 535.895,-10.46 542.943,-7.602C551.056,-4.311 559.89,-5.463 563.778,-10.491C573.47,-23.025 583.088,-35.615 592.718,-48.16M-163.015,-240.329C-153.294,-232.602 -144.366,-225.06 -134.979,-218.141C-117.204,-205.039 -97.729,-198.327 -75.429,-204.033C-58.282,-208.42 -46.033,-218.138 -42.283,-236.146C-38.982,-252.002 -48.256,-262.291 -59.386,-271.213C-71.523,-280.942 -76.553,-293.48 -75.739,-308.764C-75.114,-320.492 -78.237,-331.128 -85.416,-341.426C-111.292,-307.715 -136.616,-274.722 -163.015,-240.329M24.553,-485.251C23.725,-483.94 23.292,-483.12 22.737,-482.395C-9.883,-439.842 -42.554,-397.327 -74.988,-354.633C-76.262,-352.955 -76.32,-348.936 -75.188,-347.078C-68.184,-335.587 -63.842,-323.34 -64.592,-309.857C-65.328,-296.608 -61.016,-286.543 -50.348,-278.161C-30.704,-262.726 -25.576,-243.437 -34.799,-223.412C-41.168,-209.585 -51.923,-200.357 -66.703,-195.194C-65.558,-193.67 -64.931,-192.43 -63.957,-191.596C-41.665,-172.511 -17.252,-166.923 7.354,-190.288C23.093,-205.233 33.277,-222.767 28.85,-245.514C27.103,-254.488 24.685,-263.478 21.321,-271.963C11.565,-296.568 15.825,-318.814 31.437,-339.389C41.032,-352.035 50.586,-364.745 60.815,-376.872C78.646,-398.011 79.522,-421.391 71.159,-446.236C70.397,-448.5 68.98,-450.94 67.146,-452.383C53.408,-463.194 39.488,-473.774 24.553,-485.251M515.444,52.542C506.182,38.775 494.99,27.325 481.438,18.345C461.925,5.416 441.678,0.596 420.248,14.157C418.514,15.254 416.619,16.109 414.754,16.983C397.113,25.247 379.027,28.361 360.008,21.994C349.545,18.492 339.055,15.03 328.444,12.021C317.875,9.024 307.26,5.878 296.45,4.118C279.435,1.349 267.559,8.688 262.083,23.653C257.315,36.682 262.298,47.661 270.719,56.496C282.264,68.609 294.786,79.922 307.755,90.519C332.538,110.77 358.158,130.168 377.553,155.962C387.372,169.019 395.323,183.482 404.222,197.473C440.86,149.731 478.08,101.23 515.444,52.542M337.083,284.961C332.163,282.122 328.408,279.411 324.247,277.677C317.481,274.857 310.416,272.765 303.536,270.208C284.946,263.299 277.391,252.721 276.343,232.959C275.699,220.791 275.189,208.578 273.696,196.499C269.224,160.322 239.243,139.965 204.091,148.827C202.087,149.332 200.029,149.697 198.099,150.407C176.077,158.511 156.298,154.034 137.727,140.452C130.9,135.459 123.399,131.214 115.769,127.533C103.099,121.422 92.379,123.783 83.647,134.203C77.423,141.63 76.612,150.956 78.063,159.789C81.037,177.882 83.703,196.255 89.199,213.659C101.153,251.514 114.741,288.856 127.789,326.363C133.586,343.03 138.638,360.097 135.189,377.666C132.382,391.965 127.809,406.141 122.209,419.619C111.762,444.765 114.264,467.674 131.057,488.921C139.218,499.246 147.906,509.156 156.846,519.84C217.439,440.876 276.831,363.479 337.083,284.961M266.583,-298.633C265.955,-299.429 265.53,-300.26 264.861,-300.774C233.292,-325.057 201.732,-349.352 170.027,-373.459C168.357,-374.729 165.238,-375.174 163.144,-374.636C144.792,-369.922 128.151,-361.799 114.95,-347.909C99.775,-331.941 88.151,-304.367 104.948,-277.013C108.198,-271.721 111.214,-266.285 114.301,-260.894C125.084,-242.067 128.763,-222.242 121.967,-201.235C118.937,-191.868 115.426,-182.631 111.64,-173.541C102.984,-152.757 92.849,-132.507 85.483,-111.287C76.27,-84.745 82.864,-65.137 103.997,-49.714C128.048,-32.161 155.459,-24.008 184.892,-21.444C207.868,-19.443 223.808,-28.569 233.702,-49.397C239.614,-61.843 245.883,-74.213 253.162,-85.887C258.951,-95.172 265.536,-104.399 273.485,-111.809C292.481,-129.518 314.575,-128.877 337.052,-119.192C349.898,-113.657 362.31,-107.123 375.035,-101.296C389.593,-94.629 403.49,-95.471 416.474,-105.516C432.51,-117.921 443.417,-134.269 452.776,-151.895C455.167,-156.399 451.539,-157.545 449.164,-159.369C396.767,-199.623 344.032,-239.448 292.181,-280.391C281.227,-289.041 271.376,-288.995 259.823,-285.278C256.991,-284.367 254.269,-283.064 251.575,-281.777C234.071,-273.412 220.648,-252.201 221.869,-234.64C223.385,-212.824 236.457,-199.072 254.398,-189.004C271.97,-179.143 287.534,-183.663 303.035,-194.926C310.4,-200.278 319.5,-204.301 328.402,-206.281C354.431,-212.068 376.646,-202.38 396.676,-186.477C400.185,-183.691 406.201,-180.68 401.66,-175.093C397.375,-169.822 393.452,-174.796 390.1,-177.621C364.164,-199.485 329.111,-204.749 303.279,-182.532C288.907,-170.171 270.896,-168.951 253.347,-177.479C246.993,-180.566 240.801,-184.334 235.274,-188.722C191.274,-223.658 212.933,-277.264 248.952,-292.266C254.601,-294.619 260.471,-296.442 266.583,-298.633M-199.468,-192.779C-206.694,-183.364 -213.382,-174.879 -219.741,-166.155C-220.923,-164.534 -221.362,-161.896 -221.169,-159.818C-218.733,-133.554 -206.299,-113.61 -183.845,-99.474C-172.969,-92.627 -162.521,-84.914 -152.713,-76.609C-141.442,-67.064 -134.934,-54.741 -137.885,-39.375C-143.34,-10.969 -160.824,8.136 -186.09,20.576C-197.609,26.248 -209.373,25.243 -220.266,18.393C-235.448,8.846 -250.752,-0.557 -265.433,-10.838C-281.226,-21.898 -296.358,-33.901 -312.241,-45.84C-328.263,-24.971 -344.123,-4.407 -359.788,16.304C-360.817,17.665 -360.897,20.269 -360.505,22.099C-354.259,51.211 -329.719,73.772 -300.142,76.732C-283.985,78.349 -267.673,78.335 -251.466,79.528C-218.279,81.971 -194.089,103.477 -188.542,136.087C-186.857,145.989 -186.55,156.302 -187.045,166.356C-187.746,180.608 -181.906,191.184 -171.537,200.053C-167.165,203.793 -162.942,207.713 -158.75,211.656C-148.209,221.572 -144.614,233.602 -148.919,247.447C-151.161,254.656 -153.686,262.001 -157.528,268.42C-160.991,274.206 -159.651,276.756 -154.779,280.458C-114.08,311.375 -73.593,342.572 -33.026,373.662C-20.678,383.125 -19.953,383.008 -9.914,370.837C-0.448,359.36 -0.669,351.829 -10.799,341.233C-12.708,339.235 -14.628,337.247 -16.579,335.29C-41.06,310.714 -41.599,293.782 -19.084,267.03C-11.684,258.237 -4.445,249.265 2.247,239.93C10.88,227.888 12.311,214.788 4.868,201.635C-0.9,191.442 -7.222,181.546 -13.631,171.736C-28.088,149.606 -43.459,128.039 -57.129,105.44C-70.404,83.496 -73.071,59.043 -67.963,34.114C-64.747,18.416 -60.377,2.919 -55.83,-12.463C-48.965,-35.687 -54.513,-54.807 -73.929,-69.276C-89.416,-80.818 -104.887,-92.53 -121.307,-102.637C-148.209,-119.197 -172.15,-138.289 -186.574,-167.252C-190.649,-175.436 -194.816,-183.575 -199.468,-192.779M606.932,-48.992C581.242,-15.352 555.614,18.335 529.852,51.919C408.579,210.01 287.27,368.072 165.974,526.145C159.78,534.216 158.264,534.497 150.534,528.566C24.345,431.76 -101.839,334.947 -228.014,238.124C-291.74,189.222 -355.452,140.302 -419.157,91.373C-426.183,85.976 -426.326,84.717 -420.796,77.509C-312.397,-63.782 -203.986,-205.064 -95.575,-346.346C-58.176,-395.083 -20.777,-443.82 16.646,-492.538C22.311,-499.913 23.646,-499.996 31.073,-494.297C200.887,-363.983 370.705,-233.675 540.523,-103.366C560.427,-88.094 580.346,-72.841 600.227,-57.539C602.562,-55.742 604.701,-53.691 606.932,-51.757L606.932,-48.992Z" style="fill:rgb(219,68,104);fill-rule:nonzero;"/>
            </g>
        </g>
        <g transform="matrix(1,0,0,1,705.318,326.013)">
            <path d="M0,167.975L-641.988,167L-635.636,-0.001L6.352,0.975L0,167.975ZM18.715,-10.875C16.196,-13.504 12.664,-15.016 9.022,-15.022L-638.012,-16.004L-638.035,-16.004C-645.302,-16.004 -651.229,-10.321 -651.532,-3.029L-658.076,169.006C-658.227,172.639 -656.872,176.229 -654.356,178.855C-651.842,181.481 -648.314,182.99 -644.677,182.996L2.469,183.979L2.493,183.979C9.708,183.978 15.592,178.337 15.893,171.097L22.439,-1.013C22.59,-4.65 21.233,-8.245 18.715,-10.875" style="fill-rule:nonzero;"/>
        </g>
        <g transform="matrix(1,0,0,1,1098.08,302)">
            <path d="M0,130L-413.509,130C-413.992,130 -414.376,129.595 -414.35,129.112L-407.722,6.031C-407.54,2.649 -404.745,0 -401.358,0L8.136,0C8.366,0 8.594,0.01 8.819,0.029C14.139,0.476 17.17,6.392 14.798,11.175L-11.897,65L7.064,119.677C8.684,124.348 5.629,129.541 0.703,129.97C0.471,129.99 0.237,130 0,130" style="fill:rgb(255,81,123);fill-rule:nonzero;"/>
        </g>
        <g transform="matrix(1,0,0,1,1111.9,288)">
            <path d="M0,130L-413.509,130C-413.992,130 -414.376,129.595 -414.35,129.112L-407.722,6.031C-407.54,2.649 -404.745,0 -401.358,0L8.136,0C8.366,0 8.594,0.01 8.819,0.029C14.139,0.476 17.17,6.392 14.798,11.175L-11.897,65L7.064,119.677C8.684,124.348 5.629,129.541 0.703,129.97C0.471,129.99 0.237,130 0,130" style="fill-rule:nonzero;"/>
        </g>
        <g transform="matrix(1,0,0,1,750.875,485.403)">
            <path d="M0,-9.138C-0.015,-8.984 -0.036,-8.86 -0.036,-8.736C-0.038,-0.334 -0.04,8.068 -0.034,16.47C-0.033,17.605 0.616,18.486 1.65,18.765C1.979,18.854 2.337,18.858 2.682,18.858C9.363,18.856 16.044,18.843 22.726,18.843C28.4,18.842 34.074,18.857 39.749,18.861C41.528,18.863 42.428,17.972 42.428,16.209C42.43,7.953 42.429,-0.302 42.427,-8.558C42.427,-8.751 42.408,-8.943 42.397,-9.138L0,-9.138ZM-4.735,17.406L-4.735,-19.512C-4.705,-19.576 -4.661,-19.638 -4.648,-19.706C-3.954,-23.349 -1.178,-25.659 2.517,-25.664C3.205,-25.665 3.894,-25.664 4.632,-25.664C4.632,-27.055 4.679,-28.387 4.62,-29.713C4.555,-31.162 5.069,-32.189 6.472,-32.697L9.878,-32.697C11.26,-32.154 11.773,-31.129 11.678,-29.673C11.604,-28.525 11.663,-27.368 11.663,-26.214L11.663,-25.699L30.727,-25.699L30.727,-26.325C30.728,-27.661 30.729,-28.998 30.728,-30.334C30.728,-31.167 31.077,-31.82 31.755,-32.289C31.989,-32.451 32.259,-32.562 32.512,-32.697L35.918,-32.697C37.319,-32.188 37.836,-31.162 37.771,-29.712C37.712,-28.386 37.758,-27.055 37.758,-25.664C38.589,-25.664 39.369,-25.67 40.149,-25.663C43.284,-25.632 46.034,-23.522 46.872,-20.508C46.964,-20.178 47.041,-19.844 47.126,-19.512L47.126,17.406C47.091,17.506 47.043,17.605 47.022,17.708C46.437,20.566 44.738,22.419 41.97,23.303C41.644,23.407 41.305,23.475 40.973,23.559L1.418,23.559C1.336,23.526 1.256,23.478 1.17,23.463C-0.995,23.081 -2.678,21.959 -3.748,20.05C-4.202,19.239 -4.413,18.291 -4.735,17.406" style="fill:rgb(255,81,123);fill-rule:nonzero;"/>
        </g>
        <g transform="matrix(1,0,0,1,768.757,487.596)">
            <path d="M0,6.138C0.16,5.914 0.257,5.73 0.397,5.589C4.03,1.949 7.669,-1.684 11.301,-5.325C11.936,-5.961 12.657,-6.302 13.572,-6.124C15.24,-5.799 16.02,-3.876 15.038,-2.489C14.892,-2.281 14.708,-2.097 14.528,-1.917C10.22,2.394 5.911,6.703 1.6,11.011C0.171,12.44 -1.296,12.319 -2.498,10.679C-4.543,7.891 -6.589,5.104 -8.632,2.316C-9.23,1.501 -9.323,0.62 -8.845,-0.263C-8.389,-1.105 -7.635,-1.524 -6.67,-1.479C-5.867,-1.442 -5.267,-1.03 -4.798,-0.386C-3.377,1.567 -1.945,3.511 -0.517,5.457C-0.388,5.633 -0.253,5.805 0,6.138" style="fill:rgb(255,81,123);fill-rule:nonzero;"/>
        </g>
        <g transform="matrix(1,0,0,1,84.249,596.129)">
            <path d="M0,14.24C1.253,14.24 2.36,13.933 3.32,13.32C4.28,12.707 5.033,11.86 5.58,10.78C6.126,9.7 6.4,8.467 6.4,7.08C6.4,5.72 6.126,4.507 5.58,3.439C5.033,2.374 4.28,1.533 3.32,0.92C2.36,0.306 1.253,0 0,0C-1.227,0 -2.314,0.306 -3.26,0.92C-4.207,1.533 -4.954,2.374 -5.5,3.439C-6.047,4.507 -6.32,5.72 -6.32,7.08C-6.32,8.467 -6.047,9.7 -5.5,10.78C-4.954,11.86 -4.207,12.707 -3.26,13.32C-2.314,13.933 -1.227,14.24 0,14.24M-1.08,18.04C-2.814,18.04 -4.394,17.56 -5.82,16.599C-7.247,15.64 -8.387,14.334 -9.24,12.679C-10.094,11.027 -10.52,9.16 -10.52,7.08C-10.52,4.974 -10.087,3.099 -9.22,1.46C-8.354,-0.18 -7.18,-1.467 -5.7,-2.401C-4.22,-3.333 -2.56,-3.8 -0.72,-3.8C0.373,-3.8 1.373,-3.64 2.28,-3.321C3.186,-3 3.98,-2.553 4.66,-1.981C5.34,-1.406 5.9,-0.746 6.34,0C6.78,0.747 7.053,1.547 7.16,2.4L6.24,2.08L6.24,-3.36L10.4,-3.36L10.4,17.64L6.24,17.64L6.24,12.64L7.2,12.36C7.04,13.08 6.713,13.78 6.22,14.46C5.726,15.14 5.1,15.747 4.34,16.28C3.58,16.814 2.74,17.24 1.82,17.56C0.9,17.881 -0.067,18.04 -1.08,18.04" style="fill-rule:nonzero;"/>
        </g>
        <g transform="matrix(1,0,0,1,121.168,604.929)">
            <path d="M0,5.44C1.306,5.44 2.466,5.133 3.48,4.52C4.493,3.907 5.28,3.067 5.84,2.001C6.4,0.934 6.68,-0.293 6.68,-1.68C6.68,-3.066 6.393,-4.3 5.82,-5.38C5.246,-6.46 4.46,-7.306 3.46,-7.919C2.46,-8.533 1.306,-8.84 0,-8.84C-1.28,-8.84 -2.42,-8.527 -3.42,-7.9C-4.42,-7.273 -5.207,-6.419 -5.78,-5.34C-6.354,-4.26 -6.64,-3.04 -6.64,-1.68C-6.64,-0.32 -6.354,0.9 -5.78,1.98C-5.207,3.06 -4.42,3.907 -3.42,4.52C-2.42,5.133 -1.28,5.44 0,5.44M-0.16,18.04C-1.654,18.04 -3.14,17.806 -4.62,17.34C-6.1,16.874 -7.293,16.266 -8.2,15.52L-6.68,12.32C-6.147,12.719 -5.52,13.073 -4.8,13.379C-4.08,13.686 -3.32,13.926 -2.52,14.1C-1.72,14.273 -0.934,14.36 -0.16,14.36C1.306,14.36 2.533,14.12 3.52,13.639C4.506,13.16 5.253,12.454 5.76,11.52C6.266,10.586 6.52,9.426 6.52,8.04L6.52,4.001L6.96,4.28C6.826,5.107 6.393,5.9 5.66,6.66C4.926,7.42 4.013,8.04 2.92,8.52C1.826,9.001 0.707,9.24 -0.44,9.24C-2.44,9.24 -4.22,8.766 -5.78,7.82C-7.34,6.874 -8.574,5.581 -9.48,3.94C-10.387,2.299 -10.84,0.426 -10.84,-1.68C-10.84,-3.787 -10.394,-5.66 -9.5,-7.3C-8.607,-8.94 -7.38,-10.234 -5.82,-11.18C-4.26,-12.126 -2.507,-12.6 -0.56,-12.6C0.24,-12.6 1.013,-12.499 1.76,-12.3C2.506,-12.1 3.2,-11.82 3.84,-11.46C4.48,-11.1 5.053,-10.706 5.56,-10.281C6.066,-9.853 6.48,-9.4 6.8,-8.919C7.12,-8.44 7.32,-7.986 7.4,-7.56L6.52,-7.24L6.52,-12.16L10.64,-12.16L10.64,7.56C10.64,9.24 10.393,10.726 9.9,12.02C9.406,13.313 8.693,14.407 7.76,15.299C6.826,16.193 5.693,16.874 4.36,17.34C3.026,17.806 1.52,18.04 -0.16,18.04" style="fill-rule:nonzero;"/>
        </g>
        <g transform="matrix(1,0,0,1,146.728,596.129)">
            <path d="M0,14.24C1.253,14.24 2.36,13.933 3.32,13.32C4.28,12.707 5.033,11.86 5.58,10.78C6.126,9.7 6.4,8.467 6.4,7.08C6.4,5.72 6.126,4.507 5.58,3.439C5.033,2.374 4.28,1.533 3.32,0.92C2.36,0.306 1.253,0 0,0C-1.227,0 -2.314,0.306 -3.26,0.92C-4.207,1.533 -4.954,2.374 -5.5,3.439C-6.047,4.507 -6.32,5.72 -6.32,7.08C-6.32,8.467 -6.047,9.7 -5.5,10.78C-4.954,11.86 -4.207,12.707 -3.26,13.32C-2.314,13.933 -1.227,14.24 0,14.24M-1.08,18.04C-2.814,18.04 -4.394,17.56 -5.82,16.599C-7.247,15.64 -8.387,14.334 -9.24,12.679C-10.094,11.027 -10.52,9.16 -10.52,7.08C-10.52,4.974 -10.087,3.099 -9.22,1.46C-8.354,-0.18 -7.18,-1.467 -5.7,-2.401C-4.22,-3.333 -2.56,-3.8 -0.72,-3.8C0.373,-3.8 1.373,-3.64 2.28,-3.321C3.186,-3 3.98,-2.553 4.66,-1.981C5.34,-1.406 5.9,-0.746 6.34,0C6.78,0.747 7.053,1.547 7.16,2.4L6.24,2.08L6.24,-3.36L10.4,-3.36L10.4,17.64L6.24,17.64L6.24,12.64L7.2,12.36C7.04,13.08 6.713,13.78 6.22,14.46C5.726,15.14 5.1,15.747 4.34,16.28C3.58,16.814 2.74,17.24 1.82,17.56C0.9,17.881 -0.067,18.04 -1.08,18.04" style="fill-rule:nonzero;"/>
        </g>
        <g transform="matrix(1,0,0,1,162.808,592.41)">
            <path d="M0,21.36L0,0.36L4.16,0.36L4.16,4.839L3.4,5.319C3.613,4.627 3.953,3.96 4.42,3.319C4.886,2.679 5.46,2.114 6.14,1.62C6.82,1.127 7.553,0.733 8.34,0.44C9.126,0.147 9.933,0 10.76,0C11.96,0 13.013,0.2 13.92,0.6C14.827,1 15.573,1.6 16.16,2.399C16.747,3.2 17.173,4.2 17.44,5.399L16.8,5.239L17.08,4.559C17.374,3.946 17.78,3.366 18.3,2.819C18.82,2.273 19.413,1.786 20.08,1.36C20.747,0.933 21.453,0.6 22.2,0.36C22.946,0.12 23.68,0 24.4,0C25.973,0 27.273,0.319 28.3,0.96C29.327,1.6 30.1,2.573 30.62,3.88C31.14,5.186 31.4,6.813 31.4,8.759L31.4,21.36L27.24,21.36L27.24,9C27.24,7.799 27.086,6.819 26.78,6.059C26.473,5.299 26.013,4.733 25.4,4.36C24.787,3.987 24,3.799 23.04,3.799C22.293,3.799 21.593,3.926 20.94,4.179C20.287,4.433 19.72,4.786 19.24,5.239C18.76,5.694 18.386,6.219 18.12,6.819C17.854,7.42 17.72,8.08 17.72,8.799L17.72,21.36L13.56,21.36L13.56,8.92C13.56,7.827 13.4,6.899 13.08,6.139C12.76,5.38 12.293,4.799 11.68,4.399C11.066,4 10.32,3.799 9.44,3.799C8.693,3.799 8,3.926 7.36,4.179C6.72,4.433 6.16,4.78 5.68,5.219C5.2,5.659 4.827,6.179 4.56,6.78C4.293,7.38 4.16,8.026 4.16,8.719L4.16,21.36L0,21.36Z" style="fill-rule:nonzero;"/>
        </g>
        <g transform="matrix(1,0,0,1,209.528,592.289)">
            <path d="M0,21.88C-2.16,21.88 -4.074,21.42 -5.74,20.5C-7.407,19.58 -8.714,18.32 -9.66,16.721C-10.607,15.12 -11.08,13.279 -11.08,11.2C-11.08,9.547 -10.814,8.04 -10.28,6.68C-9.747,5.32 -9.007,4.141 -8.06,3.141C-7.114,2.141 -5.98,1.367 -4.66,0.82C-3.34,0.274 -1.907,0 -0.36,0C1,0 2.266,0.26 3.44,0.779C4.613,1.3 5.633,2.014 6.5,2.92C7.366,3.826 8.033,4.901 8.5,6.141C8.966,7.38 9.186,8.734 9.16,10.2L9.12,11.96L-8.04,11.96L-8.96,8.68L5.56,8.68L4.96,9.359L4.96,8.401C4.88,7.52 4.586,6.734 4.08,6.04C3.573,5.347 2.933,4.8 2.16,4.401C1.386,4 0.546,3.8 -0.36,3.8C-1.8,3.8 -3.014,4.074 -4,4.62C-4.987,5.167 -5.734,5.967 -6.24,7.02C-6.747,8.074 -7,9.373 -7,10.92C-7,12.387 -6.694,13.66 -6.08,14.74C-5.467,15.82 -4.6,16.654 -3.48,17.24C-2.36,17.826 -1.067,18.12 0.4,18.12C1.44,18.12 2.406,17.947 3.3,17.6C4.193,17.254 5.16,16.627 6.2,15.721L8.28,18.641C7.64,19.279 6.86,19.84 5.94,20.32C5.02,20.8 4.046,21.18 3.02,21.46C1.993,21.74 0.986,21.88 0,21.88" style="fill-rule:nonzero;"/>
        </g>
        <g transform="matrix(1,0,0,1,243.688,587.729)">
            <path d="M0,22.88C1.253,22.88 2.36,22.56 3.32,21.919C4.28,21.28 5.033,20.406 5.58,19.3C6.126,18.193 6.4,16.933 6.4,15.52C6.4,14.107 6.126,12.847 5.58,11.739C5.033,10.634 4.28,9.76 3.32,9.12C2.36,8.48 1.253,8.159 0,8.159C-1.254,8.159 -2.36,8.48 -3.32,9.12C-4.28,9.76 -5.034,10.634 -5.58,11.739C-6.127,12.847 -6.4,14.107 -6.4,15.52C-6.4,16.933 -6.127,18.193 -5.58,19.3C-5.034,20.406 -4.28,21.28 -3.32,21.919C-2.36,22.56 -1.254,22.88 0,22.88M-0.56,26.44C-2.48,26.44 -4.194,25.966 -5.7,25.02C-7.207,24.073 -8.4,22.78 -9.28,21.14C-10.16,19.499 -10.6,17.626 -10.6,15.52C-10.6,13.413 -10.167,11.54 -9.3,9.9C-8.434,8.26 -7.254,6.966 -5.76,6.02C-4.267,5.073 -2.574,4.6 -0.68,4.6C0.36,4.6 1.366,4.767 2.34,5.1C3.313,5.433 4.186,5.886 4.96,6.46C5.733,7.033 6.34,7.659 6.78,8.339C7.22,9.02 7.44,9.706 7.44,10.4L6.24,10.48L6.24,-3.56L10.36,-3.56L10.36,26.04L6.24,26.04L6.24,21.04L7.04,21.04C7.04,21.68 6.826,22.314 6.4,22.94C5.973,23.567 5.406,24.147 4.7,24.68C3.993,25.214 3.18,25.64 2.26,25.96C1.34,26.28 0.4,26.44 -0.56,26.44" style="fill-rule:nonzero;"/>
        </g>
        <g transform="matrix(1,0,0,1,269.527,592.289)">
            <path d="M0,21.88C-2.16,21.88 -4.074,21.42 -5.74,20.5C-7.407,19.58 -8.714,18.32 -9.66,16.721C-10.607,15.12 -11.08,13.279 -11.08,11.2C-11.08,9.547 -10.814,8.04 -10.28,6.68C-9.747,5.32 -9.007,4.141 -8.06,3.141C-7.114,2.141 -5.98,1.367 -4.66,0.82C-3.34,0.274 -1.907,0 -0.36,0C1,0 2.266,0.26 3.44,0.779C4.613,1.3 5.633,2.014 6.5,2.92C7.366,3.826 8.033,4.901 8.5,6.141C8.966,7.38 9.186,8.734 9.16,10.2L9.12,11.96L-8.04,11.96L-8.96,8.68L5.56,8.68L4.96,9.359L4.96,8.401C4.88,7.52 4.586,6.734 4.08,6.04C3.573,5.347 2.933,4.8 2.16,4.401C1.386,4 0.546,3.8 -0.36,3.8C-1.8,3.8 -3.014,4.074 -4,4.62C-4.987,5.167 -5.734,5.967 -6.24,7.02C-6.747,8.074 -7,9.373 -7,10.92C-7,12.387 -6.694,13.66 -6.08,14.74C-5.467,15.82 -4.6,16.654 -3.48,17.24C-2.36,17.826 -1.067,18.12 0.4,18.12C1.44,18.12 2.406,17.947 3.3,17.6C4.193,17.254 5.16,16.627 6.2,15.721L8.28,18.641C7.64,19.279 6.86,19.84 5.94,20.32C5.02,20.8 4.046,21.18 3.02,21.46C1.993,21.74 0.986,21.88 0,21.88" style="fill-rule:nonzero;"/>
        </g>
        <g transform="matrix(1,0,0,1,289.647,592.77)">
            <path d="M0,21L-8.88,0L-4.44,0L1.96,15.72L1.2,16.08L8.04,0L12.28,0L2.96,21L0,21Z" style="fill-rule:nonzero;"/>
        </g>
        <g transform="matrix(1,0,0,1,314.887,592.289)">
            <path d="M0,21.88C-2.16,21.88 -4.074,21.42 -5.74,20.5C-7.407,19.58 -8.714,18.32 -9.66,16.721C-10.607,15.12 -11.08,13.279 -11.08,11.2C-11.08,9.547 -10.814,8.04 -10.28,6.68C-9.747,5.32 -9.007,4.141 -8.06,3.141C-7.114,2.141 -5.98,1.367 -4.66,0.82C-3.34,0.274 -1.907,0 -0.36,0C1,0 2.266,0.26 3.44,0.779C4.613,1.3 5.633,2.014 6.5,2.92C7.366,3.826 8.033,4.901 8.5,6.141C8.966,7.38 9.186,8.734 9.16,10.2L9.12,11.96L-8.04,11.96L-8.96,8.68L5.56,8.68L4.96,9.359L4.96,8.401C4.88,7.52 4.586,6.734 4.08,6.04C3.573,5.347 2.933,4.8 2.16,4.401C1.386,4 0.546,3.8 -0.36,3.8C-1.8,3.8 -3.014,4.074 -4,4.62C-4.987,5.167 -5.734,5.967 -6.24,7.02C-6.747,8.074 -7,9.373 -7,10.92C-7,12.387 -6.694,13.66 -6.08,14.74C-5.467,15.82 -4.6,16.654 -3.48,17.24C-2.36,17.826 -1.067,18.12 0.4,18.12C1.44,18.12 2.406,17.947 3.3,17.6C4.193,17.254 5.16,16.627 6.2,15.721L8.28,18.641C7.64,19.279 6.86,19.84 5.94,20.32C5.02,20.8 4.046,21.18 3.02,21.46C1.993,21.74 0.986,21.88 0,21.88" style="fill-rule:nonzero;"/>
        </g>
        <g transform="matrix(1,0,0,1,0,117.939)">
            <rect x="328.607" y="466.23" width="4.12" height="29.601"/>
        </g>
        <g transform="matrix(1,0,0,1,347.607,596.089)">
            <path d="M0,14.32C1.253,14.32 2.374,14.007 3.36,13.38C4.346,12.754 5.12,11.9 5.68,10.82C6.24,9.74 6.506,8.52 6.48,7.16C6.506,5.774 6.24,4.54 5.68,3.46C5.12,2.38 4.346,1.534 3.36,0.921C2.374,0.307 1.253,0 0,0C-1.253,0 -2.38,0.313 -3.38,0.94C-4.38,1.567 -5.16,2.421 -5.72,3.5C-6.28,4.58 -6.547,5.799 -6.52,7.16C-6.547,8.52 -6.28,9.74 -5.72,10.82C-5.16,11.9 -4.38,12.754 -3.38,13.38C-2.38,14.007 -1.253,14.32 0,14.32M0,18.08C-2.054,18.08 -3.887,17.606 -5.5,16.66C-7.114,15.714 -8.387,14.421 -9.32,12.78C-10.253,11.139 -10.72,9.266 -10.72,7.16C-10.72,5.053 -10.253,3.18 -9.32,1.54C-8.387,-0.1 -7.114,-1.394 -5.5,-2.34C-3.887,-3.286 -2.054,-3.76 0,-3.76C2.026,-3.76 3.846,-3.286 5.46,-2.34C7.073,-1.394 8.346,-0.1 9.28,1.54C10.213,3.18 10.68,5.053 10.68,7.16C10.68,9.266 10.213,11.139 9.28,12.78C8.346,14.421 7.073,15.714 5.46,16.66C3.846,17.606 2.026,18.08 0,18.08" style="fill-rule:nonzero;"/>
        </g>
        <g transform="matrix(1,0,0,1,373.166,604.648)">
            <path d="M0,5.681C1.227,5.681 2.32,5.375 3.28,4.761C4.24,4.148 5,3.308 5.56,2.241C6.12,1.174 6.4,-0.039 6.4,-1.399C6.4,-2.759 6.126,-3.965 5.58,-5.019C5.033,-6.072 4.28,-6.906 3.32,-7.519C2.36,-8.132 1.253,-8.439 0,-8.439C-1.253,-8.439 -2.36,-8.138 -3.32,-7.539C-4.28,-6.939 -5.04,-6.105 -5.6,-5.039C-6.16,-3.972 -6.44,-2.759 -6.44,-1.399C-6.44,-0.039 -6.16,1.174 -5.6,2.241C-5.04,3.308 -4.28,4.148 -3.32,4.761C-2.36,5.375 -1.253,5.681 0,5.681M-10.4,17.92L-10.4,-11.879L-6.24,-11.879L-6.24,-7.08L-6.88,-7.439C-6.72,-8.239 -6.267,-9.006 -5.52,-9.739C-4.773,-10.472 -3.86,-11.072 -2.78,-11.539C-1.7,-12.006 -0.586,-12.239 0.56,-12.239C2.453,-12.239 4.133,-11.772 5.6,-10.84C7.066,-9.906 8.227,-8.625 9.08,-7C9.933,-5.373 10.36,-3.506 10.36,-1.399C10.36,0.681 9.94,2.541 9.1,4.181C8.26,5.821 7.106,7.115 5.64,8.061C4.173,9.008 2.52,9.481 0.68,9.481C-0.547,9.481 -1.733,9.235 -2.88,8.741C-4.027,8.248 -5,7.615 -5.8,6.841C-6.6,6.068 -7.094,5.268 -7.28,4.441L-6.24,3.881L-6.24,17.92L-10.4,17.92Z" style="fill-rule:nonzero;"/>
        </g>
        <g transform="matrix(1,0,0,1,387.926,592.41)">
            <path d="M0,21.36L0,0.36L4.16,0.36L4.16,4.839L3.4,5.319C3.613,4.627 3.953,3.96 4.42,3.319C4.886,2.679 5.46,2.114 6.14,1.62C6.82,1.127 7.553,0.733 8.34,0.44C9.126,0.147 9.933,0 10.76,0C11.96,0 13.013,0.2 13.92,0.6C14.827,1 15.573,1.6 16.16,2.399C16.747,3.2 17.173,4.2 17.44,5.399L16.8,5.239L17.08,4.559C17.374,3.946 17.78,3.366 18.3,2.819C18.82,2.273 19.413,1.786 20.08,1.36C20.747,0.933 21.453,0.6 22.2,0.36C22.946,0.12 23.68,0 24.4,0C25.973,0 27.273,0.319 28.3,0.96C29.327,1.6 30.1,2.573 30.62,3.88C31.14,5.186 31.4,6.813 31.4,8.759L31.4,21.36L27.24,21.36L27.24,9C27.24,7.799 27.086,6.819 26.78,6.059C26.473,5.299 26.013,4.733 25.4,4.36C24.787,3.987 24,3.799 23.04,3.799C22.293,3.799 21.593,3.926 20.94,4.179C20.287,4.433 19.72,4.786 19.24,5.239C18.76,5.694 18.386,6.219 18.12,6.819C17.854,7.42 17.72,8.08 17.72,8.799L17.72,21.36L13.56,21.36L13.56,8.92C13.56,7.827 13.4,6.899 13.08,6.139C12.76,5.38 12.293,4.799 11.68,4.399C11.066,4 10.32,3.799 9.44,3.799C8.693,3.799 8,3.926 7.36,4.179C6.72,4.433 6.16,4.78 5.68,5.219C5.2,5.659 4.827,6.179 4.56,6.78C4.293,7.38 4.16,8.026 4.16,8.719L4.16,21.36L0,21.36Z" style="fill-rule:nonzero;"/>
        </g>
        <g transform="matrix(1,0,0,1,434.646,592.289)">
            <path d="M0,21.88C-2.16,21.88 -4.074,21.42 -5.74,20.5C-7.407,19.58 -8.714,18.32 -9.66,16.721C-10.607,15.12 -11.08,13.279 -11.08,11.2C-11.08,9.547 -10.814,8.04 -10.28,6.68C-9.747,5.32 -9.007,4.141 -8.06,3.141C-7.114,2.141 -5.98,1.367 -4.66,0.82C-3.34,0.274 -1.907,0 -0.36,0C1,0 2.266,0.26 3.44,0.779C4.613,1.3 5.633,2.014 6.5,2.92C7.366,3.826 8.033,4.901 8.5,6.141C8.966,7.38 9.186,8.734 9.16,10.2L9.12,11.96L-8.04,11.96L-8.96,8.68L5.56,8.68L4.96,9.359L4.96,8.401C4.88,7.52 4.586,6.734 4.08,6.04C3.573,5.347 2.933,4.8 2.16,4.401C1.386,4 0.546,3.8 -0.36,3.8C-1.8,3.8 -3.014,4.074 -4,4.62C-4.987,5.167 -5.734,5.967 -6.24,7.02C-6.747,8.074 -7,9.373 -7,10.92C-7,12.387 -6.694,13.66 -6.08,14.74C-5.467,15.82 -4.6,16.654 -3.48,17.24C-2.36,17.826 -1.067,18.12 0.4,18.12C1.44,18.12 2.406,17.947 3.3,17.6C4.193,17.254 5.16,16.627 6.2,15.721L8.28,18.641C7.64,19.279 6.86,19.84 5.94,20.32C5.02,20.8 4.046,21.18 3.02,21.46C1.993,21.74 0.986,21.88 0,21.88" style="fill-rule:nonzero;"/>
        </g>
        <g transform="matrix(1,0,0,1,448.286,592.33)">
            <path d="M0,21.44L0,0.44L4.12,0.44L4.12,4.759L3.4,5.239C3.667,4.306 4.187,3.446 4.96,2.66C5.733,1.874 6.653,1.233 7.72,0.739C8.786,0.247 9.88,0 11,0C12.6,0 13.933,0.313 15,0.94C16.066,1.567 16.866,2.52 17.4,3.799C17.933,5.08 18.2,6.694 18.2,8.639L18.2,21.44L14.08,21.44L14.08,8.919C14.08,7.719 13.92,6.727 13.6,5.94C13.28,5.153 12.786,4.58 12.12,4.219C11.453,3.86 10.626,3.707 9.64,3.759C8.84,3.759 8.106,3.886 7.44,4.139C6.773,4.393 6.193,4.747 5.7,5.2C5.207,5.653 4.82,6.18 4.54,6.78C4.26,7.379 4.12,8.026 4.12,8.719L4.12,21.44L0,21.44Z" style="fill-rule:nonzero;"/>
        </g>
        <g transform="matrix(1,0,0,1,0,121.178)">
            <path d="M474.686,466.231L478.806,466.231L478.806,492.591L474.686,492.591L474.686,466.231ZM470.326,471.592L483.686,471.592L483.686,475.592L470.326,475.592L470.326,471.592Z" style="fill-rule:nonzero;"/>
        </g>
        <g transform="matrix(1,0,0,1,498.645,592.33)">
            <path d="M0,21.44L0,0.44L4.12,0.44L4.12,4.759L3.4,5.239C3.667,4.306 4.187,3.446 4.96,2.66C5.733,1.874 6.653,1.233 7.72,0.739C8.786,0.247 9.88,0 11,0C12.6,0 13.933,0.313 15,0.94C16.066,1.567 16.866,2.52 17.4,3.799C17.933,5.08 18.2,6.694 18.2,8.639L18.2,21.44L14.08,21.44L14.08,8.919C14.08,7.719 13.92,6.727 13.6,5.94C13.28,5.153 12.786,4.58 12.12,4.219C11.453,3.86 10.626,3.707 9.64,3.759C8.84,3.759 8.106,3.886 7.44,4.139C6.773,4.393 6.193,4.747 5.7,5.2C5.207,5.653 4.82,6.18 4.54,6.78C4.26,7.379 4.12,8.026 4.12,8.719L4.12,21.44L0,21.44Z" style="fill-rule:nonzero;"/>
        </g>
        <g transform="matrix(1,0,0,1,531.884,596.089)">
            <path d="M0,14.32C1.253,14.32 2.374,14.007 3.36,13.38C4.346,12.754 5.12,11.9 5.68,10.82C6.24,9.74 6.506,8.52 6.48,7.16C6.506,5.774 6.24,4.54 5.68,3.46C5.12,2.38 4.346,1.534 3.36,0.921C2.374,0.307 1.253,0 0,0C-1.253,0 -2.38,0.313 -3.38,0.94C-4.38,1.567 -5.16,2.421 -5.72,3.5C-6.28,4.58 -6.547,5.799 -6.52,7.16C-6.547,8.52 -6.28,9.74 -5.72,10.82C-5.16,11.9 -4.38,12.754 -3.38,13.38C-2.38,14.007 -1.253,14.32 0,14.32M0,18.08C-2.054,18.08 -3.887,17.606 -5.5,16.66C-7.114,15.714 -8.387,14.421 -9.32,12.78C-10.253,11.139 -10.72,9.266 -10.72,7.16C-10.72,5.053 -10.253,3.18 -9.32,1.54C-8.387,-0.1 -7.114,-1.394 -5.5,-2.34C-3.887,-3.286 -2.054,-3.76 0,-3.76C2.026,-3.76 3.846,-3.286 5.46,-2.34C7.073,-1.394 8.346,-0.1 9.28,1.54C10.213,3.18 10.68,5.053 10.68,7.16C10.68,9.266 10.213,11.139 9.28,12.78C8.346,14.421 7.073,15.714 5.46,16.66C3.846,17.606 2.026,18.08 0,18.08" style="fill-rule:nonzero;"/>
        </g>
        <g transform="matrix(1,0,0,1,547.044,592.33)">
            <path d="M0,21.44L0,0.44L4.12,0.44L4.12,4.759L3.4,5.239C3.667,4.306 4.187,3.446 4.96,2.66C5.733,1.874 6.653,1.233 7.72,0.739C8.786,0.247 9.88,0 11,0C12.6,0 13.933,0.313 15,0.94C16.066,1.567 16.866,2.52 17.4,3.799C17.933,5.08 18.2,6.694 18.2,8.639L18.2,21.44L14.08,21.44L14.08,8.919C14.08,7.719 13.92,6.727 13.6,5.94C13.28,5.153 12.786,4.58 12.12,4.219C11.453,3.86 10.626,3.707 9.64,3.759C8.84,3.759 8.106,3.886 7.44,4.139C6.773,4.393 6.193,4.747 5.7,5.2C5.207,5.653 4.82,6.18 4.54,6.78C4.26,7.379 4.12,8.026 4.12,8.719L4.12,21.44L0,21.44Z" style="fill-rule:nonzero;"/>
        </g>
        <g transform="matrix(1,0,0,1,0,124.658)">
            <rect x="570.083" y="475.631" width="11.52" height="4.08"/>
        </g>
        <g transform="matrix(1,0,0,1,595.523,592.329)">
            <path d="M0,21.84C-1.947,21.84 -3.688,21.361 -5.221,20.4C-6.754,19.441 -7.967,18.134 -8.86,16.48C-9.754,14.827 -10.2,12.974 -10.2,10.92C-10.2,8.866 -9.754,7.014 -8.86,5.361C-7.967,3.707 -6.754,2.4 -5.221,1.441C-3.688,0.48 -1.947,0 0,0C1.865,0 3.566,0.38 5.1,1.14C6.633,1.9 7.8,2.934 8.6,4.239L6.32,7.04C5.893,6.427 5.346,5.866 4.68,5.361C4.013,4.854 3.307,4.454 2.56,4.16C1.812,3.866 1.093,3.72 0.4,3.72C-0.881,3.72 -2.021,4.034 -3.021,4.66C-4.021,5.286 -4.814,6.148 -5.4,7.239C-5.987,8.333 -6.28,9.56 -6.28,10.92C-6.28,12.28 -5.975,13.5 -5.36,14.58C-4.747,15.66 -3.934,16.521 -2.92,17.16C-1.907,17.8 -0.787,18.12 0.439,18.12C1.16,18.12 1.859,18 2.539,17.76C3.22,17.521 3.88,17.16 4.52,16.681C5.16,16.2 5.76,15.614 6.32,14.92L8.6,17.72C7.746,18.92 6.525,19.907 4.939,20.681C3.354,21.453 1.706,21.84 0,21.84" style="fill-rule:nonzero;"/>
        </g>
        <g transform="matrix(1,0,0,1,617.443,596.089)">
            <path d="M0,14.32C1.253,14.32 2.373,14.007 3.359,13.38C4.346,12.754 5.119,11.9 5.68,10.82C6.24,9.74 6.506,8.52 6.479,7.16C6.506,5.774 6.24,4.54 5.68,3.46C5.119,2.38 4.346,1.534 3.359,0.921C2.373,0.307 1.253,0 0,0C-1.254,0 -2.381,0.313 -3.381,0.94C-4.381,1.567 -5.16,2.421 -5.721,3.5C-6.28,4.58 -6.547,5.799 -6.521,7.16C-6.547,8.52 -6.28,9.74 -5.721,10.82C-5.16,11.9 -4.381,12.754 -3.381,13.38C-2.381,14.007 -1.254,14.32 0,14.32M0,18.08C-2.055,18.08 -3.887,17.606 -5.5,16.66C-7.114,15.714 -8.387,14.421 -9.32,12.78C-10.254,11.139 -10.721,9.266 -10.721,7.16C-10.721,5.053 -10.254,3.18 -9.32,1.54C-8.387,-0.1 -7.114,-1.394 -5.5,-2.34C-3.887,-3.286 -2.055,-3.76 0,-3.76C2.025,-3.76 3.846,-3.286 5.459,-2.34C7.072,-1.394 8.346,-0.1 9.279,1.54C10.213,3.18 10.68,5.053 10.68,7.16C10.68,9.266 10.213,11.139 9.279,12.78C8.346,14.421 7.072,15.714 5.459,16.66C3.846,17.606 2.025,18.08 0,18.08" style="fill-rule:nonzero;"/>
        </g>
        <g transform="matrix(1,0,0,1,632.602,592.33)">
            <path d="M0,21.44L0,0.44L4.12,0.44L4.12,4.759L3.399,5.239C3.667,4.306 4.187,3.446 4.96,2.66C5.733,1.874 6.653,1.233 7.72,0.739C8.786,0.247 9.88,0 11,0C12.601,0 13.933,0.313 15,0.94C16.066,1.567 16.866,2.52 17.399,3.799C17.933,5.08 18.2,6.694 18.2,8.639L18.2,21.44L14.08,21.44L14.08,8.919C14.08,7.719 13.92,6.727 13.601,5.94C13.28,5.153 12.786,4.58 12.12,4.219C11.453,3.86 10.626,3.707 9.64,3.759C8.841,3.759 8.106,3.886 7.44,4.139C6.773,4.393 6.193,4.747 5.7,5.2C5.206,5.653 4.82,6.18 4.54,6.78C4.261,7.379 4.12,8.026 4.12,8.719L4.12,21.44L0,21.44Z" style="fill-rule:nonzero;"/>
        </g>
        <g transform="matrix(1,0,0,1,658.682,584.209)">
            <path d="M0,29.561L0,6.201C0,5 0.267,3.934 0.801,3C1.334,2.067 2.066,1.334 3,0.801C3.934,0.268 5.014,0 6.24,0C7.094,0 7.894,0.161 8.641,0.481C9.387,0.801 9.986,1.227 10.44,1.76L9.041,4.92C8.693,4.6 8.313,4.34 7.9,4.141C7.486,3.94 7.094,3.84 6.721,3.84C6.16,3.84 5.687,3.927 5.301,4.1C4.914,4.274 4.627,4.54 4.44,4.901C4.254,5.26 4.16,5.694 4.16,6.201L4.16,29.561L0,29.561ZM-3.359,8.92L9.12,8.92L9.12,12.721L-3.359,12.721L-3.359,8.92Z" style="fill-rule:nonzero;"/>
        </g>
        <g transform="matrix(1,0,0,1,681.122,592.289)">
            <path d="M0,21.88C-2.16,21.88 -4.073,21.42 -5.74,20.5C-7.407,19.58 -8.714,18.32 -9.66,16.721C-10.606,15.12 -11.08,13.279 -11.08,11.2C-11.08,9.547 -10.813,8.04 -10.28,6.68C-9.747,5.32 -9.007,4.141 -8.06,3.141C-7.114,2.141 -5.979,1.367 -4.66,0.82C-3.341,0.274 -1.907,0 -0.36,0C1,0 2.267,0.26 3.44,0.779C4.612,1.3 5.633,2.014 6.5,2.92C7.366,3.826 8.032,4.901 8.5,6.141C8.966,7.38 9.187,8.734 9.159,10.2L9.12,11.96L-8.04,11.96L-8.96,8.68L5.56,8.68L4.96,9.359L4.96,8.401C4.88,7.52 4.586,6.734 4.079,6.04C3.573,5.347 2.933,4.8 2.159,4.401C1.386,4 0.546,3.8 -0.36,3.8C-1.8,3.8 -3.015,4.074 -4,4.62C-4.987,5.167 -5.733,5.967 -6.24,7.02C-6.747,8.074 -7,9.373 -7,10.92C-7,12.387 -6.694,13.66 -6.08,14.74C-5.468,15.82 -4.601,16.654 -3.479,17.24C-2.36,17.826 -1.067,18.12 0.399,18.12C1.44,18.12 2.406,17.947 3.3,17.6C4.192,17.254 5.159,16.627 6.2,15.721L8.28,18.641C7.64,19.279 6.86,19.84 5.94,20.32C5.021,20.8 4.046,21.18 3.021,21.46C1.993,21.74 0.985,21.88 0,21.88" style="fill-rule:nonzero;"/>
        </g>
        <g transform="matrix(1,0,0,1,694.762,592.33)">
            <path d="M0,21.44L0,0.44L4.16,0.44L4.16,7.04L3.76,5.44C4.053,4.426 4.553,3.506 5.26,2.68C5.967,1.853 6.78,1.2 7.7,0.719C8.62,0.239 9.573,0 10.561,0C11.014,0 11.446,0.04 11.86,0.12C12.273,0.2 12.6,0.294 12.84,0.399L11.76,4.879C11.439,4.747 11.086,4.633 10.7,4.54C10.313,4.446 9.934,4.399 9.561,4.399C8.84,4.399 8.153,4.54 7.5,4.819C6.846,5.1 6.273,5.487 5.78,5.979C5.286,6.473 4.893,7.046 4.6,7.7C4.307,8.353 4.16,9.067 4.16,9.839L4.16,21.44L0,21.44Z" style="fill-rule:nonzero;"/>
        </g>
        <g transform="matrix(1,0,0,1,719.803,592.289)">
            <path d="M0,21.88C-2.16,21.88 -4.074,21.42 -5.74,20.5C-7.408,19.58 -8.715,18.32 -9.66,16.721C-10.607,15.12 -11.08,13.279 -11.08,11.2C-11.08,9.547 -10.814,8.04 -10.281,6.68C-9.748,5.32 -9.008,4.141 -8.061,3.141C-7.114,2.141 -5.98,1.367 -4.66,0.82C-3.341,0.274 -1.908,0 -0.361,0C1,0 2.266,0.26 3.439,0.779C4.612,1.3 5.633,2.014 6.5,2.92C7.365,3.826 8.032,4.901 8.5,6.141C8.966,7.38 9.186,8.734 9.159,10.2L9.119,11.96L-8.041,11.96L-8.961,8.68L5.56,8.68L4.959,9.359L4.959,8.401C4.879,7.52 4.586,6.734 4.079,6.04C3.572,5.347 2.933,4.8 2.159,4.401C1.386,4 0.545,3.8 -0.361,3.8C-1.801,3.8 -3.015,4.074 -4,4.62C-4.987,5.167 -5.734,5.967 -6.24,7.02C-6.748,8.074 -7,9.373 -7,10.92C-7,12.387 -6.694,13.66 -6.08,14.74C-5.468,15.82 -4.601,16.654 -3.48,17.24C-2.361,17.826 -1.067,18.12 0.399,18.12C1.439,18.12 2.406,17.947 3.299,17.6C4.192,17.254 5.159,16.627 6.199,15.721L8.279,18.641C7.639,19.279 6.859,19.84 5.939,20.32C5.02,20.8 4.045,21.18 3.02,21.46C1.992,21.74 0.985,21.88 0,21.88" style="fill-rule:nonzero;"/>
        </g>
        <g transform="matrix(1,0,0,1,733.442,592.33)">
            <path d="M0,21.44L0,0.44L4.12,0.44L4.12,4.759L3.399,5.239C3.667,4.306 4.187,3.446 4.96,2.66C5.733,1.874 6.653,1.233 7.72,0.739C8.786,0.247 9.88,0 11,0C12.601,0 13.933,0.313 15,0.94C16.066,1.567 16.866,2.52 17.399,3.799C17.933,5.08 18.2,6.694 18.2,8.639L18.2,21.44L14.08,21.44L14.08,8.919C14.08,7.719 13.92,6.727 13.601,5.94C13.28,5.153 12.786,4.58 12.12,4.219C11.453,3.86 10.626,3.707 9.64,3.759C8.841,3.759 8.106,3.886 7.44,4.139C6.773,4.393 6.193,4.747 5.7,5.2C5.206,5.653 4.82,6.18 4.54,6.78C4.261,7.379 4.12,8.026 4.12,8.719L4.12,21.44L0,21.44Z" style="fill-rule:nonzero;"/>
        </g>
        <g transform="matrix(1,0,0,1,766.162,592.329)">
            <path d="M0,21.84C-1.947,21.84 -3.688,21.361 -5.221,20.4C-6.754,19.441 -7.967,18.134 -8.86,16.48C-9.754,14.827 -10.2,12.974 -10.2,10.92C-10.2,8.866 -9.754,7.014 -8.86,5.361C-7.967,3.707 -6.754,2.4 -5.221,1.441C-3.688,0.48 -1.947,0 0,0C1.865,0 3.566,0.38 5.1,1.14C6.633,1.9 7.8,2.934 8.6,4.239L6.32,7.04C5.893,6.427 5.346,5.866 4.68,5.361C4.013,4.854 3.307,4.454 2.56,4.16C1.812,3.866 1.093,3.72 0.4,3.72C-0.881,3.72 -2.021,4.034 -3.021,4.66C-4.021,5.286 -4.814,6.148 -5.4,7.239C-5.987,8.333 -6.28,9.56 -6.28,10.92C-6.28,12.28 -5.975,13.5 -5.36,14.58C-4.747,15.66 -3.934,16.521 -2.92,17.16C-1.907,17.8 -0.787,18.12 0.439,18.12C1.16,18.12 1.859,18 2.539,17.76C3.22,17.521 3.88,17.16 4.52,16.681C5.16,16.2 5.76,15.614 6.32,14.92L8.6,17.72C7.746,18.92 6.525,19.907 4.939,20.681C3.354,21.453 1.706,21.84 0,21.84" style="fill-rule:nonzero;"/>
        </g>
        <g transform="matrix(1,0,0,1,788.441,592.289)">
            <path d="M0,21.88C-2.16,21.88 -4.074,21.42 -5.74,20.5C-7.407,19.58 -8.714,18.32 -9.66,16.721C-10.607,15.12 -11.08,13.279 -11.08,11.2C-11.08,9.547 -10.814,8.04 -10.28,6.68C-9.747,5.32 -9.007,4.141 -8.061,3.141C-7.113,2.141 -5.98,1.367 -4.66,0.82C-3.34,0.274 -1.907,0 -0.36,0C1,0 2.266,0.26 3.439,0.779C4.613,1.3 5.633,2.014 6.5,2.92C7.366,3.826 8.033,4.901 8.5,6.141C8.967,7.38 9.186,8.734 9.16,10.2L9.119,11.96L-8.04,11.96L-8.96,8.68L5.561,8.68L4.96,9.359L4.96,8.401C4.88,7.52 4.586,6.734 4.08,6.04C3.572,5.347 2.934,4.8 2.16,4.401C1.387,4 0.546,3.8 -0.36,3.8C-1.801,3.8 -3.014,4.074 -4,4.62C-4.986,5.167 -5.734,5.967 -6.24,7.02C-6.747,8.074 -7,9.373 -7,10.92C-7,12.387 -6.693,13.66 -6.08,14.74C-5.467,15.82 -4.6,16.654 -3.48,17.24C-2.36,17.826 -1.066,18.12 0.4,18.12C1.439,18.12 2.406,17.947 3.3,17.6C4.193,17.254 5.16,16.627 6.199,15.721L8.279,18.641C7.64,19.279 6.859,19.84 5.939,20.32C5.02,20.8 4.046,21.18 3.02,21.46C1.993,21.74 0.986,21.88 0,21.88" style="fill-rule:nonzero;"/>
        </g>
        <g transform="matrix(1,0,0,1,802.721,609.089)">
            <path d="M0,11.841L-1.52,10C-0.586,9.466 0.174,8.854 0.76,8.16C1.347,7.466 1.641,6.866 1.641,6.361C1.641,6.093 1.574,5.833 1.44,5.58C1.307,5.327 1.027,4.974 0.601,4.521C0.066,4.015 -0.279,3.587 -0.439,3.24C-0.6,2.894 -0.68,2.521 -0.68,2.12C-0.68,1.48 -0.453,0.968 0,0.58C0.453,0.195 1.041,0 1.76,0C2.427,0 3.033,0.195 3.58,0.58C4.127,0.968 4.554,1.5 4.86,2.181C5.166,2.861 5.32,3.64 5.32,4.521C5.32,5.32 5.187,6.093 4.92,6.841C4.654,7.587 4.28,8.28 3.801,8.921C3.32,9.56 2.76,10.134 2.121,10.64C1.48,11.147 0.773,11.546 0,11.841" style="fill-rule:nonzero;"/>
        </g>
        <g transform="matrix(1,0,0,1,826.241,584.209)">
            <path d="M0,29.561L0,6.201C0,5 0.267,3.934 0.8,3C1.333,2.067 2.065,1.334 3,0.801C3.933,0.268 5.013,0 6.239,0C7.093,0 7.894,0.161 8.64,0.481C9.386,0.801 9.986,1.227 10.44,1.76L9.04,4.92C8.692,4.6 8.313,4.34 7.899,4.141C7.486,3.94 7.093,3.84 6.72,3.84C6.159,3.84 5.687,3.927 5.3,4.1C4.913,4.274 4.626,4.54 4.44,4.901C4.253,5.26 4.159,5.694 4.159,6.201L4.159,29.561L0,29.561ZM-3.36,8.92L9.12,8.92L9.12,12.721L-3.36,12.721L-3.36,8.92Z" style="fill-rule:nonzero;"/>
        </g>
        <g transform="matrix(1,0,0,1,848.32,596.089)">
            <path d="M0,14.32C1.254,14.32 2.374,14.007 3.36,13.38C4.347,12.754 5.121,11.9 5.681,10.82C6.24,9.74 6.507,8.52 6.48,7.16C6.507,5.774 6.24,4.54 5.681,3.46C5.121,2.38 4.347,1.534 3.36,0.921C2.374,0.307 1.254,0 0,0C-1.253,0 -2.379,0.313 -3.379,0.94C-4.379,1.567 -5.159,2.421 -5.719,3.5C-6.279,4.58 -6.547,5.799 -6.52,7.16C-6.547,8.52 -6.279,9.74 -5.719,10.82C-5.159,11.9 -4.379,12.754 -3.379,13.38C-2.379,14.007 -1.253,14.32 0,14.32M0,18.08C-2.053,18.08 -3.887,17.606 -5.5,16.66C-7.113,15.714 -8.387,14.421 -9.319,12.78C-10.253,11.139 -10.719,9.266 -10.719,7.16C-10.719,5.053 -10.253,3.18 -9.319,1.54C-8.387,-0.1 -7.113,-1.394 -5.5,-2.34C-3.887,-3.286 -2.053,-3.76 0,-3.76C2.027,-3.76 3.847,-3.286 5.461,-2.34C7.074,-1.394 8.347,-0.1 9.28,1.54C10.214,3.18 10.681,5.053 10.681,7.16C10.681,9.266 10.214,11.139 9.28,12.78C8.347,14.421 7.074,15.714 5.461,16.66C3.847,17.606 2.027,18.08 0,18.08" style="fill-rule:nonzero;"/>
        </g>
        <g transform="matrix(1,0,0,1,863.481,592.33)">
            <path d="M0,21.44L0,0.44L4.16,0.44L4.16,7.04L3.76,5.44C4.054,4.426 4.554,3.506 5.26,2.68C5.967,1.853 6.78,1.2 7.7,0.719C8.62,0.239 9.573,0 10.561,0C11.014,0 11.446,0.04 11.86,0.12C12.273,0.2 12.601,0.294 12.84,0.399L11.76,4.879C11.44,4.747 11.086,4.633 10.7,4.54C10.313,4.446 9.934,4.399 9.561,4.399C8.84,4.399 8.153,4.54 7.5,4.819C6.847,5.1 6.273,5.487 5.78,5.979C5.286,6.473 4.894,7.046 4.601,7.7C4.307,8.353 4.16,9.067 4.16,9.839L4.16,21.44L0,21.44Z" style="fill-rule:nonzero;"/>
        </g>
        <g transform="matrix(1,0,0,1,900.801,592.129)">
            <path d="M0,22.04C-2.294,22.04 -4.3,21.574 -6.02,20.641C-7.74,19.707 -9.073,18.428 -10.02,16.801C-10.967,15.174 -11.439,13.307 -11.439,11.2C-11.439,9.547 -11.174,8.04 -10.64,6.68C-10.106,5.32 -9.36,4.141 -8.399,3.141C-7.439,2.141 -6.3,1.367 -4.979,0.82C-3.66,0.273 -2.227,0 -0.68,0C0.76,0 2.093,0.268 3.32,0.801C4.546,1.334 5.606,2.074 6.5,3.019C7.394,3.967 8.08,5.087 8.561,6.381C9.04,7.674 9.253,9.066 9.2,10.561L9.16,12.32L-7.84,12.32L-8.76,8.84L4.48,8.84L3.84,9.561L3.84,8.68C3.786,7.96 3.554,7.314 3.14,6.74C2.727,6.167 2.2,5.714 1.561,5.381C0.92,5.047 0.2,4.881 -0.6,4.881C-1.773,4.881 -2.767,5.107 -3.58,5.561C-4.394,6.014 -5.014,6.68 -5.439,7.561C-5.867,8.439 -6.08,9.507 -6.08,10.76C-6.08,12.04 -5.807,13.146 -5.26,14.08C-4.714,15.014 -3.939,15.74 -2.939,16.26C-1.939,16.78 -0.76,17.04 0.601,17.04C1.533,17.04 2.387,16.894 3.16,16.6C3.934,16.307 4.76,15.801 5.64,15.08L8.36,18.881C7.586,19.574 6.733,20.154 5.8,20.62C4.866,21.087 3.906,21.439 2.92,21.68C1.934,21.92 0.96,22.04 0,22.04" style="fill-rule:nonzero;"/>
        </g>
        <g transform="matrix(1,0,0,1,920.441,592.61)">
            <path d="M0,21.16L-8.881,0L-2.641,0L3,15.8L1.68,16.039L7.6,0L13.68,0L4.359,21.16L0,21.16Z" style="fill-rule:nonzero;"/>
        </g>
        <g transform="matrix(1,0,0,1,947.04,592.129)">
            <path d="M0,22.04C-2.294,22.04 -4.3,21.574 -6.02,20.641C-7.74,19.707 -9.073,18.428 -10.02,16.801C-10.967,15.174 -11.439,13.307 -11.439,11.2C-11.439,9.547 -11.174,8.04 -10.64,6.68C-10.106,5.32 -9.36,4.141 -8.399,3.141C-7.439,2.141 -6.3,1.367 -4.979,0.82C-3.66,0.273 -2.227,0 -0.68,0C0.76,0 2.093,0.268 3.32,0.801C4.546,1.334 5.606,2.074 6.5,3.019C7.394,3.967 8.08,5.087 8.561,6.381C9.04,7.674 9.253,9.066 9.2,10.561L9.16,12.32L-7.84,12.32L-8.76,8.84L4.48,8.84L3.84,9.561L3.84,8.68C3.786,7.96 3.554,7.314 3.14,6.74C2.727,6.167 2.2,5.714 1.561,5.381C0.92,5.047 0.2,4.881 -0.6,4.881C-1.773,4.881 -2.767,5.107 -3.58,5.561C-4.394,6.014 -5.014,6.68 -5.439,7.561C-5.867,8.439 -6.08,9.507 -6.08,10.76C-6.08,12.04 -5.807,13.146 -5.26,14.08C-4.714,15.014 -3.939,15.74 -2.939,16.26C-1.939,16.78 -0.76,17.04 0.601,17.04C1.533,17.04 2.387,16.894 3.16,16.6C3.934,16.307 4.76,15.801 5.64,15.08L8.36,18.881C7.586,19.574 6.733,20.154 5.8,20.62C4.866,21.087 3.906,21.439 2.92,21.68C1.934,21.92 0.96,22.04 0,22.04" style="fill-rule:nonzero;"/>
        </g>
        <g transform="matrix(1,0,0,1,960.44,592.169)">
            <path d="M0,21.601L0,0.441L5.48,0.441L5.68,7.241L4.72,5.841C5.04,4.747 5.561,3.754 6.28,2.861C7,1.967 7.847,1.267 8.82,0.761C9.793,0.254 10.813,0 11.88,0C12.333,0 12.773,0.04 13.2,0.121C13.626,0.201 13.986,0.294 14.28,0.4L12.76,6.64C12.467,6.48 12.086,6.341 11.62,6.22C11.153,6.101 10.68,6.04 10.2,6.04C9.561,6.04 8.967,6.154 8.42,6.38C7.873,6.607 7.4,6.927 7,7.341C6.601,7.754 6.286,8.241 6.061,8.8C5.833,9.361 5.72,9.974 5.72,10.64L5.72,21.601L0,21.601Z" style="fill-rule:nonzero;"/>
        </g>
        <g transform="matrix(1,0,0,1,980.92,592.61)">
            <path d="M0,30.359L4.641,19.479L4.72,22.759L-5.6,0L0.84,0L6,12.199C6.213,12.653 6.42,13.179 6.62,13.779C6.82,14.38 6.986,14.947 7.12,15.479L6.16,15.92C6.347,15.466 6.54,14.947 6.74,14.359C6.94,13.773 7.146,13.146 7.36,12.479L11.8,0L18.28,0L9.4,21.16L5.76,30.359L0,30.359Z" style="fill-rule:nonzero;"/>
        </g>
        <g transform="matrix(1,0,0,1,1011.68,597.129)">
            <path d="M0,12.08C1.04,12.08 1.974,11.82 2.801,11.301C3.627,10.78 4.273,10.06 4.74,9.141C5.207,8.221 5.427,7.187 5.4,6.04C5.427,4.867 5.207,3.82 4.74,2.9C4.273,1.98 3.627,1.26 2.801,0.74C1.974,0.221 1.04,-0.04 0,-0.04C-1.066,-0.04 -2.014,0.226 -2.84,0.76C-3.667,1.294 -4.319,2.014 -4.8,2.92C-5.279,3.827 -5.507,4.867 -5.479,6.04C-5.507,7.187 -5.279,8.221 -4.8,9.141C-4.319,10.06 -3.667,10.78 -2.84,11.301C-2.014,11.82 -1.066,12.08 0,12.08M0,17.04C-2.16,17.04 -4.087,16.566 -5.779,15.62C-7.474,14.674 -8.807,13.374 -9.779,11.721C-10.754,10.066 -11.239,8.174 -11.239,6.04C-11.239,3.907 -10.754,2.014 -9.779,0.36C-8.807,-1.293 -7.474,-2.593 -5.779,-3.54C-4.087,-4.486 -2.16,-4.96 0,-4.96C2.134,-4.96 4.047,-4.486 5.74,-3.54C7.434,-2.593 8.761,-1.293 9.721,0.36C10.681,2.014 11.16,3.907 11.16,6.04C11.16,8.174 10.681,10.066 9.721,11.721C8.761,13.374 7.434,14.674 5.74,15.62C4.047,16.566 2.134,17.04 0,17.04" style="fill-rule:nonzero;"/>
        </g>
        <g transform="matrix(1,0,0,1,1027.16,592.169)">
            <path d="M0,21.601L0,0.441L5.44,0.441L5.601,4.761L4.48,5.241C4.773,4.281 5.3,3.408 6.061,2.621C6.82,1.834 7.733,1.201 8.8,0.72C9.866,0.241 10.986,0 12.16,0C13.76,0 15.101,0.321 16.18,0.96C17.26,1.601 18.073,2.568 18.62,3.861C19.166,5.154 19.44,6.747 19.44,8.64L19.44,21.601L13.76,21.601L13.76,9.08C13.76,8.121 13.626,7.321 13.36,6.681C13.094,6.04 12.687,5.574 12.141,5.281C11.594,4.988 10.92,4.855 10.12,4.88C9.48,4.88 8.887,4.98 8.34,5.181C7.793,5.38 7.326,5.667 6.94,6.04C6.554,6.414 6.246,6.841 6.021,7.321C5.793,7.8 5.68,8.321 5.68,8.88L5.68,21.601L0,21.601Z" style="fill-rule:nonzero;"/>
        </g>
        <g transform="matrix(1,0,0,1,1062.08,592.129)">
            <path d="M0,22.04C-2.294,22.04 -4.3,21.574 -6.02,20.641C-7.74,19.707 -9.073,18.428 -10.02,16.801C-10.967,15.174 -11.439,13.307 -11.439,11.2C-11.439,9.547 -11.174,8.04 -10.64,6.68C-10.106,5.32 -9.36,4.141 -8.399,3.141C-7.439,2.141 -6.3,1.367 -4.979,0.82C-3.66,0.273 -2.227,0 -0.68,0C0.76,0 2.093,0.268 3.32,0.801C4.546,1.334 5.606,2.074 6.5,3.019C7.394,3.967 8.08,5.087 8.561,6.381C9.04,7.674 9.253,9.066 9.2,10.561L9.16,12.32L-7.84,12.32L-8.76,8.84L4.48,8.84L3.84,9.561L3.84,8.68C3.786,7.96 3.554,7.314 3.14,6.74C2.727,6.167 2.2,5.714 1.561,5.381C0.92,5.047 0.2,4.881 -0.6,4.881C-1.773,4.881 -2.767,5.107 -3.58,5.561C-4.394,6.014 -5.014,6.68 -5.439,7.561C-5.867,8.439 -6.08,9.507 -6.08,10.76C-6.08,12.04 -5.807,13.146 -5.26,14.08C-4.714,15.014 -3.939,15.74 -2.939,16.26C-1.939,16.78 -0.76,17.04 0.601,17.04C1.533,17.04 2.387,16.894 3.16,16.6C3.934,16.307 4.76,15.801 5.64,15.08L8.36,18.881C7.586,19.574 6.733,20.154 5.8,20.62C4.866,21.087 3.906,21.439 2.92,21.68C1.934,21.92 0.96,22.04 0,22.04" style="fill-rule:nonzero;"/>
        </g>
        <g transform="matrix(1,0,0,1,1076.6,595.93)">
            <path d="M0,7.799C-0.214,6.174 -0.42,4.48 -0.62,2.719C-0.82,0.959 -0.974,-0.781 -1.08,-2.5C-1.187,-4.221 -1.24,-5.867 -1.24,-7.44L-1.24,-10.48L4.72,-10.48L4.72,-7.44C4.72,-5.814 4.66,-4.121 4.54,-2.361C4.42,-0.6 4.267,1.147 4.08,2.879C3.894,4.613 3.693,6.253 3.48,7.799L0,7.799ZM1.68,18.279C0.64,18.279 -0.16,17.987 -0.72,17.4C-1.28,16.813 -1.56,15.973 -1.56,14.879C-1.56,13.893 -1.26,13.086 -0.66,12.459C-0.06,11.833 0.72,11.52 1.68,11.52C2.693,11.52 3.486,11.813 4.06,12.4C4.633,12.986 4.92,13.813 4.92,14.879C4.92,15.893 4.62,16.713 4.021,17.34C3.42,17.966 2.64,18.279 1.68,18.279" style="fill-rule:nonzero;"/>
        </g>
        <g transform="matrix(100,0,0,100,1026.11,389)">
        </g>
        <text x="784.308px" y="389px" style="font-family:'FredokaOne-Regular', 'Fredoka One';font-size:100px;fill:rgb(243,241,249);">2024</text>
        <text x="132.95px" y="451.142px" style="font-family:'FredokaOne-Regular', 'Fredoka One';font-size:110px;fill:rgb(243,241,249);">#no<tspan x="346.35px " y="451.142px ">t</tspan>GDC</text>
        <g transform="matrix(1,0,0,1,204.45,442.232)">
            <path d="M0,-63.03C0.366,-65.376 0.55,-66.66 0.55,-66.88C0.55,-68.42 0.017,-69.575 -1.045,-70.345C-2.109,-71.115 -3.998,-71.5 -6.71,-71.5C-9.424,-71.5 -11.294,-71.17 -12.32,-70.51C-12.98,-70.07 -13.513,-69.702 -13.915,-69.41C-14.319,-69.116 -14.63,-68.602 -14.85,-67.87C-15.07,-67.136 -15.235,-66.567 -15.345,-66.165C-15.455,-65.761 -15.565,-65.065 -15.675,-64.075C-15.785,-63.085 -15.878,-62.37 -15.95,-61.93L-17.82,-50.6L-34.21,-50.6L-32.12,-63.03C-31.754,-65.376 -31.57,-66.66 -31.57,-66.88C-31.57,-68.42 -32.103,-69.575 -33.165,-70.345C-34.229,-71.115 -36.118,-71.5 -38.83,-71.5C-41.544,-71.5 -43.414,-71.17 -44.44,-70.51C-45.1,-70.07 -45.633,-69.702 -46.035,-69.41C-46.439,-69.116 -46.75,-68.602 -46.97,-67.87C-47.19,-67.136 -47.355,-66.567 -47.465,-66.165C-47.575,-65.761 -47.685,-65.065 -47.795,-64.075C-47.905,-63.085 -47.998,-62.37 -48.07,-61.93L-49.94,-50.6L-57.09,-50.6C-58.704,-50.6 -59.914,-50.526 -60.72,-50.38C-61.528,-50.232 -62.389,-49.61 -63.305,-48.51C-64.223,-47.41 -64.809,-46.107 -65.065,-44.605C-65.323,-43.101 -65.45,-41.8 -65.45,-40.7C-65.45,-39.6 -65.34,-38.72 -65.12,-38.06C-64.608,-36.812 -62.774,-36.19 -59.62,-36.19L-52.36,-36.19L-54.34,-24.09L-61.49,-24.09C-63.104,-24.09 -64.314,-24.016 -65.12,-23.87C-65.928,-23.722 -66.789,-23.1 -67.705,-22C-68.623,-20.9 -69.209,-19.597 -69.465,-18.095C-69.723,-16.591 -69.85,-15.271 -69.85,-14.135C-69.85,-12.997 -69.74,-12.136 -69.52,-11.55C-68.934,-10.23 -67.1,-9.57 -64.02,-9.57L-56.76,-9.57L-58.08,-1.32C-58.668,2.42 -58.96,4.328 -58.96,4.4C-58.96,7.114 -56.834,8.47 -52.58,8.47C-48.328,8.47 -45.614,7.628 -44.44,5.94C-43.854,4.988 -43.469,4.18 -43.285,3.52C-43.103,2.86 -42.864,1.724 -42.57,0.11L-42.35,-1.1C-42.204,-2.2 -41.764,-5.022 -41.03,-9.57L-24.64,-9.57L-25.96,-1.32C-26.548,2.42 -26.84,4.328 -26.84,4.4C-26.84,7.114 -24.714,8.47 -20.46,8.47C-16.208,8.47 -13.494,7.628 -12.32,5.94C-11.734,4.988 -11.349,4.18 -11.165,3.52C-10.983,2.86 -10.744,1.724 -10.45,0.11L-10.23,-1.1C-10.084,-2.2 -9.644,-5.022 -8.91,-9.57L-3.41,-9.57C-1.284,-9.57 0.366,-9.862 1.54,-10.45C2.346,-10.89 2.987,-11.622 3.465,-12.65C3.941,-13.676 4.29,-14.812 4.51,-16.06C4.73,-17.306 4.84,-18.571 4.84,-19.855C4.84,-21.137 4.546,-22.11 3.96,-22.77C3.372,-23.43 2.767,-23.815 2.145,-23.925C1.521,-24.035 0.512,-24.09 -0.88,-24.09L-6.49,-24.09L-4.51,-36.19L0.99,-36.19C2.602,-36.19 3.812,-36.262 4.62,-36.41C5.426,-36.556 6.27,-37.18 7.15,-38.28C8.03,-39.38 8.597,-40.681 8.855,-42.185C9.111,-43.687 9.24,-45.081 9.24,-46.365C9.24,-47.647 8.946,-48.62 8.36,-49.28C7.772,-49.94 7.167,-50.325 6.545,-50.435C5.921,-50.545 4.912,-50.6 3.52,-50.6L-2.09,-50.6L0,-63.03ZM-38.61,-24.09L-36.52,-36.19L-20.24,-36.19L-22.22,-24.09L-38.61,-24.09Z" style="fill:none;fill-rule:nonzero;stroke:rgb(243,241,249);stroke-width:25px;"/>
        </g>
        <g transform="matrix(1,0,0,1,243.719,448.502)">
            <path d="M0,-52.8C-0.954,-52.212 -1.944,-51.442 -2.97,-50.49C-3.998,-49.536 -4.658,-48.802 -4.95,-48.29C-4.95,-50.05 -5.318,-51.552 -6.05,-52.8C-7.078,-54.486 -9.828,-55.33 -14.3,-55.33C-18.92,-55.33 -21.744,-54.412 -22.77,-52.58C-23.358,-51.552 -23.705,-50.617 -23.815,-49.775C-23.925,-48.931 -23.98,-47.702 -23.98,-46.09L-23.98,-7.15C-23.98,-5.462 -23.925,-4.197 -23.815,-3.355C-23.705,-2.511 -23.394,-1.54 -22.88,-0.44C-21.854,1.54 -19.03,2.53 -14.41,2.53C-9.718,2.53 -6.894,1.54 -5.94,-0.44C-5.354,-1.466 -5.005,-2.401 -4.895,-3.245C-4.785,-4.087 -4.73,-5.352 -4.73,-7.04L-4.73,-26.51C-4.73,-29.37 -3.833,-31.68 -2.035,-33.44C-0.239,-35.2 2.107,-36.08 5.005,-36.08C7.901,-36.08 10.211,-35.236 11.935,-33.55C13.657,-31.862 14.52,-29.516 14.52,-26.51L14.52,-7.15C14.52,-4.656 14.74,-2.786 15.18,-1.54C15.986,1.174 18.992,2.53 24.2,2.53C28.892,2.53 31.752,1.54 32.78,-0.44C33.292,-1.466 33.605,-2.401 33.715,-3.245C33.825,-4.087 33.88,-5.352 33.88,-7.04L33.88,-26.4C33.88,-34.466 31.441,-41.305 26.565,-46.915C21.687,-52.525 15.583,-55.33 8.25,-55.33C5.242,-55.33 2.492,-54.486 0,-52.8Z" style="fill:none;fill-rule:nonzero;stroke:rgb(243,241,249);stroke-width:25px;"/>
        </g>
        <g transform="matrix(1,0,0,1,284.748,421.772)">
            <path d="M0,0.44C0,6.308 1.557,11.569 4.675,16.225C7.791,20.883 11.622,24.403 16.17,26.785C20.716,29.169 25.41,30.36 30.25,30.36C35.09,30.36 39.765,29.243 44.275,27.005C48.785,24.769 52.616,21.285 55.77,16.555C58.922,11.825 60.5,6.418 60.5,0.33C60.5,-8.47 57.456,-15.711 51.37,-21.395C45.282,-27.077 38.28,-29.92 30.36,-29.92C22.44,-29.92 15.4,-27.06 9.24,-21.34C3.08,-15.62 0,-8.36 0,0.44ZM19.47,0.275C19.47,-3.281 20.606,-5.976 22.88,-7.81C25.152,-9.642 27.61,-10.56 30.25,-10.56C32.89,-10.56 35.346,-9.68 37.62,-7.92C39.892,-6.16 41.03,-3.482 41.03,0.11C41.03,3.704 39.82,6.418 37.4,8.25C34.98,10.084 32.56,11 30.14,11C27.72,11 25.336,10.103 22.99,8.305C20.642,6.509 19.47,3.833 19.47,0.275Z" style="fill:none;fill-rule:nonzero;stroke:rgb(243,241,249);stroke-width:25px;"/>
        </g>
        <g transform="matrix(1,0,0,1,388.202,412.037)">
            <path d="M0,0.44C0.842,0.33 1.815,0.019 2.915,-0.495C4.895,-1.521 5.885,-4.345 5.885,-8.965C5.885,-13.657 4.931,-16.481 3.025,-17.435C1.925,-18.021 0.952,-18.37 0.11,-18.48C-0.734,-18.59 -1.98,-18.645 -3.63,-18.645C-5.28,-18.645 -7.719,-18.497 -10.945,-18.205L-10.945,-28.985C-10.945,-31.551 -11.129,-33.421 -11.495,-34.595C-12.449,-37.307 -15.419,-38.665 -20.405,-38.665C-25.099,-38.665 -27.923,-37.747 -28.875,-35.915C-29.463,-34.961 -29.81,-34.081 -29.92,-33.275C-30.03,-32.467 -30.085,-31.221 -30.085,-29.535L-30.085,-18.205L-33.715,-18.645C-35.475,-18.645 -36.943,-18.167 -38.115,-17.215C-38.775,-16.627 -39.289,-15.656 -39.655,-14.3C-40.023,-12.942 -40.205,-10.761 -40.205,-7.755C-40.205,-4.747 -39.674,-2.621 -38.61,-1.375C-37.548,-0.127 -36.209,0.495 -34.595,0.495C-32.983,0.495 -31.479,0.385 -30.085,0.165L-30.085,16.445C-30.085,24.659 -28.105,30.489 -24.145,33.935C-20.185,37.383 -14.393,39.105 -6.765,39.105C-5.153,39.105 -3.924,39.05 -3.08,38.94C-2.238,38.83 -1.265,38.519 -0.165,38.005C1.887,36.979 2.915,34.155 2.915,29.535C2.915,25.575 2.071,23.119 0.385,22.165C-0.643,21.579 -1.614,21.23 -2.53,21.12C-3.448,21.01 -4.768,20.955 -6.49,20.955C-8.214,20.955 -9.388,20.515 -10.01,19.635C-10.634,18.755 -10.945,17.325 -10.945,15.345L-10.945,0.165L-3.795,0.605C-2.109,0.605 -0.844,0.55 0,0.44Z" style="fill:none;fill-rule:nonzero;stroke:rgb(243,241,249);stroke-width:25px;"/>
        </g>
        <g transform="matrix(1,0,0,1,436.876,417.812)">
            <path d="M0,-14.3C-0.88,-13.86 -1.485,-13.052 -1.815,-11.88C-2.145,-10.706 -2.31,-9.147 -2.31,-7.205C-2.31,-5.261 -2.164,-3.721 -1.87,-2.585C-1.578,-1.447 -0.954,-0.586 0,-0C0.952,0.588 2.566,0.88 4.84,0.88L13.53,0.88L13.53,12.87C10.302,14.19 6.672,14.85 2.64,14.85C-2.934,14.85 -7.92,12.633 -12.32,8.195C-16.72,3.759 -18.92,-1.631 -18.92,-7.975C-18.92,-14.317 -16.758,-19.451 -12.43,-23.375C-8.104,-27.297 -3.154,-29.26 2.42,-29.26C6.672,-29.26 10.34,-28.251 13.42,-26.235C16.5,-24.217 18.736,-23.21 20.13,-23.21C22.476,-23.21 25.08,-25.153 27.94,-29.04C29.626,-31.386 30.47,-33.457 30.47,-35.255C30.47,-37.051 29.48,-38.682 27.5,-40.15C19.8,-45.87 11.622,-48.73 2.97,-48.73C-8.178,-48.73 -17.858,-44.825 -26.07,-37.015C-34.284,-29.205 -38.39,-19.47 -38.39,-7.81C-38.39,3.85 -34.358,13.805 -26.29,22.055C-18.224,30.305 -8.728,34.43 2.2,34.43C14.52,34.43 23.76,31.24 29.92,24.86C31.972,22.734 33,20.498 33,18.15L33,-6.05C33,-8.762 32.632,-10.816 31.9,-12.21C31.02,-14.116 28.6,-15.142 24.64,-15.29L5.28,-15.29C3.08,-15.29 1.32,-14.96 0,-14.3Z" style="fill:none;fill-rule:nonzero;stroke:rgb(243,241,249);stroke-width:25px;"/>
        </g>
        <g transform="matrix(1,0,0,1,479.885,448.062)">
            <path d="M0,-74.69C-0.588,-73.59 -0.935,-72.636 -1.045,-71.83C-1.155,-71.022 -1.21,-69.74 -1.21,-67.98L-1.21,-6.82C-1.21,-3.666 -0.77,-1.32 0.11,0.22C1.21,2.054 3.996,2.97 8.47,2.97L28.6,2.97C39.82,2.97 49.371,-1.026 57.255,-9.02C65.137,-17.012 69.08,-26.601 69.08,-37.785C69.08,-48.967 65.046,-58.391 56.98,-66.055C48.912,-73.717 39.563,-77.55 28.93,-77.55L8.58,-77.66C3.886,-77.66 1.026,-76.67 0,-74.69ZM28.93,-16.5L18.26,-16.5L18.26,-58.08L28.82,-58.08C34.392,-58.08 39.251,-56.081 43.395,-52.085C47.537,-48.087 49.61,-43.12 49.61,-37.18C49.61,-31.24 47.482,-26.307 43.23,-22.385C38.976,-18.461 34.21,-16.5 28.93,-16.5Z" style="fill:none;fill-rule:nonzero;stroke:rgb(243,241,249);stroke-width:25px;"/>
        </g>
        <g transform="matrix(1,0,0,1,602.149,390.202)">
            <path d="M0,41.58C-2.018,42.168 -4.163,42.46 -6.435,42.46C-11.275,42.46 -15.933,40.848 -20.405,37.62C-22.679,35.934 -24.549,33.624 -26.015,30.69C-27.483,27.758 -28.215,24.439 -28.215,20.735C-28.215,17.033 -27.483,13.714 -26.015,10.78C-24.549,7.848 -22.715,5.574 -20.515,3.96C-15.895,0.66 -11.203,-0.99 -6.435,-0.99C-1.303,-0.99 2.805,0.258 5.885,2.75C8.305,4.364 10.175,5.17 11.495,5.17C13.767,5.17 16.335,3.19 19.195,-0.77C20.735,-2.896 21.505,-4.931 21.505,-6.875C21.505,-8.817 20.551,-10.56 18.645,-12.1C17.911,-12.612 16.885,-13.273 15.565,-14.08L12.925,-15.62C11.091,-16.72 8.396,-17.801 4.84,-18.865C1.282,-19.927 -2.219,-20.46 -5.665,-20.46C-12.925,-20.46 -20.149,-18.48 -27.335,-14.52C-31.149,-12.466 -34.54,-9.918 -37.51,-6.875C-40.48,-3.831 -42.919,0.019 -44.825,4.675C-46.733,9.332 -47.685,14.52 -47.685,20.24C-47.685,25.96 -46.714,31.259 -44.77,36.135C-42.828,41.013 -40.353,45.009 -37.345,48.125C-34.339,51.243 -30.948,53.883 -27.17,56.045C-23.394,58.209 -19.728,59.749 -16.17,60.665C-12.614,61.581 -9.094,62.04 -5.61,62.04C-2.128,62.04 1.485,61.452 5.225,60.28C8.965,59.108 11.44,58.154 12.65,57.42C13.86,56.688 15.125,55.918 16.445,55.11C17.765,54.304 18.92,53.388 19.91,52.36C20.9,51.334 21.395,50.05 21.395,48.51C21.395,46.97 20.587,44.918 18.975,42.35C16.335,38.244 13.877,36.19 11.605,36.19C10.577,36.19 8.817,36.924 6.325,38.39L4.345,39.82C3.465,40.408 2.016,40.994 0,41.58Z" style="fill:none;fill-rule:nonzero;stroke:rgb(243,241,249);stroke-width:25px;"/>
        </g>
        <text x="133px" y="450.96px" style="font-family:'FredokaOne-Regular', 'Fredoka One';font-size:110px;">#no<tspan x="346.4px " y="450.96px ">t</tspan>GDC</text>
        <g transform="matrix(1,0,0,1,204.5,442.049)">
            <path d="M0,-63.03C0.366,-65.376 0.55,-66.66 0.55,-66.88C0.55,-68.42 0.017,-69.575 -1.045,-70.345C-2.109,-71.115 -3.998,-71.5 -6.71,-71.5C-9.424,-71.5 -11.294,-71.17 -12.32,-70.51C-12.98,-70.07 -13.513,-69.702 -13.915,-69.41C-14.319,-69.116 -14.63,-68.602 -14.85,-67.87C-15.07,-67.136 -15.235,-66.567 -15.345,-66.165C-15.455,-65.761 -15.565,-65.065 -15.675,-64.075C-15.785,-63.085 -15.878,-62.37 -15.95,-61.93L-17.82,-50.6L-34.21,-50.6L-32.12,-63.03C-31.754,-65.376 -31.57,-66.66 -31.57,-66.88C-31.57,-68.42 -32.103,-69.575 -33.165,-70.345C-34.229,-71.115 -36.118,-71.5 -38.83,-71.5C-41.544,-71.5 -43.414,-71.17 -44.44,-70.51C-45.1,-70.07 -45.633,-69.702 -46.035,-69.41C-46.439,-69.116 -46.75,-68.602 -46.97,-67.87C-47.19,-67.136 -47.355,-66.567 -47.465,-66.165C-47.575,-65.761 -47.685,-65.065 -47.795,-64.075C-47.905,-63.085 -47.998,-62.37 -48.07,-61.93L-49.94,-50.6L-57.09,-50.6C-58.704,-50.6 -59.914,-50.526 -60.72,-50.38C-61.528,-50.232 -62.389,-49.61 -63.305,-48.51C-64.223,-47.41 -64.809,-46.107 -65.065,-44.605C-65.323,-43.101 -65.45,-41.8 -65.45,-40.7C-65.45,-39.6 -65.34,-38.72 -65.12,-38.06C-64.608,-36.812 -62.774,-36.19 -59.62,-36.19L-52.36,-36.19L-54.34,-24.09L-61.49,-24.09C-63.104,-24.09 -64.314,-24.016 -65.12,-23.87C-65.928,-23.722 -66.789,-23.1 -67.705,-22C-68.623,-20.9 -69.209,-19.597 -69.465,-18.095C-69.723,-16.591 -69.85,-15.271 -69.85,-14.135C-69.85,-12.997 -69.74,-12.136 -69.52,-11.55C-68.934,-10.23 -67.1,-9.57 -64.02,-9.57L-56.76,-9.57L-58.08,-1.32C-58.668,2.42 -58.96,4.328 -58.96,4.4C-58.96,7.114 -56.834,8.47 -52.58,8.47C-48.328,8.47 -45.614,7.628 -44.44,5.94C-43.854,4.988 -43.469,4.18 -43.285,3.52C-43.103,2.86 -42.864,1.724 -42.57,0.11L-42.35,-1.1C-42.204,-2.2 -41.764,-5.022 -41.03,-9.57L-24.64,-9.57L-25.96,-1.32C-26.548,2.42 -26.84,4.328 -26.84,4.4C-26.84,7.114 -24.714,8.47 -20.46,8.47C-16.208,8.47 -13.494,7.628 -12.32,5.94C-11.734,4.988 -11.349,4.18 -11.165,3.52C-10.983,2.86 -10.744,1.724 -10.45,0.11L-10.23,-1.1C-10.084,-2.2 -9.644,-5.022 -8.91,-9.57L-3.41,-9.57C-1.284,-9.57 0.366,-9.862 1.54,-10.45C2.346,-10.89 2.987,-11.622 3.465,-12.65C3.941,-13.676 4.29,-14.812 4.51,-16.06C4.73,-17.306 4.84,-18.571 4.84,-19.855C4.84,-21.137 4.546,-22.11 3.96,-22.77C3.372,-23.43 2.767,-23.815 2.145,-23.925C1.521,-24.035 0.512,-24.09 -0.88,-24.09L-6.49,-24.09L-4.51,-36.19L0.99,-36.19C2.602,-36.19 3.812,-36.262 4.62,-36.41C5.426,-36.556 6.27,-37.18 7.15,-38.28C8.03,-39.38 8.597,-40.681 8.855,-42.185C9.111,-43.687 9.24,-45.081 9.24,-46.365C9.24,-47.647 8.946,-48.62 8.36,-49.28C7.772,-49.94 7.167,-50.325 6.545,-50.435C5.921,-50.545 4.912,-50.6 3.52,-50.6L-2.09,-50.6L0,-63.03ZM-38.61,-24.09L-36.52,-36.19L-20.24,-36.19L-22.22,-24.09L-38.61,-24.09Z" style="fill:none;fill-rule:nonzero;stroke:rgb(243,241,248);stroke-width:0.25px;"/>
        </g>
        <g transform="matrix(1,0,0,1,243.769,448.32)">
            <path d="M0,-52.8C-0.954,-52.212 -1.944,-51.442 -2.97,-50.49C-3.998,-49.536 -4.658,-48.802 -4.95,-48.29C-4.95,-50.05 -5.318,-51.552 -6.05,-52.8C-7.078,-54.486 -9.828,-55.33 -14.3,-55.33C-18.92,-55.33 -21.744,-54.412 -22.77,-52.58C-23.358,-51.552 -23.705,-50.617 -23.815,-49.775C-23.925,-48.931 -23.98,-47.702 -23.98,-46.09L-23.98,-7.15C-23.98,-5.462 -23.925,-4.197 -23.815,-3.355C-23.705,-2.511 -23.394,-1.54 -22.88,-0.44C-21.854,1.54 -19.03,2.53 -14.41,2.53C-9.718,2.53 -6.894,1.54 -5.94,-0.44C-5.354,-1.466 -5.005,-2.401 -4.895,-3.245C-4.785,-4.087 -4.73,-5.352 -4.73,-7.04L-4.73,-26.51C-4.73,-29.37 -3.833,-31.68 -2.035,-33.44C-0.239,-35.2 2.107,-36.08 5.005,-36.08C7.901,-36.08 10.211,-35.236 11.935,-33.55C13.657,-31.862 14.52,-29.516 14.52,-26.51L14.52,-7.15C14.52,-4.656 14.74,-2.786 15.18,-1.54C15.986,1.174 18.992,2.53 24.2,2.53C28.892,2.53 31.752,1.54 32.78,-0.44C33.292,-1.466 33.605,-2.401 33.715,-3.245C33.825,-4.087 33.88,-5.352 33.88,-7.04L33.88,-26.4C33.88,-34.466 31.441,-41.305 26.565,-46.915C21.687,-52.525 15.583,-55.33 8.25,-55.33C5.242,-55.33 2.492,-54.486 0,-52.8Z" style="fill:none;fill-rule:nonzero;stroke:rgb(243,241,248);stroke-width:0.25px;"/>
        </g>
        <g transform="matrix(1,0,0,1,284.798,421.589)">
            <path d="M0,0.44C0,6.308 1.557,11.569 4.675,16.225C7.791,20.883 11.622,24.403 16.17,26.785C20.716,29.169 25.41,30.36 30.25,30.36C35.09,30.36 39.765,29.243 44.275,27.005C48.785,24.769 52.616,21.285 55.77,16.555C58.922,11.825 60.5,6.418 60.5,0.33C60.5,-8.47 57.456,-15.711 51.37,-21.395C45.282,-27.077 38.28,-29.92 30.36,-29.92C22.44,-29.92 15.4,-27.06 9.24,-21.34C3.08,-15.62 0,-8.36 0,0.44ZM19.47,0.275C19.47,-3.281 20.606,-5.976 22.88,-7.81C25.152,-9.642 27.61,-10.56 30.25,-10.56C32.89,-10.56 35.346,-9.68 37.62,-7.92C39.892,-6.16 41.03,-3.482 41.03,0.11C41.03,3.704 39.82,6.418 37.4,8.25C34.98,10.084 32.56,11 30.14,11C27.72,11 25.336,10.103 22.99,8.305C20.642,6.509 19.47,3.833 19.47,0.275Z" style="fill:none;fill-rule:nonzero;stroke:rgb(243,241,248);stroke-width:0.25px;"/>
        </g>
        <g transform="matrix(1,0,0,1,388.252,411.854)">
            <path d="M0,0.44C0.842,0.33 1.815,0.019 2.915,-0.495C4.895,-1.521 5.885,-4.345 5.885,-8.965C5.885,-13.657 4.931,-16.481 3.025,-17.435C1.925,-18.021 0.952,-18.37 0.11,-18.48C-0.734,-18.59 -1.98,-18.645 -3.63,-18.645C-5.28,-18.645 -7.719,-18.497 -10.945,-18.205L-10.945,-28.985C-10.945,-31.551 -11.129,-33.421 -11.495,-34.595C-12.449,-37.307 -15.419,-38.665 -20.405,-38.665C-25.099,-38.665 -27.923,-37.747 -28.875,-35.915C-29.463,-34.961 -29.81,-34.081 -29.92,-33.275C-30.03,-32.467 -30.085,-31.221 -30.085,-29.535L-30.085,-18.205L-33.715,-18.645C-35.475,-18.645 -36.943,-18.167 -38.115,-17.215C-38.775,-16.627 -39.289,-15.656 -39.655,-14.3C-40.023,-12.942 -40.205,-10.761 -40.205,-7.755C-40.205,-4.747 -39.674,-2.621 -38.61,-1.375C-37.548,-0.127 -36.209,0.495 -34.595,0.495C-32.983,0.495 -31.479,0.385 -30.085,0.165L-30.085,16.445C-30.085,24.659 -28.105,30.489 -24.145,33.935C-20.185,37.383 -14.393,39.105 -6.765,39.105C-5.153,39.105 -3.924,39.05 -3.08,38.94C-2.238,38.83 -1.265,38.519 -0.165,38.005C1.887,36.979 2.915,34.155 2.915,29.535C2.915,25.575 2.071,23.119 0.385,22.165C-0.643,21.579 -1.614,21.23 -2.53,21.12C-3.448,21.01 -4.768,20.955 -6.49,20.955C-8.214,20.955 -9.388,20.515 -10.01,19.635C-10.634,18.755 -10.945,17.325 -10.945,15.345L-10.945,0.165L-3.795,0.605C-2.109,0.605 -0.844,0.55 0,0.44Z" style="fill:none;fill-rule:nonzero;stroke:rgb(243,241,248);stroke-width:0.25px;"/>
        </g>
        <g transform="matrix(1,0,0,1,436.926,417.63)">
            <path d="M0,-14.3C-0.88,-13.86 -1.485,-13.052 -1.815,-11.88C-2.145,-10.706 -2.31,-9.147 -2.31,-7.205C-2.31,-5.261 -2.164,-3.721 -1.87,-2.585C-1.578,-1.447 -0.954,-0.586 0,-0C0.952,0.588 2.566,0.88 4.84,0.88L13.53,0.88L13.53,12.87C10.302,14.19 6.672,14.85 2.64,14.85C-2.934,14.85 -7.92,12.633 -12.32,8.195C-16.72,3.759 -18.92,-1.631 -18.92,-7.975C-18.92,-14.317 -16.758,-19.451 -12.43,-23.375C-8.104,-27.297 -3.154,-29.26 2.42,-29.26C6.672,-29.26 10.34,-28.251 13.42,-26.235C16.5,-24.217 18.736,-23.21 20.13,-23.21C22.476,-23.21 25.08,-25.153 27.94,-29.04C29.626,-31.386 30.47,-33.457 30.47,-35.255C30.47,-37.051 29.48,-38.682 27.5,-40.15C19.8,-45.87 11.622,-48.73 2.97,-48.73C-8.178,-48.73 -17.858,-44.825 -26.07,-37.015C-34.284,-29.205 -38.39,-19.47 -38.39,-7.81C-38.39,3.85 -34.358,13.805 -26.29,22.055C-18.224,30.305 -8.728,34.43 2.2,34.43C14.52,34.43 23.76,31.24 29.92,24.86C31.972,22.734 33,20.498 33,18.15L33,-6.05C33,-8.762 32.632,-10.816 31.9,-12.21C31.02,-14.116 28.6,-15.142 24.64,-15.29L5.28,-15.29C3.08,-15.29 1.32,-14.96 0,-14.3Z" style="fill:none;fill-rule:nonzero;stroke:rgb(243,241,248);stroke-width:0.25px;"/>
        </g>
        <g transform="matrix(1,0,0,1,479.935,447.88)">
            <path d="M0,-74.69C-0.588,-73.59 -0.935,-72.636 -1.045,-71.83C-1.155,-71.022 -1.21,-69.74 -1.21,-67.98L-1.21,-6.82C-1.21,-3.666 -0.77,-1.32 0.11,0.22C1.21,2.054 3.996,2.97 8.47,2.97L28.6,2.97C39.82,2.97 49.371,-1.026 57.255,-9.02C65.137,-17.012 69.08,-26.601 69.08,-37.785C69.08,-48.967 65.046,-58.391 56.98,-66.055C48.912,-73.717 39.563,-77.55 28.93,-77.55L8.58,-77.66C3.886,-77.66 1.026,-76.67 0,-74.69ZM28.93,-16.5L18.26,-16.5L18.26,-58.08L28.82,-58.08C34.392,-58.08 39.251,-56.081 43.395,-52.085C47.537,-48.087 49.61,-43.12 49.61,-37.18C49.61,-31.24 47.482,-26.307 43.23,-22.385C38.976,-18.461 34.21,-16.5 28.93,-16.5Z" style="fill:none;fill-rule:nonzero;stroke:rgb(243,241,248);stroke-width:0.25px;"/>
        </g>
        <g transform="matrix(1,0,0,1,602.199,390.02)">
            <path d="M0,41.58C-2.018,42.168 -4.163,42.46 -6.435,42.46C-11.275,42.46 -15.933,40.848 -20.405,37.62C-22.679,35.934 -24.549,33.624 -26.015,30.69C-27.483,27.758 -28.215,24.439 -28.215,20.735C-28.215,17.033 -27.483,13.714 -26.015,10.78C-24.549,7.848 -22.715,5.574 -20.515,3.96C-15.895,0.66 -11.203,-0.99 -6.435,-0.99C-1.303,-0.99 2.805,0.258 5.885,2.75C8.305,4.364 10.175,5.17 11.495,5.17C13.767,5.17 16.335,3.19 19.195,-0.77C20.735,-2.896 21.505,-4.931 21.505,-6.875C21.505,-8.817 20.551,-10.56 18.645,-12.1C17.911,-12.612 16.885,-13.273 15.565,-14.08L12.925,-15.62C11.091,-16.72 8.396,-17.801 4.84,-18.865C1.282,-19.927 -2.219,-20.46 -5.665,-20.46C-12.925,-20.46 -20.149,-18.48 -27.335,-14.52C-31.149,-12.466 -34.54,-9.918 -37.51,-6.875C-40.48,-3.831 -42.919,0.019 -44.825,4.675C-46.733,9.332 -47.685,14.52 -47.685,20.24C-47.685,25.96 -46.714,31.259 -44.77,36.135C-42.828,41.013 -40.353,45.009 -37.345,48.125C-34.339,51.243 -30.948,53.883 -27.17,56.045C-23.394,58.209 -19.728,59.749 -16.17,60.665C-12.614,61.581 -9.094,62.04 -5.61,62.04C-2.128,62.04 1.485,61.452 5.225,60.28C8.965,59.108 11.44,58.154 12.65,57.42C13.86,56.688 15.125,55.918 16.445,55.11C17.765,54.304 18.92,53.388 19.91,52.36C20.9,51.334 21.395,50.05 21.395,48.51C21.395,46.97 20.587,44.918 18.975,42.35C16.335,38.244 13.877,36.19 11.605,36.19C10.577,36.19 8.817,36.924 6.325,38.39L4.345,39.82C3.465,40.408 2.016,40.994 0,41.58Z" style="fill:none;fill-rule:nonzero;stroke:rgb(243,241,248);stroke-width:0.25px;"/>
        </g>
        <g transform="matrix(0.5,0,0,0.5,-26.8179,-369.632)">
            <g transform="matrix(116,0,0,116,2438.98,1736.59)">
            </g>
            <text x="1691.13px" y="1736.6px" style="font-family:'Lexend-ExtraBold', 'Lexend';font-weight:800;font-size:116px;">m<tspan x="1802.02px 1876.96px 1926.95px 1987.85px 2060.7px " y="1736.6px 1736.6px 1736.6px 1736.6px 1736.6px ">arch </tspan>1822</text>
        </g>
    </g>
</svg>
