<?xml version="1.0" encoding="UTF-8" standalone="no"?><!DOCTYPE svg PUBLIC "-//W3C//DTD SVG 1.1//EN" "http://www.w3.org/Graphics/SVG/1.1/DTD/svg11.dtd"><svg width="100%" height="100%" viewBox="0 0 1802 578" version="1.1" xmlns="http://www.w3.org/2000/svg" xmlns:xlink="http://www.w3.org/1999/xlink" xml:space="preserve" xmlns:serif="http://www.serif.com/" style="fill-rule:evenodd;clip-rule:evenodd;stroke-miterlimit:10;"><g id="_-notGDC---Banner" serif:id="#notGDC - Banner"><path d="M54.495,117.43l-9.528,250.501l953.982,1.463l9.53,-250.502l-953.984,-1.462Z" style="fill-rule:nonzero;"/><path d="M44.968,367.931l9.528,-250.501l953.982,1.462l-9.528,250.502l-953.982,-1.463Zm982.051,-266.815c-3.777,-3.942 -9.075,-6.209 -14.535,-6.218l-961.555,-1.474l-0.03,-0c-10.902,-0 -19.793,8.524 -20.249,19.464l-9.814,258.052c-0.227,5.45 1.806,10.835 5.578,14.774c3.773,3.939 9.065,6.202 14.519,6.211l961.722,1.475l0.031,-0c10.823,-0 19.65,-8.463 20.102,-19.323l9.82,-258.17c0.227,-5.455 -1.812,-10.848 -5.589,-14.791" style="fill-rule:nonzero;"/><path d="M70.904,99.149l-9.528,250.502l962.982,1.462l9.528,-250.5l-962.982,-1.464Z" style="fill:#ff517b;fill-rule:nonzero;"/><path d="M1024.36,351.113l-962.982,-1.462l9.528,-250.502l962.982,1.464l-9.528,250.5Zm28.071,-268.275c-3.777,-3.943 -9.077,-6.211 -14.54,-6.22l-970.551,-1.473l-0.034,-0c-10.901,-0 -19.79,8.524 -20.246,19.462l-9.814,258.053c-0.228,5.449 1.806,10.834 5.578,14.773c3.773,3.939 9.065,6.203 14.519,6.212l970.72,1.474l0.035,0c10.822,-0.001 19.648,-8.463 20.101,-19.323l9.818,-258.165c0.228,-5.455 -1.809,-10.848 -5.586,-14.793" style="fill-rule:nonzero;"/><clipPath id="_clip1"><path d="M71.051,99.564l-8.67,248.568c0,1.5 0,1.5 -0.522,1.513l954.222,1.475c4.359,0.007 7.943,-3.428 8.126,-7.781l9.82,-232.707c0.194,-4.638 -3.511,-10.006 -8.154,-10.012l-954.052,-1.476c-0.063,-0.002 -0.117,-0.003 -0.165,-0.003c-0.281,-0 -0.321,0.052 -0.605,0.423Z" clip-rule="nonzero"/></clipPath><g clip-path="url(#_clip1)"><path d="M362.484,469.4c-0.148,14.847 3.117,28.985 12.836,40.326c3.795,4.428 10.72,8.459 16.345,8.631c22.602,0.698 42.333,-8.239 59.181,-22.747c10.154,-8.744 9.624,-14.673 -0.565,-23.852c-17.438,-15.709 -37.592,-26.413 -60.753,-30.901c-17.366,-3.366 -25.085,2.548 -27.003,20.292c-0.294,2.721 -0.041,5.499 -0.041,8.251m114.477,507.767c-1.768,-14.676 -2.043,-28.668 -5.419,-41.865c-3.788,-14.804 -9.384,-29.375 -16.092,-43.119c-4.685,-9.6 -11.589,-10.287 -19.739,-5.237c-16.032,9.938 -27.27,39.44 -21.531,57.504c7.029,22.13 19.551,40.872 36.537,56.585c2.958,2.736 6.818,4.539 10.371,6.583c5.928,3.411 10.076,1.778 11.438,-4.945c1.765,-8.718 3.069,-17.529 4.435,-25.506m774.6,-631.758c-0.784,-1.178 -1.177,-2.256 -1.945,-2.85c-28.638,-22.139 -57.281,-44.27 -86.054,-66.231c-1.575,-1.203 -4.962,-2.073 -6.313,-1.217c-14.421,9.131 -29.87,17.222 -42.464,28.478c-10.924,9.765 -7.366,23.47 5.699,30.724c7.779,4.32 16.185,7.512 24.319,11.19c10.176,4.602 16.763,12.114 17.664,23.459c0.374,4.716 -0.852,9.55 -1.243,14.338c-0.819,10.035 5.103,18.659 15.675,22.946c12.169,4.936 25.42,3.208 31.252,-4.334c14.538,-18.801 28.965,-37.686 43.41,-56.503m-1133.6,-288.254c14.581,11.591 27.973,22.904 42.054,33.282c26.662,19.653 55.875,29.721 89.325,21.162c25.72,-6.58 44.094,-21.157 49.719,-48.169c4.951,-23.784 -8.96,-39.218 -25.655,-52.601c-18.205,-14.593 -25.75,-33.4 -24.529,-56.326c0.937,-17.592 -3.747,-33.546 -14.516,-48.993c-38.814,50.566 -76.8,100.056 -116.398,151.645m281.352,-367.383c-1.242,1.967 -1.892,3.197 -2.724,4.284c-48.93,63.83 -97.937,127.602 -146.588,191.643c-1.911,2.517 -1.998,8.546 -0.3,11.333c10.506,17.236 17.019,35.607 15.894,55.831c-1.104,19.874 5.364,34.971 21.366,47.544c29.466,23.153 37.158,52.086 23.324,82.124c-9.554,20.74 -25.686,34.582 -47.856,42.327c1.717,2.286 2.658,4.146 4.119,5.397c33.438,28.627 70.057,37.009 106.966,1.962c23.609,-22.418 38.885,-48.719 32.244,-82.839c-2.62,-13.461 -6.247,-26.946 -11.293,-39.674c-14.634,-36.907 -8.244,-70.276 15.174,-101.139c14.392,-18.969 28.723,-38.034 44.067,-56.224c26.746,-31.709 28.06,-66.779 15.516,-104.046c-1.143,-3.396 -3.269,-7.056 -6.02,-9.221c-20.607,-16.216 -41.487,-32.086 -63.889,-49.302m736.336,806.69c-13.893,-20.651 -30.681,-37.826 -51.009,-51.296c-29.269,-19.393 -59.64,-26.623 -91.785,-6.282c-2.601,1.646 -5.443,2.928 -8.241,4.239c-26.461,12.396 -53.59,17.067 -82.119,7.517c-15.694,-5.253 -31.429,-10.446 -47.346,-14.96c-15.853,-4.495 -31.776,-9.214 -47.991,-11.854c-25.522,-4.154 -43.336,6.855 -51.55,29.302c-7.152,19.544 0.322,36.012 12.954,49.265c17.317,18.169 36.1,35.139 55.554,51.034c37.174,30.377 75.604,59.474 104.697,98.165c14.728,19.585 26.655,41.28 40.003,62.266c54.957,-71.613 110.787,-144.364 166.833,-217.396m-267.541,348.628c-7.38,-4.258 -13.013,-8.325 -19.254,-10.926c-10.149,-4.23 -20.747,-7.368 -31.067,-11.203c-27.885,-10.364 -39.217,-26.231 -40.789,-55.874c-0.966,-18.252 -1.731,-36.571 -3.971,-54.69c-6.708,-54.265 -51.679,-84.801 -104.407,-71.508c-3.006,0.758 -6.093,1.305 -8.988,2.37c-33.033,12.156 -62.702,5.441 -90.558,-14.932c-10.241,-7.49 -21.492,-13.857 -32.937,-19.379c-19.005,-9.166 -35.085,-5.625 -48.183,10.005c-9.336,11.141 -10.553,25.13 -8.376,38.379c4.461,27.14 8.46,54.699 16.704,80.805c17.931,56.783 38.313,112.796 57.885,169.056c8.695,25.001 16.273,50.601 11.1,76.955c-4.211,21.448 -11.07,42.712 -19.47,62.929c-15.671,37.719 -11.918,72.083 13.272,103.953c12.241,15.488 25.273,30.353 38.683,46.379c90.89,-118.446 179.978,-234.542 270.356,-352.319m-105.75,-875.391c-0.942,-1.194 -1.58,-2.44 -2.583,-3.211c-47.354,-36.425 -94.694,-72.867 -142.251,-109.028c-2.505,-1.905 -7.184,-2.572 -10.325,-1.765c-27.528,7.071 -52.489,19.255 -72.291,40.09c-22.762,23.952 -40.198,65.313 -15.003,106.344c4.875,7.938 9.399,16.092 14.03,24.179c16.174,28.24 21.693,57.978 11.499,89.488c-4.545,14.051 -9.812,27.906 -15.491,41.541c-12.984,31.176 -28.186,61.551 -39.235,93.381c-13.82,39.813 -3.929,69.225 27.771,92.36c36.076,26.329 77.193,38.559 121.342,42.405c34.464,3.001 58.374,-10.688 73.215,-41.93c8.868,-18.669 18.272,-37.224 29.19,-54.735c8.684,-13.927 18.561,-27.768 30.485,-38.883c28.494,-26.563 61.635,-25.602 95.35,-11.074c19.269,8.302 37.887,18.103 56.975,26.844c21.837,10 42.682,8.737 62.158,-6.33c24.054,-18.608 40.415,-43.13 54.453,-69.569c3.587,-6.756 -1.855,-8.475 -5.418,-11.211c-78.595,-60.381 -157.698,-120.118 -235.474,-181.533c-16.431,-12.975 -31.208,-12.906 -48.537,-7.33c-4.248,1.366 -8.331,3.321 -12.372,5.251c-26.256,12.548 -46.391,44.364 -44.559,70.706c2.274,32.724 21.882,53.352 48.793,68.454c26.358,14.791 49.704,8.011 72.956,-8.883c11.047,-8.028 24.697,-14.063 38.05,-17.033c39.044,-8.68 72.366,5.852 102.411,29.706c5.264,4.179 14.288,8.696 7.476,17.076c-6.427,7.907 -12.312,0.446 -17.34,-3.792c-38.904,-32.796 -91.483,-40.692 -130.231,-7.366c-21.558,18.541 -48.575,20.371 -74.898,7.579c-9.531,-4.63 -18.819,-10.282 -27.11,-16.864c-66,-52.404 -33.511,-132.813 20.517,-155.316c8.474,-3.53 17.279,-6.264 26.447,-9.551m-699.077,158.781c-10.839,14.123 -20.871,26.85 -30.409,39.936c-1.773,2.432 -2.432,6.389 -2.142,9.506c3.654,39.396 22.305,69.312 55.986,90.516c16.314,10.27 31.986,21.84 46.698,34.297c16.906,14.318 26.668,32.802 22.242,55.851c-8.183,42.609 -34.409,71.267 -72.308,89.927c-17.278,8.508 -34.924,7 -51.264,-3.275c-22.773,-14.32 -45.729,-28.425 -67.75,-43.846c-23.69,-16.59 -46.388,-34.595 -70.212,-52.503c-24.033,31.303 -47.823,62.149 -71.321,93.216c-1.543,2.041 -1.663,5.947 -1.075,8.692c9.369,43.668 46.179,77.51 90.544,81.95c24.236,2.425 48.704,2.404 73.014,4.194c49.781,3.664 86.066,35.923 94.386,84.838c2.528,14.853 2.988,30.323 2.246,45.404c-1.052,21.378 7.708,37.242 23.262,50.545c6.558,5.61 12.892,11.49 19.18,17.405c15.812,14.874 21.204,32.919 14.747,53.686c-3.363,10.814 -7.151,21.831 -12.914,31.46c-5.194,8.679 -3.184,12.504 4.124,18.057c61.048,46.375 121.779,93.171 182.629,139.806c18.522,14.194 19.61,14.019 34.668,-4.238c14.199,-17.215 13.868,-28.512 -1.327,-44.406c-2.864,-2.997 -5.744,-5.979 -8.67,-8.914c-36.722,-36.864 -37.53,-62.262 -3.758,-102.39c11.1,-13.19 21.959,-26.648 31.997,-40.65c12.949,-18.063 15.096,-37.713 3.931,-57.443c-8.652,-15.289 -18.135,-30.133 -27.748,-44.848c-21.686,-33.195 -44.742,-65.546 -65.247,-99.444c-19.913,-32.916 -23.913,-69.596 -16.251,-106.989c4.824,-23.547 11.379,-46.793 18.199,-69.866c10.298,-34.836 1.976,-63.516 -27.148,-85.219c-23.231,-17.313 -46.437,-34.881 -71.067,-50.042c-40.353,-24.84 -76.265,-53.478 -97.901,-96.922c-6.112,-12.276 -12.363,-24.485 -19.341,-38.291m1209.6,215.681c-38.535,50.46 -76.977,100.99 -115.62,151.366c-181.909,237.137 -363.873,474.23 -545.817,711.339c-9.291,12.107 -11.565,12.528 -23.16,3.632c-189.283,-145.209 -378.559,-290.429 -567.822,-435.663c-95.589,-73.353 -191.157,-146.733 -286.714,-220.127c-10.539,-8.095 -10.754,-9.984 -2.459,-20.796c162.599,-211.936 325.215,-423.859 487.832,-635.782c56.098,-73.106 112.197,-146.211 168.331,-219.288c8.498,-11.063 10.5,-11.187 21.641,-2.639c254.721,195.471 509.448,390.933 764.175,586.397c29.856,22.908 59.734,45.787 89.556,68.74c3.502,2.696 6.711,5.772 10.057,8.673l0,4.148Z" style="fill:#db4468;fill-rule:nonzero;"/></g><path d="M1024.36,351.113l-962.982,-1.462l9.528,-250.502l962.982,1.464l-9.528,250.5Zm28.073,-268.275c-3.779,-3.943 -9.077,-6.211 -14.54,-6.22l-970.551,-1.473l-0.034,-0c-10.901,-0 -19.791,8.524 -20.246,19.462l-9.816,258.053c-0.226,5.449 1.806,10.834 5.58,14.773c3.771,3.939 9.063,6.203 14.519,6.212l970.719,1.474l0.036,0c10.822,-0.001 19.648,-8.463 20.1,-19.323l9.819,-258.165c0.226,-5.455 -1.809,-10.848 -5.586,-14.793" style="fill-rule:nonzero;"/><path d="M1613.49,258.132l-620.263,-0c-0.725,-0 -1.301,-0.608 -1.262,-1.332l9.942,-184.622c0.273,-5.073 4.466,-9.046 9.546,-9.046l614.241,-0c0.345,-0 0.687,0.015 1.025,0.043c7.98,0.671 12.526,9.545 8.968,16.719l-40.042,80.738l28.441,82.015c2.43,7.007 -2.152,14.796 -9.541,15.44c-0.348,0.03 -0.699,0.045 -1.055,0.045" style="fill:#ff517b;fill-rule:nonzero;"/><path d="M1634.23,237.132l-620.264,-0c-0.724,-0 -1.3,-0.608 -1.261,-1.332l9.942,-184.622c0.273,-5.073 4.465,-9.046 9.546,-9.046l614.241,-0c0.345,-0 0.687,0.015 1.024,0.043c7.98,0.671 12.527,9.545 8.969,16.719l-40.043,80.738l28.442,82.015c2.43,7.007 -2.153,14.796 -9.542,15.44c-0.348,0.03 -0.699,0.045 -1.054,0.045" style="fill-rule:nonzero;"/><path d="M1092.69,324.529c-0.022,0.231 -0.054,0.417 -0.054,0.603c-0.003,12.603 -0.006,25.206 0.003,37.809c0.002,1.703 0.975,3.024 2.526,3.443c0.494,0.133 1.031,0.139 1.548,0.139c10.022,-0.003 20.043,-0.022 30.066,-0.022c8.511,-0.002 17.022,0.021 25.535,0.027c2.668,0.003 4.018,-1.334 4.018,-3.978c0.003,-12.384 0.002,-24.767 -0.001,-37.151c-0,-0.289 -0.029,-0.577 -0.045,-0.87l-63.596,0Zm-7.102,39.816l-0,-55.377c0.045,-0.096 0.111,-0.189 0.13,-0.291c1.041,-5.464 5.205,-8.929 10.748,-8.937c1.032,-0.001 2.065,0 3.172,0c0,-2.086 0.071,-4.084 -0.018,-6.073c-0.097,-2.174 0.674,-3.714 2.778,-4.476l5.109,-0c2.073,0.814 2.843,2.352 2.7,4.536c-0.111,1.722 -0.022,3.457 -0.022,5.188l-0,0.773l28.596,-0l-0,-0.939c0.001,-2.004 0.003,-4.01 0.001,-6.014c0,-1.249 0.524,-2.229 1.541,-2.932c0.351,-0.243 0.756,-0.41 1.135,-0.612l5.109,-0c2.102,0.763 2.877,2.302 2.78,4.477c-0.089,1.989 -0.02,3.986 -0.02,6.072c1.247,0 2.417,-0.009 3.587,0.002c4.702,0.046 8.827,3.211 10.084,7.732c0.138,0.495 0.254,0.996 0.381,1.494l0,55.377c-0.052,0.15 -0.124,0.299 -0.156,0.453c-0.877,4.287 -3.426,7.067 -7.578,8.393c-0.489,0.156 -0.997,0.258 -1.495,0.384l-59.333,-0c-0.123,-0.05 -0.243,-0.122 -0.372,-0.144c-3.247,-0.573 -5.772,-2.256 -7.377,-5.12c-0.681,-1.216 -0.997,-2.638 -1.48,-3.966" style="fill:#ff517b;fill-rule:nonzero;"/><path d="M1119.52,350.733c0.24,-0.336 0.386,-0.612 0.596,-0.823c5.449,-5.46 10.908,-10.91 16.356,-16.371c0.952,-0.954 2.034,-1.466 3.406,-1.199c2.502,0.488 3.672,3.372 2.199,5.453c-0.219,0.312 -0.495,0.588 -0.765,0.858c-6.462,6.466 -12.925,12.93 -19.392,19.392c-2.143,2.143 -4.344,1.962 -6.147,-0.498c-3.067,-4.182 -6.136,-8.363 -9.201,-12.545c-0.897,-1.222 -1.036,-2.544 -0.319,-3.868c0.684,-1.263 1.815,-1.892 3.262,-1.824c1.205,0.055 2.105,0.673 2.808,1.639c2.132,2.93 4.28,5.846 6.422,8.765c0.193,0.264 0.396,0.522 0.775,1.021" style="fill:#ff517b;fill-rule:nonzero;"/><path d="M92.755,525.685c1.879,0 3.54,-0.46 4.98,-1.38c1.44,-0.919 2.569,-2.19 3.39,-3.81c0.819,-1.62 1.23,-3.469 1.23,-5.55c-0,-2.04 -0.411,-3.859 -1.23,-5.461c-0.821,-1.598 -1.95,-2.859 -3.39,-3.779c-1.44,-0.921 -3.101,-1.38 -4.98,-1.38c-1.841,0 -3.471,0.459 -4.89,1.38c-1.421,0.92 -2.541,2.181 -3.36,3.779c-0.821,1.602 -1.23,3.421 -1.23,5.461c-0,2.081 0.409,3.93 1.23,5.55c0.819,1.62 1.939,2.891 3.36,3.81c1.419,0.92 3.049,1.38 4.89,1.38m-1.62,5.7c-2.601,0 -4.971,-0.72 -7.11,-2.161c-2.141,-1.439 -3.851,-3.398 -5.13,-5.88c-1.281,-2.478 -1.92,-5.279 -1.92,-8.399c-0,-3.159 0.649,-5.971 1.95,-8.43c1.299,-2.46 3.06,-4.39 5.28,-5.791c2.22,-1.398 4.71,-2.099 7.47,-2.099c1.639,0 3.139,0.24 4.5,0.719c1.359,0.481 2.55,1.152 3.57,2.01c1.02,0.862 1.86,1.852 2.52,2.971c0.66,1.121 1.069,2.321 1.23,3.6l-1.38,-0.48l-0,-8.16l6.24,0l-0,31.5l-6.24,0l-0,-7.5l1.44,-0.42c-0.24,1.08 -0.731,2.13 -1.47,3.15c-0.741,1.02 -1.68,1.931 -2.82,2.73c-1.14,0.801 -2.4,1.44 -3.78,1.92c-1.38,0.482 -2.831,0.72 -4.35,0.72" style="fill-rule:nonzero;"/><path d="M148.134,525.685c1.959,0 3.699,-0.46 5.22,-1.38c1.52,-0.919 2.7,-2.179 3.54,-3.778c0.84,-1.601 1.26,-3.441 1.26,-5.522c0,-2.079 -0.43,-3.93 -1.29,-5.55c-0.861,-1.62 -2.04,-2.889 -3.54,-3.808c-1.5,-0.921 -3.231,-1.382 -5.19,-1.382c-1.92,0 -3.63,0.47 -5.13,1.41c-1.5,0.941 -2.68,2.222 -3.54,3.84c-0.861,1.62 -1.29,3.45 -1.29,5.49c0,2.04 0.429,3.87 1.29,5.49c0.86,1.62 2.04,2.891 3.54,3.81c1.5,0.92 3.21,1.38 5.13,1.38m-0.24,18.9c-2.241,0 -4.47,-0.351 -6.69,-1.05c-2.22,-0.699 -4.009,-1.611 -5.37,-2.73l2.28,-4.8c0.8,0.599 1.74,1.13 2.82,1.589c1.08,0.46 2.22,0.82 3.42,1.081c1.2,0.26 2.379,0.39 3.54,0.39c2.199,0 4.04,-0.36 5.52,-1.081c1.479,-0.719 2.6,-1.778 3.36,-3.179c0.759,-1.401 1.14,-3.141 1.14,-5.22l0,-6.058l0.66,0.418c-0.201,1.241 -0.85,2.43 -1.95,3.57c-1.101,1.14 -2.47,2.07 -4.11,2.79c-1.641,0.722 -3.319,1.08 -5.04,1.08c-3,0 -5.67,-0.711 -8.01,-2.13c-2.34,-1.419 -4.191,-3.358 -5.55,-5.82c-1.36,-2.461 -2.04,-5.271 -2.04,-8.43c0,-3.16 0.669,-5.97 2.01,-8.43c1.34,-2.46 3.18,-4.401 5.52,-5.82c2.34,-1.419 4.97,-2.13 7.89,-2.13c1.2,0 2.36,0.152 3.48,0.45c1.119,0.3 2.16,0.72 3.12,1.26c0.96,0.54 1.82,1.131 2.58,1.769c0.759,0.642 1.38,1.321 1.86,2.043c0.48,0.718 0.78,1.399 0.9,2.038l-1.32,0.48l0,-7.38l6.18,0l0,29.58c0,2.52 -0.37,4.749 -1.11,6.69c-0.741,1.94 -1.81,3.581 -3.21,4.919c-1.401,1.341 -3.1,2.362 -5.1,3.061c-2.001,0.699 -4.26,1.05 -6.78,1.05" style="fill-rule:nonzero;"/><path d="M186.474,525.685c1.88,0 3.54,-0.46 4.98,-1.38c1.44,-0.919 2.57,-2.19 3.39,-3.81c0.819,-1.62 1.23,-3.469 1.23,-5.55c0,-2.04 -0.411,-3.859 -1.23,-5.461c-0.82,-1.598 -1.95,-2.859 -3.39,-3.779c-1.44,-0.921 -3.1,-1.38 -4.98,-1.38c-1.84,0 -3.471,0.459 -4.89,1.38c-1.42,0.92 -2.541,2.181 -3.36,3.779c-0.82,1.602 -1.23,3.421 -1.23,5.461c0,2.081 0.41,3.93 1.23,5.55c0.819,1.62 1.94,2.891 3.36,3.81c1.419,0.92 3.05,1.38 4.89,1.38m-1.62,5.7c-2.601,0 -4.971,-0.72 -7.11,-2.161c-2.14,-1.439 -3.85,-3.398 -5.13,-5.88c-1.281,-2.478 -1.92,-5.279 -1.92,-8.399c0,-3.159 0.65,-5.971 1.95,-8.43c1.299,-2.46 3.06,-4.39 5.28,-5.791c2.22,-1.398 4.71,-2.099 7.47,-2.099c1.64,0 3.14,0.24 4.5,0.719c1.359,0.481 2.55,1.152 3.57,2.01c1.02,0.862 1.86,1.852 2.52,2.971c0.66,1.121 1.07,2.321 1.23,3.6l-1.38,-0.48l0,-8.16l6.24,0l0,31.5l-6.24,0l0,-7.5l1.44,-0.42c-0.24,1.08 -0.73,2.13 -1.47,3.15c-0.741,1.02 -1.68,1.931 -2.82,2.73c-1.14,0.801 -2.4,1.44 -3.78,1.92c-1.38,0.482 -2.83,0.72 -4.35,0.72" style="fill-rule:nonzero;"/><path d="M210.593,530.786l-0,-31.5l6.24,-0l-0,6.718l-1.14,0.72c0.319,-1.038 0.829,-2.038 1.53,-3c0.699,-0.96 1.56,-1.807 2.58,-2.548c1.02,-0.74 2.119,-1.331 3.3,-1.77c1.179,-0.44 2.389,-0.66 3.63,-0.66c1.8,-0 3.379,0.3 4.74,0.9c1.36,0.6 2.479,1.5 3.36,2.698c0.88,1.202 1.519,2.702 1.92,4.5l-0.96,-0.24l0.42,-1.02c0.441,-0.919 1.05,-1.789 1.83,-2.61c0.78,-0.819 1.669,-1.549 2.67,-2.188c1,-0.641 2.059,-1.14 3.18,-1.5c1.119,-0.36 2.22,-0.54 3.3,-0.54c2.359,-0 4.309,0.478 5.85,1.44c1.54,0.96 2.7,2.419 3.48,4.38c0.78,1.959 1.17,4.399 1.17,7.318l-0,18.902l-6.24,-0l-0,-18.54c-0,-1.802 -0.231,-3.272 -0.69,-4.412c-0.461,-1.14 -1.151,-1.989 -2.07,-2.548c-0.92,-0.56 -2.1,-0.842 -3.54,-0.842c-1.121,0 -2.171,0.191 -3.15,0.57c-0.98,0.381 -1.83,0.911 -2.55,1.59c-0.72,0.683 -1.281,1.47 -1.68,2.37c-0.399,0.902 -0.6,1.892 -0.6,2.97l-0,18.842l-6.24,-0l-0,-18.66c-0,-1.64 -0.24,-3.032 -0.72,-4.172c-0.48,-1.138 -1.181,-2.01 -2.1,-2.61c-0.921,-0.598 -2.04,-0.9 -3.36,-0.9c-1.121,0 -2.16,0.191 -3.12,0.57c-0.96,0.381 -1.8,0.902 -2.52,1.56c-0.72,0.66 -1.28,1.44 -1.68,2.342c-0.401,0.9 -0.6,1.869 -0.6,2.908l-0,18.962l-6.24,-0Z" style="fill-rule:nonzero;"/><path d="M280.673,531.385c-3.24,0 -6.111,-0.69 -8.61,-2.07c-2.5,-1.38 -4.461,-3.27 -5.88,-5.668c-1.42,-2.402 -2.13,-5.163 -2.13,-8.282c0,-2.479 0.399,-4.74 1.2,-6.78c0.8,-2.04 1.91,-3.808 3.33,-5.308c1.419,-1.5 3.12,-2.661 5.1,-3.482c1.98,-0.819 4.13,-1.23 6.45,-1.23c2.04,0 3.939,0.39 5.7,1.169c1.76,0.781 3.29,1.852 4.59,3.211c1.299,1.359 2.3,2.972 3,4.832c0.699,1.858 1.029,3.889 0.99,6.088l-0.06,2.64l-25.74,0l-1.38,-4.92l21.78,0l-0.9,1.019l0,-1.437c-0.12,-1.322 -0.561,-2.501 -1.32,-3.542c-0.76,-1.039 -1.72,-1.86 -2.88,-2.458c-1.161,-0.602 -2.421,-0.902 -3.78,-0.902c-2.16,0 -3.981,0.411 -5.46,1.23c-1.48,0.821 -2.601,2.021 -3.36,3.6c-0.76,1.581 -1.14,3.53 -1.14,5.85c0,2.201 0.459,4.11 1.38,5.73c0.92,1.62 2.22,2.871 3.9,3.75c1.68,0.879 3.62,1.32 5.82,1.32c1.56,0 3.009,-0.259 4.35,-0.78c1.34,-0.519 2.79,-1.459 4.35,-2.818l3.12,4.38c-0.96,0.957 -2.13,1.798 -3.51,2.518c-1.38,0.72 -2.841,1.29 -4.38,1.71c-1.54,0.42 -3.051,0.63 -4.53,0.63" style="fill-rule:nonzero;"/><path d="M331.913,526.046c1.879,-0 3.54,-0.48 4.98,-1.442c1.44,-0.958 2.569,-2.269 3.39,-3.928c0.819,-1.661 1.23,-3.551 1.23,-5.67c-0,-2.12 -0.411,-4.01 -1.23,-5.672c-0.821,-1.657 -1.95,-2.968 -3.39,-3.928c-1.44,-0.96 -3.101,-1.442 -4.98,-1.442c-1.881,0 -3.54,0.482 -4.98,1.442c-1.44,0.96 -2.571,2.271 -3.39,3.928c-0.821,1.662 -1.23,3.552 -1.23,5.672c-0,2.119 0.409,4.009 1.23,5.67c0.819,1.659 1.95,2.97 3.39,3.928c1.44,0.962 3.099,1.442 4.98,1.442m-0.84,5.34c-2.88,-0 -5.451,-0.711 -7.71,-2.13c-2.261,-1.421 -4.05,-3.36 -5.37,-5.82c-1.32,-2.462 -1.98,-5.271 -1.98,-8.43c-0,-3.161 0.649,-5.97 1.95,-8.43c1.299,-2.46 3.069,-4.401 5.31,-5.82c2.239,-1.421 4.779,-2.13 7.62,-2.13c1.56,-0 3.069,0.25 4.53,0.75c1.459,0.499 2.769,1.179 3.93,2.04c1.159,0.859 2.07,1.798 2.73,2.818c0.66,1.022 0.99,2.051 0.99,3.092l-1.8,0.12l-0,-21.06l6.18,-0l-0,44.4l-6.18,-0l-0,-7.5l1.2,-0c-0,0.96 -0.321,1.911 -0.96,2.85c-0.641,0.94 -1.491,1.81 -2.55,2.61c-1.061,0.801 -2.28,1.44 -3.66,1.92c-1.38,0.48 -2.79,0.72 -4.23,0.72" style="fill-rule:nonzero;"/><path d="M370.672,531.385c-3.24,0 -6.111,-0.69 -8.61,-2.07c-2.5,-1.38 -4.461,-3.27 -5.88,-5.668c-1.42,-2.402 -2.13,-5.163 -2.13,-8.282c0,-2.479 0.399,-4.74 1.2,-6.78c0.8,-2.04 1.91,-3.808 3.33,-5.308c1.419,-1.5 3.12,-2.661 5.1,-3.482c1.98,-0.819 4.13,-1.23 6.45,-1.23c2.04,0 3.939,0.39 5.7,1.169c1.76,0.781 3.29,1.852 4.59,3.211c1.299,1.359 2.3,2.972 3,4.832c0.699,1.858 1.029,3.889 0.99,6.088l-0.06,2.64l-25.74,0l-1.38,-4.92l21.78,0l-0.9,1.019l0,-1.437c-0.12,-1.322 -0.561,-2.501 -1.32,-3.542c-0.76,-1.039 -1.72,-1.86 -2.88,-2.458c-1.161,-0.602 -2.421,-0.902 -3.78,-0.902c-2.16,0 -3.981,0.411 -5.46,1.23c-1.48,0.821 -2.601,2.021 -3.36,3.6c-0.76,1.581 -1.14,3.53 -1.14,5.85c0,2.201 0.459,4.11 1.38,5.73c0.92,1.62 2.22,2.871 3.9,3.75c1.68,0.879 3.62,1.32 5.82,1.32c1.56,0 3.009,-0.259 4.35,-0.78c1.34,-0.519 2.79,-1.459 4.35,-2.818l3.12,4.38c-0.96,0.957 -2.13,1.798 -3.51,2.518c-1.38,0.72 -2.841,1.29 -4.38,1.71c-1.54,0.42 -3.051,0.63 -4.53,0.63" style="fill-rule:nonzero;"/><path d="M400.852,530.786l-13.32,-31.5l6.66,-0l9.6,23.58l-1.14,0.54l10.26,-24.12l6.36,-0l-13.98,31.5l-4.44,-0Z" style="fill-rule:nonzero;"/><path d="M438.712,531.385c-3.24,0 -6.111,-0.69 -8.61,-2.07c-2.5,-1.38 -4.461,-3.27 -5.88,-5.668c-1.42,-2.402 -2.13,-5.163 -2.13,-8.282c0,-2.479 0.399,-4.74 1.2,-6.78c0.8,-2.04 1.91,-3.808 3.33,-5.308c1.419,-1.5 3.12,-2.661 5.1,-3.482c1.98,-0.819 4.13,-1.23 6.45,-1.23c2.04,0 3.939,0.39 5.7,1.169c1.76,0.781 3.29,1.852 4.59,3.211c1.299,1.359 2.3,2.972 3,4.832c0.699,1.858 1.029,3.889 0.99,6.088l-0.06,2.64l-25.74,0l-1.38,-4.92l21.78,0l-0.9,1.019l0,-1.437c-0.12,-1.322 -0.561,-2.501 -1.32,-3.542c-0.76,-1.039 -1.72,-1.86 -2.88,-2.458c-1.161,-0.602 -2.421,-0.902 -3.78,-0.902c-2.16,0 -3.981,0.411 -5.46,1.23c-1.48,0.821 -2.601,2.021 -3.36,3.6c-0.76,1.581 -1.14,3.53 -1.14,5.85c0,2.201 0.459,4.11 1.38,5.73c0.92,1.62 2.22,2.871 3.9,3.75c1.68,0.879 3.62,1.32 5.82,1.32c1.56,0 3.009,-0.259 4.35,-0.78c1.34,-0.519 2.79,-1.459 4.35,-2.818l3.12,4.38c-0.96,0.957 -2.13,1.798 -3.51,2.518c-1.38,0.72 -2.841,1.29 -4.38,1.71c-1.54,0.42 -3.051,0.63 -4.53,0.63" style="fill-rule:nonzero;"/><rect x="459.292" y="486.385" width="6.18" height="44.402"/><path d="M487.792,525.745c1.879,0 3.561,-0.469 5.04,-1.41c1.479,-0.939 2.64,-2.22 3.48,-3.84c0.84,-1.62 1.239,-3.45 1.2,-5.49c0.039,-2.079 -0.36,-3.93 -1.2,-5.55c-0.84,-1.62 -2.001,-2.889 -3.48,-3.808c-1.479,-0.921 -3.161,-1.382 -5.04,-1.382c-1.88,0 -3.57,0.47 -5.07,1.41c-1.5,0.941 -2.67,2.222 -3.51,3.84c-0.84,1.62 -1.241,3.449 -1.2,5.49c-0.041,2.04 0.36,3.87 1.2,5.49c0.84,1.62 2.01,2.901 3.51,3.84c1.5,0.941 3.19,1.41 5.07,1.41m-0,5.64c-3.081,0 -5.831,-0.711 -8.25,-2.13c-2.421,-1.419 -4.331,-3.358 -5.73,-5.82c-1.4,-2.461 -2.1,-5.271 -2.1,-8.43c-0,-3.16 0.7,-5.97 2.1,-8.43c1.399,-2.46 3.309,-4.401 5.73,-5.82c2.419,-1.419 5.169,-2.13 8.25,-2.13c3.039,0 5.769,0.711 8.19,2.13c2.419,1.419 4.329,3.36 5.73,5.82c1.399,2.46 2.1,5.27 2.1,8.43c-0,3.159 -0.701,5.969 -2.1,8.43c-1.401,2.462 -3.311,4.401 -5.73,5.82c-2.421,1.419 -5.151,2.13 -8.19,2.13" style="fill-rule:nonzero;"/><path d="M526.131,525.625c1.841,0 3.48,-0.459 4.92,-1.38c1.44,-0.919 2.58,-2.179 3.42,-3.78c0.84,-1.6 1.26,-3.42 1.26,-5.46c0,-2.04 -0.411,-3.849 -1.23,-5.43c-0.82,-1.579 -1.95,-2.83 -3.39,-3.75c-1.44,-0.919 -3.1,-1.38 -4.98,-1.38c-1.879,0 -3.54,0.452 -4.98,1.35c-1.44,0.9 -2.58,2.151 -3.42,3.75c-0.84,1.601 -1.26,3.42 -1.26,5.46c0,2.04 0.42,3.86 1.26,5.46c0.84,1.601 1.98,2.861 3.42,3.78c1.44,0.921 3.101,1.38 4.98,1.38m-15.6,18.359l0,-44.699l6.24,0l0,7.199l-0.96,-0.539c0.24,-1.2 0.92,-2.35 2.04,-3.45c1.121,-1.099 2.49,-1.999 4.11,-2.7c1.62,-0.7 3.291,-1.05 5.01,-1.05c2.84,0 5.36,0.701 7.56,2.099c2.199,1.401 3.941,3.322 5.22,5.76c1.28,2.44 1.92,5.241 1.92,8.401c0,3.12 -0.63,5.91 -1.89,8.37c-1.26,2.46 -2.991,4.401 -5.19,5.82c-2.2,1.421 -4.68,2.13 -7.44,2.13c-1.84,0 -3.619,-0.369 -5.34,-1.11c-1.72,-0.739 -3.18,-1.689 -4.38,-2.85c-1.2,-1.159 -1.941,-2.359 -2.22,-3.6l1.56,-0.84l0,21.059l-6.24,-0Z" style="fill-rule:nonzero;"/><path d="M548.271,530.786l-0,-31.5l6.24,-0l-0,6.718l-1.14,0.72c0.319,-1.038 0.829,-2.038 1.53,-3c0.699,-0.96 1.56,-1.807 2.58,-2.548c1.02,-0.74 2.119,-1.331 3.3,-1.77c1.179,-0.44 2.389,-0.66 3.63,-0.66c1.8,-0 3.379,0.3 4.74,0.9c1.36,0.6 2.479,1.5 3.36,2.698c0.88,1.202 1.519,2.702 1.92,4.5l-0.96,-0.24l0.42,-1.02c0.441,-0.919 1.05,-1.789 1.83,-2.61c0.78,-0.819 1.669,-1.549 2.67,-2.188c1,-0.641 2.059,-1.14 3.18,-1.5c1.119,-0.36 2.22,-0.54 3.3,-0.54c2.359,-0 4.309,0.478 5.85,1.44c1.54,0.96 2.7,2.419 3.48,4.38c0.78,1.959 1.17,4.399 1.17,7.318l-0,18.902l-6.24,-0l-0,-18.54c-0,-1.802 -0.231,-3.272 -0.69,-4.412c-0.461,-1.14 -1.151,-1.989 -2.07,-2.548c-0.92,-0.56 -2.1,-0.842 -3.54,-0.842c-1.121,0 -2.171,0.191 -3.15,0.57c-0.98,0.381 -1.83,0.911 -2.55,1.59c-0.72,0.683 -1.281,1.47 -1.68,2.37c-0.399,0.902 -0.6,1.892 -0.6,2.97l-0,18.842l-6.24,-0l-0,-18.66c-0,-1.64 -0.24,-3.032 -0.72,-4.172c-0.48,-1.138 -1.181,-2.01 -2.1,-2.61c-0.921,-0.598 -2.04,-0.9 -3.36,-0.9c-1.121,0 -2.16,0.191 -3.12,0.57c-0.96,0.381 -1.8,0.902 -2.52,1.56c-0.72,0.66 -1.28,1.44 -1.68,2.342c-0.401,0.9 -0.6,1.869 -0.6,2.908l-0,18.962l-6.24,-0Z" style="fill-rule:nonzero;"/><path d="M618.35,531.385c-3.24,0 -6.111,-0.69 -8.61,-2.07c-2.5,-1.38 -4.461,-3.27 -5.88,-5.668c-1.42,-2.402 -2.13,-5.163 -2.13,-8.282c0,-2.479 0.399,-4.74 1.2,-6.78c0.8,-2.04 1.91,-3.808 3.33,-5.308c1.419,-1.5 3.12,-2.661 5.1,-3.482c1.98,-0.819 4.13,-1.23 6.45,-1.23c2.04,0 3.939,0.39 5.7,1.169c1.76,0.781 3.29,1.852 4.59,3.211c1.299,1.359 2.3,2.972 3,4.832c0.699,1.858 1.029,3.889 0.99,6.088l-0.06,2.64l-25.74,0l-1.38,-4.92l21.78,0l-0.9,1.019l0,-1.437c-0.12,-1.322 -0.561,-2.501 -1.32,-3.542c-0.76,-1.039 -1.72,-1.86 -2.88,-2.458c-1.161,-0.602 -2.421,-0.902 -3.78,-0.902c-2.16,0 -3.981,0.411 -5.46,1.23c-1.48,0.821 -2.601,2.021 -3.36,3.6c-0.76,1.581 -1.14,3.53 -1.14,5.85c0,2.201 0.459,4.11 1.38,5.73c0.92,1.62 2.22,2.871 3.9,3.75c1.68,0.879 3.62,1.32 5.82,1.32c1.56,0 3.009,-0.259 4.35,-0.78c1.34,-0.519 2.79,-1.459 4.35,-2.818l3.12,4.38c-0.96,0.957 -2.13,1.798 -3.51,2.518c-1.38,0.72 -2.841,1.29 -4.38,1.71c-1.54,0.42 -3.051,0.63 -4.53,0.63" style="fill-rule:nonzero;"/><path d="M638.81,530.786l0,-31.5l6.18,-0l0,6.478l-1.08,0.72c0.401,-1.399 1.181,-2.689 2.34,-3.868c1.16,-1.179 2.54,-2.141 4.14,-2.882c1.599,-0.738 3.24,-1.108 4.92,-1.108c2.4,-0 4.4,0.469 6,1.41c1.599,0.94 2.799,2.37 3.6,4.288c0.8,1.922 1.2,4.343 1.2,7.26l0,19.202l-6.18,-0l0,-18.782c0,-1.8 -0.24,-3.288 -0.72,-4.468c-0.48,-1.181 -1.221,-2.04 -2.22,-2.582c-1,-0.538 -2.241,-0.768 -3.72,-0.69c-1.2,0 -2.301,0.191 -3.3,0.57c-1,0.381 -1.87,0.912 -2.61,1.592c-0.739,0.679 -1.32,1.47 -1.74,2.37c-0.42,0.898 -0.63,1.869 -0.63,2.908l0,19.082l-6.18,-0Z" style="fill-rule:nonzero;"/><path d="M678.41,491.245l6.18,0l0,39.54l-6.18,0l0,-39.54Zm-6.54,8.042l20.04,-0l0,6l-20.04,-0l0,-6Z" style="fill-rule:nonzero;"/><path d="M714.348,530.786l0,-31.5l6.18,-0l0,6.478l-1.08,0.72c0.401,-1.399 1.181,-2.689 2.34,-3.868c1.16,-1.179 2.54,-2.141 4.14,-2.882c1.599,-0.738 3.24,-1.108 4.92,-1.108c2.4,-0 4.4,0.469 6,1.41c1.599,0.94 2.799,2.37 3.6,4.288c0.8,1.922 1.2,4.343 1.2,7.26l0,19.202l-6.18,-0l0,-18.782c0,-1.8 -0.24,-3.288 -0.72,-4.468c-0.48,-1.181 -1.221,-2.04 -2.22,-2.582c-1,-0.538 -2.241,-0.768 -3.72,-0.69c-1.2,0 -2.301,0.191 -3.3,0.57c-1,0.381 -1.87,0.912 -2.61,1.592c-0.739,0.679 -1.32,1.47 -1.74,2.37c-0.42,0.898 -0.63,1.869 -0.63,2.908l0,19.082l-6.18,-0Z" style="fill-rule:nonzero;"/><path d="M764.208,525.745c1.879,0 3.561,-0.469 5.04,-1.41c1.479,-0.939 2.64,-2.22 3.48,-3.84c0.84,-1.62 1.239,-3.45 1.2,-5.49c0.039,-2.079 -0.36,-3.93 -1.2,-5.55c-0.84,-1.62 -2.001,-2.889 -3.48,-3.808c-1.479,-0.921 -3.161,-1.382 -5.04,-1.382c-1.88,0 -3.57,0.47 -5.07,1.41c-1.5,0.941 -2.67,2.222 -3.51,3.84c-0.84,1.62 -1.241,3.449 -1.2,5.49c-0.041,2.04 0.36,3.87 1.2,5.49c0.84,1.62 2.01,2.901 3.51,3.84c1.5,0.941 3.19,1.41 5.07,1.41m-0,5.64c-3.081,0 -5.831,-0.711 -8.25,-2.13c-2.421,-1.419 -4.331,-3.358 -5.73,-5.82c-1.4,-2.461 -2.1,-5.271 -2.1,-8.43c-0,-3.16 0.7,-5.97 2.1,-8.43c1.399,-2.46 3.309,-4.401 5.73,-5.82c2.419,-1.419 5.169,-2.13 8.25,-2.13c3.039,0 5.769,0.711 8.19,2.13c2.419,1.419 4.329,3.36 5.73,5.82c1.399,2.46 2.1,5.27 2.1,8.43c-0,3.159 -0.701,5.969 -2.1,8.43c-1.401,2.462 -3.311,4.401 -5.73,5.82c-2.421,1.419 -5.151,2.13 -8.19,2.13" style="fill-rule:nonzero;"/><path d="M786.947,530.786l0,-31.5l6.18,-0l0,6.478l-1.08,0.72c0.401,-1.399 1.181,-2.689 2.34,-3.868c1.16,-1.179 2.54,-2.141 4.14,-2.882c1.599,-0.738 3.24,-1.108 4.92,-1.108c2.4,-0 4.4,0.469 6,1.41c1.599,0.94 2.799,2.37 3.6,4.288c0.8,1.922 1.2,4.343 1.2,7.26l0,19.202l-6.18,-0l0,-18.782c0,-1.8 -0.24,-3.288 -0.72,-4.468c-0.48,-1.181 -1.221,-2.04 -2.22,-2.582c-1,-0.538 -2.241,-0.768 -3.72,-0.69c-1.2,0 -2.301,0.191 -3.3,0.57c-1,0.381 -1.87,0.912 -2.61,1.592c-0.739,0.679 -1.32,1.47 -1.74,2.37c-0.42,0.898 -0.63,1.869 -0.63,2.908l0,19.082l-6.18,-0Z" style="fill-rule:nonzero;"/><rect x="821.506" y="510.565" width="17.28" height="6.12"/><path d="M859.666,531.385c-2.92,0 -5.532,-0.718 -7.831,-2.16c-2.3,-1.438 -4.119,-3.399 -5.459,-5.88c-1.341,-2.479 -2.01,-5.259 -2.01,-8.34c0,-3.081 0.669,-5.859 2.01,-8.338c1.34,-2.481 3.159,-4.442 5.459,-5.88c2.299,-1.442 4.911,-2.162 7.831,-2.162c2.798,0 5.349,0.57 7.65,1.71c2.3,1.14 4.05,2.691 5.25,4.649l-3.42,4.201c-0.64,-0.919 -1.461,-1.761 -2.46,-2.518c-1,-0.761 -2.059,-1.361 -3.18,-1.802c-1.122,-0.441 -2.2,-0.66 -3.24,-0.66c-1.921,0 -3.631,0.471 -5.131,1.41c-1.5,0.939 -2.69,2.232 -3.569,3.869c-0.88,1.641 -1.32,3.481 -1.32,5.521c0,2.04 0.458,3.87 1.38,5.49c0.92,1.62 2.139,2.912 3.66,3.87c1.52,0.96 3.2,1.44 5.039,1.44c1.081,0 2.13,-0.18 3.15,-0.54c1.021,-0.358 2.011,-0.9 2.971,-1.618c0.96,-0.722 1.86,-1.601 2.7,-2.642l3.42,4.2c-1.281,1.8 -3.112,3.281 -5.491,4.442c-2.378,1.158 -4.85,1.738 -7.409,1.738" style="fill-rule:nonzero;"/><path d="M892.546,525.745c1.88,0 3.56,-0.469 5.039,-1.41c1.48,-0.939 2.64,-2.22 3.481,-3.84c0.84,-1.62 1.239,-3.45 1.199,-5.49c0.04,-2.079 -0.359,-3.93 -1.199,-5.55c-0.841,-1.62 -2.001,-2.889 -3.481,-3.808c-1.479,-0.921 -3.159,-1.382 -5.039,-1.382c-1.881,0 -3.571,0.47 -5.071,1.41c-1.5,0.941 -2.669,2.222 -3.51,3.84c-0.839,1.62 -1.239,3.449 -1.2,5.49c-0.039,2.04 0.361,3.87 1.2,5.49c0.841,1.62 2.01,2.901 3.51,3.84c1.5,0.941 3.19,1.41 5.071,1.41m0,5.64c-3.082,0 -5.83,-0.711 -8.25,-2.13c-2.421,-1.419 -4.33,-3.358 -5.73,-5.82c-1.401,-2.461 -2.101,-5.271 -2.101,-8.43c-0,-3.16 0.7,-5.97 2.101,-8.43c1.4,-2.46 3.309,-4.401 5.73,-5.82c2.42,-1.419 5.168,-2.13 8.25,-2.13c3.038,0 5.769,0.711 8.189,2.13c2.419,1.419 4.33,3.36 5.73,5.82c1.401,2.46 2.101,5.27 2.101,8.43c0,3.159 -0.7,5.969 -2.101,8.43c-1.4,2.462 -3.311,4.401 -5.73,5.82c-2.42,1.419 -5.151,2.13 -8.189,2.13" style="fill-rule:nonzero;"/><path d="M915.285,530.786l0,-31.5l6.18,-0l0,6.478l-1.081,0.72c0.402,-1.399 1.182,-2.689 2.341,-3.868c1.16,-1.179 2.54,-2.141 4.14,-2.882c1.599,-0.738 3.24,-1.108 4.92,-1.108c2.402,-0 4.4,0.469 6,1.41c1.599,0.94 2.799,2.37 3.599,4.288c0.801,1.922 1.201,4.343 1.201,7.26l0,19.202l-6.18,-0l0,-18.782c0,-1.8 -0.24,-3.288 -0.718,-4.468c-0.482,-1.181 -1.223,-2.04 -2.222,-2.582c-1,-0.538 -2.241,-0.768 -3.72,-0.69c-1.198,0 -2.301,0.191 -3.3,0.57c-1,0.381 -1.87,0.912 -2.61,1.592c-0.741,0.679 -1.32,1.47 -1.74,2.37c-0.418,0.898 -0.63,1.869 -0.63,2.908l0,19.082l-6.18,-0Z" style="fill-rule:nonzero;"/><path d="M954.404,530.786l-0,-35.04c-0,-1.802 0.4,-3.401 1.201,-4.802c0.8,-1.399 1.898,-2.499 3.299,-3.298c1.401,-0.8 3.021,-1.202 4.86,-1.202c1.281,0 2.481,0.242 3.601,0.722c1.119,0.48 2.018,1.119 2.699,1.918l-2.099,4.74c-0.522,-0.48 -1.092,-0.87 -1.711,-1.168c-0.621,-0.302 -1.209,-0.452 -1.769,-0.452c-0.841,0 -1.551,0.131 -2.13,0.39c-0.58,0.261 -1.011,0.66 -1.291,1.202c-0.279,0.538 -0.42,1.189 -0.42,1.95l-0,35.04l-6.24,-0Zm-5.039,-30.962l18.719,0l-0,5.702l-18.719,-0l0,-5.702Z" style="fill-rule:nonzero;"/><path d="M988.064,531.385c-3.24,0 -6.109,-0.69 -8.61,-2.07c-2.5,-1.38 -4.461,-3.27 -5.88,-5.668c-1.419,-2.402 -2.13,-5.163 -2.13,-8.282c0,-2.479 0.401,-4.74 1.2,-6.78c0.8,-2.04 1.91,-3.808 3.33,-5.308c1.419,-1.5 3.122,-2.661 5.1,-3.482c1.979,-0.819 4.13,-1.23 6.45,-1.23c2.04,0 3.941,0.39 5.7,1.169c1.758,0.781 3.29,1.852 4.59,3.211c1.299,1.359 2.298,2.972 3,4.832c0.699,1.858 1.031,3.889 0.989,6.088l-0.059,2.64l-25.74,0l-1.38,-4.92l21.78,0l-0.9,1.019l0,-1.437c-0.12,-1.322 -0.561,-2.501 -1.321,-3.542c-0.759,-1.039 -1.719,-1.86 -2.88,-2.458c-1.16,-0.602 -2.42,-0.902 -3.779,-0.902c-2.16,0 -3.982,0.411 -5.46,1.23c-1.48,0.821 -2.599,2.021 -3.36,3.6c-0.76,1.581 -1.14,3.53 -1.14,5.85c0,2.201 0.459,4.11 1.38,5.73c0.918,1.62 2.219,2.871 3.902,3.75c1.678,0.879 3.618,1.32 5.817,1.32c1.561,0 3.01,-0.259 4.351,-0.78c1.338,-0.519 2.789,-1.459 4.35,-2.818l3.12,4.38c-0.96,0.957 -2.13,1.798 -3.51,2.518c-1.378,0.72 -2.841,1.29 -4.378,1.71c-1.542,0.42 -3.054,0.63 -4.532,0.63" style="fill-rule:nonzero;"/><path d="M1008.52,530.786l-0,-31.5l6.24,-0l-0,9.9l-0.6,-2.4c0.439,-1.521 1.189,-2.901 2.25,-4.14c1.06,-1.241 2.28,-2.22 3.66,-2.942c1.38,-0.72 2.809,-1.078 4.291,-1.078c0.68,-0 1.328,0.06 1.949,0.18c0.619,0.12 1.11,0.261 1.47,0.418l-1.62,6.72c-0.482,-0.198 -1.011,-0.369 -1.59,-0.508c-0.581,-0.141 -1.149,-0.212 -1.709,-0.212c-1.081,0 -2.112,0.212 -3.091,0.63c-0.981,0.422 -1.841,1.002 -2.58,1.74c-0.741,0.741 -1.331,1.601 -1.77,2.582c-0.44,0.979 -0.66,2.05 -0.66,3.208l-0,17.402l-6.24,-0Z" style="fill-rule:nonzero;"/><path d="M1046.09,531.385c-3.24,0 -6.111,-0.69 -8.61,-2.07c-2.502,-1.38 -4.462,-3.27 -5.88,-5.668c-1.42,-2.402 -2.13,-5.163 -2.13,-8.282c0,-2.479 0.399,-4.74 1.199,-6.78c0.799,-2.04 1.909,-3.808 3.33,-5.308c1.42,-1.5 3.121,-2.661 5.101,-3.482c1.979,-0.819 4.128,-1.23 6.449,-1.23c2.041,0 3.94,0.39 5.7,1.169c1.759,0.781 3.291,1.852 4.591,3.211c1.298,1.359 2.298,2.972 3,4.832c0.699,1.858 1.029,3.889 0.989,6.088l-0.06,2.64l-25.74,0l-1.38,-4.92l21.781,0l-0.901,1.019l-0,-1.437c-0.12,-1.322 -0.56,-2.501 -1.32,-3.542c-0.761,-1.039 -1.719,-1.86 -2.88,-2.458c-1.16,-0.602 -2.421,-0.902 -3.78,-0.902c-2.16,0 -3.981,0.411 -5.459,1.23c-1.48,0.821 -2.601,2.021 -3.36,3.6c-0.762,1.581 -1.14,3.53 -1.14,5.85c0,2.201 0.459,4.11 1.38,5.73c0.918,1.62 2.219,2.871 3.9,3.75c1.679,0.879 3.62,1.32 5.819,1.32c1.56,0 3.01,-0.259 4.35,-0.78c1.339,-0.519 2.79,-1.459 4.35,-2.818l3.12,4.38c-0.96,0.957 -2.13,1.798 -3.51,2.518c-1.379,0.72 -2.841,1.29 -4.379,1.71c-1.542,0.42 -3.052,0.63 -4.53,0.63" style="fill-rule:nonzero;"/><path d="M1066.55,530.786l-0,-31.5l6.18,-0l-0,6.478l-1.082,0.72c0.402,-1.399 1.182,-2.689 2.342,-3.868c1.159,-1.179 2.539,-2.141 4.14,-2.882c1.599,-0.738 3.24,-1.108 4.92,-1.108c2.401,-0 4.399,0.469 6,1.41c1.599,0.94 2.799,2.37 3.598,4.288c0.801,1.922 1.202,4.343 1.202,7.26l-0,19.202l-6.18,-0l-0,-18.782c-0,-1.8 -0.24,-3.288 -0.719,-4.468c-0.481,-1.181 -1.222,-2.04 -2.221,-2.582c-1.001,-0.538 -2.241,-0.768 -3.72,-0.69c-1.199,0 -2.301,0.191 -3.3,0.57c-1.001,0.381 -1.871,0.912 -2.61,1.592c-0.741,0.679 -1.32,1.47 -1.74,2.37c-0.419,0.898 -0.63,1.869 -0.63,2.908l-0,19.082l-6.18,-0Z" style="fill-rule:nonzero;"/><path d="M1115.62,531.385c-2.92,0 -5.532,-0.718 -7.831,-2.16c-2.3,-1.438 -4.119,-3.399 -5.459,-5.88c-1.341,-2.479 -2.01,-5.259 -2.01,-8.34c0,-3.081 0.669,-5.859 2.01,-8.338c1.34,-2.481 3.159,-4.442 5.459,-5.88c2.299,-1.442 4.911,-2.162 7.831,-2.162c2.798,0 5.349,0.57 7.65,1.71c2.3,1.14 4.05,2.691 5.25,4.649l-3.42,4.201c-0.64,-0.919 -1.461,-1.761 -2.46,-2.518c-1,-0.761 -2.059,-1.361 -3.18,-1.802c-1.122,-0.441 -2.2,-0.66 -3.24,-0.66c-1.921,0 -3.631,0.471 -5.131,1.41c-1.5,0.939 -2.69,2.232 -3.569,3.869c-0.88,1.641 -1.32,3.481 -1.32,5.521c0,2.04 0.458,3.87 1.38,5.49c0.92,1.62 2.139,2.912 3.66,3.87c1.52,0.96 3.2,1.44 5.039,1.44c1.081,0 2.13,-0.18 3.15,-0.54c1.021,-0.358 2.011,-0.9 2.971,-1.618c0.96,-0.722 1.86,-1.601 2.7,-2.642l3.42,4.2c-1.281,1.8 -3.112,3.281 -5.491,4.442c-2.378,1.158 -4.85,1.738 -7.409,1.738" style="fill-rule:nonzero;"/><path d="M1149.04,531.385c-3.24,0 -6.111,-0.69 -8.61,-2.07c-2.5,-1.38 -4.461,-3.27 -5.88,-5.668c-1.42,-2.402 -2.13,-5.163 -2.13,-8.282c0,-2.479 0.399,-4.74 1.2,-6.78c0.8,-2.04 1.91,-3.808 3.329,-5.308c1.422,-1.5 3.121,-2.661 5.101,-3.482c1.98,-0.819 4.13,-1.23 6.45,-1.23c2.04,0 3.939,0.39 5.699,1.169c1.761,0.781 3.291,1.852 4.591,3.211c1.299,1.359 2.3,2.972 3,4.832c0.701,1.858 1.029,3.889 0.99,6.088l-0.061,2.64l-25.739,0l-1.38,-4.92l21.782,0l-0.902,1.019l0,-1.437c-0.12,-1.322 -0.561,-2.501 -1.32,-3.542c-0.762,-1.039 -1.719,-1.86 -2.88,-2.458c-1.159,-0.602 -2.421,-0.902 -3.78,-0.902c-2.161,0 -3.981,0.411 -5.46,1.23c-1.479,0.821 -2.601,2.021 -3.36,3.6c-0.76,1.581 -1.14,3.53 -1.14,5.85c0,2.201 0.461,4.11 1.38,5.73c0.92,1.62 2.22,2.871 3.9,3.75c1.68,0.879 3.621,1.32 5.82,1.32c1.559,0 3.009,-0.259 4.35,-0.78c1.34,-0.519 2.79,-1.459 4.349,-2.818l3.12,4.38c-0.959,0.957 -2.13,1.798 -3.51,2.518c-1.379,0.72 -2.84,1.29 -4.379,1.71c-1.54,0.42 -3.051,0.63 -4.53,0.63" style="fill-rule:nonzero;"/><path d="M1170.46,541.526l-2.28,-2.761c1.401,-0.801 2.541,-1.719 3.42,-2.76c0.881,-1.041 1.322,-1.941 1.322,-2.699c-0,-0.402 -0.101,-0.792 -0.302,-1.171c-0.199,-0.38 -0.619,-0.909 -1.258,-1.589c-0.803,-0.759 -1.32,-1.401 -1.56,-1.921c-0.242,-0.519 -0.362,-1.079 -0.362,-1.68c0,-0.96 0.341,-1.728 1.02,-2.31c0.68,-0.578 1.562,-0.87 2.64,-0.87c1.001,-0 1.91,0.292 2.73,0.87c0.821,0.582 1.461,1.38 1.92,2.401c0.459,1.02 0.69,2.189 0.69,3.51c0,1.199 -0.199,2.358 -0.6,3.48c-0.399,1.119 -0.96,2.159 -1.678,3.12c-0.722,0.959 -1.562,1.82 -2.52,2.579c-0.962,0.76 -2.022,1.359 -3.182,1.801" style="fill-rule:nonzero;"/><path d="M1205.74,530.786l0,-35.04c0,-1.802 0.401,-3.401 1.2,-4.802c0.8,-1.399 1.898,-2.499 3.3,-3.298c1.4,-0.8 3.02,-1.202 4.859,-1.202c1.281,0 2.482,0.242 3.601,0.722c1.119,0.48 2.019,1.119 2.7,1.918l-2.1,4.74c-0.522,-0.48 -1.09,-0.87 -1.711,-1.168c-0.62,-0.302 -1.209,-0.452 -1.769,-0.452c-0.841,0 -1.549,0.131 -2.13,0.39c-0.58,0.261 -1.011,0.66 -1.29,1.202c-0.28,0.538 -0.421,1.189 -0.421,1.95l-0,35.04l-6.239,-0Zm-5.04,-30.962l18.72,0l0,5.702l-18.72,-0l0,-5.702Z" style="fill-rule:nonzero;"/><path d="M1238.86,525.745c1.881,0 3.561,-0.469 5.04,-1.41c1.48,-0.939 2.641,-2.22 3.481,-3.84c0.839,-1.62 1.239,-3.45 1.199,-5.49c0.04,-2.079 -0.36,-3.93 -1.199,-5.55c-0.84,-1.62 -2.001,-2.889 -3.481,-3.808c-1.479,-0.921 -3.159,-1.382 -5.04,-1.382c-1.88,0 -3.569,0.47 -5.069,1.41c-1.5,0.941 -2.67,2.222 -3.51,3.84c-0.84,1.62 -1.242,3.449 -1.201,5.49c-0.041,2.04 0.361,3.87 1.201,5.49c0.84,1.62 2.01,2.901 3.51,3.84c1.5,0.941 3.189,1.41 5.069,1.41m-0,5.64c-3.08,0 -5.831,-0.711 -8.25,-2.13c-2.42,-1.419 -4.331,-3.358 -5.729,-5.82c-1.401,-2.461 -2.1,-5.271 -2.1,-8.43c0,-3.16 0.699,-5.97 2.1,-8.43c1.398,-2.46 3.309,-4.401 5.729,-5.82c2.419,-1.419 5.17,-2.13 8.25,-2.13c3.04,0 5.77,0.711 8.191,2.13c2.42,1.419 4.329,3.36 5.729,5.82c1.401,2.46 2.101,5.27 2.101,8.43c0,3.159 -0.7,5.969 -2.101,8.43c-1.4,2.462 -3.309,4.401 -5.729,5.82c-2.421,1.419 -5.151,2.13 -8.191,2.13" style="fill-rule:nonzero;"/><path d="M1261.6,530.786l0,-31.5l6.24,-0l0,9.9l-0.6,-2.4c0.441,-1.521 1.191,-2.901 2.25,-4.14c1.061,-1.241 2.28,-2.22 3.66,-2.942c1.38,-0.72 2.81,-1.078 4.292,-1.078c0.679,-0 1.327,0.06 1.948,0.18c0.62,0.12 1.112,0.261 1.47,0.418l-1.62,6.72c-0.48,-0.198 -1.011,-0.369 -1.59,-0.508c-0.58,-0.141 -1.149,-0.212 -1.708,-0.212c-1.082,0 -2.112,0.212 -3.092,0.63c-0.979,0.422 -1.84,1.002 -2.58,1.74c-0.741,0.741 -1.329,1.601 -1.768,2.582c-0.441,0.979 -0.662,2.05 -0.662,3.208l0,17.402l-6.24,-0Z" style="fill-rule:nonzero;"/><path d="M1317.58,531.385c-3.441,0 -6.45,-0.699 -9.03,-2.098c-2.58,-1.401 -4.58,-3.32 -6,-5.76c-1.421,-2.441 -2.129,-5.241 -2.129,-8.402c0,-2.479 0.398,-4.74 1.199,-6.78c0.801,-2.04 1.92,-3.808 3.361,-5.308c1.44,-1.5 3.149,-2.661 5.13,-3.482c1.979,-0.82 4.128,-1.23 6.449,-1.23c2.16,0 4.159,0.402 6,1.202c1.839,0.799 3.429,1.909 4.77,3.327c1.341,1.422 2.37,3.102 3.091,5.043c0.719,1.939 1.038,4.027 0.959,6.27l-0.06,2.638l-25.5,0l-1.38,-5.22l19.86,0l-0.96,1.082l-0,-1.322c-0.081,-1.08 -0.429,-2.049 -1.05,-2.91c-0.62,-0.859 -1.41,-1.539 -2.369,-2.038c-0.961,-0.501 -2.041,-0.75 -3.241,-0.75c-1.76,-0 -3.251,0.339 -4.47,1.02c-1.221,0.679 -2.151,1.678 -2.789,3c-0.642,1.317 -0.961,2.919 -0.961,4.798c-0,1.92 0.409,3.579 1.23,4.98c0.819,1.401 1.981,2.49 3.481,3.27c1.5,0.78 3.269,1.17 5.31,1.17c1.398,0 2.679,-0.219 3.839,-0.66c1.161,-0.439 2.4,-1.198 3.72,-2.28l4.08,5.702c-1.161,1.039 -2.441,1.909 -3.84,2.608c-1.401,0.701 -2.841,1.229 -4.32,1.59c-1.479,0.36 -2.94,0.54 -4.38,0.54" style="fill-rule:nonzero;"/><path d="M1347.04,530.786l-13.321,-31.74l9.36,-0l8.461,23.7l-1.98,0.358l8.88,-24.058l9.12,-0l-13.981,31.74l-6.539,-0Z" style="fill-rule:nonzero;"/><path d="M1386.94,531.385c-3.441,0 -6.45,-0.699 -9.03,-2.098c-2.58,-1.401 -4.579,-3.32 -6,-5.76c-1.42,-2.441 -2.128,-5.241 -2.128,-8.402c-0,-2.479 0.397,-4.74 1.198,-6.78c0.801,-2.04 1.92,-3.808 3.362,-5.308c1.44,-1.5 3.148,-2.661 5.13,-3.482c1.978,-0.82 4.128,-1.23 6.448,-1.23c2.16,0 4.16,0.402 6,1.202c1.839,0.799 3.429,1.909 4.77,3.327c1.341,1.422 2.37,3.102 3.092,5.043c0.718,1.939 1.038,4.027 0.958,6.27l-0.06,2.638l-25.5,0l-1.38,-5.22l19.86,0l-0.96,1.082l0,-1.322c-0.081,-1.08 -0.429,-2.049 -1.05,-2.91c-0.619,-0.859 -1.41,-1.539 -2.368,-2.038c-0.962,-0.501 -2.042,-0.75 -3.242,-0.75c-1.759,-0 -3.25,0.339 -4.47,1.02c-1.221,0.679 -2.151,1.678 -2.788,3c-0.642,1.317 -0.962,2.919 -0.962,4.798c0,1.92 0.41,3.579 1.23,4.98c0.819,1.401 1.982,2.49 3.482,3.27c1.5,0.78 3.268,1.17 5.31,1.17c1.398,0 2.679,-0.219 3.838,-0.66c1.161,-0.439 2.4,-1.198 3.72,-2.28l4.08,5.702c-1.161,1.039 -2.44,1.909 -3.84,2.608c-1.401,0.701 -2.841,1.229 -4.32,1.59c-1.479,0.36 -2.94,0.54 -4.38,0.54" style="fill-rule:nonzero;"/><path d="M1407.04,530.786l-0,-31.74l8.22,-0l0.3,10.2l-1.44,-2.1c0.48,-1.641 1.261,-3.131 2.34,-4.47c1.08,-1.341 2.35,-2.391 3.81,-3.15c1.459,-0.761 2.989,-1.142 4.59,-1.142c0.679,0 1.339,0.06 1.98,0.182c0.639,0.12 1.179,0.259 1.62,0.418l-2.28,9.36c-0.44,-0.24 -1.011,-0.448 -1.71,-0.63c-0.701,-0.178 -1.41,-0.27 -2.13,-0.27c-0.959,0 -1.85,0.171 -2.67,0.51c-0.821,0.341 -1.53,0.821 -2.13,1.442c-0.599,0.619 -1.071,1.35 -1.409,2.188c-0.342,0.842 -0.511,1.761 -0.511,2.76l-0,16.442l-8.58,-0Z" style="fill-rule:nonzero;"/><path d="M1437.76,544.585l6.962,-16.32l0.118,4.92l-15.48,-34.139l9.66,0l7.74,18.299c0.32,0.681 0.63,1.47 0.93,2.37c0.3,0.901 0.549,1.752 0.75,2.55l-1.44,0.661c0.281,-0.681 0.57,-1.459 0.87,-2.341c0.3,-0.879 0.609,-1.82 0.93,-2.82l6.66,-18.719l9.72,0l-13.32,31.74l-5.46,13.799l-8.64,-0Z" style="fill-rule:nonzero;"/><path d="M1483.9,523.945c1.56,0 2.961,-0.39 4.201,-1.168c1.239,-0.782 2.208,-1.862 2.909,-3.24c0.7,-1.38 1.03,-2.931 0.99,-4.652c0.04,-1.759 -0.29,-3.33 -0.99,-4.71c-0.701,-1.38 -1.67,-2.46 -2.909,-3.24c-1.24,-0.778 -2.641,-1.17 -4.201,-1.17c-1.599,0 -3.021,0.399 -4.26,1.2c-1.241,0.801 -2.219,1.881 -2.94,3.24c-0.719,1.361 -1.061,2.921 -1.019,4.68c-0.042,1.721 0.3,3.272 1.019,4.652c0.721,1.378 1.699,2.458 2.94,3.24c1.239,0.778 2.661,1.168 4.26,1.168m-0,7.44c-3.24,0 -6.131,-0.711 -8.669,-2.13c-2.542,-1.419 -4.542,-3.369 -6,-5.848c-1.462,-2.483 -2.19,-5.321 -2.19,-8.522c0,-3.199 0.728,-6.039 2.19,-8.52c1.458,-2.479 3.458,-4.429 6,-5.85c2.538,-1.419 5.429,-2.13 8.669,-2.13c3.201,0 6.07,0.711 8.61,2.13c2.541,1.421 4.531,3.371 5.971,5.85c1.44,2.481 2.159,5.321 2.159,8.52c-0,3.201 -0.719,6.039 -2.159,8.522c-1.44,2.479 -3.43,4.429 -5.971,5.848c-2.54,1.419 -5.409,2.13 -8.61,2.13" style="fill-rule:nonzero;"/><path d="M1507.12,530.786l0,-31.74l8.16,-0l0.242,6.48l-1.682,0.72c0.44,-1.44 1.23,-2.75 2.372,-3.93c1.138,-1.181 2.508,-2.13 4.108,-2.852c1.599,-0.718 3.279,-1.08 5.04,-1.08c2.4,0 4.412,0.482 6.03,1.44c1.62,0.962 2.84,2.412 3.66,4.352c0.819,1.939 1.23,4.329 1.23,7.168l0,19.442l-8.52,-0l0,-18.782c0,-1.438 -0.201,-2.638 -0.6,-3.598c-0.399,-0.962 -1.009,-1.661 -1.828,-2.1c-0.821,-0.44 -1.832,-0.639 -3.032,-0.602c-0.96,0 -1.849,0.15 -2.67,0.452c-0.82,0.298 -1.521,0.729 -2.1,1.288c-0.579,0.561 -1.041,1.202 -1.378,1.922c-0.342,0.718 -0.512,1.5 -0.512,2.338l0,19.082l-8.52,-0Z" style="fill-rule:nonzero;"/><path d="M1559.5,531.385c-3.441,0 -6.45,-0.699 -9.03,-2.098c-2.58,-1.401 -4.58,-3.32 -6,-5.76c-1.421,-2.441 -2.129,-5.241 -2.129,-8.402c0,-2.479 0.398,-4.74 1.199,-6.78c0.801,-2.04 1.92,-3.808 3.361,-5.308c1.44,-1.5 3.149,-2.661 5.13,-3.482c1.979,-0.82 4.128,-1.23 6.449,-1.23c2.16,0 4.159,0.402 6,1.202c1.839,0.799 3.429,1.909 4.77,3.327c1.341,1.422 2.37,3.102 3.091,5.043c0.719,1.939 1.038,4.027 0.959,6.27l-0.06,2.638l-25.5,0l-1.38,-5.22l19.86,0l-0.96,1.082l-0,-1.322c-0.081,-1.08 -0.429,-2.049 -1.05,-2.91c-0.62,-0.859 -1.41,-1.539 -2.369,-2.038c-0.961,-0.501 -2.041,-0.75 -3.241,-0.75c-1.76,-0 -3.251,0.339 -4.47,1.02c-1.221,0.679 -2.151,1.678 -2.789,3c-0.642,1.317 -0.961,2.919 -0.961,4.798c-0,1.92 0.409,3.579 1.23,4.98c0.819,1.401 1.981,2.49 3.481,3.27c1.5,0.78 3.269,1.17 5.31,1.17c1.398,0 2.679,-0.219 3.839,-0.66c1.161,-0.439 2.4,-1.198 3.72,-2.28l4.08,5.702c-1.161,1.039 -2.441,1.909 -3.84,2.608c-1.401,0.701 -2.841,1.229 -4.32,1.59c-1.479,0.36 -2.94,0.54 -4.38,0.54" style="fill-rule:nonzero;"/><path d="M1581.28,515.724c-0.321,-2.437 -0.63,-4.978 -0.93,-7.62c-0.3,-2.64 -0.531,-5.25 -0.69,-7.828c-0.161,-2.582 -0.24,-5.051 -0.24,-7.41l-0,-4.56l8.94,-0l-0,4.56c-0,2.439 -0.09,4.978 -0.27,7.618c-0.18,2.642 -0.41,5.262 -0.69,7.86c-0.279,2.601 -0.581,5.061 -0.9,7.38l-5.22,0Zm2.52,15.72c-1.56,0 -2.76,-0.438 -3.6,-1.318c-0.84,-0.881 -1.26,-2.141 -1.26,-3.782c-0,-1.479 0.45,-2.689 1.35,-3.63c0.9,-0.939 2.07,-1.408 3.51,-1.408c1.519,-0 2.709,0.439 3.57,1.32c0.859,0.879 1.29,2.119 1.29,3.718c-0,1.521 -0.45,2.751 -1.349,3.692c-0.901,0.939 -2.071,1.408 -3.511,1.408" style="fill-rule:nonzero;"/><path d="M1218.74,167.232c4.1,-0 7.025,0.475 8.775,1.425c1.75,0.95 2.925,2.4 3.525,4.35c0.6,1.95 0.9,4.5 0.9,7.65c-0,3.15 -0.325,5.675 -0.975,7.575c-0.65,1.9 -1.725,3.2 -3.225,3.9c-2.2,1.2 -5.3,1.8 -9.3,1.8l-58.65,-0c-3.6,-0 -6.7,-1.35 -9.3,-4.05c-2.6,-2.7 -3.9,-5.85 -3.9,-9.45c-0,-5.4 1.875,-10.375 5.625,-14.925c3.75,-4.55 8.275,-8.45 13.575,-11.7c5.3,-3.25 10.6,-6.45 15.9,-9.6c5.3,-3.15 9.825,-6.725 13.575,-10.725c3.75,-4 5.625,-8.25 5.625,-12.75c-0,-0.9 -0.35,-2.175 -1.05,-3.825c-0.7,-1.65 -1.475,-3 -2.325,-4.05c-0.85,-1.05 -2.175,-2.025 -3.975,-2.925c-1.8,-0.9 -4.3,-1.35 -7.5,-1.35c-3.2,-0 -5.975,1.175 -8.325,3.525c-2.35,2.35 -3.675,4.675 -3.975,6.975l-0.6,3.45l-0,0.9c-0,2.2 -0.075,3.85 -0.225,4.95c-0.15,1.1 -0.625,2.35 -1.425,3.75c-1.5,2.4 -5.4,3.6 -11.7,3.6c-7,-0 -11.15,-1.9 -12.45,-5.7c-0.5,-1.6 -0.75,-4.15 -0.75,-7.65c-0,-10.4 3.725,-19.725 11.175,-27.975c7.45,-8.25 17.2,-12.375 29.25,-12.375c12.05,-0 21.825,4.175 29.325,12.525c7.5,8.35 11.25,17.875 11.25,28.575c-0,5.7 -1.25,11.1 -3.75,16.2c-2.5,5.1 -5.5,9.2 -9,12.3c-7.4,6.6 -14,11.05 -19.8,13.35l-3.75,1.5l-0,0.75l27.45,-0Z" style="fill:#f3f1f9;fill-rule:nonzero;"/><path d="M1249.34,96.357c2.9,-4.05 6.975,-7.45 12.225,-10.2c5.25,-2.75 11.325,-4.125 18.225,-4.125c6.9,-0 12.925,1.35 18.075,4.05c5.15,2.7 9.2,6.05 12.15,10.05c2.95,4 5.325,8.7 7.125,14.1c3,9 4.5,18.55 4.5,28.65c-0,18.1 -3.9,32.45 -11.7,43.05c-2.9,4 -6.925,7.3 -12.075,9.9c-5.15,2.6 -11.125,3.9 -17.925,3.9c-6.8,-0 -12.825,-1.325 -18.075,-3.975c-5.25,-2.65 -9.35,-5.925 -12.3,-9.825c-2.95,-3.9 -5.375,-8.55 -7.275,-13.95c-2.9,-8.6 -4.35,-18.35 -4.35,-29.25c-0,-10 1.175,-18.55 3.525,-25.65c2.35,-7.1 4.975,-12.675 7.875,-16.725Zm30.3,72.675c10.3,-0 15.45,-9.8 15.45,-29.4l-0,-0.9c-0,-20.1 -5.1,-30.15 -15.3,-30.15c-10.2,-0 -15.3,10.075 -15.3,30.225c-0,20.15 5.05,30.225 15.15,30.225Z" style="fill:#f3f1f9;fill-rule:nonzero;"/><path d="M1401.29,167.232c4.1,-0 7.025,0.475 8.775,1.425c1.75,0.95 2.925,2.4 3.525,4.35c0.6,1.95 0.9,4.5 0.9,7.65c-0,3.15 -0.325,5.675 -0.975,7.575c-0.65,1.9 -1.725,3.2 -3.225,3.9c-2.2,1.2 -5.3,1.8 -9.3,1.8l-58.65,-0c-3.6,-0 -6.7,-1.35 -9.3,-4.05c-2.6,-2.7 -3.9,-5.85 -3.9,-9.45c-0,-5.4 1.875,-10.375 5.625,-14.925c3.75,-4.55 8.275,-8.45 13.575,-11.7c5.3,-3.25 10.6,-6.45 15.9,-9.6c5.3,-3.15 9.825,-6.725 13.575,-10.725c3.75,-4 5.625,-8.25 5.625,-12.75c-0,-0.9 -0.35,-2.175 -1.05,-3.825c-0.7,-1.65 -1.475,-3 -2.325,-4.05c-0.85,-1.05 -2.175,-2.025 -3.975,-2.925c-1.8,-0.9 -4.3,-1.35 -7.5,-1.35c-3.2,-0 -5.975,1.175 -8.325,3.525c-2.35,2.35 -3.675,4.675 -3.975,6.975l-0.6,3.45l-0,0.9c-0,2.2 -0.075,3.85 -0.225,4.95c-0.15,1.1 -0.625,2.35 -1.425,3.75c-1.5,2.4 -5.4,3.6 -11.7,3.6c-7,-0 -11.15,-1.9 -12.45,-5.7c-0.5,-1.6 -0.75,-4.15 -0.75,-7.65c-0,-10.4 3.725,-19.725 11.175,-27.975c7.45,-8.25 17.2,-12.375 29.25,-12.375c12.05,-0 21.825,4.175 29.325,12.525c7.5,8.35 11.25,17.875 11.25,28.575c-0,5.7 -1.25,11.1 -3.75,16.2c-2.5,5.1 -5.5,9.2 -9,12.3c-7.4,6.6 -14,11.05 -19.8,13.35l-3.75,1.5l-0,0.75l27.45,-0Z" style="fill:#f3f1f9;fill-rule:nonzero;"/><path d="M1474.49,87.282c0.8,-1.4 2.175,-2.375 4.125,-2.925c1.95,-0.55 4.5,-0.825 7.65,-0.825c3.15,-0 5.675,0.325 7.575,0.975c1.9,0.65 3.25,1.7 4.05,3.15c0.8,1.45 1.275,2.775 1.425,3.975c0.15,1.2 0.225,2.95 0.225,5.25l-0,83.4c-0,3.9 -0.475,6.775 -1.425,8.625c-0.95,1.85 -2.4,3.075 -4.35,3.675c-1.95,0.6 -4.375,0.9 -7.275,0.9c-2.9,-0 -5.2,-0.25 -6.9,-0.75c-1.7,-0.5 -3,-1.1 -3.9,-1.8c-0.9,-0.7 -1.55,-1.7 -1.95,-3c-0.6,-1.7 -0.9,-4.3 -0.9,-7.8l-0,-18.3l-40.65,-0c-7,-0 -11.15,-1.9 -12.45,-5.7c-0.5,-1.6 -0.75,-3.75 -0.75,-6.45c-0,-2.7 0.15,-4.7 0.45,-6l12.45,-50.25c0.6,-2.3 1.125,-4.05 1.575,-5.25c0.45,-1.2 1.35,-2.35 2.7,-3.45c1.35,-1.1 3.075,-1.65 5.175,-1.65c2.1,-0 4.4,0.35 6.9,1.05c7,1.9 10.5,5.1 10.5,9.6c-0,1.6 -0.35,3.7 -1.05,6.3c-0.1,0.2 -0.15,0.35 -0.15,0.45l-9.15,36.6l24.45,-0l-0,-40.95c-0,-2.3 0.075,-4 0.225,-5.1c0.15,-1.1 0.625,-2.35 1.425,-3.75Z" style="fill:#f3f1f9;fill-rule:nonzero;"/><path d="M269.922,197.58l8.415,-0c2.09,-0 3.602,0.082 4.537,0.247c0.935,0.165 1.843,0.743 2.723,1.733c0.88,0.99 1.32,2.447 1.32,4.372c-0,1.925 -0.193,4.015 -0.578,6.27c-0.385,2.255 -1.237,4.208 -2.557,5.858c-1.32,1.65 -2.585,2.585 -3.795,2.805c-1.21,0.22 -3.025,0.33 -5.445,0.33l-8.25,-0l-2.97,18.15l8.415,-0c2.09,-0 3.602,0.082 4.537,0.247c0.935,0.165 1.843,0.743 2.723,1.733c0.88,0.99 1.32,2.447 1.32,4.372c-0,1.925 -0.165,3.823 -0.495,5.693c-0.33,1.87 -0.853,3.575 -1.568,5.115c-0.715,1.54 -1.677,2.64 -2.887,3.3c-1.76,0.88 -4.235,1.32 -7.425,1.32l-8.25,-0c-1.1,6.82 -1.76,11.055 -1.98,12.705l-0.33,1.815c-0.44,2.42 -0.798,4.125 -1.073,5.115c-0.275,0.99 -0.852,2.2 -1.732,3.63c-1.76,2.53 -5.83,3.795 -12.21,3.795c-6.38,-0 -9.57,-2.035 -9.57,-6.105c-0,-0.11 0.44,-2.97 1.32,-8.58l1.98,-12.375l-24.585,-0c-1.1,6.82 -1.76,11.055 -1.98,12.705l-0.33,1.815c-0.44,2.42 -0.798,4.125 -1.073,5.115c-0.275,0.99 -0.852,2.2 -1.732,3.63c-1.76,2.53 -5.83,3.795 -12.21,3.795c-6.38,-0 -9.57,-2.035 -9.57,-6.105c-0,-0.11 0.44,-2.97 1.32,-8.58l1.98,-12.375l-10.89,-0c-4.62,-0 -7.37,-0.99 -8.25,-2.97c-0.33,-0.88 -0.495,-2.173 -0.495,-3.878c-0,-1.705 0.192,-3.685 0.577,-5.94c0.385,-2.255 1.265,-4.207 2.64,-5.857c1.375,-1.65 2.668,-2.585 3.878,-2.805c1.21,-0.22 3.025,-0.33 5.445,-0.33l10.725,-0l2.97,-18.15l-10.89,-0c-4.73,-0 -7.48,-0.935 -8.25,-2.805c-0.33,-0.99 -0.495,-2.31 -0.495,-3.96c-0,-1.65 0.192,-3.603 0.577,-5.858c0.385,-2.255 1.265,-4.207 2.64,-5.857c1.375,-1.65 2.668,-2.585 3.878,-2.805c1.21,-0.22 3.025,-0.33 5.445,-0.33l10.725,-0l2.805,-16.995c0.11,-0.66 0.247,-1.733 0.412,-3.218c0.165,-1.485 0.33,-2.53 0.495,-3.135c0.165,-0.605 0.413,-1.457 0.743,-2.557c0.33,-1.1 0.797,-1.87 1.402,-2.31c0.605,-0.44 1.403,-0.99 2.393,-1.65c1.54,-0.99 4.345,-1.485 8.415,-1.485c4.07,-0 6.902,0.577 8.497,1.732c1.595,1.155 2.393,2.888 2.393,5.198c-0,0.33 -0.275,2.255 -0.825,5.775l-3.135,18.645l24.585,-0l2.805,-16.995c0.11,-0.66 0.247,-1.733 0.412,-3.218c0.165,-1.485 0.33,-2.53 0.495,-3.135c0.165,-0.605 0.413,-1.457 0.743,-2.557c0.33,-1.1 0.797,-1.87 1.402,-2.31c0.605,-0.44 1.403,-0.99 2.393,-1.65c1.54,-0.99 4.345,-1.485 8.415,-1.485c4.07,-0 6.902,0.577 8.497,1.732c1.595,1.155 2.393,2.888 2.393,5.198c-0,0.33 -0.275,2.255 -0.825,5.775l-3.135,18.645Zm-30.195,39.765l2.97,-18.15l-24.42,-0l-3.135,18.15l24.585,-0Z" style="fill:#f3f1f9;fill-rule:nonzero;"/><path d="M344.337,199.89c11,-0 20.157,4.207 27.472,12.622c7.315,8.415 10.973,18.673 10.973,30.773l-0,29.04c-0,2.53 -0.083,4.427 -0.248,5.692c-0.165,1.265 -0.632,2.668 -1.402,4.208c-1.54,2.97 -5.83,4.455 -12.87,4.455c-7.81,-0 -12.32,-2.035 -13.53,-6.105c-0.66,-1.87 -0.99,-4.675 -0.99,-8.415l-0,-29.04c-0,-4.51 -1.293,-8.03 -3.878,-10.56c-2.585,-2.53 -6.05,-3.795 -10.395,-3.795c-4.345,-0 -7.865,1.32 -10.56,3.96c-2.695,2.64 -4.042,6.105 -4.042,10.395l-0,29.205c-0,2.53 -0.083,4.427 -0.248,5.692c-0.165,1.265 -0.687,2.668 -1.567,4.208c-1.43,2.97 -5.665,4.455 -12.705,4.455c-6.93,-0 -11.165,-1.485 -12.705,-4.455c-0.77,-1.65 -1.238,-3.108 -1.403,-4.373c-0.165,-1.265 -0.247,-3.162 -0.247,-5.692l-0,-58.41c-0,-2.42 0.082,-4.263 0.247,-5.528c0.165,-1.265 0.688,-2.667 1.568,-4.207c1.54,-2.75 5.775,-4.125 12.705,-4.125c6.71,-0 10.835,1.265 12.375,3.795c1.1,1.87 1.65,4.125 1.65,6.765c0.44,-0.77 1.43,-1.87 2.97,-3.3c1.54,-1.43 3.025,-2.585 4.455,-3.465c3.74,-2.53 7.865,-3.795 12.375,-3.795Z" style="fill:#f3f1f9;fill-rule:nonzero;"/><path d="M393.507,243.45c-0,-13.2 4.62,-24.09 13.86,-32.67c9.24,-8.58 19.8,-12.87 31.68,-12.87c11.88,-0 22.385,4.262 31.515,12.787c9.13,8.525 13.695,19.388 13.695,32.588c-0,9.13 -2.365,17.242 -7.095,24.337c-4.73,7.095 -10.478,12.32 -17.243,15.675c-6.765,3.355 -13.777,5.033 -21.037,5.033c-7.26,-0 -14.3,-1.788 -21.12,-5.363c-6.82,-3.575 -12.568,-8.855 -17.243,-15.84c-4.675,-6.985 -7.012,-14.877 -7.012,-23.677Zm34.485,11.797c3.52,2.695 7.095,4.043 10.725,4.043c3.63,-0 7.26,-1.375 10.89,-4.125c3.63,-2.75 5.445,-6.82 5.445,-12.21c-0,-5.39 -1.705,-9.405 -5.115,-12.045c-3.41,-2.64 -7.095,-3.96 -11.055,-3.96c-3.96,-0 -7.645,1.375 -11.055,4.125c-3.41,2.75 -5.115,6.792 -5.115,12.127c-0,5.335 1.76,9.35 5.28,12.045Z" style="fill:#f3f1f9;fill-rule:nonzero;"/><path d="M542.997,229.095l-10.725,-0.66l-0,22.77c-0,2.97 0.467,5.115 1.402,6.435c0.935,1.32 2.695,1.98 5.28,1.98c2.585,-0 4.565,0.082 5.94,0.247c1.375,0.165 2.833,0.688 4.373,1.568c2.53,1.43 3.795,5.115 3.795,11.055c-0,6.93 -1.54,11.165 -4.62,12.705c-1.65,0.77 -3.108,1.237 -4.373,1.402c-1.265,0.165 -3.107,0.248 -5.527,0.248c-11.44,-0 -20.13,-2.585 -26.07,-7.755c-5.94,-5.17 -8.91,-13.915 -8.91,-26.235l-0,-24.42c-2.09,0.33 -4.345,0.495 -6.765,0.495c-2.42,-0 -4.428,-0.935 -6.023,-2.805c-1.595,-1.87 -2.392,-5.06 -2.392,-9.57c-0,-4.51 0.275,-7.783 0.825,-9.818c0.55,-2.035 1.32,-3.492 2.31,-4.372c1.76,-1.43 3.96,-2.145 6.6,-2.145l5.445,0.66l-0,-16.995c-0,-2.53 0.082,-4.4 0.247,-5.61c0.165,-1.21 0.688,-2.53 1.568,-3.96c1.43,-2.75 5.665,-4.125 12.705,-4.125c7.48,-0 11.935,2.035 13.365,6.105c0.55,1.76 0.825,4.565 0.825,8.415l-0,16.17c4.84,-0.44 8.497,-0.66 10.972,-0.66c2.475,-0 4.345,0.082 5.61,0.247c1.265,0.165 2.723,0.688 4.373,1.568c2.86,1.43 4.29,5.665 4.29,12.705c-0,6.93 -1.485,11.165 -4.455,12.705c-1.65,0.77 -3.108,1.237 -4.373,1.402c-1.265,0.165 -3.162,0.248 -5.692,0.248Z" style="fill:#f3f1f9;fill-rule:nonzero;"/><path d="M629.622,213.915l29.04,-0c5.94,0.22 9.57,1.76 10.89,4.62c1.1,2.09 1.65,5.17 1.65,9.24l-0,36.3c-0,3.52 -1.54,6.875 -4.62,10.065c-9.24,9.57 -23.1,14.355 -41.58,14.355c-16.39,-0 -30.635,-6.188 -42.735,-18.563c-12.1,-12.375 -18.15,-27.307 -18.15,-44.797c-0,-17.49 6.16,-32.093 18.48,-43.808c12.32,-11.715 26.84,-17.572 43.56,-17.572c12.98,-0 25.245,4.29 36.795,12.87c2.97,2.2 4.455,4.647 4.455,7.342c-0,2.695 -1.265,5.803 -3.795,9.323c-4.29,5.83 -8.195,8.745 -11.715,8.745c-2.09,-0 -5.445,-1.513 -10.065,-4.538c-4.62,-3.025 -10.12,-4.537 -16.5,-4.537c-8.36,-0 -15.785,2.942 -22.275,8.827c-6.49,5.885 -9.735,13.585 -9.735,23.1c-0,9.515 3.3,17.6 9.9,24.255c6.6,6.655 14.08,9.983 22.44,9.983c6.05,-0 11.495,-0.99 16.335,-2.97l-0,-17.985l-13.035,-0c-3.41,-0 -5.83,-0.44 -7.26,-1.32c-1.43,-0.88 -2.365,-2.173 -2.805,-3.878c-0.44,-1.705 -0.66,-4.015 -0.66,-6.93c-0,-2.915 0.247,-5.252 0.742,-7.012c0.495,-1.76 1.403,-2.97 2.723,-3.63c1.98,-0.99 4.62,-1.485 7.92,-1.485Z" style="fill:#f3f1f9;fill-rule:nonzero;"/><path d="M699.087,165.735l30.525,0.165c15.95,-0 29.975,5.747 42.075,17.242c12.1,11.495 18.15,25.63 18.15,42.405c-0,16.775 -5.913,31.158 -17.738,43.148c-11.825,11.99 -26.152,17.985 -42.982,17.985l-30.195,-0c-6.71,-0 -10.89,-1.375 -12.54,-4.125c-1.32,-2.31 -1.98,-5.83 -1.98,-10.56l-0,-91.74c-0,-2.64 0.082,-4.565 0.247,-5.775c0.165,-1.21 0.688,-2.64 1.568,-4.29c1.54,-2.97 5.83,-4.455 12.87,-4.455Zm30.525,91.74c7.92,-0 15.07,-2.943 21.45,-8.828c6.38,-5.885 9.57,-13.282 9.57,-22.192c-0,-8.91 -3.108,-16.363 -9.323,-22.358c-6.215,-5.995 -13.502,-8.992 -21.862,-8.992l-15.84,-0l-0,62.37l16.005,-0Z" style="fill:#f3f1f9;fill-rule:nonzero;"/><path d="M876.132,255.165l2.97,-2.145c3.74,-2.2 6.38,-3.3 7.92,-3.3c3.41,-0 7.095,3.08 11.055,9.24c2.42,3.85 3.63,6.93 3.63,9.24c-0,2.31 -0.743,4.235 -2.228,5.775c-1.485,1.54 -3.217,2.915 -5.197,4.125c-1.98,1.21 -3.878,2.365 -5.693,3.465c-1.815,1.1 -5.527,2.53 -11.137,4.29c-5.61,1.76 -11.028,2.64 -16.253,2.64c-5.225,-0 -10.505,-0.688 -15.84,-2.063c-5.335,-1.375 -10.835,-3.685 -16.5,-6.93c-5.665,-3.245 -10.752,-7.205 -15.262,-11.88c-4.51,-4.675 -8.223,-10.67 -11.138,-17.985c-2.915,-7.315 -4.372,-15.262 -4.372,-23.842c-0,-8.58 1.43,-16.363 4.29,-23.348c2.86,-6.985 6.517,-12.76 10.972,-17.325c4.455,-4.565 9.543,-8.387 15.263,-11.467c10.78,-5.94 21.615,-8.91 32.505,-8.91c5.17,-0 10.422,0.797 15.757,2.392c5.335,1.595 9.378,3.218 12.128,4.868l3.96,2.31c1.98,1.21 3.52,2.2 4.62,2.97c2.86,2.31 4.29,4.922 4.29,7.837c-0,2.915 -1.155,5.968 -3.465,9.158c-4.29,5.94 -8.14,8.91 -11.55,8.91c-1.98,-0 -4.785,-1.21 -8.415,-3.63c-4.62,-3.74 -10.78,-5.61 -18.48,-5.61c-7.15,-0 -14.19,2.475 -21.12,7.425c-3.3,2.42 -6.05,5.83 -8.25,10.23c-2.2,4.4 -3.3,9.377 -3.3,14.932c-0,5.555 1.1,10.533 3.3,14.933c2.2,4.4 5.005,7.865 8.415,10.395c6.71,4.84 13.695,7.26 20.955,7.26c3.41,-0 6.627,-0.44 9.652,-1.32c3.025,-0.88 5.198,-1.76 6.518,-2.64Z" style="fill:#f3f1f9;fill-rule:nonzero;"/><path d="M273.057,178.935c0.549,-3.519 0.825,-5.445 0.825,-5.775c-0,-2.31 -0.8,-4.043 -2.393,-5.198c-1.596,-1.155 -4.429,-1.732 -8.497,-1.732c-4.071,-0 -6.876,0.495 -8.415,1.485c-0.99,0.66 -1.79,1.212 -2.393,1.65c-0.606,0.441 -1.072,1.212 -1.402,2.31c-0.33,1.101 -0.578,1.954 -0.743,2.557c-0.165,0.606 -0.33,1.65 -0.495,3.135c-0.165,1.485 -0.304,2.558 -0.412,3.218l-2.805,16.995l-24.585,-0l3.135,-18.645c0.549,-3.519 0.825,-5.445 0.825,-5.775c-0,-2.31 -0.8,-4.043 -2.393,-5.198c-1.596,-1.155 -4.429,-1.732 -8.497,-1.732c-4.071,-0 -6.876,0.495 -8.415,1.485c-0.99,0.66 -1.79,1.212 -2.393,1.65c-0.606,0.441 -1.072,1.212 -1.402,2.31c-0.33,1.101 -0.578,1.954 -0.743,2.557c-0.165,0.606 -0.33,1.65 -0.495,3.135c-0.165,1.485 -0.304,2.558 -0.412,3.218l-2.805,16.995l-10.725,-0c-2.421,-0 -4.236,0.111 -5.445,0.33c-1.212,0.222 -2.504,1.155 -3.878,2.805c-1.377,1.65 -2.256,3.604 -2.64,5.857c-0.387,2.256 -0.577,4.208 -0.577,5.858c-0,1.65 0.165,2.97 0.495,3.96c0.768,1.872 3.519,2.805 8.25,2.805l10.89,-0l-2.97,18.15l-10.725,-0c-2.421,-0 -4.236,0.111 -5.445,0.33c-1.212,0.222 -2.504,1.155 -3.878,2.805c-1.377,1.65 -2.256,3.604 -2.64,5.857c-0.387,2.256 -0.577,4.236 -0.577,5.94c-0,1.707 0.165,2.999 0.495,3.878c0.879,1.98 3.63,2.97 8.25,2.97l10.89,-0l-1.98,12.375c-0.882,5.61 -1.32,8.472 -1.32,8.58c-0,4.071 3.189,6.105 9.57,6.105c6.378,-0 10.449,-1.263 12.21,-3.795c0.879,-1.428 1.456,-2.64 1.732,-3.63c0.273,-0.99 0.632,-2.694 1.073,-5.115l0.33,-1.815c0.219,-1.65 0.879,-5.883 1.98,-12.705l24.585,-0l-1.98,12.375c-0.882,5.61 -1.32,8.472 -1.32,8.58c-0,4.071 3.189,6.105 9.57,6.105c6.378,-0 10.449,-1.263 12.21,-3.795c0.879,-1.428 1.456,-2.64 1.732,-3.63c0.273,-0.99 0.632,-2.694 1.073,-5.115l0.33,-1.815c0.219,-1.65 0.879,-5.883 1.98,-12.705l8.25,-0c3.189,-0 5.664,-0.438 7.425,-1.32c1.209,-0.66 2.17,-1.758 2.887,-3.3c0.714,-1.539 1.238,-3.243 1.568,-5.115c0.33,-1.869 0.495,-3.767 0.495,-5.693c-0,-1.923 -0.441,-3.382 -1.32,-4.372c-0.882,-0.99 -1.79,-1.568 -2.723,-1.733c-0.936,-0.165 -2.449,-0.247 -4.537,-0.247l-8.415,-0l2.97,-18.15l8.25,-0c2.418,-0 4.233,-0.108 5.445,-0.33c1.209,-0.219 2.475,-1.155 3.795,-2.805c1.32,-1.65 2.17,-3.602 2.557,-5.858c0.384,-2.253 0.578,-4.344 0.578,-6.27c-0,-1.923 -0.441,-3.382 -1.32,-4.372c-0.882,-0.99 -1.79,-1.568 -2.723,-1.733c-0.936,-0.165 -2.449,-0.247 -4.537,-0.247l-8.415,-0l3.135,-18.645Zm-57.915,58.41l3.135,-18.15l24.42,-0l-2.97,18.15l-24.585,-0Z" style="fill:none;fill-rule:nonzero;stroke:#f3f1f9;stroke-width:37.5px;"/><path d="M331.96,203.685c-1.431,0.882 -2.916,2.037 -4.455,3.465c-1.542,1.431 -2.532,2.532 -2.97,3.3c0,-2.64 -0.552,-4.893 -1.65,-6.765c-1.542,-2.529 -5.667,-3.795 -12.375,-3.795c-6.93,-0 -11.166,1.377 -12.705,4.125c-0.882,1.542 -1.402,2.944 -1.567,4.207c-0.165,1.266 -0.248,3.11 -0.248,5.528l0,58.41c0,2.532 0.083,4.429 0.248,5.692c0.165,1.266 0.631,2.723 1.402,4.373c1.539,2.97 5.775,4.455 12.705,4.455c7.038,-0 11.274,-1.485 12.705,-4.455c0.879,-1.539 1.403,-2.942 1.568,-4.208c0.165,-1.263 0.247,-3.16 0.247,-5.692l0,-29.205c0,-4.29 1.346,-7.755 4.043,-10.395c2.694,-2.64 6.213,-3.96 10.56,-3.96c4.344,-0 7.809,1.266 10.395,3.795c2.583,2.532 3.877,6.051 3.877,10.56l0,29.04c0,3.741 0.33,6.546 0.99,8.415c1.209,4.071 5.718,6.105 13.53,6.105c7.038,-0 11.328,-1.485 12.87,-4.455c0.768,-1.539 1.238,-2.942 1.403,-4.208c0.165,-1.263 0.247,-3.16 0.247,-5.692l0,-29.04c0,-12.099 -3.658,-22.358 -10.972,-30.773c-7.317,-8.415 -16.473,-12.622 -27.473,-12.622c-4.512,-0 -8.637,1.266 -12.375,3.795Z" style="fill:none;fill-rule:nonzero;stroke:#f3f1f9;stroke-width:37.5px;"/><path d="M393.503,243.45c0,8.802 2.336,16.693 7.013,23.677c4.674,6.987 10.42,12.267 17.242,15.84c6.819,3.576 13.86,5.363 21.12,5.363c7.26,-0 14.273,-1.676 21.038,-5.033c6.765,-3.354 12.511,-8.58 17.242,-15.675c4.728,-7.095 7.095,-15.205 7.095,-24.337c0,-13.2 -4.566,-24.062 -13.695,-32.588c-9.132,-8.523 -19.635,-12.787 -31.515,-12.787c-11.88,-0 -22.44,4.29 -31.68,12.87c-9.24,8.58 -13.86,19.47 -13.86,32.67Zm29.205,-0.248c0,-5.334 1.704,-9.376 5.115,-12.127c3.408,-2.748 7.095,-4.125 11.055,-4.125c3.96,-0 7.644,1.32 11.055,3.96c3.408,2.64 5.115,6.657 5.115,12.045c0,5.391 -1.815,9.462 -5.445,12.21c-3.63,2.751 -7.26,4.125 -10.89,4.125c-3.63,-0 -7.206,-1.346 -10.725,-4.043c-3.522,-2.694 -5.28,-6.708 -5.28,-12.045Z" style="fill:none;fill-rule:nonzero;stroke:#f3f1f9;stroke-width:37.5px;"/><path d="M548.684,228.847c1.263,-0.165 2.723,-0.631 4.373,-1.402c2.97,-1.539 4.455,-5.775 4.455,-12.705c-0,-7.038 -1.431,-11.274 -4.29,-12.705c-1.65,-0.879 -3.11,-1.403 -4.373,-1.568c-1.266,-0.165 -3.135,-0.247 -5.61,-0.247c-2.475,-0 -6.133,0.222 -10.972,0.66l-0,-16.17c-0,-3.849 -0.276,-6.654 -0.825,-8.415c-1.431,-4.068 -5.886,-6.105 -13.365,-6.105c-7.041,-0 -11.277,1.377 -12.705,4.125c-0.882,1.431 -1.403,2.751 -1.568,3.96c-0.165,1.212 -0.247,3.081 -0.247,5.61l-0,16.995l-5.445,-0.66c-2.64,-0 -4.842,0.717 -6.6,2.145c-0.99,0.882 -1.761,2.338 -2.31,4.372c-0.552,2.037 -0.825,5.309 -0.825,9.818c-0,4.512 0.796,7.701 2.392,9.57c1.593,1.872 3.602,2.805 6.023,2.805c2.418,-0 4.674,-0.165 6.765,-0.495l-0,24.42c-0,12.321 2.97,21.066 8.91,26.235c5.94,5.172 14.628,7.755 26.07,7.755c2.418,-0 4.261,-0.083 5.527,-0.248c1.263,-0.165 2.723,-0.631 4.373,-1.402c3.078,-1.539 4.62,-5.775 4.62,-12.705c-0,-5.94 -1.266,-9.624 -3.795,-11.055c-1.542,-0.879 -2.999,-1.403 -4.373,-1.568c-1.377,-0.165 -3.357,-0.247 -5.94,-0.247c-2.586,-0 -4.347,-0.66 -5.28,-1.98c-0.936,-1.32 -1.402,-3.465 -1.402,-6.435l-0,-22.77l10.725,0.66c2.529,-0 4.426,-0.083 5.692,-0.248Z" style="fill:none;fill-rule:nonzero;stroke:#f3f1f9;stroke-width:37.5px;"/><path d="M621.695,215.4c-1.32,0.66 -2.227,1.872 -2.722,3.63c-0.495,1.761 -0.743,4.099 -0.743,7.012c0,2.916 0.219,5.226 0.66,6.93c0.438,1.707 1.374,2.999 2.805,3.878c1.428,0.882 3.849,1.32 7.26,1.32l13.035,-0l0,17.985c-4.842,1.98 -10.287,2.97 -16.335,2.97c-8.361,-0 -15.84,-3.326 -22.44,-9.983c-6.6,-6.654 -9.9,-14.739 -9.9,-24.255c0,-9.513 3.243,-17.214 9.735,-23.1c6.489,-5.883 13.914,-8.827 22.275,-8.827c6.378,-0 11.88,1.513 16.5,4.537c4.62,3.027 7.974,4.538 10.065,4.538c3.519,-0 7.425,-2.915 11.715,-8.745c2.529,-3.519 3.795,-6.626 3.795,-9.323c0,-2.694 -1.485,-5.14 -4.455,-7.342c-11.55,-8.58 -23.817,-12.87 -36.795,-12.87c-16.722,-0 -31.242,5.857 -43.56,17.572c-12.321,11.715 -18.48,26.318 -18.48,43.808c0,17.49 6.048,32.422 18.15,44.797c12.099,12.375 26.343,18.563 42.735,18.563c18.48,-0 32.34,-4.785 41.58,-14.355c3.078,-3.189 4.62,-6.543 4.62,-10.065l0,-36.3c0,-4.068 -0.552,-7.149 -1.65,-9.24c-1.32,-2.859 -4.95,-4.398 -10.89,-4.62l-29.04,-0c-3.3,-0 -5.94,0.495 -7.92,1.485Z" style="fill:none;fill-rule:nonzero;stroke:#f3f1f9;stroke-width:37.5px;"/><path d="M686.209,170.19c-0.882,1.65 -1.403,3.081 -1.568,4.29c-0.165,1.212 -0.247,3.135 -0.247,5.775l-0,91.74c-0,4.731 0.66,8.25 1.98,10.56c1.65,2.751 5.829,4.125 12.54,4.125l30.195,-0c16.83,-0 31.156,-5.994 42.982,-17.985c11.823,-11.988 17.738,-26.372 17.738,-43.148c-0,-16.773 -6.051,-30.909 -18.15,-42.405c-12.102,-11.493 -26.126,-17.242 -42.075,-17.242l-30.525,-0.165c-7.041,-0 -11.331,1.485 -12.87,4.455Zm43.395,87.285l-16.005,-0l-0,-62.37l15.84,-0c8.358,-0 15.646,2.998 21.862,8.992c6.213,5.997 9.323,13.448 9.323,22.358c-0,8.91 -3.192,16.309 -9.57,22.192c-6.381,5.886 -13.53,8.828 -21.45,8.828Z" style="fill:none;fill-rule:nonzero;stroke:#f3f1f9;stroke-width:37.5px;"/><path d="M869.605,257.805c-3.027,0.882 -6.244,1.32 -9.652,1.32c-7.26,-0 -14.247,-2.418 -20.955,-7.26c-3.411,-2.529 -6.216,-5.994 -8.415,-10.395c-2.202,-4.398 -3.3,-9.377 -3.3,-14.933c-0,-5.553 1.098,-10.531 3.3,-14.932c2.199,-4.398 4.95,-7.809 8.25,-10.23c6.93,-4.95 13.968,-7.425 21.12,-7.425c7.698,-0 13.86,1.872 18.48,5.61c3.63,2.421 6.435,3.63 8.415,3.63c3.408,-0 7.26,-2.97 11.55,-8.91c2.31,-3.189 3.465,-6.242 3.465,-9.158c-0,-2.913 -1.431,-5.527 -4.29,-7.837c-1.101,-0.768 -2.64,-1.76 -4.62,-2.97l-3.96,-2.31c-2.751,-1.65 -6.794,-3.272 -12.128,-4.868c-5.337,-1.593 -10.588,-2.392 -15.757,-2.392c-10.89,-0 -21.726,2.97 -32.505,8.91c-5.721,3.081 -10.808,6.903 -15.263,11.467c-4.455,4.566 -8.113,10.341 -10.972,17.325c-2.862,6.986 -4.29,14.768 -4.29,23.348c-0,8.58 1.456,16.528 4.372,23.842c2.913,7.317 6.626,13.311 11.138,17.985c4.509,4.677 9.595,8.637 15.262,11.88c5.664,3.246 11.163,5.556 16.5,6.93c5.334,1.374 10.614,2.063 15.84,2.063c5.223,-0 10.643,-0.882 16.253,-2.64c5.61,-1.758 9.322,-3.189 11.137,-4.29c1.815,-1.098 3.713,-2.253 5.693,-3.465c1.98,-1.209 3.712,-2.583 5.197,-4.125c1.485,-1.539 2.228,-3.465 2.228,-5.775c-0,-2.31 -1.212,-5.388 -3.63,-9.24c-3.96,-6.159 -7.647,-9.24 -11.055,-9.24c-1.542,-0 -4.182,1.101 -7.92,3.3l-2.97,2.145c-1.32,0.882 -3.494,1.761 -6.518,2.64Z" style="fill:none;fill-rule:nonzero;stroke:#f3f1f9;stroke-width:37.5px;"/><path d="M269.996,197.306l8.415,-0c2.09,-0 3.603,0.082 4.538,0.247c0.935,0.165 1.842,0.743 2.722,1.733c0.88,0.99 1.32,2.447 1.32,4.372c0,1.925 -0.192,4.015 -0.577,6.27c-0.385,2.255 -1.238,4.208 -2.558,5.858c-1.32,1.65 -2.585,2.585 -3.795,2.805c-1.21,0.22 -3.025,0.33 -5.445,0.33l-8.25,-0l-2.97,18.15l8.415,-0c2.09,-0 3.603,0.082 4.538,0.247c0.935,0.165 1.842,0.743 2.722,1.733c0.88,0.99 1.32,2.447 1.32,4.372c0,1.925 -0.165,3.823 -0.495,5.693c-0.33,1.87 -0.852,3.575 -1.567,5.115c-0.715,1.54 -1.678,2.64 -2.888,3.3c-1.76,0.88 -4.235,1.32 -7.425,1.32l-8.25,-0c-1.1,6.82 -1.76,11.055 -1.98,12.705l-0.33,1.815c-0.44,2.42 -0.797,4.125 -1.072,5.115c-0.275,0.99 -0.853,2.2 -1.733,3.63c-1.76,2.53 -5.83,3.795 -12.21,3.795c-6.38,-0 -9.57,-2.035 -9.57,-6.105c0,-0.11 0.44,-2.97 1.32,-8.58l1.98,-12.375l-24.585,-0c-1.1,6.82 -1.76,11.055 -1.98,12.705l-0.33,1.815c-0.44,2.42 -0.797,4.125 -1.072,5.115c-0.275,0.99 -0.853,2.2 -1.733,3.63c-1.76,2.53 -5.83,3.795 -12.21,3.795c-6.38,-0 -9.57,-2.035 -9.57,-6.105c0,-0.11 0.44,-2.97 1.32,-8.58l1.98,-12.375l-10.89,-0c-4.62,-0 -7.37,-0.99 -8.25,-2.97c-0.33,-0.88 -0.495,-2.173 -0.495,-3.878c0,-1.705 0.193,-3.685 0.578,-5.94c0.385,-2.255 1.265,-4.207 2.64,-5.857c1.375,-1.65 2.667,-2.585 3.877,-2.805c1.21,-0.22 3.025,-0.33 5.445,-0.33l10.725,-0l2.97,-18.15l-10.89,-0c-4.73,-0 -7.48,-0.935 -8.25,-2.805c-0.33,-0.99 -0.495,-2.31 -0.495,-3.96c0,-1.65 0.193,-3.603 0.578,-5.858c0.385,-2.255 1.265,-4.207 2.64,-5.857c1.375,-1.65 2.667,-2.585 3.877,-2.805c1.21,-0.22 3.025,-0.33 5.445,-0.33l10.725,-0l2.805,-16.995c0.11,-0.66 0.248,-1.733 0.413,-3.218c0.165,-1.485 0.33,-2.53 0.495,-3.135c0.165,-0.605 0.412,-1.457 0.742,-2.557c0.33,-1.1 0.798,-1.87 1.403,-2.31c0.605,-0.44 1.402,-0.99 2.392,-1.65c1.54,-0.99 4.345,-1.485 8.415,-1.485c4.07,-0 6.903,0.577 8.498,1.732c1.595,1.155 2.392,2.888 2.392,5.198c0,0.33 -0.275,2.255 -0.825,5.775l-3.135,18.645l24.585,-0l2.805,-16.995c0.11,-0.66 0.248,-1.733 0.413,-3.218c0.165,-1.485 0.33,-2.53 0.495,-3.135c0.165,-0.605 0.412,-1.457 0.742,-2.557c0.33,-1.1 0.798,-1.87 1.403,-2.31c0.605,-0.44 1.402,-0.99 2.392,-1.65c1.54,-0.99 4.345,-1.485 8.415,-1.485c4.07,-0 6.903,0.577 8.498,1.732c1.595,1.155 2.392,2.888 2.392,5.198c0,0.33 -0.275,2.255 -0.825,5.775l-3.135,18.645Zm-30.195,39.765l2.97,-18.15l-24.42,-0l-3.135,18.15l24.585,-0Z" style="fill-rule:nonzero;"/><path d="M344.411,199.616c11,-0 20.158,4.207 27.473,12.622c7.315,8.415 10.972,18.673 10.972,30.773l0,29.04c0,2.53 -0.082,4.427 -0.247,5.692c-0.165,1.265 -0.633,2.668 -1.403,4.208c-1.54,2.97 -5.83,4.455 -12.87,4.455c-7.81,-0 -12.32,-2.035 -13.53,-6.105c-0.66,-1.87 -0.99,-4.675 -0.99,-8.415l0,-29.04c0,-4.51 -1.292,-8.03 -3.877,-10.56c-2.585,-2.53 -6.05,-3.795 -10.395,-3.795c-4.345,-0 -7.865,1.32 -10.56,3.96c-2.695,2.64 -4.043,6.105 -4.043,10.395l0,29.205c0,2.53 -0.082,4.427 -0.247,5.692c-0.165,1.265 -0.688,2.668 -1.568,4.208c-1.43,2.97 -5.665,4.455 -12.705,4.455c-6.93,-0 -11.165,-1.485 -12.705,-4.455c-0.77,-1.65 -1.237,-3.108 -1.402,-4.373c-0.165,-1.265 -0.248,-3.162 -0.248,-5.692l0,-58.41c0,-2.42 0.083,-4.263 0.248,-5.528c0.165,-1.265 0.687,-2.667 1.567,-4.207c1.54,-2.75 5.775,-4.125 12.705,-4.125c6.71,-0 10.835,1.265 12.375,3.795c1.1,1.87 1.65,4.125 1.65,6.765c0.44,-0.77 1.43,-1.87 2.97,-3.3c1.54,-1.43 3.025,-2.585 4.455,-3.465c3.74,-2.53 7.865,-3.795 12.375,-3.795Z" style="fill-rule:nonzero;"/><path d="M393.581,243.176c0,-13.2 4.62,-24.09 13.86,-32.67c9.24,-8.58 19.8,-12.87 31.68,-12.87c11.88,-0 22.385,4.262 31.515,12.787c9.13,8.525 13.695,19.388 13.695,32.588c0,9.13 -2.365,17.242 -7.095,24.337c-4.73,7.095 -10.477,12.32 -17.242,15.675c-6.765,3.355 -13.778,5.033 -21.038,5.033c-7.26,-0 -14.3,-1.788 -21.12,-5.363c-6.82,-3.575 -12.567,-8.855 -17.242,-15.84c-4.675,-6.985 -7.013,-14.877 -7.013,-23.677Zm34.485,11.797c3.52,2.695 7.095,4.043 10.725,4.043c3.63,-0 7.26,-1.375 10.89,-4.125c3.63,-2.75 5.445,-6.82 5.445,-12.21c0,-5.39 -1.705,-9.405 -5.115,-12.045c-3.41,-2.64 -7.095,-3.96 -11.055,-3.96c-3.96,-0 -7.645,1.375 -11.055,4.125c-3.41,2.75 -5.115,6.792 -5.115,12.127c0,5.335 1.76,9.35 5.28,12.045Z" style="fill-rule:nonzero;"/><path d="M543.071,228.821l-10.725,-0.66l0,22.77c0,2.97 0.468,5.115 1.403,6.435c0.935,1.32 2.695,1.98 5.28,1.98c2.585,-0 4.565,0.082 5.94,0.247c1.375,0.165 2.832,0.688 4.372,1.568c2.53,1.43 3.795,5.115 3.795,11.055c0,6.93 -1.54,11.165 -4.62,12.705c-1.65,0.77 -3.107,1.237 -4.372,1.402c-1.265,0.165 -3.108,0.248 -5.528,0.248c-11.44,-0 -20.13,-2.585 -26.07,-7.755c-5.94,-5.17 -8.91,-13.915 -8.91,-26.235l0,-24.42c-2.09,0.33 -4.345,0.495 -6.765,0.495c-2.42,-0 -4.427,-0.935 -6.022,-2.805c-1.595,-1.87 -2.393,-5.06 -2.393,-9.57c0,-4.51 0.275,-7.783 0.825,-9.818c0.55,-2.035 1.32,-3.492 2.31,-4.372c1.76,-1.43 3.96,-2.145 6.6,-2.145l5.445,0.66l0,-16.995c0,-2.53 0.083,-4.4 0.248,-5.61c0.165,-1.21 0.687,-2.53 1.567,-3.96c1.43,-2.75 5.665,-4.125 12.705,-4.125c7.48,-0 11.935,2.035 13.365,6.105c0.55,1.76 0.825,4.565 0.825,8.415l0,16.17c4.84,-0.44 8.498,-0.66 10.973,-0.66c2.475,-0 4.345,0.082 5.61,0.247c1.265,0.165 2.722,0.688 4.372,1.568c2.86,1.43 4.29,5.665 4.29,12.705c0,6.93 -1.485,11.165 -4.455,12.705c-1.65,0.77 -3.107,1.237 -4.372,1.402c-1.265,0.165 -3.163,0.248 -5.693,0.248Z" style="fill-rule:nonzero;"/><path d="M629.696,213.641l29.04,-0c5.94,0.22 9.57,1.76 10.89,4.62c1.1,2.09 1.65,5.17 1.65,9.24l0,36.3c0,3.52 -1.54,6.875 -4.62,10.065c-9.24,9.57 -23.1,14.355 -41.58,14.355c-16.39,-0 -30.635,-6.188 -42.735,-18.563c-12.1,-12.375 -18.15,-27.307 -18.15,-44.797c0,-17.49 6.16,-32.093 18.48,-43.808c12.32,-11.715 26.84,-17.572 43.56,-17.572c12.98,-0 25.245,4.29 36.795,12.87c2.97,2.2 4.455,4.647 4.455,7.342c0,2.695 -1.265,5.803 -3.795,9.323c-4.29,5.83 -8.195,8.745 -11.715,8.745c-2.09,-0 -5.445,-1.513 -10.065,-4.538c-4.62,-3.025 -10.12,-4.537 -16.5,-4.537c-8.36,-0 -15.785,2.942 -22.275,8.827c-6.49,5.885 -9.735,13.585 -9.735,23.1c0,9.515 3.3,17.6 9.9,24.255c6.6,6.655 14.08,9.983 22.44,9.983c6.05,-0 11.495,-0.99 16.335,-2.97l0,-17.985l-13.035,-0c-3.41,-0 -5.83,-0.44 -7.26,-1.32c-1.43,-0.88 -2.365,-2.173 -2.805,-3.878c-0.44,-1.705 -0.66,-4.015 -0.66,-6.93c0,-2.915 0.248,-5.252 0.743,-7.012c0.495,-1.76 1.402,-2.97 2.722,-3.63c1.98,-0.99 4.62,-1.485 7.92,-1.485Z" style="fill-rule:nonzero;"/><path d="M699.161,165.461l30.525,0.165c15.95,-0 29.975,5.747 42.075,17.242c12.1,11.495 18.15,25.63 18.15,42.405c0,16.775 -5.912,31.158 -17.737,43.148c-11.825,11.99 -26.153,17.985 -42.983,17.985l-30.195,-0c-6.71,-0 -10.89,-1.375 -12.54,-4.125c-1.32,-2.31 -1.98,-5.83 -1.98,-10.56l0,-91.74c0,-2.64 0.083,-4.565 0.248,-5.775c0.165,-1.21 0.687,-2.64 1.567,-4.29c1.54,-2.97 5.83,-4.455 12.87,-4.455Zm30.525,91.74c7.92,-0 15.07,-2.943 21.45,-8.828c6.38,-5.885 9.57,-13.282 9.57,-22.192c0,-8.91 -3.107,-16.363 -9.322,-22.358c-6.215,-5.995 -13.503,-8.992 -21.863,-8.992l-15.84,-0l0,62.37l16.005,-0Z" style="fill-rule:nonzero;"/><path d="M876.206,254.891l2.97,-2.145c3.74,-2.2 6.38,-3.3 7.92,-3.3c3.41,-0 7.095,3.08 11.055,9.24c2.42,3.85 3.63,6.93 3.63,9.24c0,2.31 -0.742,4.235 -2.227,5.775c-1.485,1.54 -3.218,2.915 -5.198,4.125c-1.98,1.21 -3.877,2.365 -5.692,3.465c-1.815,1.1 -5.528,2.53 -11.138,4.29c-5.61,1.76 -11.027,2.64 -16.252,2.64c-5.225,-0 -10.505,-0.688 -15.84,-2.063c-5.335,-1.375 -10.835,-3.685 -16.5,-6.93c-5.665,-3.245 -10.753,-7.205 -15.263,-11.88c-4.51,-4.675 -8.222,-10.67 -11.137,-17.985c-2.915,-7.315 -4.373,-15.262 -4.373,-23.842c0,-8.58 1.43,-16.363 4.29,-23.348c2.86,-6.985 6.518,-12.76 10.973,-17.325c4.455,-4.565 9.542,-8.387 15.262,-11.467c10.78,-5.94 21.615,-8.91 32.505,-8.91c5.17,-0 10.423,0.797 15.758,2.392c5.335,1.595 9.377,3.218 12.127,4.868l3.96,2.31c1.98,1.21 3.52,2.2 4.62,2.97c2.86,2.31 4.29,4.922 4.29,7.837c0,2.915 -1.155,5.968 -3.465,9.158c-4.29,5.94 -8.14,8.91 -11.55,8.91c-1.98,-0 -4.785,-1.21 -8.415,-3.63c-4.62,-3.74 -10.78,-5.61 -18.48,-5.61c-7.15,-0 -14.19,2.475 -21.12,7.425c-3.3,2.42 -6.05,5.83 -8.25,10.23c-2.2,4.4 -3.3,9.377 -3.3,14.932c0,5.555 1.1,10.533 3.3,14.933c2.2,4.4 5.005,7.865 8.415,10.395c6.71,4.84 13.695,7.26 20.955,7.26c3.41,-0 6.628,-0.44 9.653,-1.32c3.025,-0.88 5.197,-1.76 6.517,-2.64Z" style="fill-rule:nonzero;"/><path d="M273.131,178.661c0.549,-3.519 0.825,-5.445 0.825,-5.775c0,-2.31 -0.799,-4.043 -2.392,-5.198c-1.596,-1.155 -4.43,-1.732 -8.498,-1.732c-4.071,-0 -6.876,0.495 -8.415,1.485c-0.99,0.66 -1.789,1.212 -2.392,1.65c-0.606,0.441 -1.073,1.212 -1.403,2.31c-0.33,1.101 -0.577,1.954 -0.742,2.557c-0.165,0.606 -0.33,1.65 -0.495,3.135c-0.165,1.485 -0.305,2.558 -0.413,3.218l-2.805,16.995l-24.585,-0l3.135,-18.645c0.549,-3.519 0.825,-5.445 0.825,-5.775c0,-2.31 -0.799,-4.043 -2.392,-5.198c-1.596,-1.155 -4.43,-1.732 -8.498,-1.732c-4.071,-0 -6.876,0.495 -8.415,1.485c-0.99,0.66 -1.789,1.212 -2.392,1.65c-0.606,0.441 -1.073,1.212 -1.403,2.31c-0.33,1.101 -0.577,1.954 -0.742,2.557c-0.165,0.606 -0.33,1.65 -0.495,3.135c-0.165,1.485 -0.305,2.558 -0.413,3.218l-2.805,16.995l-10.725,-0c-2.421,-0 -4.236,0.111 -5.445,0.33c-1.212,0.222 -2.503,1.155 -3.877,2.805c-1.377,1.65 -2.256,3.604 -2.64,5.857c-0.387,2.256 -0.578,4.208 -0.578,5.858c0,1.65 0.165,2.97 0.495,3.96c0.768,1.872 3.519,2.805 8.25,2.805l10.89,-0l-2.97,18.15l-10.725,-0c-2.421,-0 -4.236,0.111 -5.445,0.33c-1.212,0.222 -2.503,1.155 -3.877,2.805c-1.377,1.65 -2.256,3.604 -2.64,5.857c-0.387,2.256 -0.578,4.236 -0.578,5.94c0,1.707 0.165,2.999 0.495,3.878c0.879,1.98 3.63,2.97 8.25,2.97l10.89,-0l-1.98,12.375c-0.882,5.61 -1.32,8.472 -1.32,8.58c0,4.071 3.189,6.105 9.57,6.105c6.378,-0 10.449,-1.263 12.21,-3.795c0.879,-1.428 1.457,-2.64 1.733,-3.63c0.273,-0.99 0.631,-2.694 1.072,-5.115l0.33,-1.815c0.219,-1.65 0.879,-5.883 1.98,-12.705l24.585,-0l-1.98,12.375c-0.882,5.61 -1.32,8.472 -1.32,8.58c0,4.071 3.189,6.105 9.57,6.105c6.378,-0 10.449,-1.263 12.21,-3.795c0.879,-1.428 1.457,-2.64 1.733,-3.63c0.273,-0.99 0.631,-2.694 1.072,-5.115l0.33,-1.815c0.219,-1.65 0.879,-5.883 1.98,-12.705l8.25,-0c3.189,-0 5.664,-0.438 7.425,-1.32c1.209,-0.66 2.171,-1.758 2.888,-3.3c0.714,-1.539 1.237,-3.243 1.567,-5.115c0.33,-1.869 0.495,-3.767 0.495,-5.693c0,-1.923 -0.441,-3.382 -1.32,-4.372c-0.882,-0.99 -1.789,-1.568 -2.722,-1.733c-0.936,-0.165 -2.45,-0.247 -4.538,-0.247l-8.415,-0l2.97,-18.15l8.25,-0c2.418,-0 4.233,-0.108 5.445,-0.33c1.209,-0.219 2.475,-1.155 3.795,-2.805c1.32,-1.65 2.171,-3.602 2.558,-5.858c0.384,-2.253 0.577,-4.344 0.577,-6.27c0,-1.923 -0.441,-3.382 -1.32,-4.372c-0.882,-0.99 -1.789,-1.568 -2.722,-1.733c-0.936,-0.165 -2.45,-0.247 -4.538,-0.247l-8.415,-0l3.135,-18.645Zm-57.915,58.41l3.135,-18.15l24.42,-0l-2.97,18.15l-24.585,-0Z" style="fill:none;fill-rule:nonzero;stroke:#f3f1f8;stroke-width:0.38px;"/><path d="M332.035,203.411c-1.431,0.882 -2.916,2.037 -4.455,3.465c-1.542,1.431 -2.532,2.532 -2.97,3.3c-0,-2.64 -0.552,-4.893 -1.65,-6.765c-1.542,-2.529 -5.667,-3.795 -12.375,-3.795c-6.93,-0 -11.166,1.377 -12.705,4.125c-0.882,1.542 -1.403,2.944 -1.568,4.207c-0.165,1.266 -0.247,3.11 -0.247,5.528l-0,58.41c-0,2.532 0.082,4.429 0.247,5.692c0.165,1.266 0.632,2.723 1.403,4.373c1.539,2.97 5.775,4.455 12.705,4.455c7.038,-0 11.274,-1.485 12.705,-4.455c0.879,-1.539 1.402,-2.942 1.567,-4.208c0.165,-1.263 0.248,-3.16 0.248,-5.692l-0,-29.205c-0,-4.29 1.345,-7.755 4.042,-10.395c2.694,-2.64 6.213,-3.96 10.56,-3.96c4.344,-0 7.809,1.266 10.395,3.795c2.583,2.532 3.878,6.051 3.878,10.56l-0,29.04c-0,3.741 0.33,6.546 0.99,8.415c1.209,4.071 5.718,6.105 13.53,6.105c7.038,-0 11.328,-1.485 12.87,-4.455c0.768,-1.539 1.237,-2.942 1.402,-4.208c0.165,-1.263 0.248,-3.16 0.248,-5.692l-0,-29.04c-0,-12.099 -3.659,-22.358 -10.973,-30.773c-7.317,-8.415 -16.473,-12.622 -27.472,-12.622c-4.512,-0 -8.637,1.266 -12.375,3.795Z" style="fill:none;fill-rule:nonzero;stroke:#f3f1f8;stroke-width:0.38px;"/><path d="M393.578,243.176c0,8.802 2.336,16.693 7.013,23.677c4.674,6.987 10.42,12.267 17.242,15.84c6.819,3.576 13.86,5.363 21.12,5.363c7.26,-0 14.273,-1.676 21.038,-5.033c6.765,-3.354 12.511,-8.58 17.242,-15.675c4.728,-7.095 7.095,-15.205 7.095,-24.337c0,-13.2 -4.566,-24.062 -13.695,-32.588c-9.132,-8.523 -19.635,-12.787 -31.515,-12.787c-11.88,-0 -22.44,4.29 -31.68,12.87c-9.24,8.58 -13.86,19.47 -13.86,32.67Zm29.205,-0.248c0,-5.334 1.704,-9.376 5.115,-12.127c3.408,-2.748 7.095,-4.125 11.055,-4.125c3.96,-0 7.644,1.32 11.055,3.96c3.408,2.64 5.115,6.657 5.115,12.045c0,5.391 -1.815,9.462 -5.445,12.21c-3.63,2.751 -7.26,4.125 -10.89,4.125c-3.63,-0 -7.206,-1.346 -10.725,-4.043c-3.522,-2.694 -5.28,-6.708 -5.28,-12.045Z" style="fill:none;fill-rule:nonzero;stroke:#f3f1f8;stroke-width:0.38px;"/><path d="M548.759,228.573c1.263,-0.165 2.723,-0.631 4.373,-1.402c2.97,-1.539 4.455,-5.775 4.455,-12.705c-0,-7.038 -1.431,-11.274 -4.29,-12.705c-1.65,-0.879 -3.11,-1.403 -4.373,-1.568c-1.266,-0.165 -3.135,-0.247 -5.61,-0.247c-2.475,-0 -6.133,0.222 -10.972,0.66l-0,-16.17c-0,-3.849 -0.276,-6.654 -0.825,-8.415c-1.431,-4.068 -5.886,-6.105 -13.365,-6.105c-7.041,-0 -11.277,1.377 -12.705,4.125c-0.882,1.431 -1.403,2.751 -1.568,3.96c-0.165,1.212 -0.247,3.081 -0.247,5.61l-0,16.995l-5.445,-0.66c-2.64,-0 -4.842,0.717 -6.6,2.145c-0.99,0.882 -1.761,2.338 -2.31,4.372c-0.552,2.037 -0.825,5.309 -0.825,9.818c-0,4.512 0.796,7.701 2.392,9.57c1.593,1.872 3.602,2.805 6.023,2.805c2.418,-0 4.674,-0.165 6.765,-0.495l-0,24.42c-0,12.321 2.97,21.066 8.91,26.235c5.94,5.172 14.628,7.755 26.07,7.755c2.418,-0 4.261,-0.083 5.527,-0.248c1.263,-0.165 2.723,-0.631 4.373,-1.402c3.078,-1.539 4.62,-5.775 4.62,-12.705c-0,-5.94 -1.266,-9.624 -3.795,-11.055c-1.542,-0.879 -2.999,-1.403 -4.373,-1.568c-1.377,-0.165 -3.357,-0.247 -5.94,-0.247c-2.586,-0 -4.347,-0.66 -5.28,-1.98c-0.936,-1.32 -1.402,-3.465 -1.402,-6.435l-0,-22.77l10.725,0.66c2.529,-0 4.426,-0.083 5.692,-0.248Z" style="fill:none;fill-rule:nonzero;stroke:#f3f1f8;stroke-width:0.38px;"/><path d="M621.77,215.126c-1.32,0.66 -2.227,1.872 -2.722,3.63c-0.495,1.761 -0.743,4.1 -0.743,7.013c0,2.916 0.219,5.226 0.66,6.93c0.438,1.707 1.374,2.998 2.805,3.877c1.428,0.882 3.849,1.32 7.26,1.32l13.035,0l0,17.985c-4.842,1.98 -10.287,2.97 -16.335,2.97c-8.361,0 -15.84,-3.325 -22.44,-9.982c-6.6,-6.654 -9.9,-14.739 -9.9,-24.255c0,-9.513 3.243,-17.214 9.735,-23.1c6.489,-5.883 13.914,-8.828 22.275,-8.828c6.378,0 11.88,1.514 16.5,4.538c4.62,3.027 7.974,4.537 10.065,4.537c3.519,0 7.425,-2.914 11.715,-8.745c2.529,-3.519 3.795,-6.625 3.795,-9.322c0,-2.694 -1.485,-5.141 -4.455,-7.343c-11.55,-8.58 -23.817,-12.87 -36.795,-12.87c-16.722,0 -31.242,5.858 -43.56,17.573c-12.321,11.715 -18.48,26.317 -18.48,43.807c0,17.49 6.048,32.423 18.15,44.798c12.099,12.375 26.343,18.562 42.735,18.562c18.48,0 32.34,-4.785 41.58,-14.355c3.078,-3.189 4.62,-6.543 4.62,-10.065l0,-36.3c0,-4.068 -0.552,-7.149 -1.65,-9.24c-1.32,-2.859 -4.95,-4.398 -10.89,-4.62l-29.04,0c-3.3,0 -5.94,0.495 -7.92,1.485Z" style="fill:none;fill-rule:nonzero;stroke:#f3f1f8;stroke-width:0.38px;"/><path d="M686.283,169.916c-0.882,1.65 -1.402,3.081 -1.567,4.29c-0.165,1.212 -0.248,3.135 -0.248,5.775l0,91.74c0,4.731 0.66,8.25 1.98,10.56c1.65,2.751 5.829,4.125 12.54,4.125l30.195,-0c16.83,-0 31.157,-5.994 42.983,-17.985c11.823,-11.988 17.737,-26.372 17.737,-43.148c0,-16.773 -6.051,-30.909 -18.15,-42.405c-12.102,-11.493 -26.125,-17.242 -42.075,-17.242l-30.525,-0.165c-7.041,-0 -11.331,1.485 -12.87,4.455Zm43.395,87.285l-16.005,-0l0,-62.37l15.84,-0c8.358,-0 15.647,2.998 21.863,8.992c6.213,5.997 9.322,13.448 9.322,22.358c0,8.91 -3.192,16.309 -9.57,22.192c-6.381,5.886 -13.53,8.828 -21.45,8.828Z" style="fill:none;fill-rule:nonzero;stroke:#f3f1f8;stroke-width:0.38px;"/><path d="M869.68,257.531c-3.027,0.882 -6.244,1.32 -9.652,1.32c-7.26,0 -14.247,-2.418 -20.955,-7.26c-3.411,-2.529 -6.216,-5.994 -8.415,-10.395c-2.202,-4.398 -3.3,-9.376 -3.3,-14.932c-0,-5.553 1.098,-10.532 3.3,-14.933c2.199,-4.398 4.95,-7.809 8.25,-10.23c6.93,-4.95 13.968,-7.425 21.12,-7.425c7.698,0 13.86,1.872 18.48,5.61c3.63,2.421 6.435,3.63 8.415,3.63c3.408,0 7.26,-2.97 11.55,-8.91c2.31,-3.189 3.465,-6.241 3.465,-9.157c-0,-2.913 -1.431,-5.528 -4.29,-7.838c-1.101,-0.768 -2.64,-1.759 -4.62,-2.97l-3.96,-2.31c-2.751,-1.65 -6.794,-3.271 -12.128,-4.867c-5.337,-1.593 -10.588,-2.393 -15.757,-2.393c-10.89,0 -21.726,2.97 -32.505,8.91c-5.721,3.081 -10.808,6.903 -15.263,11.468c-4.455,4.566 -8.113,10.341 -10.972,17.325c-2.862,6.985 -4.29,14.767 -4.29,23.347c-0,8.58 1.456,16.529 4.372,23.843c2.913,7.317 6.626,13.311 11.138,17.985c4.509,4.677 9.595,8.637 15.262,11.88c5.664,3.246 11.163,5.556 16.5,6.93c5.334,1.374 10.614,2.062 15.84,2.062c5.223,0 10.643,-0.882 16.253,-2.64c5.61,-1.758 9.322,-3.189 11.137,-4.29c1.815,-1.098 3.713,-2.253 5.693,-3.465c1.98,-1.209 3.712,-2.583 5.197,-4.125c1.485,-1.539 2.228,-3.465 2.228,-5.775c-0,-2.31 -1.212,-5.388 -3.63,-9.24c-3.96,-6.159 -7.647,-9.24 -11.055,-9.24c-1.542,0 -4.182,1.101 -7.92,3.3l-2.97,2.145c-1.32,0.882 -3.494,1.761 -6.518,2.64Z" style="fill:none;fill-rule:nonzero;stroke:#f3f1f8;stroke-width:0.38px;"/><path d="M1200.59,358.129l-0,-46.371l15.138,0l0.609,7.656l-2.001,-0.348c0.812,-1.508 1.769,-2.784 2.871,-3.828c1.102,-1.044 2.32,-1.899 3.654,-2.566c1.334,-0.667 2.697,-1.146 4.089,-1.436c1.392,-0.29 2.726,-0.435 4.002,-0.435c2.146,0 4.132,0.305 5.959,0.914c1.827,0.609 3.451,1.638 4.872,3.088c1.421,1.45 2.596,3.48 3.524,6.09l-2.523,-0.174l0.696,-1.218c0.87,-1.508 1.899,-2.784 3.088,-3.828c1.189,-1.044 2.509,-1.943 3.959,-2.697c1.45,-0.754 2.943,-1.305 4.48,-1.653c1.537,-0.348 3.002,-0.522 4.394,-0.522c3.77,0 6.931,0.725 9.483,2.175c2.552,1.45 4.466,3.582 5.742,6.395c1.276,2.813 1.914,6.249 1.914,10.309l-0,28.449l-16.182,0l-0,-27.144c-0,-1.508 -0.232,-2.769 -0.696,-3.784c-0.464,-1.015 -1.131,-1.784 -2.001,-2.306c-0.87,-0.522 -1.943,-0.783 -3.219,-0.783c-0.986,0 -1.9,0.16 -2.741,0.479c-0.841,0.319 -1.551,0.783 -2.131,1.392c-0.58,0.609 -1.044,1.276 -1.392,2.001c-0.348,0.725 -0.522,1.58 -0.522,2.566l-0,27.579l-16.182,0l-0,-27.231c-0,-1.45 -0.232,-2.668 -0.696,-3.654c-0.464,-0.986 -1.131,-1.754 -2.001,-2.305c-0.87,-0.551 -1.943,-0.827 -3.219,-0.827c-0.986,0 -1.9,0.16 -2.741,0.479c-0.841,0.319 -1.551,0.768 -2.131,1.348c-0.58,0.58 -1.044,1.247 -1.392,2.001c-0.348,0.754 -0.522,1.595 -0.522,2.523l-0,27.666l-16.182,0Z" style="fill-rule:nonzero;"/><path d="M1300.55,358.912c-3.828,0 -7.265,-1.029 -10.31,-3.088c-3.045,-2.059 -5.452,-4.901 -7.221,-8.526c-1.769,-3.625 -2.653,-7.758 -2.653,-12.398c-0,-4.756 0.87,-8.932 2.61,-12.528c1.74,-3.596 4.147,-6.423 7.221,-8.482c3.074,-2.059 6.612,-3.089 10.614,-3.089c2.146,0 4.118,0.29 5.916,0.87c1.798,0.58 3.364,1.421 4.698,2.523c1.334,1.102 2.494,2.349 3.48,3.741c0.986,1.392 1.798,2.9 2.436,4.524l-3.306,-0.174l-0,-10.527l15.921,0l-0,46.371l-16.269,0l-0,-11.31l3.567,0.174c-0.522,1.682 -1.291,3.248 -2.306,4.698c-1.015,1.45 -2.247,2.712 -3.697,3.785c-1.45,1.073 -3.06,1.914 -4.829,2.523c-1.769,0.609 -3.726,0.913 -5.872,0.913Zm4.611,-13.311c1.856,0 3.451,-0.42 4.785,-1.261c1.334,-0.841 2.363,-2.074 3.088,-3.698c0.725,-1.624 1.088,-3.538 1.088,-5.742c-0,-2.262 -0.363,-4.205 -1.088,-5.829c-0.725,-1.624 -1.754,-2.856 -3.088,-3.697c-1.334,-0.841 -2.929,-1.262 -4.785,-1.262c-1.856,0 -3.437,0.421 -4.742,1.262c-1.305,0.841 -2.305,2.073 -3.001,3.697c-0.696,1.624 -1.044,3.567 -1.044,5.829c-0,2.204 0.348,4.118 1.044,5.742c0.696,1.624 1.696,2.857 3.001,3.698c1.305,0.841 2.886,1.261 4.742,1.261Z" style="fill-rule:nonzero;"/><path d="M1339.96,358.129l-0,-46.371l15.138,0l0.87,15.225l-3.393,-2.61c0.754,-2.552 1.928,-4.857 3.523,-6.916c1.595,-2.059 3.524,-3.683 5.786,-4.872c2.262,-1.189 4.64,-1.784 7.134,-1.784c1.044,0 2.03,0.073 2.958,0.218c0.928,0.145 1.798,0.333 2.61,0.565l-4.437,17.922c-0.638,-0.406 -1.537,-0.768 -2.697,-1.087c-1.16,-0.319 -2.407,-0.479 -3.741,-0.479c-1.16,0 -2.204,0.189 -3.132,0.566c-0.928,0.377 -1.711,0.913 -2.349,1.609c-0.638,0.696 -1.131,1.523 -1.479,2.48c-0.348,0.957 -0.522,2.073 -0.522,3.349l-0,22.185l-16.269,0Z" style="fill-rule:nonzero;"/><path d="M1398.17,358.999c-4.582,0 -8.686,-1.044 -12.311,-3.132c-3.625,-2.088 -6.481,-4.944 -8.569,-8.569c-2.088,-3.625 -3.132,-7.758 -3.132,-12.398c-0,-4.64 1.044,-8.772 3.132,-12.397c2.088,-3.625 4.944,-6.482 8.569,-8.57c3.625,-2.088 7.729,-3.132 12.311,-3.132c4.176,0 8.018,0.667 11.527,2.001c3.509,1.334 6.308,3.248 8.396,5.742l-8.787,10.44c-0.638,-0.812 -1.45,-1.551 -2.436,-2.218c-0.986,-0.667 -2.074,-1.189 -3.263,-1.566c-1.189,-0.377 -2.508,-0.566 -3.958,-0.566c-1.914,0 -3.596,0.435 -5.046,1.305c-1.45,0.87 -2.567,2.074 -3.35,3.611c-0.783,1.537 -1.174,3.291 -1.174,5.263c-0,1.972 0.377,3.712 1.131,5.22c0.754,1.508 1.87,2.726 3.349,3.654c1.479,0.928 3.176,1.392 5.09,1.392c1.45,0 2.769,-0.174 3.958,-0.522c1.189,-0.348 2.262,-0.841 3.219,-1.479c0.957,-0.638 1.784,-1.392 2.48,-2.262l8.787,10.527c-2.146,2.436 -4.974,4.321 -8.483,5.655c-3.509,1.334 -7.322,2.001 -11.44,2.001Z" style="fill-rule:nonzero;"/><path d="M1423.13,358.129l-0,-64.38l15.834,0l-0,27.405l-3.306,1.044c0.58,-2.204 1.711,-4.161 3.393,-5.872c1.682,-1.711 3.683,-3.06 6.003,-4.046c2.32,-0.986 4.756,-1.479 7.308,-1.479c3.48,0 6.423,0.711 8.83,2.132c2.407,1.421 4.234,3.538 5.481,6.351c1.247,2.813 1.871,6.249 1.871,10.309l-0,28.536l-16.182,0l-0,-27.231c-0,-1.508 -0.232,-2.769 -0.696,-3.784c-0.464,-1.015 -1.16,-1.784 -2.088,-2.306c-0.928,-0.522 -2.03,-0.754 -3.306,-0.696c-0.986,0 -1.9,0.145 -2.741,0.435c-0.841,0.29 -1.58,0.74 -2.218,1.349c-0.638,0.609 -1.117,1.29 -1.436,2.044c-0.319,0.754 -0.478,1.595 -0.478,2.523l-0,27.666l-16.269,0Z" style="fill-rule:nonzero;"/><path d="M1519.27,353.866l-0,-49.416l3.219,9.657l-13.572,6.003l-2.523,-15.399l17.835,-8.352l11.745,0l-0,57.507l-16.704,0Zm-11.832,4.263l-0,-14.877l40.629,0l-0,14.877l-40.629,0Z" style="fill-rule:nonzero;"/><path d="M1578.69,358.39c-4.35,0 -8.294,-0.797 -11.832,-2.392c-3.538,-1.595 -6.351,-3.77 -8.439,-6.525c-2.088,-2.755 -3.132,-5.873 -3.132,-9.353c-0,-2.494 0.319,-4.712 0.957,-6.655c0.638,-1.943 1.58,-3.625 2.827,-5.046c1.247,-1.421 2.784,-2.625 4.611,-3.611c1.827,-0.986 3.901,-1.769 6.221,-2.349l-1.218,4.263c-1.74,-0.638 -3.292,-1.435 -4.655,-2.392c-1.363,-0.957 -2.523,-2.059 -3.48,-3.306c-0.957,-1.247 -1.711,-2.581 -2.262,-4.002c-0.551,-1.421 -0.826,-2.973 -0.826,-4.655c-0,-3.248 0.957,-6.119 2.871,-8.613c1.914,-2.494 4.466,-4.451 7.656,-5.872c3.19,-1.421 6.757,-2.132 10.701,-2.132c3.944,0 7.511,0.711 10.701,2.132c3.19,1.421 5.742,3.378 7.656,5.872c1.914,2.494 2.871,5.365 2.871,8.613c-0,1.682 -0.247,3.234 -0.74,4.655c-0.493,1.421 -1.218,2.726 -2.175,3.915c-0.957,1.189 -2.131,2.276 -3.523,3.262c-1.392,0.986 -3.016,1.827 -4.872,2.523l-0.957,-3.915c2.146,0.464 4.103,1.146 5.872,2.045c1.769,0.899 3.306,2.059 4.611,3.48c1.305,1.421 2.306,3.103 3.002,5.046c0.696,1.943 1.044,4.19 1.044,6.742c-0,3.538 -1.044,6.685 -3.132,9.44c-2.088,2.755 -4.916,4.915 -8.483,6.481c-3.567,1.566 -7.525,2.349 -11.875,2.349Zm-0,-12.963c1.392,0 2.639,-0.275 3.741,-0.826c1.102,-0.551 1.972,-1.32 2.61,-2.306c0.638,-0.986 0.957,-2.117 0.957,-3.393c-0,-1.334 -0.305,-2.494 -0.914,-3.48c-0.609,-0.986 -1.464,-1.769 -2.566,-2.349c-1.102,-0.58 -2.378,-0.87 -3.828,-0.87c-1.392,0 -2.639,0.29 -3.741,0.87c-1.102,0.58 -1.972,1.363 -2.61,2.349c-0.638,0.986 -0.957,2.146 -0.957,3.48c-0,1.218 0.319,2.32 0.957,3.306c0.638,0.986 1.508,1.769 2.61,2.349c1.102,0.58 2.349,0.87 3.741,0.87Zm-0,-26.448c1.218,0 2.32,-0.246 3.306,-0.739c0.986,-0.493 1.754,-1.16 2.305,-2.001c0.551,-0.841 0.827,-1.842 0.827,-3.002c-0,-1.102 -0.276,-2.102 -0.827,-3.001c-0.551,-0.899 -1.319,-1.61 -2.305,-2.132c-0.986,-0.522 -2.088,-0.783 -3.306,-0.783c-1.218,0 -2.32,0.261 -3.306,0.783c-0.986,0.522 -1.755,1.233 -2.306,2.132c-0.551,0.899 -0.826,1.899 -0.826,3.001c-0,1.16 0.275,2.161 0.826,3.002c0.551,0.841 1.32,1.508 2.306,2.001c0.986,0.493 2.088,0.739 3.306,0.739Z" style="fill-rule:nonzero;"/><rect x="1610.27" y="326.287" width="44.718" height="13.398" style="fill-rule:nonzero;"/><path d="M1663.86,358.129l-2.958,-7.134l17.4,-18.705c1.044,-1.102 2.16,-2.363 3.349,-3.784c1.189,-1.421 2.349,-2.871 3.48,-4.35c1.131,-1.479 2.045,-2.929 2.741,-4.35c0.696,-1.421 1.044,-2.654 1.044,-3.698c-0,-0.812 -0.203,-1.551 -0.609,-2.218c-0.406,-0.667 -1.03,-1.218 -1.871,-1.653c-0.841,-0.435 -1.928,-0.653 -3.262,-0.653c-1.16,0 -2.262,0.276 -3.306,0.827c-1.044,0.551 -2.045,1.421 -3.002,2.61c-0.957,1.189 -1.928,2.74 -2.914,4.654l-12.615,-6.612c1.276,-3.364 3.103,-6.365 5.481,-9.004c2.378,-2.639 5.118,-4.713 8.221,-6.221c3.103,-1.508 6.366,-2.233 9.788,-2.175c3.654,0.058 6.989,0.841 10.005,2.349c3.016,1.508 5.423,3.611 7.221,6.308c1.798,2.697 2.697,5.843 2.697,9.439c-0,1.16 -0.131,2.393 -0.392,3.698c-0.261,1.305 -0.681,2.653 -1.261,4.045c-0.58,1.392 -1.334,2.886 -2.262,4.481c-0.928,1.595 -2.059,3.277 -3.393,5.046c-1.334,1.769 -2.9,3.639 -4.698,5.611l-13.833,15.051l-1.74,-8.439l30.624,0l-0,14.877l-43.935,0Z" style="fill-rule:nonzero;"/><path d="M1711.54,358.129l-2.958,-7.134l17.4,-18.705c1.044,-1.102 2.16,-2.363 3.349,-3.784c1.189,-1.421 2.349,-2.871 3.48,-4.35c1.131,-1.479 2.045,-2.929 2.741,-4.35c0.696,-1.421 1.044,-2.654 1.044,-3.698c-0,-0.812 -0.203,-1.551 -0.609,-2.218c-0.406,-0.667 -1.03,-1.218 -1.871,-1.653c-0.841,-0.435 -1.928,-0.653 -3.262,-0.653c-1.16,0 -2.262,0.276 -3.306,0.827c-1.044,0.551 -2.045,1.421 -3.002,2.61c-0.957,1.189 -1.928,2.74 -2.914,4.654l-12.615,-6.612c1.276,-3.364 3.103,-6.365 5.481,-9.004c2.378,-2.639 5.118,-4.713 8.221,-6.221c3.103,-1.508 6.366,-2.233 9.788,-2.175c3.654,0.058 6.989,0.841 10.005,2.349c3.016,1.508 5.423,3.611 7.221,6.308c1.798,2.697 2.697,5.843 2.697,9.439c-0,1.16 -0.131,2.393 -0.392,3.698c-0.261,1.305 -0.681,2.653 -1.261,4.045c-0.58,1.392 -1.334,2.886 -2.262,4.481c-0.928,1.595 -2.059,3.277 -3.393,5.046c-1.334,1.769 -2.9,3.639 -4.698,5.611l-13.833,15.051l-1.74,-8.439l30.624,0l-0,14.877l-43.935,0Z" style="fill-rule:nonzero;"/></g></svg>